<?xml version="1.0" encoding="UTF-8"?>
<svg width="64px" height="90px" viewBox="0 0 64 90" version="1.1" xmlns="http://www.w3.org/2000/svg" xmlns:xlink="http://www.w3.org/1999/xlink">
    <!-- Generator: sketchtool 48.2 (47327) - http://www.bohemiancoding.com/sketch -->
    <title>A765830D-59B2-4B34-AC54-A12159AF02A8</title>
    <desc>Created with sketchtool.</desc>
    <defs>
        <polygon id="path-1" points="8.93023256e-05 0.197685581 8.75112186 0.197685581 8.75112186 13.0976744 8.93023256e-05 13.0976744"></polygon>
        <polygon id="path-3" points="0.14196038 0.295293023 20.3124986 0.295293023 20.3124986 49.2567814 0.14196038 49.2567814"></polygon>
    </defs>
    <g id="-Product---HD" stroke="none" stroke-width="1" fill="none" fill-rule="evenodd" transform="translate(-554.000000, -2392.000000)">
        <g id="Page-1" transform="translate(554.000000, 2392.000000)">
            <path d="M14.0162084,60.0228132 C14.3436502,60.0228132 14.6088781,60.2883388 14.6088781,60.615483 L14.6088781,70.691762 C14.6088781,71.0290272 14.7017526,71.2930644 14.8877991,71.4847667 C15.0735479,71.676469 15.3352037,71.7726179 15.6721712,71.7726179 C15.8001712,71.7726179 15.9510921,71.7550551 16.1255293,71.7202272 C16.127613,71.7199295 16.1299944,71.7193341 16.1320781,71.7190365 C16.4026642,71.6642644 16.6681898,71.8303667 16.7268316,72.099762 C16.7845805,72.3640969 16.6217526,72.624562 16.3600967,72.6912411 C16.2514456,72.7186272 16.1356502,72.7436318 16.012413,72.7662551 C15.692413,72.8243016 15.4164688,72.8534737 15.1842828,72.8534737 C14.6377526,72.8534737 14.2079107,72.699576 13.8941619,72.391483 C13.580413,72.0836876 13.4235386,71.6505713 13.4235386,71.0927295 L13.4235386,60.615483 C13.4235386,60.2883388 13.6887665,60.0228132 14.0162084,60.0228132" id="Fill-1" fill="#E92046"></path>
            <path d="M18.9836502,72.155963 L18.9836502,64.259256 C18.9836502,63.9315165 19.2491758,63.6662885 19.57632,63.6662885 C19.9037619,63.6662885 20.1689898,63.9315165 20.1689898,64.259256 L20.1689898,72.155963 C20.1689898,72.4834048 19.9037619,72.7486327 19.57632,72.7486327 C19.2491758,72.7486327 18.9836502,72.4834048 18.9836502,72.155963 M18.9836502,61.1732653 L18.9836502,60.6154234 C18.9836502,60.2882792 19.2491758,60.0227537 19.57632,60.0227537 C19.9037619,60.0227537 20.1689898,60.2882792 20.1689898,60.6154234 L20.1689898,61.1732653 C20.1689898,61.5007072 19.9037619,61.7662327 19.57632,61.7662327 C19.2491758,61.7662327 18.9836502,61.5007072 18.9836502,61.1732653" id="Fill-3" fill="#E92046"></path>
            <path d="M27.8752149,71.8920151 C27.9540986,72.1331313 27.8332428,72.3938941 27.5986753,72.490043 C27.4593637,72.5471965 27.3206474,72.6019685 27.2459312,72.6266755 C27.071494,72.6850197 26.8738381,72.7374104 26.6532614,72.7835499 C26.432387,72.8296895 26.1999033,72.8532058 25.9558102,72.8532058 C25.7001079,72.8532058 25.4560149,72.8183779 25.2238288,72.748722 C24.9913451,72.6790662 24.7880335,72.5716058 24.6135963,72.4263406 C24.4394567,72.2810755 24.2998474,72.0980058 24.1953637,71.8771313 C24.0905823,71.6565546 24.0381916,71.4008523 24.0381916,71.1100244 L24.0381916,64.6076244 L23.2538195,64.6076244 C22.9939498,64.6076244 22.7831963,64.3968709 22.7831963,64.1370011 C22.7831963,63.8771313 22.9939498,63.6663779 23.2538195,63.6663779 L24.0381916,63.6663779 L24.0381916,61.1909174 C24.0381916,60.8634755 24.3037172,60.5982476 24.6311591,60.5982476 C24.9583033,60.5982476 25.2238288,60.8634755 25.2238288,61.1909174 L25.2238288,63.6663779 L26.8449637,63.6663779 C27.1048335,63.6663779 27.315587,63.8771313 27.315587,64.1370011 C27.315587,64.3968709 27.1048335,64.6076244 26.8449637,64.6076244 L25.2238288,64.6076244 L25.2238288,70.7790104 C25.2467498,71.1162755 25.3658195,71.3630476 25.5810381,71.5196244 C25.7959591,71.6764988 26.0430288,71.7550848 26.3219498,71.7550848 C26.6589172,71.7550848 26.9554009,71.7000151 27.2111033,71.5892802 C27.2134847,71.5883872 27.2161637,71.5874941 27.2185451,71.5863034 C27.4802009,71.4731872 27.7823405,71.6083313 27.8710474,71.8792151 L27.8752149,71.8920151 Z" id="Fill-5" fill="#E92046"></path>
            <path d="M34.5842307,71.8861806 C34.6643051,72.1302737 34.5416633,72.3949062 34.3038214,72.4922458 C34.1662958,72.5488039 34.0305563,72.6020876 33.956733,72.6264969 C33.7825935,72.6851388 33.58464,72.7372318 33.3640633,72.783669 C33.1431888,72.8298085 32.9107051,72.8533248 32.6669098,72.8533248 C32.4109098,72.8533248 32.1668167,72.8184969 31.9346307,72.7485434 C31.7018493,72.6788876 31.4988353,72.5717248 31.3243981,72.426162 C31.1499609,72.2808969 31.0106493,72.0981248 30.9061656,71.8772504 C30.8013842,71.6566737 30.7492912,71.4006737 30.7492912,71.1101434 L30.7492912,64.6077434 L29.9646214,64.6077434 C29.7047516,64.6077434 29.4939981,64.3969899 29.4939981,64.1371202 C29.4939981,63.8772504 29.7047516,63.6664969 29.9646214,63.6664969 L30.7492912,63.6664969 L30.7492912,61.1907388 C30.7492912,60.8635946 31.0145191,60.598069 31.3419609,60.598069 C31.6694028,60.598069 31.9346307,60.8635946 31.9346307,61.1907388 L31.9346307,63.6664969 L33.5557656,63.6664969 C33.8156353,63.6664969 34.0263888,63.8772504 34.0263888,64.1371202 C34.0263888,64.3969899 33.8156353,64.6077434 33.5557656,64.6077434 L31.9346307,64.6077434 L31.9346307,70.7788318 C31.9578493,71.1160969 32.0769191,71.362869 32.29184,71.5197434 C32.5067609,71.6766179 32.7538307,71.7552039 33.0327516,71.7552039 C33.3697191,71.7552039 33.6662028,71.7001341 33.9219051,71.5893992 C33.9245842,71.5885062 33.9269656,71.5873155 33.9296447,71.5861248 C34.1913005,71.4730085 34.4931423,71.6081527 34.5818493,71.8793341 L34.5842307,71.8861806 Z" id="Fill-7" fill="#E92046"></path>
            <path d="M37.7214214,60.0228132 C38.0488633,60.0228132 38.3140912,60.2883388 38.3140912,60.615483 L38.3140912,70.691762 C38.3140912,71.0290272 38.4069656,71.2930644 38.5930121,71.4847667 C38.7787609,71.676469 39.0404167,71.7726179 39.3773842,71.7726179 C39.5053842,71.7726179 39.6563051,71.7550551 39.8307423,71.7202272 C39.832826,71.7199295 39.8352074,71.7193341 39.8372912,71.7190365 C40.1078772,71.6642644 40.3734028,71.8303667 40.4320447,72.099762 C40.4897935,72.3640969 40.3269656,72.624562 40.0653098,72.6912411 C39.9566586,72.7186272 39.8408633,72.7436318 39.717626,72.7662551 C39.397626,72.8243016 39.1216819,72.8534737 38.8894958,72.8534737 C38.3429656,72.8534737 37.9131237,72.699576 37.5993749,72.391483 C37.285626,72.0836876 37.1287516,71.6505713 37.1287516,71.0927295 L37.1287516,60.615483 C37.1287516,60.2883388 37.3939795,60.0228132 37.7214214,60.0228132" id="Fill-9" fill="#E92046"></path>
            <path d="M48.3380093,67.728056 C49.2500837,67.728056 49.8356093,66.728763 49.3599256,65.9500467 C49.2274605,65.7336374 49.070586,65.5297304 48.8863256,65.3573769 C48.583293,65.0736932 48.2469209,64.8403165 47.8578605,64.6774885 C47.4682047,64.5146606 47.0529488,64.4333955 46.6112,64.4333955 C46.1694512,64.4333955 45.7512186,64.5146606 45.3562047,64.6774885 C44.960893,64.8403165 44.615293,65.0671444 44.319107,65.3573769 C44.0226233,65.6479072 43.784186,65.9967816 43.604093,66.4034048 C43.4237023,66.8103258 43.3165395,67.2514792 43.2817116,67.728056 L48.3380093,67.728056 Z M46.6112,72.9230699 C45.9488744,72.9230699 45.3416186,72.7980467 44.7897302,72.5482979 C44.2375442,72.298549 43.7579907,71.9556281 43.3513674,71.5195351 C42.9444465,71.0837397 42.6280186,70.581563 42.4011907,70.0118141 C42.1746605,69.4426606 42.0615442,68.8324281 42.0615442,68.1814141 C42.0615442,67.5423072 42.1746605,66.9407072 42.4011907,66.3772095 C42.6280186,65.8134141 42.9417674,65.3195723 43.3427349,64.8950885 C43.7437023,64.4712002 44.2229581,64.1342327 44.7808,63.8841862 C45.3386419,63.6344374 45.9429209,63.5094141 46.5939349,63.5094141 C47.2562605,63.5094141 47.8635163,63.6344374 48.4157023,63.8841862 C48.967293,64.1342327 49.4620279,64.4557211 49.8362047,64.9040188 C49.9463442,65.0358885 50.0469581,65.1686513 50.1386419,65.3017118 C51.1120372,66.7103072 50.0710698,68.6347723 48.3588465,68.6347723 L43.2989767,68.6347723 C43.3338047,69.1229583 43.4472186,69.5733397 43.6389209,69.9856188 C43.8306233,70.3984932 44.0773953,70.7557025 44.3798326,71.057842 C44.6819721,71.3599816 45.0275721,71.595442 45.4172279,71.7639258 C45.806586,71.9324095 46.2218419,72.0166513 46.6635907,72.0166513 C46.9541209,72.0166513 47.2446512,71.9761676 47.5351814,71.8946048 C47.8257116,71.8136374 48.0933209,71.7029025 48.3371163,71.5632932 C48.5812093,71.4239816 48.8020837,71.2525211 48.9997395,71.0489118 C49.1086884,70.9366885 49.2036465,70.8182141 49.284614,70.6934885 C49.4039814,70.5086327 49.6331907,70.4267723 49.8454326,70.4845211 C50.1963907,70.5794792 50.3395721,70.9974141 50.1234605,71.2903258 C50.0517209,71.3876653 49.9731349,71.4814327 49.8885953,71.5719258 C49.632893,71.8451909 49.3364093,72.0836281 48.9997395,72.286642 C48.6624744,72.4902513 48.2906791,72.6471258 47.8840558,72.757563 C47.4768372,72.8680002 47.0529488,72.9230699 46.6112,72.9230699 Z" id="Fill-11" fill="#E92046"></path>
            <g id="Group-15" transform="translate(0.000000, 76.384220)">
                <mask id="mask-2" fill="white">
                    <use xlink:href="#path-1"></use>
                </mask>
                <g id="Clip-14"></g>
                <path d="M4.16634047,12.0516763 C4.66583814,12.0516763 5.12217302,11.9501693 5.53474977,11.7468577 C5.94732651,11.543546 6.30185674,11.2702809 6.59834047,10.92736 C6.89452651,10.5844391 7.12701023,10.1950809 7.29549395,9.75928558 C7.46397767,9.32349023 7.54821953,8.87310884 7.54821953,8.40843907 C7.54821953,7.93186233 7.46993116,7.47284837 7.31305674,7.03109953 C7.15618233,6.5893507 6.93530791,6.19731349 6.65043349,5.85439256 C6.36555907,5.5117693 6.02293581,5.23850419 5.62196837,5.03519256 C5.22100093,4.83188093 4.78222884,4.7297786 4.30594977,4.7297786 C3.94546605,4.7297786 3.6084986,4.79080186 3.29474977,4.91314605 C2.98100093,5.03519256 2.6904707,5.20040186 2.42315907,5.40996465 C2.15584744,5.61922977 1.91770791,5.86034605 1.70844279,6.13331349 C1.49917767,6.4065786 1.32503814,6.69413209 1.18542884,6.99627163 L1.18542884,9.82030884 C1.23186605,10.1343553 1.3568893,10.4278623 1.56020093,10.7008298 C1.76351256,10.9737972 2.00760558,11.2092577 2.29248,11.4066158 C2.57705674,11.6045693 2.88514977,11.761146 3.2164614,11.8772391 C3.54747535,11.9939274 3.86390326,12.0516763 4.16634047,12.0516763 M4.4452614,13.0977042 C3.72459163,13.0977042 3.06524279,12.9176112 2.46691721,12.5571274 C1.86799628,12.1972391 1.40034977,11.7322716 1.06338233,11.1628205 L1.06338233,12.3919181 C1.06338233,12.6854251 0.825242791,12.9235647 0.531735814,12.9235647 C0.237931163,12.9235647 8.93023256e-05,12.6854251 8.93023256e-05,12.3919181 L8.93023256e-05,0.790057674 C8.93023256e-05,0.462615814 0.265317209,0.197685581 0.59275907,0.197685581 C0.92020093,0.197685581 1.18542884,0.462615814 1.18542884,0.790057674 L1.18542884,5.74127628 C1.59205209,5.12509023 2.08023814,4.6285693 2.6496893,4.25052279 C3.21914047,3.87307163 3.88146605,3.68404837 4.6372614,3.68404837 C5.2760707,3.68404837 5.8484986,3.81770419 6.35424744,4.08501581 C6.8596986,4.35262512 7.28954047,4.70983442 7.64436837,5.15723907 C7.99860093,5.60464372 8.27186605,6.11009488 8.46356837,6.67389023 C8.6552707,7.23768558 8.75112186,7.8157693 8.75112186,8.40843907 C8.75112186,9.04754605 8.64068465,9.65182512 8.42010791,10.2212763 C8.19893581,10.7910251 7.89709395,11.2878437 7.51339163,11.7117321 C7.12998698,12.1362158 6.67365209,12.4731833 6.14498233,12.7229321 C5.61601488,12.9726809 5.04954047,13.0977042 4.4452614,13.0977042" id="Fill-13" fill="#E92046" mask="url(#mask-2)"></path>
            </g>
            <path d="M16.159226,80.7614625 C16.159226,81.0412765 15.9496633,81.2728672 15.6725284,81.3112672 C15.0718214,81.3949137 14.5369005,81.6020951 14.0674679,81.9337044 C13.4745005,82.3519369 13.0562679,82.9270439 12.8121749,83.659323 L12.8121749,88.7498532 C12.8121749,89.0576485 12.562426,89.3076951 12.254333,89.3076951 L12.1846772,89.3076951 C11.8765842,89.3076951 11.6268353,89.0576485 11.6268353,88.7498532 L11.6268353,80.7828951 C11.6268353,80.474802 11.8765842,80.2250532 12.1846772,80.2250532 C12.4927702,80.2250532 12.7425191,80.474802 12.7425191,80.7828951 L12.7425191,82.4043276 C13.0794865,81.7068765 13.532547,81.1609416 14.1022958,80.7656299 C14.4041377,80.5560672 14.7161005,80.3974067 15.0426493,80.3036392 C15.2016074,80.2577974 15.37664,80.228923 15.5400633,80.2107648 C15.8701842,80.1744485 16.159226,80.4295555 16.159226,80.7614625" id="Fill-16" fill="#E92046"></path>
            <path d="M21.0573395,88.575416 C21.6732279,88.575416 22.24,88.459323 22.7570605,88.2265416 C23.2741209,87.9943555 23.6664558,87.6862625 23.9337674,87.3028579 C24.0385488,87.1980765 24.1168372,87.0849602 24.1692279,86.9629137 C24.2213209,86.8408672 24.2475163,86.7274532 24.2475163,86.6226718 L24.2475163,85.1411462 C23.8525023,84.9902253 23.4426047,84.8738346 23.0184186,84.7925695 C22.5942326,84.7113044 22.161414,84.670523 21.7199628,84.670523 C20.8832,84.670523 20.203014,84.8449602 19.6802977,85.1935369 C19.1572837,85.5421137 18.8956279,86.0014253 18.8956279,86.5708765 C18.8956279,86.8494997 18.9506977,87.1111555 19.0614326,87.3549509 C19.1718698,87.5993416 19.3227907,87.8112858 19.514493,87.9913788 C19.7061953,88.1717695 19.9357023,88.3137602 20.203014,88.4185416 C20.4703256,88.5230253 20.7549023,88.575416 21.0573395,88.575416 Z M24.4043907,87.7907462 C23.9861581,88.3372765 23.4601674,88.755509 22.8267163,89.0460392 C22.1932651,89.3365695 21.5106977,89.4818346 20.7784186,89.4818346 C20.3482791,89.4818346 19.950586,89.409202 19.5844465,89.2639369 C19.218307,89.1186718 18.8986047,88.9183369 18.6256372,88.6626346 C18.3523721,88.4072299 18.1401302,88.1077695 17.9892093,87.7645509 C17.8382884,87.4222253 17.7626791,87.053109 17.7626791,86.6577974 C17.7626791,86.2627834 17.8555535,85.8966439 18.0416,85.5593788 C18.2273488,85.2224113 18.4890047,84.9318811 18.8259721,84.6877881 C19.1629395,84.4436951 19.563907,84.2549695 20.0288744,84.1213137 C20.4935442,83.9879555 21.0052465,83.9206811 21.5630884,83.9206811 C22.0277581,83.9206811 22.4983814,83.9617602 22.9749581,84.0427276 C23.4512372,84.1242904 23.8754233,84.2403834 24.2475163,84.3913044 L24.2475163,83.5721044 C24.2475163,82.7701695 24.020986,82.1337416 23.5676279,81.6631183 C23.1145674,81.1924951 22.4867721,80.9573323 21.6848372,80.9573323 C21.2198698,80.9573323 20.7435907,81.0505044 20.2554047,81.2362532 C19.8943256,81.3740765 19.5296744,81.5559555 19.1623442,81.7827834 C18.9477209,81.9149509 18.6655256,81.8348765 18.5467535,81.6125137 C18.437507,81.4077137 18.5050791,81.151416 18.7033302,81.0302625 C19.7544186,80.3890718 20.7775256,80.0681788 21.7720558,80.0681788 C22.9109581,80.0681788 23.8057674,80.3878811 24.4567814,81.0272858 C25.1074977,81.6663927 25.4331535,82.5495927 25.4331535,83.6768858 L25.4331535,87.7734811 L25.4331535,88.7942067 C25.4331535,89.0793788 25.2015628,89.3109695 24.916093,89.3109695 C24.6297302,89.3109695 24.3978419,89.0778904 24.3993302,88.7918253 L24.4043907,87.7907462 Z" id="Fill-18" fill="#E92046"></path>
            <path d="M59.3551479,88.575416 C59.9710363,88.575416 60.5378084,88.459323 61.0548688,88.2265416 C61.5719293,87.9943555 61.9642642,87.6862625 62.2315758,87.3028579 C62.3363572,87.1980765 62.4146456,87.0849602 62.4670363,86.9629137 C62.519427,86.8408672 62.5456223,86.7274532 62.5456223,86.6226718 L62.5456223,85.1411462 C62.1503107,84.9902253 61.7407107,84.8738346 61.3165247,84.7925695 C60.8920409,84.7113044 60.4592223,84.670523 60.0177712,84.670523 C59.1810084,84.670523 58.50112,84.8449602 57.978106,85.1935369 C57.4550921,85.5421137 57.1934363,86.0014253 57.1934363,86.5708765 C57.1934363,86.8494997 57.2488037,87.1111555 57.3592409,87.3549509 C57.4693805,87.5993416 57.6208967,87.8112858 57.8123014,87.9913788 C58.0043014,88.1717695 58.2335107,88.3137602 58.50112,88.4185416 C58.768134,88.5230253 59.0527107,88.575416 59.3551479,88.575416 Z M62.7021991,87.7907462 C62.2839665,88.3372765 61.7579758,88.755509 61.1245247,89.0460392 C60.4910735,89.3365695 59.808506,89.4818346 59.076227,89.4818346 C58.6460874,89.4818346 58.2480967,89.409202 57.8822549,89.2639369 C57.5161153,89.1186718 57.196413,88.9183369 56.9234456,88.6626346 C56.6501805,88.4072299 56.4379386,88.1077695 56.2870177,87.7645509 C56.1360967,87.4222253 56.0604874,87.053109 56.0604874,86.6577974 C56.0604874,86.2627834 56.1533619,85.8966439 56.3394084,85.5593788 C56.5251572,85.2224113 56.7865153,84.9318811 57.1237805,84.6877881 C57.4607479,84.4436951 57.8617153,84.2549695 58.3266828,84.1213137 C58.7913526,83.9879555 59.3027572,83.9206811 59.8605991,83.9206811 C60.3255665,83.9206811 60.7961898,83.9617602 61.2727665,84.0427276 C61.7493433,84.1242904 62.1735293,84.2403834 62.5456223,84.3913044 L62.5456223,83.5721044 C62.5456223,82.7701695 62.3187944,82.1337416 61.865734,81.6631183 C61.4123758,81.1924951 60.7848781,80.9573323 59.9826456,80.9573323 C59.5179758,80.9573323 59.0413991,81.0505044 58.5535107,81.2362532 C58.192134,81.3740765 57.8274828,81.5559555 57.4601526,81.7827834 C57.2455293,81.9149509 56.963334,81.8348765 56.8445619,81.6125137 C56.7353153,81.4077137 56.8031851,81.151416 57.0011386,81.0302625 C58.052227,80.3890718 59.075334,80.0681788 60.0698642,80.0681788 C61.2090642,80.0681788 62.1035758,80.3878811 62.7545898,81.0272858 C63.405306,81.6663927 63.7306642,82.5495927 63.7306642,83.6768858 L63.7306642,87.7734811 L63.7306642,88.7942067 C63.7306642,89.0793788 63.4993712,89.3109695 63.2141991,89.3109695 C62.9275386,89.3109695 62.6959479,89.0778904 62.6974363,88.7918253 L62.7021991,87.7907462 Z" id="Fill-20" fill="#E92046"></path>
            <path d="M35.909507,89.3076951 C35.5820651,89.3076951 35.3165395,89.0421695 35.3165395,88.7150253 L35.3165395,84.2347276 C35.3165395,83.200309 35.1394233,82.4278439 34.7851907,81.9161416 C34.4303628,81.4047369 33.9103256,81.1490346 33.2247814,81.1490346 C32.8875163,81.1490346 32.5538233,81.2160113 32.2225116,81.3496672 C31.8912,81.483323 31.5801302,81.6663927 31.2896,81.8985788 C30.9990698,82.1313602 30.7463442,82.4043276 30.5314233,82.7177788 C30.3162047,83.0318253 30.1566512,83.3747462 30.0521674,83.7465416 L30.0521674,88.7150253 C30.0521674,89.0421695 29.7866419,89.3076951 29.4594977,89.3076951 C29.1320558,89.3076951 28.8665302,89.0421695 28.8665302,88.7150253 L28.8665302,77.1741881 C28.8665302,76.8470439 29.1320558,76.581816 29.4594977,76.581816 C29.7866419,76.581816 30.0521674,76.8470439 30.0521674,77.1741881 L30.0521674,82.2819834 C30.4120558,81.5967369 30.9118512,81.0561602 31.5512558,80.6608485 C32.1903628,80.2661323 32.8818605,80.0681788 33.6257488,80.0681788 C34.1487628,80.0681788 34.590214,80.1640299 34.9506977,80.3560299 C35.310586,80.5474346 35.6070698,80.8153416 35.8398512,81.1576672 C36.0720372,81.5005881 36.2405209,81.9134625 36.3453023,82.3953974 C36.449786,82.8779276 36.5021767,83.4098718 36.5021767,83.9906346 L36.5021767,88.7150253 C36.5021767,89.0421695 36.2369488,89.3076951 35.909507,89.3076951" id="Fill-22" fill="#E92046"></path>
            <path d="M52.8185153,89.3076951 C52.4910735,89.3076951 52.2258456,89.0421695 52.2258456,88.7150253 L52.2258456,84.2347276 C52.2258456,83.1770904 52.0570642,82.3983741 51.7200967,81.8985788 C51.3831293,81.3993788 50.883334,81.1490346 50.2207107,81.1490346 C49.8724316,81.1490346 49.5437991,81.2130346 49.2360037,81.3407369 C48.9279107,81.4687369 48.643334,81.6488299 48.3819758,81.8813137 C48.12032,82.1137974 47.8905153,82.3897416 47.6931572,82.7091462 C47.4955014,83.0291462 47.3445805,83.380402 47.2397991,83.7641044 L47.2397991,88.7150253 C47.2397991,89.0421695 46.9745712,89.3076951 46.6471293,89.3076951 C46.3196874,89.3076951 46.0544595,89.0421695 46.0544595,88.7150253 L46.0544595,84.2347276 C46.0544595,83.1538718 45.8916316,82.369202 45.5662735,81.8813137 C45.2409153,81.3931276 44.74112,81.1490346 44.0671851,81.1490346 C43.3813433,81.1490346 42.7711107,81.3874718 42.2367851,81.8637509 C41.7021619,82.3406253 41.3184595,82.968123 41.0862735,83.7465416 L41.0862735,88.7150253 C41.0862735,89.0421695 40.8207479,89.3076951 40.4936037,89.3076951 C40.1661619,89.3076951 39.9006363,89.0421695 39.9006363,88.7150253 L39.9006363,80.7656299 C39.9006363,80.4670625 40.1426456,80.2250532 40.441213,80.2250532 C40.7394828,80.2250532 40.9814921,80.4670625 40.9814921,80.7656299 L40.9814921,82.2819834 C41.3532874,81.5848299 41.8414735,81.0415741 42.4460502,80.652216 C43.0500316,80.2628579 43.7186084,80.0681788 44.4505898,80.0681788 C45.2176967,80.0681788 45.8306084,80.2833974 46.28992,80.7132392 C46.7486363,81.1433788 47.0308316,81.7068765 47.1353153,82.4043276 C47.9833898,80.8468951 49.1517619,80.0681788 50.6395386,80.0681788 C51.1503479,80.0681788 51.5834642,80.1613509 51.9379944,80.3470997 C52.292227,80.5331462 52.5768037,80.7977788 52.79232,81.140402 C53.0072409,81.483323 53.1641153,81.8961974 53.2629433,82.3781323 C53.3614735,82.8606625 53.4111851,83.3976672 53.4111851,83.9906346 L53.4111851,88.7150253 C53.4111851,89.0421695 53.1459572,89.3076951 52.8185153,89.3076951" id="Fill-24" fill="#E92046"></path>
            <g id="Group-28" transform="translate(18.455814, 0.002381)">
                <mask id="mask-4" fill="white">
                    <use xlink:href="#path-3"></use>
                </mask>
                <g id="Clip-27"></g>
                <path d="M7.39759628,41.4612837 C6.88083349,40.5515907 6.50397767,39.551107 6.26226605,38.5592558 C5.59994047,35.840893 5.67852651,33.6330419 6.69746605,30.3440372 C7.68514977,27.1562419 9.59621953,23.0778047 11.2631963,19.0836093 C13.3341172,14.1216744 14.9656707,9.62738605 15.1892242,7.10548837 C15.3719963,5.04855814 14.7608707,3.30894884 14.1917172,2.18016744 C14.1428986,2.07032558 13.8866009,1.52260465 13.4656893,0.973395349 C13.3841265,0.86027907 13.0111405,0.446511628 12.8247963,0.295293023 C12.8247963,0.295293023 13.1593823,2.5448186 12.1588986,5.5656186 C11.1232893,8.31285581 9.35510326,11.6789581 6.45992186,17.2505302 C3.30963349,23.3132651 0.119456744,28.6636651 0.14208,35.9855628 C0.165298605,43.4866605 6.0836614,49.2567814 13.4130009,49.2567814 C15.8506567,49.2567814 18.3341544,48.7126326 20.2973172,47.565693 L20.3124986,47.5576558 C19.6635684,47.6624372 11.1194195,48.0098233 7.39759628,41.4612837" id="Fill-26" fill="#E92046" mask="url(#mask-4)"></path>
            </g>
            <path d="M44.2890121,31.429626 C42.9045284,28.5374214 40.1197842,26.8246028 38.2658679,25.7148726 C36.7417749,24.8027981 36.8108353,23.3772353 36.8108353,23.3772353 L36.0779609,25.4838772 C35.3004353,27.8369935 36.2401935,29.6263144 37.9589656,30.7937935 C38.0649377,30.865533 38.1691237,30.9381656 38.2709284,31.0102028 C39.3639888,31.7874307 39.8491981,32.7006958 40.0638214,33.3907051 C40.2564167,34.0110586 40.2302214,34.4513191 40.2302214,34.4513191 C40.2302214,36.7335888 38.3801749,38.5836353 36.0979051,38.5836353 C33.815933,38.5836353 31.9658865,36.7335888 31.9658865,34.4513191 C31.9658865,34.1929377 32.0525098,33.6205098 32.0525098,33.6205098 C32.70144,30.2585749 36.0264633,23.8091609 37.0513563,19.6122493 C38.1426307,15.144454 35.1492167,10.8534772 35.1492167,10.8534772 C35.1492167,10.8534772 35.8567888,12.4460353 31.5217563,22.1779051 C29.5076912,26.6995795 28.2711516,29.5899981 27.6243051,31.3754493 C26.9357842,33.2740167 26.952454,34.7891795 26.952454,35.332733 C26.952454,40.3708726 31.051133,44.4516912 36.0964167,44.4225191 C41.0785935,44.3939423 45.090054,40.2952633 45.1326214,35.3130865 C45.1454214,33.823226 44.8203609,32.539654 44.2890121,31.429626" id="Fill-29" fill="#E92046"></path>
        </g>
    </g>
</svg>