<?xml version="1.0" encoding="UTF-8"?>
<svg width="132px" height="24px" viewBox="0 0 132 24" version="1.1" xmlns="http://www.w3.org/2000/svg" xmlns:xlink="http://www.w3.org/1999/xlink">
    <!-- Generator: sketchtool 48.2 (47327) - http://www.bohemiancoding.com/sketch -->
    <title>C0ED22DB-9F06-48B7-9C41-5E6B39D8C25B</title>
    <desc>Created with sketchtool.</desc>
    <defs>
        <linearGradient x1="14.9651931%" y1="85.1522179%" x2="84.6175348%" y2="15.2984516%" id="linearGradient-1">
            <stop stop-color="#F05844" offset="13%"></stop>
            <stop stop-color="#603D97" offset="100%"></stop>
        </linearGradient>
    </defs>
    <g id="Megamenu-Products-&amp;-Services---Tablet" stroke="none" stroke-width="1" fill="none" fill-rule="evenodd" transform="translate(-34.000000, -13.000000)">
        <g id="Logo" transform="translate(34.000000, 13.000000)" fill-rule="nonzero">
            <path d="M38.3463687,16.68 L37.4540782,16.68 C36.6790605,16.6800108 36.0496443,16.0432174 36.0455866,15.255 L36.0455866,12.4725 L32.292067,12.4725 L32.292067,15.255 C32.2880094,16.0432174 31.6585931,16.6800108 30.8835754,16.68 L29.9765363,16.68 C29.8164647,16.6800509 29.685566,16.5502493 29.6815642,16.3875 L29.6815642,6.8625 C29.685566,6.69975073 29.8164647,6.56994912 29.9765363,6.57 L30.8762011,6.57 C31.6512188,6.5699892 32.2806351,7.2067826 32.2846927,7.995 L32.2846927,10.5 L36.0382123,10.5 L36.0382123,7.995 C36.04227,7.2067826 36.6716862,6.5699892 37.4467039,6.57 L38.3463687,6.57 C38.5064404,6.56994912 38.637339,6.69975073 38.6413408,6.8625 L38.6413408,16.3875 C38.637339,16.5502493 38.5064404,16.6800509 38.3463687,16.68 Z" id="_Compound_Path_" fill="#603C96"></path>
            <path d="M50.5803352,16.68 L49.2160894,16.68 C48.6257159,16.6835702 48.0958027,16.3122964 47.8887151,15.75 L47.5863687,14.9175 L43.9950838,14.9175 L43.6558659,15.75 C43.4411591,16.2953532 42.9208381,16.6521106 42.3432402,16.65 L40.9863687,16.65 C40.8903003,16.6488544 40.8007996,16.6001964 40.746495,16.5195901 C40.6921903,16.4389837 40.6798867,16.3365298 40.7135196,16.245 L44.3343017,6.75 C44.3792938,6.63688001 44.4871715,6.56274718 44.6071508,6.5625 L47.0406704,6.5625 C47.1624868,6.56395901 47.2708893,6.64143216 47.3135196,6.7575 L50.8826816,16.275 C50.9186545,16.3716466 50.9031871,16.4803194 50.8417439,16.562624 C50.7803007,16.6449285 50.6815328,16.6892767 50.5803352,16.68 Z M46.8931844,12.93 L45.8165363,9.705 L44.7251397,12.93 L46.8931844,12.93 Z" id="_Compound_Path_2" fill="#603C96"></path>
            <path d="M59.8498324,13.32 C59.9843942,14.8271581 59.0608344,16.2235875 57.6375419,16.665 C57.0988499,16.8525123 56.5329322,16.9463267 55.9635754,16.9425 C54.8043306,16.9429218 53.6706544,16.5959783 52.7041341,15.945 C52.5785994,15.8592182 52.5371937,15.6907719 52.6082682,15.555 L52.8589944,15.075 C53.2091547,14.4017894 54.0179107,14.1276088 54.6951955,14.4525 C55.065843,14.643463 55.4743878,14.7460577 55.8898324,14.7525 C56.1946496,14.7628479 56.4954163,14.6791848 56.7526257,14.5125 C57.0128205,14.3561646 57.1704866,14.0698189 57.1655866,13.7625 C57.1568588,13.4470778 56.9822859,13.1607092 56.7083799,13.0125 C56.3521256,12.8080245 55.9700332,12.6540964 55.5727374,12.555 C54.9287151,12.36 54.5231285,12.2275 54.3559777,12.1575 C54.1126138,12.0580325 53.884228,11.9242197 53.6775419,11.76 C53.1114407,11.2564743 52.8087354,10.5131606 52.8589944,9.75 C52.8288651,8.89336576 53.1246947,8.05790812 53.6849162,7.4175 C54.3454006,6.685531 55.2899779,6.28753578 56.2659218,6.33 C57.2724268,6.33351265 58.265322,6.56674509 59.1713966,7.0125 C59.2421597,7.04792407 59.2960267,7.1106946 59.3209678,7.18679313 C59.3459088,7.26289166 59.3398463,7.34597923 59.3041341,7.4175 L59.0460335,7.92 C58.7225328,8.53666927 58.0119744,8.83015542 57.3573184,8.6175 C57.1374833,8.54874714 56.9088753,8.51336599 56.6788827,8.5125 C56.4176097,8.51127885 56.1615461,8.58680306 55.9414525,8.73 C55.7095404,8.86258059 55.5658216,9.11192694 55.5653631,9.3825 C55.5911764,9.68801239 55.7814651,9.95375822 56.0594413,10.0725 C56.4844362,10.2521447 56.9235231,10.3951479 57.372067,10.5 C58.1289265,10.6715373 58.8160206,11.0745939 59.3410056,11.655 C59.6994258,12.1310493 59.8797727,12.7211866 59.8498324,13.32 Z" id="_Compound_Path_3" fill="#603C96"></path>
            <path d="M70.9112849,16.68 L70.0116201,16.68 C69.6355218,16.6860137 69.2726833,16.5387791 69.0039528,16.2711033 C68.7352223,16.0034275 68.5829285,15.6375513 68.5810056,15.255 L68.5810056,12.4725 L64.8422346,12.4725 L64.8422346,15.255 C64.8402927,15.6362342 64.6890112,16.000955 64.4218844,16.2684121 C64.1547576,16.5358692 63.7938236,16.6839972 63.4189944,16.68 L62.5340782,16.68 C62.3740066,16.6800509 62.2431079,16.5502493 62.2391061,16.3875 L62.2391061,6.8625 C62.2431079,6.69975073 62.3740066,6.56994912 62.5340782,6.57 L63.4189944,6.57 C64.1940121,6.5699892 64.8234283,7.2067826 64.827486,7.995 L64.827486,10.5 L68.5810056,10.5 L68.5810056,7.995 C68.5850633,7.2067826 69.2144795,6.5699892 69.9894972,6.57 L70.889162,6.57 C71.0492337,6.56994912 71.1801323,6.69975073 71.1841341,6.8625 L71.1841341,16.3875 C71.1807629,16.5418908 71.0627008,16.6684559 70.9112849,16.68 Z" id="_Compound_Path_4" fill="#603C96"></path>
            <path d="M88.1081564,6.9525 L85.0994413,16.5 C85.0583541,16.621601 84.9456424,16.7030507 84.8192179,16.7025 L83.4107263,16.7025 C82.7948407,16.7058398 82.2482458,16.3018164 82.0612291,15.705 L80.5494972,10.8375 L78.956648,15.72 C78.765274,16.3082393 78.2237406,16.7046684 77.6145251,16.7025 L76.2060335,16.7025 C76.0905769,16.6910162 75.9924589,16.6117709 75.9553073,16.5 L73.1456983,6.975 C73.1170062,6.88484739 73.1330322,6.78614425 73.1886993,6.71015962 C73.2443664,6.63417498 73.3327767,6.59032452 73.4259218,6.5925 L74.6721788,6.5925 C75.309874,6.59025775 75.8694915,7.02404728 76.0364246,7.65 L77.5112849,13.1325 L79.3106145,7.575 C79.5019886,6.98676071 80.0435219,6.59033163 80.6527374,6.5925 C81.2726308,6.59120032 81.8204867,7.00224539 82.0022346,7.605 L83.6688268,13.1325 L85.261676,7.62 C85.4388483,7.00863561 85.9918688,6.58985715 86.6185475,6.5925 L87.8721788,6.5925 C87.9522443,6.60483342 88.0234874,6.65092504 88.0684062,6.71945184 C88.1133251,6.78797864 88.127757,6.87258999 88.1081564,6.9525 Z" id="_Compound_Path_5" fill="#603C96"></path>
            <path d="M100.659218,11.625 C100.675972,12.9617512 100.190688,14.254652 99.3023464,15.24 C98.1952078,16.3712619 96.6905032,17.0072416 95.1211173,17.0072416 C93.5517315,17.0072416 92.0470268,16.3712619 90.9398883,15.24 C90.0515465,14.254652 89.5662629,12.9617512 89.5830168,11.625 C89.5902171,10.9651004 89.7151476,10.3120117 89.9517318,9.6975 C90.7228253,7.92438359 92.3104775,6.65740654 94.1872591,6.31746761 C96.0640407,5.97752867 97.9841528,6.60914906 99.3097207,8.0025 C100.193293,8.99329527 100.67542,10.2874856 100.659218,11.625 Z M97.9602235,11.625 C97.9717334,10.9426048 97.7294221,10.2809628 97.2817877,9.7725 C96.3190124,8.66297145 94.6954373,8.45415584 93.4913966,9.285 C92.8371981,9.73596642 92.4039735,10.4500577 92.3010929,11.2469972 C92.1982124,12.0439368 92.4355079,12.8475646 92.9530726,13.455 C93.4842128,14.1178436 94.2880821,14.4919866 95.1284916,14.4675 C95.9529572,14.4916075 96.7441146,14.1361316 97.2817877,13.5 C97.7327549,12.984637 97.9751477,12.3147335 97.9602235,11.625 Z" id="_Compound_Path_6" fill="#603C96"></path>
            <path d="M110.791508,16.68 L108.918436,16.68 C108.439664,16.6806461 107.993001,16.4351675 107.731173,16.0275 L105.666369,12.795 L105.666369,15.255 C105.662311,16.0432174 105.032895,16.6800108 104.257877,16.68 L103.358212,16.68 C103.198141,16.6800509 103.067242,16.5502493 103.06324,16.3875 L103.06324,6.8625 C103.067242,6.69975073 103.198141,6.56994912 103.358212,6.57 L107.111732,6.57 C108.103818,6.48865493 109.075894,6.88577929 109.736983,7.6425 C110.19761,8.21793916 110.443165,8.94059207 110.430168,9.6825 C110.47,10.4776914 110.184367,11.2541727 109.641117,11.8275 C109.252912,12.1954081 108.769291,12.4426415 108.247374,12.54 L111.03486,16.215 C111.100023,16.3055744 111.108484,16.4260827 111.056636,16.5251548 C111.004788,16.6242269 110.901775,16.6843908 110.791508,16.68 Z M107.723799,9.8175 C107.729084,9.4716686 107.586476,9.14054034 107.332961,8.91 C106.993232,8.64869615 106.569881,8.52567694 106.145698,8.565 L105.658994,8.565 L105.658994,11.085 L106.145698,11.085 C106.570084,11.1265512 106.994217,11.0033048 107.332961,10.74 C107.586026,10.5059688 107.72832,10.1728409 107.723799,9.825 L107.723799,9.8175 Z" id="_Compound_Path_7" fill="#603C96"></path>
            <path d="M121.956201,16.68 L119.898771,16.68 C119.464703,16.6807464 119.054283,16.4789495 118.785251,16.1325 L115.835531,12.2925 L115.835531,15.255 C115.831473,16.0432174 115.202057,16.6800108 114.427039,16.68 L113.527374,16.68 C113.367303,16.6800509 113.236404,16.5502493 113.232402,16.3875 L113.232402,6.8625 C113.236404,6.69975073 113.367303,6.56994912 113.527374,6.57 L114.427039,6.57 C115.202057,6.5699892 115.831473,7.2067826 115.835531,7.995 L115.835531,10.74 L118.586145,7.125 C118.855281,6.7736575 119.269122,6.56874772 119.707039,6.57 L121.587486,6.57 C121.702147,6.56718462 121.807491,6.63392746 121.855554,6.73984028 C121.903618,6.84575309 121.885211,6.97058516 121.808715,7.0575 L118.246927,11.3625 L122.184804,16.2075 C122.252675,16.2959097 122.264858,16.4160064 122.216166,16.5166475 C122.167475,16.6172886 122.066484,16.6807473 121.956201,16.68 Z" id="_Compound_Path_8" fill="#603C96"></path>
            <path d="M131.41743,13.32 C131.551992,14.8271581 130.628432,16.2235875 129.20514,16.665 C128.666482,16.8526518 128.100541,16.9464701 127.531173,16.9425 C126.371928,16.9429218 125.238252,16.5959783 124.271732,15.945 C124.146197,15.8592182 124.104791,15.6907719 124.175866,15.555 L124.426592,15.075 C124.776752,14.4017894 125.585508,14.1276088 126.262793,14.4525 C126.633441,14.643463 127.041986,14.7460577 127.45743,14.7525 C127.762247,14.7628479 128.063014,14.6791848 128.320223,14.5125 C128.580418,14.3561646 128.738084,14.0698189 128.733184,13.7625 C128.724457,13.4470778 128.549884,13.1607092 128.275978,13.0125 C127.919763,12.8079393 127.537659,12.6540064 127.140335,12.555 C126.496313,12.36 126.090726,12.2275 125.923575,12.1575 C125.680212,12.0580325 125.451826,11.9242197 125.24514,11.76 C124.679038,11.2564743 124.376333,10.5131606 124.426592,9.75 C124.396463,8.89336576 124.692292,8.05790812 125.252514,7.4175 C125.912998,6.685531 126.857576,6.28753578 127.83352,6.33 C128.840025,6.33351265 129.83292,6.56674509 130.738994,7.0125 C130.809757,7.04792407 130.863624,7.1106946 130.888566,7.18679313 C130.913507,7.26289166 130.907444,7.34597923 130.871732,7.4175 L130.613631,7.92 C130.290131,8.53666927 129.579572,8.83015542 128.924916,8.6175 C128.705081,8.54874714 128.476473,8.51336599 128.24648,8.5125 C127.985207,8.51127885 127.729144,8.58680306 127.50905,8.73 C127.277138,8.86258059 127.133419,9.11192694 127.132961,9.3825 C127.158774,9.68801239 127.349063,9.95375822 127.627039,10.0725 C128.053247,10.26537 128.494846,10.4209333 128.947039,10.5375 C129.703899,10.7090373 130.390993,11.1120939 130.915978,11.6925 C131.263485,12.1595245 131.440733,12.734796 131.41743,13.32 Z" id="_Compound_Path_9" fill="#603C96"></path>
            <path d="M13.5569558,17.1890889 C13.207269,18.0321048 12.3904663,18.5758022 11.4909066,18.5643361 L10.6502362,18.5643361 C10.2436747,18.5855873 9.85850215,18.7561398 9.56621382,19.0443361 C9.2810258,19.3373214 9.11285628,19.7274973 9.09425851,20.1393361 L9.09425851,20.7768361 C9.15877552,21.4454138 8.92617806,22.1083381 8.46006857,22.5843361 C8.0446743,23.0102895 7.479222,23.2498823 6.88934231,23.2498823 C6.29946262,23.2498823 5.73401032,23.0102895 5.31861605,22.5843361 C4.66278614,21.9121765 4.49094027,20.8943322 4.88873862,20.0381692 C5.28653698,19.1820061 6.16883101,18.6707855 7.09582276,18.7593361 L7.7226384,18.7593361 C8.13300935,18.7521727 8.52449203,18.5826875 8.81403505,18.2868361 C9.09683755,17.9891819 9.26443519,17.5976694 9.28599035,17.1843361 L9.28599035,16.3293361 C9.28059549,15.725011 9.5144652,15.1438852 9.9349289,14.7168361 C10.3515918,14.2895558 10.9191859,14.0498381 11.5108836,14.0512474 C12.1025813,14.0526567 12.6690652,14.2950756 13.0837557,14.7243361 C13.7195651,15.3716447 13.9066425,16.346073 13.5569558,17.1890889 Z M4.44107415,15.4743361 C4.46036403,15.0626621 4.62842958,14.6727274 4.91302946,14.3793361 C5.20531779,14.0911398 5.59049033,13.9205873 5.99705181,13.8993361 L6.60174454,13.8993361 C7.82355885,13.959397 8.86190806,13.0007268 8.92096242,11.7580861 C8.98001678,10.5154454 8.0374136,9.45939704 6.81559929,9.39933608 L6.00442611,9.39933608 C5.59671778,9.37990217 5.20942256,9.21222987 4.91302946,8.92683608 C4.61987415,8.63633888 4.45042476,8.24050066 4.44107415,7.82433608 L4.44107415,7.18683608 C4.5175145,6.52157149 4.29855876,5.85625689 3.84375572,5.37183608 C3.42807821,4.94356722 2.86103949,4.7025 2.26934231,4.7025 C1.67764512,4.7025 1.11060641,4.94356722 0.694928901,5.37183608 C0.0360155391,6.04578455 -0.135459744,7.06812742 0.266502563,7.92613198 C0.668464869,8.78413654 1.5571604,9.29272886 2.48688421,9.19683608 L3.10632555,9.19683608 C3.94851244,9.23104917 4.62466303,9.91546593 4.6623032,10.7718361 L4.6623032,11.5218361 C4.6623032,11.5818361 4.6623032,11.6418361 4.6623032,11.7018361 L4.6623032,12.4518361 C4.64074804,12.8651694 4.4731504,13.2566819 4.1903479,13.5543361 C3.90865914,13.8622129 3.51940829,14.0453438 3.10632555,14.0643361 L2.22140935,14.0643361 C1.6323161,14.062868 1.06697513,14.3004173 0.650683091,14.7243361 C0.234135665,15.1465153 1.6374239e-16,15.7199953 0,16.3180861 C-1.6374239e-16,16.9161769 0.234135665,17.4896569 0.650683091,17.9118361 C1.0663606,18.3401049 1.63339931,18.5811722 2.2250965,18.5811722 C2.81679368,18.5811722 3.3838324,18.3401049 3.79950991,17.9118361 C4.25120992,17.4480958 4.48262361,16.8077025 4.43369985,16.1568361 L4.44107415,15.4743361 Z M20.7677781,14.0868361 L19.9123591,14.0868361 C19.5046507,14.0674022 19.1173555,13.8997299 18.8209624,13.6143361 C18.5278071,13.3238389 18.3583577,12.9280007 18.3490071,12.5118361 L18.3490071,11.8593361 C18.3628212,11.7146764 18.3628212,11.5689957 18.3490071,11.4243361 L18.3490071,10.8168361 C18.3676049,10.4049973 18.5357744,10.0148214 18.8209624,9.72183608 C19.1132508,9.43363984 19.4984233,9.26308725 19.9049848,9.24183608 L20.7604038,9.24183608 C21.7598946,9.23932722 22.6335905,8.55554933 22.8920109,7.5735832 C23.1504313,6.59161706 22.7293823,5.55539108 21.8647531,5.04544209 C21.0001239,4.5354931 19.9066955,4.67849659 19.1970518,5.39433608 C18.7784178,5.81955636 18.5446994,6.3976051 18.5481133,6.99933608 L18.5481133,7.86933608 C18.5265581,8.28266938 18.3589605,8.67418187 18.076158,8.97183608 C17.7866149,9.26768753 17.3951323,9.43717272 16.9847613,9.44433608 L16.3800686,9.44433608 C15.5232798,9.32016928 14.6739752,9.71552238 14.2063871,10.4561895 C13.7387991,11.1968565 13.7387991,12.1468156 14.2063871,12.8874827 C14.6739752,13.6281498 15.5232798,14.0235029 16.3800686,13.8993361 L16.9700127,13.8993361 C17.8121996,13.9335492 18.4883502,14.6179659 18.5259904,15.4743361 L18.5259904,16.2843361 C18.5084866,16.9041784 18.7432832,17.5038891 19.1749289,17.9418361 C19.5906064,18.3701049 20.1576451,18.6111722 20.7493423,18.6111722 C21.3410395,18.6111722 21.9080782,18.3701049 22.3237557,17.9418361 C22.7403031,17.5196569 22.9744388,16.9461769 22.9744388,16.3480861 C22.9744388,15.7499953 22.7403031,15.1765153 22.3237557,14.7543361 C21.91717,14.3203014 21.3570893,14.0692333 20.7677781,14.0568361 L20.7677781,14.0868361 Z M14.5586161,19.4418361 C14.1420686,19.8640153 13.907933,20.4374953 13.907933,21.0355861 C13.907933,21.6336769 14.1420686,22.2071569 14.5586161,22.6293361 C14.9742936,23.0576049 15.5413323,23.2986722 16.1330295,23.2986722 C16.7247266,23.2986722 17.2917654,23.0576049 17.7074429,22.6293361 C18.1239903,22.2071569 18.358126,21.6336769 18.358126,21.0355861 C18.358126,20.4374953 18.1239903,19.8640153 17.7074429,19.4418361 C17.2957232,19.0095824 16.7309002,18.7630956 16.1391949,18.7574582 C15.5474896,18.7518208 14.9782254,18.9875027 14.5586161,19.4118361 L14.5586161,19.4418361 Z M8.43794566,3.85683608 C8.85449309,3.43465686 9.08862875,2.8611769 9.08862875,2.26308608 C9.08862875,1.66499525 8.85449309,1.09151529 8.43794566,0.669336077 C7.5750695,-0.203042011 6.18149221,-0.203042011 5.31861605,0.669336077 C4.90206863,1.09151529 4.66793296,1.66499525 4.66793296,2.26308608 C4.66793296,2.8611769 4.90206863,3.43465686 5.31861605,3.85683608 C6.18149221,4.72921417 7.5750695,4.72921417 8.43794566,3.85683608 Z M13.7031971,6.71433608 L13.7031971,6.08433608 C13.7198073,5.67351528 13.885292,5.28347406 14.1677781,4.98933608 C14.4619468,4.69947477 14.850034,4.52879271 15.2591747,4.50933608 L16.0629736,4.50933608 C16.9706321,4.53981383 17.8044097,4.00303476 18.1656808,3.15563067 C18.5269519,2.30822658 18.3423246,1.32234671 17.7000686,0.669336077 C17.2843911,0.241067224 16.7173523,0 16.1256552,0 C15.533958,0 14.9669193,0.241067224 14.5512418,0.669336077 C14.1362382,1.09088815 13.9028196,1.66280003 13.9023032,2.25933608 L13.9023032,3.12933608 C13.880748,3.54266938 13.7131504,3.93418187 13.4303479,4.23183608 C13.1408049,4.52768753 12.7493222,4.69717272 12.3389512,4.70433608 L11.6457669,4.70433608 C10.6286258,4.63979563 9.69973388,5.29029476 9.39615445,6.27973026 C9.09257503,7.26916576 9.49286373,8.34150666 10.3655831,8.87675082 C11.2383025,9.41199498 12.3576236,9.27164011 13.0763814,8.53683608 C13.5393257,8.05737253 13.7722702,7.38794938 13.7031971,6.71433608 Z" id="_Compound_Path_10" fill="url(#linearGradient-1)"></path>
        </g>
    </g>
</svg>