<svg xmlns="http://www.w3.org/2000/svg" width="100" height="17" viewBox="0 0 100 17">
    <defs>
        <linearGradient id="a" x1="14.965%" x2="84.618%" y1="85.152%" y2="15.298%">
            <stop offset="13%" stop-color="#F05844"/>
            <stop offset="100%" stop-color="#603D97"/>
        </linearGradient>
    </defs>
    <g fill="none" fill-rule="nonzero">
        <path fill="#603C96" d="M28.77 13h-.698c-.605 0-1.097-.504-1.1-1.128V9.671H24.04v2.201c-.004.624-.495 1.128-1.1 1.128h-.71a.234.234 0 0 1-.23-.231V5.23A.234.234 0 0 1 22.23 5h.703c.606 0 1.098.504 1.1 1.128V8.11h2.933V6.128c.003-.624.495-1.128 1.1-1.128h.704c.125 0 .227.103.23.231v7.538a.234.234 0 0 1-.23.231zM38.748 12.999h-1.07a1.105 1.105 0 0 1-1.04-.735l-.237-.658h-2.814l-.266.658a1.104 1.104 0 0 1-1.029.711h-1.064a.23.23 0 0 1-.188-.103.242.242 0 0 1-.025-.217l2.838-7.507A.231.231 0 0 1 34.066 5h1.908c.095.001.18.062.214.154l2.797 7.525a.242.242 0 0 1-.032.227.229.229 0 0 1-.205.093zm-2.89-2.965l-.844-2.55-.855 2.55h1.7zM45.99 10.27c.11 1.136-.65 2.188-1.822 2.52-.443.142-.909.213-1.378.21a5.117 5.117 0 0 1-2.683-.752.217.217 0 0 1-.078-.294l.206-.361c.288-.508.954-.714 1.511-.47.305.144.642.222.984.227.25.007.498-.056.71-.181a.636.636 0 0 0 .34-.566.658.658 0 0 0-.377-.565 3.855 3.855 0 0 0-.934-.345c-.53-.146-.864-.246-1.002-.3a2.348 2.348 0 0 1-.558-.299 1.789 1.789 0 0 1-.674-1.514 2.408 2.408 0 0 1 .68-1.758 2.829 2.829 0 0 1 2.124-.82 5.876 5.876 0 0 1 2.392.515.232.232 0 0 1 .123.131c.02.057.016.12-.014.174l-.212.379c-.267.464-.851.685-1.39.525a2.056 2.056 0 0 0-.559-.079c-.215 0-.426.056-.607.164a.56.56 0 0 0-.31.492c.022.23.178.43.407.52.35.135.712.243 1.08.322.624.13 1.19.433 1.621.87.296.359.444.804.42 1.255zM53.786 13h-.704a1.086 1.086 0 0 1-.788-.324 1.15 1.15 0 0 1-.331-.804V9.671h-2.926v2.201a1.15 1.15 0 0 1-.329.802 1.086 1.086 0 0 1-.785.326h-.692a.234.234 0 0 1-.231-.232V5.231A.234.234 0 0 1 47.23 5h.693c.607 0 1.1.504 1.103 1.128V8.11h2.937V6.128C51.966 5.504 52.459 5 53.065 5h.704c.125 0 .228.103.231.231v7.537a.235.235 0 0 1-.214.232zM65.994 5.285l-2.209 7.555a.219.219 0 0 1-.206.16h-1.034c-.452.003-.853-.317-.99-.79l-1.11-3.85-1.17 3.863c-.14.465-.537.779-.984.777h-1.034a.222.222 0 0 1-.184-.16L55.01 5.303a.25.25 0 0 1 .032-.21.205.205 0 0 1 .174-.093h.915c.468-.002.879.342 1.001.837l1.083 4.338 1.32-4.397c.141-.466.539-.78.986-.778.455-.001.857.324.99.801l1.224 4.374 1.17-4.362c.13-.484.535-.815.995-.813h.92a.21.21 0 0 1 .145.1.25.25 0 0 1 .029.185zM76 9.006a3.997 3.997 0 0 1-.98 2.683A4.17 4.17 0 0 1 72 13a4.17 4.17 0 0 1-3.02-1.311A3.997 3.997 0 0 1 68 9.006c.006-.49.096-.975.267-1.43.556-1.316 1.703-2.257 3.059-2.509 1.355-.252 2.742.217 3.7 1.25.637.736.985 1.696.974 2.689zm-1.95 0a2.063 2.063 0 0 0-.49-1.375 2.024 2.024 0 0 0-2.737-.362 2.102 2.102 0 0 0-.86 1.456 2.152 2.152 0 0 0 .471 1.639c.384.492.964.77 1.571.751a1.94 1.94 0 0 0 1.555-.718c.326-.382.501-.88.49-1.391zM83.777 13h-1.4c-.358 0-.692-.194-.888-.516l-1.543-2.555v1.944c-.003.623-.474 1.127-1.053 1.127h-.673c-.12 0-.217-.103-.22-.231v-7.53c.003-.128.1-.23.22-.23h2.806c.742-.065 1.468.249 1.962.847.345.455.528 1.026.519 1.613a2.377 2.377 0 0 1-.59 1.695c-.29.29-.652.486-1.042.563l2.084 2.905a.246.246 0 0 1 .016.245.213.213 0 0 1-.198.123zm-2.293-5.425a.976.976 0 0 0-.293-.717 1.215 1.215 0 0 0-.887-.273h-.364v1.992h.364a1.2 1.2 0 0 0 .887-.273.995.995 0 0 0 .293-.723v-.006zM92.775 13h-1.598c-.337 0-.656-.16-.864-.433l-2.291-3.039v2.344c-.003.624-.492 1.128-1.094 1.128h-.699a.233.233 0 0 1-.229-.231V5.232A.233.233 0 0 1 86.23 5h.698c.602 0 1.09.504 1.094 1.128V8.3l2.136-2.86c.209-.279.53-.44.87-.44h1.46c.09-.002.172.05.209.134a.238.238 0 0 1-.036.252l-2.767 3.406 3.059 3.834c.052.07.062.165.024.245a.223.223 0 0 1-.202.129zM99.99 10.27c.11 1.136-.65 2.188-1.822 2.52-.443.142-.909.213-1.378.21a5.117 5.117 0 0 1-2.683-.752.217.217 0 0 1-.078-.294l.206-.361c.288-.508.954-.714 1.511-.47.305.144.642.222.984.227.25.007.498-.056.71-.181a.636.636 0 0 0 .34-.566.658.658 0 0 0-.377-.565 3.849 3.849 0 0 0-.934-.345c-.53-.146-.864-.246-1.002-.3a2.348 2.348 0 0 1-.558-.299 1.789 1.789 0 0 1-.674-1.514 2.408 2.408 0 0 1 .68-1.758 2.829 2.829 0 0 1 2.124-.82 5.876 5.876 0 0 1 2.392.515.232.232 0 0 1 .123.131c.02.057.016.12-.014.174l-.212.379c-.267.464-.851.685-1.39.525a2.056 2.056 0 0 0-.559-.079c-.215 0-.426.056-.607.164a.56.56 0 0 0-.31.492c.022.23.178.43.407.52a7.1 7.1 0 0 0 1.087.35c.623.13 1.188.433 1.62.87.287.352.432.786.413 1.227z"/>
        <path fill="url(#a)" d="M10.032 12.542a1.637 1.637 0 0 1-1.53 1.004h-.621c-.301.015-.586.14-.802.35a1.217 1.217 0 0 0-.35.799v.465a1.645 1.645 0 0 1-1.631 1.804c-.437 0-.855-.174-1.162-.485a1.645 1.645 0 0 1-.319-1.858 1.636 1.636 0 0 1 1.634-.933h.463c.304-.005.594-.129.808-.345.21-.217.333-.503.35-.804v-.624c-.005-.441.168-.865.48-1.177a1.635 1.635 0 0 1 2.33.006c.47.472.608 1.183.35 1.798zm-6.746-1.251c.014-.3.139-.585.35-.799.216-.21.5-.335.802-.35h.447a1.64 1.64 0 0 0 1.716-1.563 1.642 1.642 0 0 0-1.558-1.72h-.6a1.259 1.259 0 0 1-.808-.345 1.162 1.162 0 0 1-.349-.805v-.465a1.645 1.645 0 0 0-.442-1.324 1.635 1.635 0 0 0-2.33 0 1.645 1.645 0 0 0-.317 1.863c.298.626.955.997 1.643.928H2.3a1.202 1.202 0 0 1 1.15 1.149v1.226c-.015.301-.14.587-.348.804a1.166 1.166 0 0 1-.802.372h-.655A1.644 1.644 0 0 0 .482 13.07a1.635 1.635 0 0 0 2.33 0c.334-.338.505-.805.469-1.28l.005-.498zm12.081-1.012h-.633a1.259 1.259 0 0 1-.807-.345 1.162 1.162 0 0 1-.35-.805v-.476c.01-.105.01-.212 0-.317v-.443c.014-.3.139-.586.35-.8.216-.21.5-.334.802-.35h.633a1.644 1.644 0 0 0 .817-3.062 1.633 1.633 0 0 0-2.454 1.426v.635c-.016.301-.14.587-.35.804-.214.216-.503.34-.807.345h-.448a1.635 1.635 0 0 0-1.608.738 1.646 1.646 0 0 0 0 1.774c.346.54.974.83 1.608.739h.437a1.202 1.202 0 0 1 1.151 1.149v.591c-.013.452.161.89.48 1.21a1.635 1.635 0 0 0 2.33 0 1.644 1.644 0 0 0 0-2.326c-.3-.317-.715-.5-1.15-.51v.023zm-4.594 3.907a1.644 1.644 0 0 0 0 2.326 1.635 1.635 0 0 0 2.33 0 1.644 1.644 0 0 0 0-2.326 1.635 1.635 0 0 0-2.33-.022v.022zM6.243 2.814a1.644 1.644 0 0 0 0-2.326 1.634 1.634 0 0 0-2.789 1.163 1.634 1.634 0 0 0 2.79 1.163zM10.14 4.9v-.46c.012-.3.134-.584.343-.799.218-.211.505-.336.808-.35h.595a1.637 1.637 0 0 0 1.556-.987 1.645 1.645 0 0 0-.345-1.815 1.635 1.635 0 0 0-2.33 0c-.307.308-.48.725-.48 1.16v.635c-.016.302-.14.588-.35.805-.213.216-.503.34-.807.345h-.513a1.637 1.637 0 0 0-1.664 1.149 1.644 1.644 0 0 0 .717 1.895 1.633 1.633 0 0 0 2.47-1.578z"/>
    </g>
</svg>
