<?xml version="1.0" encoding="UTF-8"?>
<svg width="136px" height="77px" viewBox="0 0 136 77" version="1.1" xmlns="http://www.w3.org/2000/svg" xmlns:xlink="http://www.w3.org/1999/xlink">
    <!-- Generator: sketchtool 48.2 (47327) - http://www.bohemiancoding.com/sketch -->
    <title>CBBB527E-A62F-489C-88A5-D20E4B138D90</title>
    <desc>Created with sketchtool.</desc>
    <defs></defs>
    <g id="-Product---HD" stroke="none" stroke-width="1" fill="none" fill-rule="evenodd" transform="translate(-313.000000, -2398.000000)">
        <g id="Packeto" transform="translate(313.000000, 2398.000000)" fill-rule="nonzero">
            <circle id="Oval" fill="#523D93" transform="translate(51.779098, 28.492424) rotate(-45.000000) translate(-51.779098, -28.492424) " cx="51.7790983" cy="28.492424" r="1.23885452"></circle>
            <path d="M58.6947368,14.5910931 C59.1902834,15.0866397 59.9611336,15.0866397 60.4566802,14.5910931 L62.411336,12.6364372 C62.9068826,12.1408907 63.6777328,12.1408907 64.1732794,12.6364372 C64.6688259,13.1319838 64.6688259,13.902834 64.1732794,14.3983806 L54.4275304,24.1441296 C53.9319838,24.6396761 53.9319838,25.4105263 54.4275304,25.9060729 C54.9230769,26.4016194 55.6939271,26.4016194 56.1894737,25.9060729 L63.9805668,18.1149798 C64.4761134,17.6194332 65.2469636,17.6194332 65.7425101,18.1149798 C66.2380567,18.6105263 66.2380567,19.3813765 65.7425101,19.8769231 L61.4477733,24.1716599 C60.9522267,24.6672065 60.9522267,25.4380567 61.4477733,25.9336032 C61.9433198,26.4291498 62.71417,26.4291498 63.2097166,25.9336032 L65.6323887,23.5109312 C66.0728745,23.0704453 66.7611336,23.0704453 67.2016194,23.5109312 L76.3417004,14.3708502 L71.4688259,0.165182186 L58.7222672,12.9117409 C58.1991903,13.3246964 58.1991903,14.0955466 58.6947368,14.5910931 Z" id="Shape" fill="#523D93"></path>
            <path d="M78.8469636,11.7554656 L67.1740891,23.4283401 C67.7246964,23.9789474 67.7246964,24.8323887 67.1740891,25.382996 L62.0259109,30.5311741 C61.5303644,31.0267206 61.5303644,31.7975709 62.0259109,32.2931174 C62.5214575,32.788664 63.2923077,32.788664 63.7878543,32.2931174 L72.9279352,23.1530364 C73.4234818,22.6574899 74.194332,22.6574899 74.6898785,23.1530364 C75.1854251,23.648583 75.1854251,24.4194332 74.6898785,24.9149798 L69.0461538,30.5587045 C68.5506073,31.054251 68.5506073,31.8251012 69.0461538,32.3206478 C69.5417004,32.8161943 70.3125506,32.8161943 70.8080972,32.3206478 L74.497166,28.6315789 C74.9927126,28.1360324 75.7635628,28.1360324 76.2591093,28.6315789 C76.7546559,29.1271255 76.7546559,29.8979757 76.2591093,30.3935223 L71.1935223,35.4591093 C70.6979757,35.9546559 70.6979757,36.7255061 71.1935223,37.2210526 C71.6890688,37.7165992 72.459919,37.7165992 72.9554656,37.2210526 L90.7676113,19.4089069 L78.8469636,11.7554656 Z" id="Shape" fill="#41A1FA"></path>
            <polygon id="Shape" fill="#41A1FA" points="71.4412955 0.0825910931 85.6744939 4.92793522 90.7125506 19.3538462 76.31417 14.2882591"></polygon>
            <circle id="Oval" fill="#523D93" transform="translate(56.053256, 17.215064) rotate(-45.000000) translate(-56.053256, -17.215064) " cx="56.0532562" cy="17.2150645" r="1.23885452"></circle>
            <circle id="Oval" fill="#523D93" transform="translate(52.549219, 20.708183) rotate(-45.000000) translate(-52.549219, -20.708183) " cx="52.5492189" cy="20.7081832" r="1.23885452"></circle>
            <circle id="Oval" fill="#523D93" transform="translate(53.520185, 33.762501) rotate(-45.000000) translate(-53.520185, -33.762501) " cx="53.5201846" cy="33.7625011" r="1.23885452"></circle>
            <circle id="Oval" fill="#523D93" transform="translate(50.016147, 37.255620) rotate(-45.000000) translate(-50.016147, -37.255620) " cx="50.0161474" cy="37.2556198" r="1.23885452"></circle>
            <circle id="Oval" fill="#523D93" transform="translate(46.531577, 40.768205) rotate(-45.000000) translate(-46.531577, -40.768205) " cx="46.5315768" cy="40.7682052" r="1.23885452"></circle>
            <circle id="Oval" fill="#41A1FA" transform="translate(68.515903, 39.783072) rotate(-45.000000) translate(-68.515903, -39.783072) " cx="68.5159025" cy="39.7830724" r="1.23885452"></circle>
            <circle id="Oval" fill="#41A1FA" transform="translate(65.031304, 43.295658) rotate(-45.000000) translate(-65.031304, -43.295658) " cx="65.0313045" cy="43.2956578" r="1.23885452"></circle>
            <circle id="Oval" fill="#41A1FA" transform="translate(61.507800, 46.808243) rotate(-45.000000) translate(-61.507800, -46.808243) " cx="61.5078005" cy="46.8082432" r="1.23885452"></circle>
            <circle id="Oval" fill="#41A1FA" transform="translate(66.385454, 34.935724) rotate(-45.000000) translate(-66.385454, -34.935724) " cx="66.3854543" cy="34.935724" r="1.23885452"></circle>
            <circle id="Oval" fill="#41A1FA" transform="translate(52.369278, 48.947160) rotate(-45.000000) translate(-52.369278, -48.947160) " cx="52.3692777" cy="48.9471598" r="1.23885452"></circle>
            <polygon id="Shape" fill="#523D93" points="75.9287449 14.2882591 75.5433198 13.1319838 90.2995951 18.1425101 90.7125506 19.3538462 89.7765182 20.2898785 74.9376518 15.2518219"></polygon>
            <path d="M49.940081,23.345749 C49.4995951,22.9052632 48.7838057,22.8777328 48.2882591,23.2631579 L46.3336032,25.2178138 C45.9481781,25.7133603 45.9757085,26.4016194 46.4161943,26.8696356 C46.8566802,27.3376518 47.5724696,27.3376518 48.0680162,26.9522267 L50.0226721,24.9975709 C50.4080972,24.5020243 50.3805668,23.7862348 49.940081,23.345749 Z" id="Shape" fill="#523D93"></path>
            <path d="M59.6582996,27.6129555 C59.2178138,27.1724696 58.5020243,27.1449393 58.0064777,27.5303644 L56.0518219,29.4850202 C55.6663968,29.9805668 55.6939271,30.6688259 56.134413,31.1368421 C56.5748988,31.5773279 57.2906883,31.6048583 57.7862348,31.2194332 L59.7408907,29.2647773 C60.1538462,28.7692308 60.1263158,28.0809717 59.6582996,27.6129555 Z" id="Shape" fill="#523D93"></path>
            <path d="M60.2364372,34.0550607 C59.7959514,33.6145749 59.0801619,33.5870445 58.5846154,33.9724696 L56.6299595,35.9271255 C56.2445344,36.4226721 56.2720648,37.1109312 56.7125506,37.5789474 C57.1530364,38.0469636 57.8688259,38.0469636 58.3643725,37.6615385 L60.3190283,35.7068826 C60.7319838,35.211336 60.7044534,34.4955466 60.2364372,34.0550607 Z" id="Shape" fill="#41A1FA"></path>
            <path d="M55.005668,39.3133603 C54.5651822,38.8728745 53.8493927,38.8453441 53.3538462,39.2307692 L51.3991903,41.1854251 C51.0137652,41.6809717 51.0412955,42.3692308 51.4817814,42.837247 C51.9222672,43.2777328 52.6380567,43.3052632 53.1336032,42.9198381 L55.0882591,40.9651822 C55.4736842,40.4696356 55.4461538,39.7538462 55.005668,39.3133603 Z" id="Shape" fill="#41A1FA"></path>
            <path d="M49.7473684,44.5716599 C49.3068826,44.1311741 48.5910931,44.1036437 48.0955466,44.4890688 L46.1408907,46.4437247 C45.7554656,46.9392713 45.782996,47.6275304 46.2234818,48.0955466 C46.6639676,48.5360324 47.3797571,48.5635628 47.8753036,48.1781377 L49.8299595,46.2234818 C50.2153846,45.7279352 50.1878543,45.0121457 49.7473684,44.5716599 Z" id="Shape" fill="#41A1FA"></path>
            <path d="M63.7603239,37.551417 C63.3198381,37.1109312 62.6040486,37.0834008 62.108502,37.4688259 L60.1538462,39.4234818 C59.7684211,39.9190283 59.7959514,40.6072874 60.2364372,41.0753036 C60.6769231,41.5157895 61.3927126,41.5433198 61.8882591,41.1578947 L63.842915,39.2032389 C64.2283401,38.7076923 64.2008097,37.9919028 63.7603239,37.551417 Z" id="Shape" fill="#41A1FA"></path>
            <path d="M58.5020243,42.8097166 C58.0615385,42.3692308 57.345749,42.3417004 56.8502024,42.7271255 L54.8955466,44.6817814 C54.5101215,45.1773279 54.5376518,45.865587 54.9781377,46.3336032 C55.4186235,46.7740891 56.134413,46.8016194 56.6299595,46.4161943 L58.5846154,44.4615385 C58.9700405,43.9659919 58.9425101,43.2502024 58.5020243,42.8097166 Z" id="Shape" fill="#41A1FA"></path>
            <g id="Group" transform="translate(0.000000, 57.538462)" fill="#523D93">
                <path d="M0.137651822,2.47773279 C0.137651822,1.37651822 1.01862348,0.468016194 2.14736842,0.468016194 L7.81862348,0.468016194 C12.1408907,0.468016194 14.7562753,3.02834008 14.7562753,6.71740891 L14.7562753,6.77246964 C14.7562753,10.957085 11.5076923,13.1319838 7.43319838,13.1319838 L4.26720648,13.1319838 L4.26720648,16.6558704 C4.26720648,17.6194332 3.60647773,18.5004049 2.64291498,18.665587 C1.29392713,18.9133603 0.137651822,17.9773279 0.137651822,16.7109312 L0.137651822,2.47773279 Z M7.43319838,9.82834008 C9.44291498,9.82834008 10.5991903,8.58947368 10.5991903,6.96518219 L10.5991903,6.91012146 C10.5991903,5.03805668 9.36032389,4.04696356 7.35060729,4.04696356 L4.26720648,4.04696356 L4.26720648,9.82834008 L7.43319838,9.82834008 Z" id="Shape"></path>
                <path d="M22.4923077,16.1052632 L28.8242915,1.78947368 C29.2647773,0.798380567 30.0631579,0.192712551 31.1643725,0.192712551 L31.3846154,0.192712551 C32.48583,0.192712551 33.2566802,0.798380567 33.697166,1.78947368 L40.0291498,16.1052632 C40.3870445,16.8761134 40.3595142,17.454251 39.4785425,18.3352227 C39.1757085,18.6380567 38.762753,18.8582996 38.3222672,18.8582996 C37.3862348,18.8582996 36.7805668,18.3076923 36.3951417,17.4817814 L35.2388664,14.5910931 L27.2275304,14.5910931 L25.9611336,17.5919028 C25.6307692,18.362753 24.9425101,18.8307692 24.1165992,18.8307692 C23.0704453,18.8307692 22.2720648,18.0048583 22.2720648,16.9587045 C22.2720648,16.6834008 22.3546559,16.3805668 22.4923077,16.1052632 Z M33.7522267,11.259919 L31.2469636,5.2582996 L28.7417004,11.259919 L33.7522267,11.259919 Z" id="Shape"></path>
                <path d="M48.0404858,2.31255061 C48.0404858,0.991093117 49.3068826,-0.0275303644 50.7659919,0.385425101 C51.6194332,0.633198381 52.1700405,1.40404858 52.1700405,2.28502024 L52.1700405,8.47935223 L59.7959514,1.10121457 C60.3190283,0.605668016 60.8145749,0.302834008 61.5303644,0.302834008 C62.6866397,0.302834008 63.4299595,1.1562753 63.4299595,2.14736842 C63.4299595,2.7805668 63.1271255,3.248583 62.6866397,3.66153846 L57.4008097,8.47935223 L63.1546559,15.5546559 C63.4850202,15.940081 63.7052632,16.3530364 63.7052632,16.9587045 C63.7052632,18.0874494 62.8242915,18.9133603 61.6129555,18.9133603 C60.8145749,18.9133603 60.3190283,18.5279352 59.8785425,17.9497976 L54.5101215,11.0947368 L52.1425101,13.2421053 L52.1425101,16.9311741 C52.1425101,17.7846154 51.5643725,18.582996 50.7384615,18.8307692 C49.3068826,19.2437247 48.0129555,18.2251012 48.0129555,16.9036437 L48.0129555,2.31255061 L48.0404858,2.31255061 Z" id="Shape"></path>
                <path d="M71.4412955,16.9311741 L71.4412955,2.3951417 C71.4412955,1.34898785 72.2947368,0.495546559 73.3408907,0.495546559 L84.0502024,0.495546559 C84.7659919,0.495546559 85.4267206,0.908502024 85.7020243,1.56923077 C86.2251012,2.89068826 85.2615385,4.07449393 83.9951417,4.07449393 L75.5708502,4.07449393 L75.5708502,7.92874494 L82.4809717,7.92874494 C83.334413,7.92874494 84.1327935,8.50688259 84.2979757,9.36032389 C84.545749,10.5165992 83.637247,11.5076923 82.5360324,11.5076923 L75.5708502,11.5076923 L75.5708502,15.3619433 L84.1327935,15.3619433 C84.9862348,15.3619433 85.757085,15.940081 85.9497976,16.7659919 C86.1975709,17.9497976 85.2890688,18.9408907 84.1327935,18.9408907 L73.4510121,18.9408907 C72.3222672,18.9133603 71.4412955,18.0323887 71.4412955,16.9311741 Z" id="Shape"></path>
                <path d="M99.2469636,4.04696356 L95.2550607,4.04696356 C94.4016194,4.04696356 93.6307692,3.49635628 93.4380567,2.67044534 C93.162753,1.51417004 94.0987854,0.468016194 95.2825911,0.468016194 L107.368421,0.468016194 C108.221862,0.468016194 108.992713,1.01862348 109.185425,1.84453441 C109.460729,3.00080972 108.524696,4.04696356 107.340891,4.04696356 L103.376518,4.04696356 L103.376518,16.7384615 C103.376518,17.7020243 102.715789,18.582996 101.752227,18.7757085 C100.403239,19.0234818 99.2469636,18.0874494 99.2469636,16.8761134 L99.2469636,4.04696356 Z" id="Shape"></path>
                <path d="M116.866397,9.60809717 L116.866397,9.55303644 C116.866397,4.45991903 120.88583,0.302834008 126.391903,0.302834008 C131.897976,0.302834008 135.862348,4.4048583 135.862348,9.49797571 L135.862348,9.55303644 C135.862348,14.6461538 131.842915,18.8032389 126.336842,18.8032389 C120.830769,18.8032389 116.866397,14.6736842 116.866397,9.60809717 Z M131.45749,9.60809717 L131.45749,9.55303644 C131.45749,6.49716599 129.22753,3.96437247 126.061538,3.96437247 C122.895547,3.96437247 120.720648,6.46963563 120.720648,9.49797571 L120.720648,9.55303644 C120.720648,12.6089069 122.950607,15.1417004 126.116599,15.1417004 C129.282591,15.1417004 131.45749,12.6639676 131.45749,9.60809717 Z" id="Shape"></path>
            </g>
        </g>
    </g>
</svg>