<svg xmlns="http://www.w3.org/2000/svg" width="32" height="26" viewBox="0 0 32 26">
    <path fill="#FFF" fill-rule="nonzero" d="M32 3.078a13.13 13.13 0 0 1-3.77 1.033A6.584 6.584 0 0 0 31.115.48a13.145 13.145 0 0 1-4.17 1.593A6.557 6.557 0 0 0 22.156 0a6.564 6.564 0 0 0-6.395 8.06A18.64 18.64 0 0 1 2.228 1.2a6.532 6.532 0 0 0-.889 3.3 6.56 6.56 0 0 0 2.92 5.464 6.54 6.54 0 0 1-2.973-.821v.082a6.568 6.568 0 0 0 5.266 6.436 6.58 6.58 0 0 1-2.965.113 6.572 6.572 0 0 0 6.133 4.558 13.173 13.173 0 0 1-8.154 2.81c-.53 0-1.052-.031-1.566-.092A18.584 18.584 0 0 0 10.064 26c12.075 0 18.679-10.002 18.679-18.675 0-.285-.006-.568-.02-.85A13.336 13.336 0 0 0 32 3.078z"/>
</svg>
