<svg xmlns="http://www.w3.org/2000/svg" width="19" height="14" viewBox="0 0 19 14">
    <g fill="#393939" fill-rule="evenodd">
        <path d="M3.322 8.315a2.733 2.733 0 0 1 1.984.756l.76.709c.385.324.874.497 1.377.487.5-.02.976-.225 1.334-.575l.529-.567a2.734 2.734 0 0 1 2.07-1.072 2.734 2.734 0 0 1 2.84 2.626 2.739 2.739 0 0 1-2.648 2.84c-.81.025-1.59-.31-2.128-.917l-.567-.528a1.95 1.95 0 0 0-1.378-.5 2.086 2.086 0 0 0-1.34.582l-.709.76a2.732 2.732 0 0 1-1.922.886 2.734 2.734 0 0 1-2.839-2.625l-.001-.036a2.734 2.734 0 0 1 2.638-2.826zM7.194.735a2.733 2.733 0 0 1 1.983.756l.76.709c.385.324.874.497 1.377.487.501-.02.977-.225 1.334-.575l.529-.567a2.734 2.734 0 0 1 2.07-1.072 2.734 2.734 0 0 1 2.84 2.626 2.739 2.739 0 0 1-2.648 2.84c-.81.025-1.59-.31-2.128-.917l-.566-.528a1.95 1.95 0 0 0-1.378-.5 2.086 2.086 0 0 0-1.34.582l-.71.76a2.732 2.732 0 0 1-1.922.886 2.734 2.734 0 0 1-2.839-2.625V3.56A2.734 2.734 0 0 1 7.193.735z"/>
    </g>
</svg>
