<svg xmlns="http://www.w3.org/2000/svg" xmlns:xlink="http://www.w3.org/1999/xlink" width="24" height="16" viewBox="0 0 24 16">
    <defs>
        <path id="a" d="M0 .076h15.857v15.84H0z"/>
        <path id="c" d="M.165.05h7.668V8H.165z"/>
    </defs>
    <g fill="none" fill-rule="evenodd">
        <g>
            <mask id="b" fill="#fff">
                <use xlink:href="#a"/>
            </mask>
            <path fill="#393939" d="M14.724 1.235a3.874 3.874 0 0 1-2.79 6.612h-1.472a2.945 2.945 0 0 0-1.899.827 2.867 2.867 0 0 0-.826 1.885v1.098a3.874 3.874 0 0 1-1.11 3.113 3.874 3.874 0 0 1-5.48.022l-.023-.022a3.875 3.875 0 0 1 3.113-6.587h1.098a2.762 2.762 0 0 0 1.91-.814 2.957 2.957 0 0 0 .828-1.898V3.999c-.01-1.041.4-2.042 1.136-2.777a3.875 3.875 0 0 1 5.48-.023l.035.036" mask="url(#b)"/>
        </g>
        <g transform="translate(16 8)">
            <mask id="d" fill="#fff">
                <use xlink:href="#c"/>
            </mask>
            <path fill="#393939" d="M1.286 1.248c-1.491 1.536-1.496 4.03-.01 5.57l.01.01a3.726 3.726 0 0 0 5.39.036l.036-.036c1.491-1.535 1.495-4.03.01-5.57l-.01-.01a3.726 3.726 0 0 0-5.39-.089l-.036.036v.053z" mask="url(#d)"/>
        </g>
        <path d="M-6-10h35v35H-6z"/>
    </g>
</svg>
