<svg xmlns="http://www.w3.org/2000/svg" width="82" height="46" viewBox="0 0 82 46">
    <g fill="none" fill-rule="nonzero">
        <path fill="#523D93" d="M31.434 17.488a.728.728 0 0 1-1.035 0 .742.742 0 0 1 0-1.043.728.728 0 0 1 1.035 0 .742.742 0 0 1 0 1.043zM35.002 8.689a.723.723 0 0 0 1.041 0l1.155-1.164a.723.723 0 0 1 1.041 0 .736.736 0 0 1 0 1.049l-5.758 5.803a.736.736 0 0 0 0 1.05.723.723 0 0 0 1.041 0l4.603-4.64a.723.723 0 0 1 1.041 0 .736.736 0 0 1 0 1.05l-2.537 2.556a.736.736 0 0 0 0 1.05.723.723 0 0 0 1.04 0L39.102 14a.645.645 0 0 1 .927 0l5.4-5.443L42.55.098l-7.53 7.59c-.31.246-.31.705-.017 1z"/>
        <path fill="#41A1FA" d="M46.908 7l-6.896 6.95a.816.816 0 0 1 0 1.165L36.97 18.18a.736.736 0 0 0 0 1.05.723.723 0 0 0 1.041 0l5.4-5.443a.723.723 0 0 1 1.041 0 .736.736 0 0 1 0 1.05l-3.334 3.36a.736.736 0 0 0 0 1.049.723.723 0 0 0 1.041 0l2.18-2.197a.723.723 0 0 1 1.04 0 .736.736 0 0 1 0 1.05l-2.992 3.016a.736.736 0 0 0 0 1.049.723.723 0 0 0 1.04 0l10.524-10.607L46.908 7z"/>
        <path fill="#41A1FA" d="M42.533.05l8.41 2.884 2.976 8.59-8.507-3.016z"/>
        <path fill="#523D93" d="M33.96 10.773a.728.728 0 0 1-1.036 0 .742.742 0 0 1 0-1.044.728.728 0 0 1 1.035 0 .742.742 0 0 1 0 1.044zM31.89 12.853a.728.728 0 0 1-1.036 0 .742.742 0 0 1 0-1.044.728.728 0 0 1 1.035 0 .742.742 0 0 1 0 1.044zM32.463 20.626a.728.728 0 0 1-1.035 0 .742.742 0 0 1 0-1.043.728.728 0 0 1 1.035 0 .742.742 0 0 1 0 1.043zM30.393 22.706a.728.728 0 0 1-1.035 0 .742.742 0 0 1 0-1.043.728.728 0 0 1 1.035 0 .742.742 0 0 1 0 1.043zM28.334 24.798a.728.728 0 0 1-1.035 0 .742.742 0 0 1 0-1.043.728.728 0 0 1 1.035 0 .742.742 0 0 1 0 1.043z"/>
        <path fill="#41A1FA" d="M41.322 24.211a.728.728 0 0 1-1.035 0 .742.742 0 0 1 0-1.043.728.728 0 0 1 1.035 0 .742.742 0 0 1 0 1.043zM39.264 26.303a.728.728 0 0 1-1.035 0 .742.742 0 0 1 0-1.043.728.728 0 0 1 1.035 0 .742.742 0 0 1 0 1.043zM37.182 28.394a.728.728 0 0 1-1.035 0 .742.742 0 0 1 0-1.043.728.728 0 0 1 1.035 0 .742.742 0 0 1 0 1.043zM40.064 21.325a.728.728 0 0 1-1.035 0 .742.742 0 0 1 0-1.044.728.728 0 0 1 1.035 0 .742.742 0 0 1 0 1.044zM31.783 29.668a.728.728 0 0 1-1.035 0 .742.742 0 0 1 0-1.043.728.728 0 0 1 1.035 0 .742.742 0 0 1 0 1.043z"/>
        <path fill="#523D93" d="M45.184 8.508l-.227-.688 8.718 2.983.244.722-.553.557-8.767-3zM29.83 13.902a.738.738 0 0 0-.976-.05L27.7 15.016a.754.754 0 0 0 .05.984c.26.279.682.279.975.05l1.155-1.165a.753.753 0 0 0-.049-.983zM35.572 16.443a.738.738 0 0 0-.976-.05l-1.155 1.164a.754.754 0 0 0 .049.984c.26.262.683.279.976.05l1.154-1.165a.719.719 0 0 0-.048-.983z"/>
        <path fill="#41A1FA" d="M35.913 20.279a.738.738 0 0 0-.976-.05l-1.154 1.164a.754.754 0 0 0 .048.984c.26.279.683.279.976.05l1.155-1.165a.718.718 0 0 0-.049-.983zM32.823 23.41a.738.738 0 0 0-.976-.05l-1.155 1.165a.754.754 0 0 0 .049.983c.26.262.683.279.976.05l1.155-1.165a.753.753 0 0 0-.05-.983zM29.716 26.541a.738.738 0 0 0-.976-.05l-1.154 1.165a.754.754 0 0 0 .048.983c.26.263.683.279.976.05l1.155-1.164a.753.753 0 0 0-.049-.984zM37.995 22.36a.738.738 0 0 0-.976-.049l-1.155 1.164a.754.754 0 0 0 .05.984c.26.262.682.279.975.05l1.155-1.165a.753.753 0 0 0-.049-.983zM34.889 25.492a.738.738 0 0 0-.976-.05l-1.155 1.165a.754.754 0 0 0 .049.983c.26.262.683.279.976.05l1.154-1.165a.753.753 0 0 0-.048-.983z"/>
        <g fill="#523D93">
            <path d="M.083 35.565c0-.695.531-1.27 1.212-1.27h3.42c2.605 0 4.182 1.618 4.182 3.948v.035c0 2.644-1.959 4.018-4.415 4.018h-1.91v2.226c0 .608-.398 1.165-.978 1.27a1.246 1.246 0 0 1-1.511-1.235v-8.992zm4.399 4.644c1.212 0 1.909-.783 1.909-1.809v-.035c0-1.182-.747-1.808-1.959-1.808h-1.86v3.652h1.91zM13.562 44.174l3.817-9.044c.266-.626.747-1.008 1.411-1.008h.133c.664 0 1.129.382 1.394 1.008l3.818 9.044c.216.487.2.852-.332 1.409-.182.19-.431.33-.697.33-.564 0-.93-.348-1.162-.87l-.697-1.826h-4.83l-.764 1.896c-.2.487-.614.783-1.112.783-.63 0-1.112-.522-1.112-1.183 0-.174.05-.365.133-.54zm6.789-3.061l-1.51-3.791-1.511 3.791h3.02zM28.966 35.46c0-.834.763-1.477 1.643-1.217.514.157.846.644.846 1.2v3.914l4.598-4.661c.316-.313.615-.505 1.046-.505.697 0 1.146.54 1.146 1.166 0 .4-.183.695-.449.956l-3.187 3.044 3.47 4.47c.199.243.332.503.332.886 0 .713-.532 1.235-1.262 1.235-.481 0-.78-.244-1.046-.609l-3.237-4.33-1.427 1.356v2.33c0 .54-.349 1.044-.847 1.2a1.261 1.261 0 0 1-1.643-1.217v-9.217h.017zM43.075 44.696v-9.183c0-.66.514-1.2 1.145-1.2h6.457c.432 0 .83.26.996.678.316.835-.265 1.583-1.029 1.583h-5.08v2.435h4.167c.515 0 .996.365 1.096.904.15.73-.399 1.357-1.063 1.357h-4.2v2.434h5.163c.515 0 .98.366 1.096.887.15.748-.399 1.374-1.096 1.374h-6.44c-.68-.017-1.212-.574-1.212-1.27zM59.84 36.557h-2.407c-.514 0-.98-.348-1.095-.87a1.14 1.14 0 0 1 1.112-1.391h7.287c.514 0 .98.347 1.095.87a1.14 1.14 0 0 1-1.112 1.39h-2.39v8.018c0 .609-.398 1.165-.98 1.287-.813.156-1.51-.435-1.51-1.2v-8.104zM70.464 40.07v-.035c0-3.218 2.423-5.844 5.743-5.844 3.32 0 5.71 2.592 5.71 5.809v.035c0 3.217-2.423 5.843-5.743 5.843-3.32 0-5.71-2.608-5.71-5.808zm8.797 0v-.035c0-1.93-1.344-3.53-3.253-3.53-1.91 0-3.22 1.582-3.22 3.495v.035c0 1.93 1.344 3.53 3.253 3.53S79.26 42 79.26 40.07z"/>
        </g>
    </g>
</svg>
