<svg xmlns="http://www.w3.org/2000/svg" xmlns:xlink="http://www.w3.org/1999/xlink" width="82" height="44" viewBox="0 0 82 44">
    <defs>
        <path id="a" d="M8.16 43.102H0V.117h16.32v42.985z"/>
    </defs>
    <g fill="none" fill-rule="evenodd">
        <path d="M-37-5h155v54H-37z"/>
        <g>
            <mask id="b" fill="#fff">
                <use xlink:href="#a"/>
            </mask>
            <path fill="#E21717" d="M16.307 41.503a10.158 10.158 0 0 1-5.464 1.599C4.855 43.102.02 37.984 0 31.332c-.018-6.495 2.588-11.242 5.162-16.619C8.993 6.708 10.415 3.831 10.776.117c0 0 1.783 2.354 1.518 5.598-.182 2.237-1.516 6.223-3.208 10.624-1.362 3.543-2.923 7.16-3.73 9.987-.833 2.918-.897 4.877-.355 7.287.197.88.505 1.768.928 2.575 3.04 5.808 9.86 5.4 10.39 5.308l-.012.007z" mask="url(#b)"/>
        </g>
        <path fill="#E21717" d="M16.339 27.014c1.712 1.318 1.616 3.075 1.616 3.075 0 2.04-1.526 3.693-3.409 3.693-1.883 0-3.41-1.654-3.41-3.693 0-.231.072-.742.072-.742.535-3.005 3.279-8.769 4.125-12.52.9-3.992-1.57-7.827-1.57-7.827s.584 1.422-2.993 10.12c-1.662 4.04-2.682 6.624-3.216 8.22C6.987 29.037 7 30.39 7 30.876c0 4.503 3.382 8.15 7.545 8.124 4.11-.026 7.465-3.688 7.455-8.14-.009-4.423-3.549-7.207-5.665-8.578-1.257-.816-1.257-2.094-1.257-2.094l-.548 1.887c-.603 2.126.133 3.702 1.551 4.745.088.064.174.129.258.194M41.536 8c.297 0 .536.248.536.554v9.425c0 .314.084.562.253.741.168.18.405.269.71.269.115 0 .252-.016.41-.048l.006-.002a.455.455 0 0 1 .538.357.469.469 0 0 1-.331.553c-.098.025-.204.05-.316.07a4.14 4.14 0 0 1-.749.081c-.494 0-.884-.144-1.168-.432-.284-.288-.425-.693-.425-1.214v-9.8c0-.306.24-.554.536-.554M45 19.44v-7.446c0-.308.224-.558.5-.558s.5.25.5.558v7.446c0 .309-.224.56-.5.56s-.5-.251-.5-.56m0-10.355V8.56c0-.31.224-.56.5-.56s.5.25.5.56v.525c0 .309-.224.559-.5.559s-.5-.25-.5-.559M53.977 19.137c.076.216-.041.45-.271.537-.136.051-.271.1-.344.123-.17.052-.364.099-.58.14A3.557 3.557 0 0 1 52.1 20c-.25 0-.488-.031-.715-.093a1.727 1.727 0 0 1-.595-.29 1.445 1.445 0 0 1-.41-.493 1.483 1.483 0 0 1-.153-.689V12.6h-.767c-.254 0-.46-.19-.46-.423 0-.233.206-.422.46-.422h.767V9.532c0-.294.259-.532.58-.532.32 0 .578.238.578.532v2.222h1.584c.254 0 .46.189.46.422 0 .233-.206.423-.46.423h-1.584v5.54c.023.302.14.524.35.664.21.14.451.211.723.211.33 0 .62-.049.87-.149l.006-.002c.257-.102.552.02.639.263l.004.011zM58.976 19.132c.078.22-.042.457-.274.545-.135.05-.267.098-.339.12-.17.052-.364.099-.58.141A3.61 3.61 0 0 1 57.1 20c-.25 0-.488-.03-.715-.093a1.705 1.705 0 0 1-.596-.29 1.445 1.445 0 0 1-.41-.493 1.482 1.482 0 0 1-.153-.688v-5.837h-.767c-.254 0-.46-.189-.46-.423 0-.233.206-.422.46-.422h.767V9.532c0-.294.26-.532.58-.532.32 0 .579.238.579.532v2.222h1.585c.254 0 .46.189.46.422 0 .234-.206.423-.46.423h-1.585v5.54c.022.302.14.524.35.664.21.14.451.211.724.211.329 0 .619-.049.869-.148l.007-.003c.256-.102.552.02.638.263l.002.006zM60.536 8c.297 0 .536.248.536.554v9.425c0 .314.084.562.253.741.168.18.405.269.71.269.116 0 .252-.016.41-.048l.006-.002a.455.455 0 0 1 .538.357.469.469 0 0 1-.331.553c-.098.025-.204.05-.316.07a4.14 4.14 0 0 1-.749.081c-.494 0-.884-.144-1.168-.432-.283-.288-.425-.693-.425-1.214v-9.8c0-.306.24-.554.536-.554M69.198 15.585c.756 0 1.24-.849.846-1.51a2.391 2.391 0 0 0-.391-.505 2.86 2.86 0 0 0-.852-.578 2.601 2.601 0 0 0-1.033-.207 2.669 2.669 0 0 0-1.898.785 2.842 2.842 0 0 0-.592.89 3.43 3.43 0 0 0-.268 1.125h4.188zM67.768 20a3.538 3.538 0 0 1-1.508-.319 3.688 3.688 0 0 1-1.191-.874c-.337-.37-.6-.797-.787-1.28A4.257 4.257 0 0 1 64 15.97c0-.542.094-1.054.282-1.533.187-.48.447-.898.78-1.26.33-.36.728-.646 1.19-.858A3.553 3.553 0 0 1 67.754 12c.549 0 1.05.106 1.508.319.457.212.867.485 1.177.867.091.112.174.224.251.337.806 1.197-.056 2.833-1.475 2.833h-4.19c.029.415.123.797.281 1.148.16.35.364.654.614.911.25.256.537.457.86.6a2.586 2.586 0 0 0 1.754.11 2.86 2.86 0 0 0 .664-.28c.202-.12.384-.265.549-.438.09-.095.169-.196.235-.302a.417.417 0 0 1 .465-.178c.29.082.409.436.23.685-.06.083-.124.162-.194.24a3.43 3.43 0 0 1-.736.607c-.28.173-.588.306-.925.4a3.905 3.905 0 0 1-1.054.141zM33.333 34.027c.399 0 .764-.094 1.094-.284.33-.188.614-.443.85-.762a3.955 3.955 0 0 0 .76-2.344c0-.442-.062-.87-.187-1.28a3.785 3.785 0 0 0-.53-1.095 2.685 2.685 0 0 0-.823-.762 2.033 2.033 0 0 0-1.053-.283c-.288 0-.557.056-.808.17a2.67 2.67 0 0 0-.697.461c-.214.196-.405.42-.572.674a4.359 4.359 0 0 0-.42.802v2.628c.038.291.138.565.301.818.163.255.358.474.586.657.227.184.474.33.739.438.264.108.518.162.76.162m.223.973a2.698 2.698 0 0 1-1.583-.502 3.488 3.488 0 0 1-1.122-1.298v1.143c0 .274-.19.495-.426.495-.235 0-.425-.221-.425-.495V23.551c0-.304.213-.551.474-.551.262 0 .474.247.474.551v4.606c.326-.574.716-1.036 1.172-1.387.455-.35.985-.527 1.59-.527.51 0 .968.124 1.373.373.404.25.748.582 1.032.997.283.417.502.887.655 1.411.154.525.23 1.063.23 1.614 0 .595-.088 1.157-.265 1.687-.176.53-.418.991-.725 1.386a3.522 3.522 0 0 1-1.095.941 2.78 2.78 0 0 1-1.36.348M43 26.487c0 .247-.185.45-.43.484a3.176 3.176 0 0 0-1.416.547c-.523.368-.892.873-1.107 1.517v4.475c0 .27-.221.49-.493.49h-.061a.492.492 0 0 1-.493-.49v-7.004a.492.492 0 0 1 .985 0v1.426c.297-.613.697-1.094 1.2-1.441.266-.184.542-.324.83-.406.14-.04.294-.066.438-.082a.49.49 0 0 1 .547.484M46.577 33.23c.482 0 .925-.1 1.33-.297.404-.197.711-.46.92-.785a.926.926 0 0 0 .185-.289c.04-.103.061-.2.061-.289v-1.26a5.327 5.327 0 0 0-.962-.295 4.984 4.984 0 0 0-1.016-.103c-.654 0-1.186.148-1.595.444-.409.296-.614.686-.614 1.17 0 .237.043.46.13.667a1.644 1.644 0 0 0 .893.904c.21.088.432.132.668.132zm2.618-.667c-.327.464-.738.82-1.233 1.067-.496.246-1.03.37-1.603.37a2.333 2.333 0 0 1-2.182-1.459A2.477 2.477 0 0 1 44 31.6c0-.335.073-.647.218-.933.146-.286.35-.534.614-.741a2.92 2.92 0 0 1 .94-.481 4.01 4.01 0 0 1 1.201-.17c.363 0 .732.034 1.105.103.372.07.704.168.995.296v-.696c0-.681-.178-1.222-.532-1.622-.355-.4-.845-.6-1.473-.6-.364 0-.736.079-1.118.237a4.9 4.9 0 0 0-.855.464c-.168.112-.389.045-.481-.145a.392.392 0 0 1 .122-.494c.822-.545 1.623-.818 2.4-.818.891 0 1.591.272 2.1.815.51.543.764 1.294.764 2.252v4.349c0 .242-.18.438-.404.438-.225 0-.406-.198-.405-.44l.004-.851zM78.577 33.23c.483 0 .925-.1 1.33-.297.404-.197.711-.46.92-.785a.926.926 0 0 0 .185-.289c.04-.103.061-.2.061-.289v-1.26a5.32 5.32 0 0 0-.961-.295 4.99 4.99 0 0 0-1.016-.103c-.655 0-1.187.148-1.596.444-.409.296-.614.686-.614 1.17 0 .237.043.46.13.667a1.644 1.644 0 0 0 .893.904c.21.088.432.132.668.132zm2.618-.667c-.327.464-.738.82-1.233 1.067-.496.246-1.03.37-1.603.37a2.333 2.333 0 0 1-2.182-1.459A2.477 2.477 0 0 1 76 31.6c0-.335.073-.647.219-.933.145-.286.349-.534.613-.741a2.92 2.92 0 0 1 .94-.481c.365-.114.765-.17 1.201-.17a6 6 0 0 1 1.105.103c.372.07.704.168.995.296v-.696c0-.681-.178-1.222-.532-1.622-.354-.4-.845-.6-1.473-.6-.364 0-.736.079-1.118.237a4.9 4.9 0 0 0-.855.464c-.168.112-.389.045-.481-.145a.392.392 0 0 1 .122-.494c.822-.545 1.623-.818 2.4-.818.891 0 1.591.272 2.1.815.51.543.764 1.294.764 2.252v4.349c0 .242-.18.438-.404.438-.225 0-.406-.198-.405-.44l.004-.851zM58.534 35c-.257 0-.465-.25-.465-.56v-4.223c0-.976-.14-1.704-.418-2.186-.279-.482-.687-.724-1.226-.724-.266 0-.528.063-.789.19-.26.125-.504.298-.732.516a3.572 3.572 0 0 0-.973 1.743v4.684c0 .31-.208.56-.465.56-.258 0-.466-.25-.466-.56V23.56c0-.309.208-.56.466-.56.257 0 .465.251.465.56v4.816c.283-.647.676-1.157 1.179-1.529.501-.372 1.045-.56 1.63-.56.41 0 .757.091 1.04.272.284.181.516.433.7.757.183.323.315.712.397 1.167.082.454.123.955.123 1.504v4.453c0 .31-.208.56-.466.56M72.518 34c-.267 0-.483-.23-.483-.514v-3.878c0-.916-.138-1.59-.412-2.023-.274-.433-.68-.65-1.22-.65-.284 0-.552.057-.803.167-.25.11-.482.266-.695.468-.213.201-.4.44-.56.717-.161.277-.284.581-.37.913v4.286c0 .284-.216.514-.482.514-.267 0-.482-.23-.482-.514v-3.878c0-.936-.133-1.615-.398-2.038-.265-.423-.672-.634-1.22-.634-.56 0-1.056.207-1.49.619-.436.412-.748.956-.938 1.63v4.301c0 .284-.216.514-.483.514-.266 0-.482-.23-.482-.514v-6.882c0-.259.197-.468.44-.468s.44.21.44.468v1.313c.303-.604.7-1.074 1.192-1.411A2.827 2.827 0 0 1 65.705 26c.624 0 1.123.187 1.497.558.374.373.603.86.688 1.465.691-1.349 1.642-2.023 2.854-2.023.416 0 .768.08 1.057.242.288.16.52.39.695.687.175.296.303.654.383 1.071.08.417.121.883.121 1.396v4.09c0 .284-.216.514-.482.514"/>
    </g>
</svg>
