<svg xmlns="http://www.w3.org/2000/svg" width="86" height="42" viewBox="0 0 86 42">
    <g fill="none" fill-rule="evenodd">
        <g fill="#E92046">
            <path d="M43.636 8.29c.278 0 .503.226.503.505v8.567c0 .286.08.51.238.674.158.163.38.245.667.245.108 0 .237-.015.385-.045l.006-.001a.427.427 0 0 1 .505.324.425.425 0 0 1-.312.503c-.092.023-.19.044-.295.063-.272.05-.507.074-.704.074-.465 0-.83-.13-1.097-.393-.267-.261-.4-.63-.4-1.104V8.795c0-.279.225-.504.504-.504M47.859 18.606v-6.714a.504.504 0 1 1 1.008 0v6.714a.504.504 0 1 1-1.008 0m0-9.337v-.474a.504.504 0 0 1 1.008 0v.474a.504.504 0 1 1-1.008 0M55.419 18.382a.411.411 0 0 1-.235.508 5.978 5.978 0 0 1-.3.117 4.56 4.56 0 0 1-.504.133c-.188.04-.386.06-.593.06-.218 0-.425-.03-.623-.09-.197-.059-.37-.15-.518-.274a1.348 1.348 0 0 1-.356-.467 1.503 1.503 0 0 1-.134-.652V12.19h-.666a.4.4 0 0 1 0-.8h.666V9.283a.504.504 0 0 1 1.008 0v2.104h1.379a.4.4 0 0 1 0 .8h-1.379v5.247c.02.287.121.497.304.63.183.134.393.2.63.2.287 0 .539-.046.756-.14l.006-.003a.411.411 0 0 1 .555.25l.004.01zM61.123 18.377a.417.417 0 0 1-.239.515 5.718 5.718 0 0 1-.295.115c-.148.05-.316.093-.504.133-.187.04-.385.06-.592.06-.218 0-.426-.03-.623-.09-.198-.059-.37-.15-.519-.274a1.343 1.343 0 0 1-.355-.467 1.504 1.504 0 0 1-.134-.652V12.19h-.667a.4.4 0 0 1 0-.8h.667V9.283a.504.504 0 0 1 1.008 0v2.104h1.378a.4.4 0 0 1 0 .8H58.87v5.247c.02.287.121.497.304.63.182.134.393.2.63.2.286 0 .538-.046.756-.14l.006-.003a.41.41 0 0 1 .555.25l.002.005zM63.79 8.29c.278 0 .504.226.504.505v8.567c0 .286.079.51.237.674.158.163.38.245.667.245.109 0 .237-.015.385-.045l.006-.001a.427.427 0 0 1 .506.324.425.425 0 0 1-.312.503c-.093.023-.191.044-.296.063-.272.05-.506.074-.704.074-.464 0-.83-.13-1.097-.393-.266-.261-.4-.63-.4-1.104V8.795c0-.279.226-.504.504-.504M72.816 14.842c.776 0 1.274-.85.87-1.512a2.419 2.419 0 0 0-.403-.504 2.933 2.933 0 0 0-.875-.578 2.72 2.72 0 0 0-1.06-.207 2.772 2.772 0 0 0-1.948.785 2.843 2.843 0 0 0-.608.89 3.361 3.361 0 0 0-.275 1.126h4.3zm-1.468 4.417a3.713 3.713 0 0 1-2.771-1.194 4.06 4.06 0 0 1-.808-1.282 4.172 4.172 0 0 1-.289-1.556c0-.543.096-1.055.289-1.534.193-.48.46-.899.8-1.26.341-.36.749-.647 1.223-.86a3.729 3.729 0 0 1 1.542-.318c.563 0 1.079.106 1.548.319.47.212.89.486 1.208.867.094.112.18.224.257.338.828 1.197-.057 2.833-1.513 2.833h-4.302c.03.415.126.798.29 1.15.162.35.372.654.63.91.256.258.55.458.881.601.331.143.684.215 1.06.215a2.976 2.976 0 0 0 1.423-.385c.207-.12.395-.265.563-.438.093-.095.173-.196.242-.302a.438.438 0 1 1 .713.507 2.65 2.65 0 0 1-.2.24c-.217.232-.469.435-.755.608a3.71 3.71 0 0 1-.949.4c-.346.094-.706.14-1.082.14zM35.261 32.448c.425 0 .813-.087 1.164-.26.35-.172.652-.405.904-.696a3.36 3.36 0 0 0 .593-.993 3.16 3.16 0 0 0 .214-1.149c0-.405-.066-.795-.2-1.17a3.255 3.255 0 0 0-.563-1.001 2.725 2.725 0 0 0-.874-.697 2.439 2.439 0 0 0-1.12-.26c-.306 0-.592.053-.859.157a2.896 2.896 0 0 0-.74.422 3.41 3.41 0 0 0-.609.615 3.875 3.875 0 0 0-.444.734v2.4c.04.267.146.517.318.75.173.231.38.432.623.6.242.167.504.3.786.4.281.099.55.148.807.148m.237.89a3.2 3.2 0 0 1-1.682-.46 3.381 3.381 0 0 1-1.193-1.186v1.045a.452.452 0 0 1-.904 0v-9.864a.504.504 0 1 1 1.008 0v4.21c.345-.524.76-.946 1.245-1.268.484-.32 1.047-.481 1.69-.481.543 0 1.03.113 1.46.34.43.228.795.532 1.096.912.301.38.534.81.697 1.29.163.479.244.97.244 1.474a4.23 4.23 0 0 1-.281 1.542 4.053 4.053 0 0 1-.771 1.267c-.326.36-.714.647-1.164.86-.45.212-.931.318-1.445.318M45.458 25.923a.475.475 0 0 1-.414.467c-.51.071-.966.248-1.365.53-.504.355-.86.844-1.067 1.467v4.328a.474.474 0 0 1-.474.474h-.06a.474.474 0 0 1-.474-.474V25.94a.474.474 0 1 1 .949 0v1.379c.286-.593.671-1.058 1.156-1.393.256-.179.522-.314.8-.393.134-.04.283-.064.422-.08.28-.03.527.187.527.469M49.622 32.566c.524 0 1.006-.098 1.445-.296.44-.198.773-.46 1-.785a.925.925 0 0 0 .2-.29.74.74 0 0 0 .067-.289v-1.26a6.206 6.206 0 0 0-1.045-.296 5.875 5.875 0 0 0-1.104-.104c-.711 0-1.29.149-1.734.445-.444.297-.667.687-.667 1.17 0 .238.047.46.141.668.094.207.222.388.385.54.163.154.358.275.586.364.227.089.469.133.726.133zm2.846-.667c-.356.465-.803.82-1.342 1.068a4.13 4.13 0 0 1-1.741.37c-.366 0-.704-.062-1.015-.185a2.555 2.555 0 0 1-.815-.512 2.303 2.303 0 0 1-.734-1.704c0-.336.079-.647.237-.934.158-.286.38-.533.667-.741a3.27 3.27 0 0 1 1.023-.481c.395-.114.83-.171 1.304-.171.395 0 .795.035 1.2.104.405.07.766.168 1.082.296v-.696c0-.682-.192-1.223-.578-1.623-.385-.4-.919-.6-1.6-.6-.396 0-.8.079-1.216.237a5.5 5.5 0 0 0-.93.464.374.374 0 1 1-.39-.64c.894-.545 1.764-.817 2.61-.817.968 0 1.729.271 2.282.815.554.543.83 1.294.83 2.252v4.351a.44.44 0 1 1-.879-.002l.005-.85zM82.183 32.566c.524 0 1.006-.098 1.445-.296.44-.198.774-.46 1-.785a.925.925 0 0 0 .201-.29.735.735 0 0 0 .067-.289v-1.26a6.213 6.213 0 0 0-1.045-.296 5.88 5.88 0 0 0-1.104-.104c-.712 0-1.29.149-1.734.445-.445.297-.668.687-.668 1.17 0 .238.047.46.141.668.094.207.223.388.386.54.163.154.358.275.585.364.227.089.47.133.726.133zm2.846-.667c-.356.465-.803.82-1.341 1.068a4.13 4.13 0 0 1-1.742.37c-.366 0-.704-.062-1.015-.185a2.555 2.555 0 0 1-.815-.512 2.303 2.303 0 0 1-.734-1.704c0-.336.08-.647.237-.934a2.26 2.26 0 0 1 .667-.741 3.27 3.27 0 0 1 1.023-.481c.395-.114.83-.171 1.304-.171.395 0 .796.035 1.2.104.406.07.767.168 1.083.296v-.696c0-.682-.193-1.223-.578-1.623-.386-.4-.92-.6-1.601-.6-.395 0-.8.079-1.215.237a5.492 5.492 0 0 0-.93.464.375.375 0 1 1-.39-.64c.894-.545 1.763-.817 2.609-.817.969 0 1.73.271 2.283.815.553.543.83 1.294.83 2.252v4.351a.44.44 0 1 1-.879-.002l.004-.85zM62.25 33.189a.504.504 0 0 1-.505-.504v-3.81c0-.879-.15-1.536-.451-1.97-.302-.435-.744-.653-1.327-.653-.287 0-.57.057-.852.171a3.22 3.22 0 0 0-1.438 1.163 2.944 2.944 0 0 0-.407.875v4.224a.504.504 0 0 1-1.008 0v-9.812a.504.504 0 0 1 1.008 0v4.343a3.497 3.497 0 0 1 1.274-1.379 3.294 3.294 0 0 1 1.764-.503c.445 0 .82.081 1.126.244.306.163.558.39.756.682.198.291.341.642.43 1.052.089.41.133.862.133 1.356v4.017a.504.504 0 0 1-.503.504M76.626 33.189a.504.504 0 0 1-.504-.504v-3.81c0-.898-.144-1.56-.43-1.985-.287-.425-.712-.638-1.275-.638-.296 0-.575.055-.837.163a2.568 2.568 0 0 0-.726.46 3.145 3.145 0 0 0-.586.704c-.168.272-.296.57-.385.897v4.209a.504.504 0 0 1-1.008 0v-3.81c0-.918-.139-1.585-.415-2-.277-.415-.702-.623-1.275-.623-.583 0-1.102.203-1.556.608-.454.405-.78.939-.978 1.6v4.225a.504.504 0 0 1-1.008 0v-6.758a.46.46 0 1 1 .919 0v1.289c.316-.593.731-1.055 1.245-1.386a3.081 3.081 0 0 1 1.704-.496c.652 0 1.174.183 1.564.548.39.365.63.845.719 1.438.721-1.324 1.714-1.986 2.98-1.986.434 0 .802.078 1.103.236.301.159.543.384.727.675.182.292.316.642.4 1.052.083.41.126.867.126 1.371v4.017a.504.504 0 0 1-.504.504M6.169 35a9.658 9.658 0 0 1-.965-2.468c-.564-2.31-.497-4.188.37-6.984.84-2.71 2.464-6.178 3.881-9.574 1.761-4.219 3.148-8.04 3.338-10.184.156-1.749-.364-3.228-.848-4.187a5.538 5.538 0 0 0-.617-1.027A4.933 4.933 0 0 0 10.783 0s.285 1.913-.566 4.48c-.88 2.337-2.384 5.198-4.845 9.936C2.693 19.57-.02 24.119 0 30.344c.02 6.378 5.052 11.284 11.283 11.284 2.073 0 4.184-.463 5.853-1.438l.013-.007c-.551.09-7.816.385-10.98-5.183"/>
            <path d="M21.843 26.469c-1.177-2.46-3.545-3.916-5.12-4.859-1.297-.776-1.238-1.988-1.238-1.988l-.623 1.792c-.661 2 .138 3.522 1.6 4.514.09.061.178.123.264.184.93.66 1.342 1.437 1.525 2.024.163.527.141.902.141.902a3.513 3.513 0 1 1-7.026 0c0-.22.073-.707.073-.707.552-2.858 3.38-8.341 4.25-11.91.928-3.798-1.617-7.446-1.617-7.446s.602 1.354-3.084 9.628c-1.712 3.844-2.764 6.302-3.313 7.82-.586 1.614-.572 2.902-.572 3.364a7.728 7.728 0 0 0 7.775 7.728c4.236-.024 7.646-3.509 7.682-7.745a7.39 7.39 0 0 0-.717-3.301"/>
        </g>
        <path d="M-36-8h158v57H-36z"/>
    </g>
</svg>
