<svg xmlns="http://www.w3.org/2000/svg" width="137" height="36" viewBox="0 0 137 36">
    <g fill="none" fill-rule="evenodd">
        <g fill-rule="nonzero">
            <g>
                <circle cx="5.465" cy="20.018" r="1" fill="#523D93" transform="rotate(-45 5.465 20.018)"/>
                <path fill="#523D93" d="M10.324 10.251a.864.864 0 0 0 1.238 0l1.373-1.373a.864.864 0 0 1 1.238 0 .864.864 0 0 1 0 1.238l-6.847 6.847a.864.864 0 0 0 0 1.238.864.864 0 0 0 1.238 0l5.474-5.474a.864.864 0 0 1 1.238 0 .864.864 0 0 1 0 1.238l-3.018 3.017a.864.864 0 0 0 0 1.238.864.864 0 0 0 1.238 0l1.702-1.702a.77.77 0 0 1 1.103 0l6.421-6.422L19.3.116l-8.956 8.955c-.367.29-.367.832-.019 1.18z"/>
                <path fill="#41A1FA" d="M24.482 8.259l-8.2 8.2a.958.958 0 0 1 0 1.374l-3.618 3.617a.864.864 0 0 0 0 1.238.864.864 0 0 0 1.238 0l6.422-6.422a.864.864 0 0 1 1.238 0 .864.864 0 0 1 0 1.238l-3.965 3.965a.864.864 0 0 0 0 1.238.864.864 0 0 0 1.237 0l2.592-2.591a.864.864 0 0 1 1.238 0 .864.864 0 0 1 0 1.237l-3.559 3.56a.864.864 0 0 0 0 1.237.864.864 0 0 0 1.238 0l12.514-12.514-8.375-5.377z"/>
                <path fill="#41A1FA" d="M19.28.058l9.999 3.404 3.54 10.135-10.116-3.559z"/>
                <circle cx="8.468" cy="12.095" r="1" fill="#523D93" transform="rotate(-45 8.468 12.095)"/>
                <circle cx="6.006" cy="14.549" r="1" fill="#523D93" transform="rotate(-45 6.006 14.549)"/>
                <circle cx="6.689" cy="23.72" r="1" fill="#523D93" transform="rotate(-45 6.689 23.72)"/>
                <circle cx="4.227" cy="26.174" r="1" fill="#523D93" transform="rotate(-45 4.227 26.174)"/>
                <circle cx="1.779" cy="28.642" r="1" fill="#523D93" transform="rotate(-45 1.779 28.642)"/>
                <circle cx="17.224" cy="27.95" r="1" fill="#41A1FA" transform="rotate(-45 17.224 27.95)"/>
                <circle cx="14.776" cy="30.418" r="1" fill="#41A1FA" transform="rotate(-45 14.776 30.418)"/>
                <circle cx="12.3" cy="32.886" r="1" fill="#41A1FA" transform="rotate(-45 12.3 32.886)"/>
                <circle cx="15.727" cy="24.545" r="1" fill="#41A1FA" transform="rotate(-45 15.727 24.545)"/>
                <circle cx="5.88" cy="34.389" r="1" fill="#41A1FA" transform="rotate(-45 5.88 34.389)"/>
                <path fill="#523D93" d="M22.432 10.038l-.27-.812 10.366 3.52.29.851-.657.658-10.425-3.54zM4.173 16.402a.883.883 0 0 0-1.16-.058L1.64 17.717a.884.884 0 0 0 .058 1.16c.309.33.812.33 1.16.059l1.373-1.374a.883.883 0 0 0-.058-1.16zM11.001 19.4a.883.883 0 0 0-1.16-.058l-1.374 1.373a.884.884 0 0 0 .058 1.16c.31.31.813.33 1.16.059l1.374-1.374a.843.843 0 0 0-.058-1.16z"/>
                <path fill="#41A1FA" d="M11.407 23.926a.883.883 0 0 0-1.16-.058L8.873 25.24a.884.884 0 0 0 .058 1.16c.31.33.813.33 1.16.059l1.374-1.374a.842.842 0 0 0-.058-1.16zM7.732 27.62a.883.883 0 0 0-1.16-.058l-1.374 1.373a.884.884 0 0 0 .058 1.16c.31.31.813.33 1.16.059L7.79 28.78a.883.883 0 0 0-.058-1.16zM4.038 31.314a.883.883 0 0 0-1.16-.058L1.503 32.63a.884.884 0 0 0 .058 1.16c.31.31.812.329 1.16.058l1.374-1.373a.883.883 0 0 0-.058-1.16zM13.883 26.382a.883.883 0 0 0-1.16-.058l-1.374 1.374a.884.884 0 0 0 .058 1.16c.31.31.812.329 1.16.058l1.374-1.373a.883.883 0 0 0-.058-1.16zM10.189 30.077a.883.883 0 0 0-1.16-.058l-1.374 1.373a.884.884 0 0 0 .058 1.16c.31.31.812.33 1.16.058l1.374-1.373a.883.883 0 0 0-.058-1.16z"/>
            </g>
            <g fill="#523D93">
                <path d="M41.548 11.252c0-.773.619-1.412 1.412-1.412h3.984c3.037 0 4.875 1.8 4.875 4.391v.039c0 2.94-2.283 4.468-5.145 4.468h-2.225v2.475c0 .677-.464 1.296-1.14 1.412-.949.174-1.761-.483-1.761-1.373v-10zm5.126 5.165c1.412 0 2.224-.87 2.224-2.012v-.039c0-1.315-.87-2.011-2.282-2.011h-2.167v4.062h2.225zM57.254 20.827l4.448-10.058c.31-.696.87-1.122 1.644-1.122h.155c.774 0 1.315.426 1.625 1.122l4.448 10.058c.252.541.232.947-.387 1.566-.212.213-.502.368-.812.368-.657 0-1.083-.387-1.354-.967l-.812-2.031H60.58l-.89 2.108c-.231.542-.715.87-1.295.87-.735 0-1.296-.58-1.296-1.315 0-.193.058-.406.155-.6zm7.91-3.405l-1.76-4.216-1.76 4.216h3.52zM75.203 11.136c0-.928.89-1.644 1.915-1.354.6.174.986.716.986 1.335v4.352l5.358-5.184c.367-.348.715-.56 1.218-.56.813 0 1.335.599 1.335 1.295 0 .445-.213.774-.522 1.064l-3.714 3.385 4.042 4.97c.233.272.387.562.387.987 0 .793-.619 1.373-1.47 1.373-.56 0-.909-.27-1.218-.676l-3.772-4.817-1.663 1.51v2.59c0 .6-.406 1.161-.987 1.335-1.005.29-1.915-.425-1.915-1.353V11.136h.02zM91.643 21.407V11.194c0-.735.6-1.334 1.335-1.334h7.524c.503 0 .967.29 1.16.754.368.929-.309 1.76-1.199 1.76h-5.918v2.708h4.854c.6 0 1.161.406 1.277 1.006.174.812-.464 1.509-1.238 1.509h-4.893v2.707h6.015c.6 0 1.141.407 1.277.987.174.832-.465 1.528-1.277 1.528h-7.505c-.793-.02-1.412-.638-1.412-1.412zM111.179 12.355h-2.805c-.6 0-1.141-.387-1.276-.967-.194-.813.464-1.548 1.295-1.548h8.491c.6 0 1.142.387 1.277.968.193.812-.464 1.547-1.296 1.547h-2.785v8.916c0 .677-.464 1.296-1.141 1.432-.948.174-1.76-.484-1.76-1.335v-9.013zM123.557 16.262v-.039c0-3.578 2.824-6.499 6.693-6.499 3.868 0 6.653 2.882 6.653 6.46v.04c0 3.577-2.824 6.498-6.692 6.498-3.868 0-6.654-2.901-6.654-6.46zm10.252 0v-.039c0-2.147-1.567-3.926-3.791-3.926-2.225 0-3.753 1.76-3.753 3.888v.038c0 2.147 1.567 3.927 3.791 3.927 2.225 0 3.753-1.741 3.753-3.888z"/>
            </g>
        </g>
        <path d="M-11-12h158v59H-11z"/>
    </g>
</svg>
