<?xml version="1.0" encoding="UTF-8"?>
<svg width="143px" height="32px" viewBox="0 0 143 32" version="1.1" xmlns="http://www.w3.org/2000/svg" xmlns:xlink="http://www.w3.org/1999/xlink">
    <!-- Generator: sketchtool 48.2 (47327) - http://www.bohemiancoding.com/sketch -->
    <title>7C363F35-B2D9-45C6-A285-C261A7C14BD4</title>
    <desc>Created with sketchtool.</desc>
    <defs>
        <path d="M4.07571637,2.0276776 C2.68725767,1.27958191 1.90562676,0.657142857 1.90283333,0.657142857 C3.42183333,5.88571429 0.106166667,20.8742857 0.106166667,20.8742857 C0.6503153,21.7316374 1.22863838,22.4207001 1.82443091,22.9699429 L4.07571637,22.9699429 L4.07571637,2.0276776 Z" id="path-1"></path>
        <path d="M0.611395375,10.3941618 C1.08330341,7.94457441 1.76377532,4.04226754 2.09893339,0.369096544 L6.11192346,0.369096544 L6.11192346,10.3941618 L0.611395375,10.3941618 Z" id="path-3"></path>
        <path d="M0.594153967,2.27199122 L0.967358655,0.13308 L2.06022987,0.13308 C3.18872551,0.632861286 4.34256772,0.334762684 4.8917077,0.13308 L5.18175468,0.13308 C5.09952211,0.426322635 4.89474188,1.17275777 4.6245971,2.27199122 L0.594153967,2.27199122 Z" id="path-5"></path>
        <path d="M0.339589539,2.53095122 L0.712794227,0.39204 L4.79450879,0.39204 C4.64756862,0.97016321 4.47092588,1.6909851 4.27799686,2.53095122 L0.339589539,2.53095122 Z" id="path-7"></path>
        <path d="M0.0848157311,2.79111122 L0.458020419,0.6522 L4.43633958,0.6522 C4.28643748,1.28487179 4.12304001,2.00217697 3.95355424,2.79111122 L0.0848157311,2.79111122 Z" id="path-9"></path>
        <polygon id="path-11" points="13.3228333 24.0621591 13.3228333 0.850795455 0.225054762 0.850795455 0.225054762 24.0621591 13.3228333 24.0621591"></polygon>
    </defs>
    <g id="-Product---HD" stroke="none" stroke-width="1" fill="none" fill-rule="evenodd" transform="translate(-988.000000, -2421.000000)">
        <g id="Page-1" transform="translate(988.000000, 2422.000000)">
            <g id="Group-19" transform="translate(51.000000, 0.000000)">
                <path d="M1.90033333,1.9611913 C1.90033333,1.9611913 0.182555556,0.314147826 4.34366667,0.196582609 C4.34366667,0.196582609 10.6703333,0.318669565 13.7747778,2.88362609 L13.0992222,7.66649565 L4.53144444,6.40266957 L1.90033333,1.9611913 Z" id="Fill-1" fill="#B080BC"></path>
                <path d="M1.90033333,1.9611913 C1.90033333,1.9611913 0.182555556,0.314147826 4.34366667,0.196582609 C4.34366667,0.196582609 10.6703333,0.318669565 13.7747778,2.88362609 L13.0992222,7.66649565 L4.53144444,6.40266957 L1.90033333,1.9611913 Z" id="Stroke-3" stroke="#361E61" stroke-width="0.749"></path>
                <path d="M11.9143333,3.68442609 C6.42988889,0.55086087 2.31766667,2.33581739 2.31766667,2.33581739 L3.14766667,8.6119913 L9.88877778,9.7786 L11.9143333,3.68442609 Z" id="Fill-5" fill="#B080BC"></path>
                <path d="M11.9143333,3.68442609 C6.42988889,0.55086087 2.31766667,2.33581739 2.31766667,2.33581739 L3.14766667,8.6119913 L9.88877778,9.7786 L11.9143333,3.68442609 Z" id="Stroke-7" stroke="#361E61" stroke-width="0.749"></path>
                <path d="M6.571,4.67796522 C7.45433333,5.17422609 11.8554444,4.81022609 15.9943333,1.25048696 C15.9943333,1.25048696 15.5954444,2.66692174 15.121,3.79735652 L13.3932222,8.0964 L6.63322222,7.64874783 L6.571,4.67796522 Z" id="Fill-9" fill="#B080BC"></path>
                <path d="M6.571,4.67796522 C7.45433333,5.17422609 11.8554444,4.81022609 15.9943333,1.25048696 C15.9943333,1.25048696 15.5954444,2.66692174 15.121,3.79735652 L13.3932222,8.0964 L6.63322222,7.64874783 L6.571,4.67796522 Z" id="Stroke-11" stroke="#361E61" stroke-width="0.749"></path>
                <path d="M7.27466667,4.78614783 C13.3713333,5.74136522 17.7402222,2.74006087 17.7402222,2.74006087 L16.8135556,5.32762609 L15.7657778,7.34545217 L7.45688889,6.35745217 L7.27466667,4.78614783 Z" id="Fill-13" fill="#B080BC"></path>
                <path d="M7.27466667,4.78614783 C13.3713333,5.74136522 17.7402222,2.74006087 17.7402222,2.74006087 L16.8135556,5.32762609 L15.7657778,7.34545217 L7.45688889,6.35745217 L7.27466667,4.78614783 Z" id="Stroke-15" stroke="#361E61" stroke-width="0.749"></path>
                <path d="M19.1762222,4.62166957 C19.1762222,4.62166957 13.334,11.3217565 10.6462222,24.5851478 C10.6462222,24.5851478 4.30288889,28.6535826 0.101777778,21.7782783 C0.101777778,21.7782783 3.25844444,6.95262609 1.81177778,1.77975652 C1.80733333,1.76506087 9.36066667,8.05366957 19.1762222,4.62166957" id="Fill-17" fill="#D8BCD2"></path>
            </g>
            <g id="Group-26" transform="translate(51.000000, 1.000000)">
                <g id="Group-22">
                    <mask id="mask-2" fill="white">
                        <use xlink:href="#path-1"></use>
                    </mask>
                    <g id="Clip-21"></g>
                    <path d="M0.904983333,0.132228571 C0.904983333,0.132228571 2.31315,1.26365714 3.92548333,1.9688 C3.92548333,1.9688 5.11431667,4.94708571 0.803483333,22.9699429 L-1.13201667,21.4899429 C-1.13201667,21.4899429 1.82665,2.80194286 0.904983333,0.132228571" id="Fill-20" fill="#FFF9FF" mask="url(#mask-2)"></path>
                </g>
                <g id="Group-25" transform="translate(0.000000, 8.000000)">
                    <mask id="mask-4" fill="white">
                        <use xlink:href="#path-3"></use>
                    </mask>
                    <g id="Clip-24"></g>
                    <path d="M2.48978333,0.5888 C5.19178333,1.39794286 6.71311667,4.19908571 5.88711667,6.84594286 C5.06228333,9.4928 2.20278333,10.9830857 -0.500383333,10.1739429 C-3.20121667,9.36594286 -4.72255,6.5648 -3.89771667,3.9168 C-3.07171667,1.27108571 -0.212216667,-0.2192 2.48978333,0.5888" id="Fill-23" fill="#FFF9FF" mask="url(#mask-4)"></path>
                </g>
            </g>
            <g id="Group-35" transform="translate(51.000000, 1.000000)">
                <path d="M19.1762222,3.50954545 C19.1762222,3.50954545 13.334,10.2447727 10.6462222,23.5777273 C10.6462222,23.5777273 4.30288889,27.6675 0.101777778,20.7561364 C0.101777778,20.7561364 3.25844444,5.85272727 1.81177778,0.652727273 C1.80733333,0.637954545 9.36066667,6.95954545 19.1762222,3.50954545 Z" id="Stroke-27" stroke="#361E61" stroke-width="0.749"></path>
                <path d="M9.20166667,7.02295455 C9.05388889,7.15931818 8.90277778,7.29340909 8.74944444,7.42522727 C8.745,7.43659091 9.92055556,7.73318182 10.1183333,7.87863636 C10.1172222,7.87977273 10.4872222,8.115 10.5516667,8.4525 C9.99833333,8.34340909 9.45388889,8.21159091 8.92055556,8.05590909 C8.75722222,8.18659091 8.59055556,8.31613636 8.42055556,8.44227273 C9.10055556,8.65477273 9.79833333,8.82977273 10.5105556,8.96727273 C10.525,8.94227273 10.3516667,10.1411364 8.31166667,9.41386364 C8.25833333,9.56840909 8.20388889,9.72409091 8.14833333,9.87977273 C8.58388889,10.8797727 9.09166667,11.865 9.67055556,12.8297727 C10.0405556,12.9047727 10.415,12.9684091 10.7916667,13.0252273 C10.1416667,12.0593182 9.56722222,11.0672727 9.06944444,10.0559091 C9.06277778,10.0570455 9.88722222,10.265 10.715,9.82977273 C10.7172222,9.83090909 11.2338889,9.51159091 11.2905556,9.10477273 C11.5227778,9.14 11.7583333,9.17181818 11.9938889,9.19795455 C12.1427778,9.04 12.2883333,8.88090909 12.4305556,8.71954545 C12.0794444,8.68204545 11.7305556,8.63431818 11.3861111,8.5775 C11.3861111,8.5775 11.3494444,8.13886364 11.1772222,7.99568182 C11.5027778,8.04568182 11.8316667,8.08659091 12.1627778,8.11840909 C12.2961111,7.96613636 12.4261111,7.81159091 12.5527778,7.65590909 C11.3983333,7.55022727 10.2772222,7.33545455 9.20166667,7.02295455" id="Fill-29" fill="#804B88"></path>
                <path d="M0.420222222,19.1511364 C4.24133333,25.2079545 9.508,22.6727273 9.508,22.6727273 C10.7357778,12.7363636 15.6102222,5.93636364 15.6102222,5.93636364 C15.6102222,5.93636364 7.55244444,6.82045455 2.11133333,2.78863636 L1.79022222,0.747727273 C1.79022222,0.747727273 10.4224444,7.15 19.1546667,3.60340909 C19.1546667,3.60340909 13.0424444,10.3613636 10.6246667,23.6727273 C10.6246667,23.6727273 4.15577778,27.9340909 0.0802222222,20.85 L0.420222222,19.1511364 Z" id="Fill-31" fill="#B080BC"></path>
                <path d="M0.420222222,19.1511364 C4.24133333,25.2079545 9.508,22.6727273 9.508,22.6727273 C10.7357778,12.7363636 15.6102222,5.93636364 15.6102222,5.93636364 C15.6102222,5.93636364 7.55244444,6.82045455 2.11133333,2.78863636 L1.79022222,0.747727273 C1.79022222,0.747727273 10.4224444,7.15 19.1546667,3.60340909 C19.1546667,3.60340909 13.0424444,10.3613636 10.6246667,23.6727273 C10.6246667,23.6727273 4.15577778,27.9340909 0.0802222222,20.85 L0.420222222,19.1511364 Z" id="Stroke-33" stroke="#361E61" stroke-width="0.749"></path>
            </g>
            <g id="Group-45" transform="translate(57.000000, 15.000000)">
                <g id="Group-38">
                    <mask id="mask-6" fill="white">
                        <use xlink:href="#path-5"></use>
                    </mask>
                    <g id="Clip-37"></g>
                    <path d="M-2.034,0.13308 C-2.034,0.13308 2.0256,3.32868 6.4812,1.90788" id="Stroke-36" stroke="#361E61" stroke-width="0.281" mask="url(#mask-6)"></path>
                </g>
                <g id="Group-41" transform="translate(0.000000, 1.200000)">
                    <mask id="mask-8" fill="white">
                        <use xlink:href="#path-7"></use>
                    </mask>
                    <g id="Clip-40"></g>
                    <path d="M-2.4084,0.39204 C-2.4084,0.39204 1.65,3.58764 6.1056,2.16684" id="Stroke-39" stroke="#361E61" stroke-width="0.281" mask="url(#mask-8)"></path>
                </g>
                <g id="Group-44" transform="translate(0.000000, 2.400000)">
                    <mask id="mask-10" fill="white">
                        <use xlink:href="#path-9"></use>
                    </mask>
                    <g id="Clip-43"></g>
                    <path d="M-2.7834,0.6522 C-2.7834,0.6522 1.275,3.8478 5.7306,2.427" id="Stroke-42" stroke="#361E61" stroke-width="0.281" mask="url(#mask-10)"></path>
                </g>
            </g>
            <g id="Group-59" transform="translate(0.000000, 6.000000)">
                <path d="M65.9376405,23.9096591 C65.9376405,24.5107955 62.1753786,24.9994318 57.5335532,24.9994318 C52.8917278,24.9994318 49.1294659,24.5107955 49.1294659,23.9096591 C49.1294659,23.3073864 52.8917278,22.81875 57.5335532,22.81875 C62.1753786,22.81875 65.9376405,23.3073864 65.9376405,23.9096591" id="Fill-46" fill="#361E61"></path>
                <path d="M4.50234365,5.32727273 L4.50234365,10.4340909 L13.8143675,10.4340909 C14.0186532,10.4340909 14.121931,10.5659091 14.121931,10.6988636 L14.121931,14.4125 C14.121931,14.5454545 14.0186532,14.6784091 13.8143675,14.6784091 L4.50234365,14.6784091 L4.50234365,23.7965909 C4.50234365,23.9295455 4.40020079,24.0613636 4.19478016,24.0613636 L0.307676984,24.0613636 C0.136303968,24.0613636 0.000113492063,23.9295455 0.000113492063,23.7965909 L0.000113492063,1.31477273 C0.000113492063,1.18295455 0.136303968,1.04886364 0.307676984,1.04886364 L15.7584865,1.04886364 C15.9627722,1.04886364 16.0989627,1.18295455 16.0989627,1.31477273 L16.0989627,5.0625 C16.0989627,5.19431818 15.9627722,5.32727273 15.7584865,5.32727273 L4.50234365,5.32727273 Z" id="Fill-48" fill="#361E61"></path>
                <path d="M28.3422595,10.4342045 L31.8219262,10.4342045 C32.8104421,10.4342045 35.3685532,10.30125 35.3685532,7.74784091 C35.3685532,5.19443182 32.5380611,5.06147727 31.8219262,5.06147727 L28.3422595,5.06147727 L28.3422595,10.4342045 Z M30.9003706,14.6773864 L28.3422595,14.6773864 L28.3422595,23.7967045 C28.3422595,23.9296591 28.206069,24.0614773 28.0017833,24.0614773 L24.1124103,24.0614773 C23.9421722,24.0614773 23.8059817,23.9296591 23.8059817,23.7967045 L23.8059817,1.11602273 C23.8059817,0.984204545 23.9421722,0.850113636 24.1124103,0.850113636 L31.8219262,0.850113636 C33.1861008,0.850113636 39.904831,0.917159091 39.904831,7.74784091 C39.904831,11.2955682 37.8926167,13.1535227 35.5058786,13.9819318 C37.0062437,17.2648864 38.6087516,20.4489773 40.1102516,23.6978409 C40.2123944,23.8967045 40.076204,24.0614773 39.8367357,24.0614773 L35.5739738,24.0614773 C35.471831,24.0614773 35.3004579,23.9626136 35.2664103,23.8967045 L30.9003706,14.6773864 Z" id="Fill-50" fill="#361E61"></path>
                <path d="M96.6941032,10.6328409 C96.8983889,10.6328409 97.0345794,10.7646591 97.0345794,10.8976136 L97.0345794,23.8635227 C97.0345794,23.9964773 96.8983889,24.1282955 96.6941032,24.1282955 L93.2825317,24.1282955 C93.1122937,24.1282955 92.9761032,24.0294318 92.9761032,23.8964773 L92.8399127,21.87375 C91.1000794,23.5646591 89.1219127,24.4271591 86.4945714,24.4271591 C80.0482222,24.4271591 75.0000952,20.0828409 75.0000952,12.4555682 C75.0000952,5.55897727 80.3557857,0.519204545 86.972373,0.519204545 C90.3147143,0.519204545 93.2825317,1.77943182 95.4320714,3.90102273 C95.5682619,4.00102273 95.5682619,4.19988636 95.4320714,4.29988636 L92.7025873,6.95215909 C92.5663968,7.05215909 92.3621111,7.05215909 92.2247857,6.95215909 C90.8957937,5.65897727 89.0186349,4.79647727 86.972373,4.79647727 C82.8798492,4.79647727 79.5704206,7.64875 79.5704206,12.4555682 C79.5704206,17.8282955 82.8798492,20.1169318 86.972373,20.1169318 C89.1559603,20.1169318 91.1681746,19.1873864 92.5663968,17.6953409 L92.5663968,14.5123864 L86.6318968,14.5123864 C86.4264762,14.5123864 86.2902857,14.3794318 86.2902857,14.2476136 L86.2902857,10.8976136 C86.2902857,10.7646591 86.4264762,10.6328409 86.6318968,10.6328409 L96.6941032,10.6328409 Z" id="Fill-52" fill="#361E61"></path>
                <path d="M110.949387,17.5298864 L115.758046,17.5298864 L113.371308,10.56625 L110.949387,17.5298864 Z M117.225498,21.4423864 L109.48307,21.4423864 L108.561514,23.8969318 C108.527467,23.9957955 108.391276,24.0617045 108.255086,24.0617045 L104.059284,24.0617045 C103.785768,24.0617045 103.649578,23.8969318 103.752856,23.6980682 L113.063744,0.35375 C113.167022,0.121931818 113.575594,0.121931818 113.677737,0.35375 L122.98976,23.6980682 C123.091903,23.8969318 122.955713,24.0617045 122.717379,24.0617045 L118.48753,24.0617045 C118.385387,24.0617045 118.249197,23.9957955 118.214014,23.8969318 L117.225498,21.4423864 Z" id="Fill-54" fill="#361E61"></path>
                <g id="Group-58" transform="translate(129.380952, 0.000000)">
                    <mask id="mask-12" fill="white">
                        <use xlink:href="#path-11"></use>
                    </mask>
                    <g id="Clip-57"></g>
                    <path d="M12.9815627,19.7848864 C13.1858484,19.7848864 13.3231738,19.9167045 13.3231738,20.0496591 L13.3231738,23.79625 C13.3231738,23.9292045 13.1858484,24.0621591 12.9815627,24.0621591 L0.566665873,24.0621591 C0.361245238,24.0621591 0.225054762,23.9292045 0.225054762,23.79625 L0.225054762,1.11556818 C0.225054762,0.98375 0.361245238,0.850795455 0.566665873,0.850795455 L4.41972143,0.850795455 C4.62514206,0.850795455 4.76133254,0.98375 4.76133254,1.11556818 L4.76133254,19.7848864 L12.9815627,19.7848864 Z" id="Fill-56" fill="#361E61" mask="url(#mask-12)"></path>
                </g>
            </g>
        </g>
    </g>
</svg>