<svg xmlns="http://www.w3.org/2000/svg" width="28" height="26" viewBox="0 0 28 26">
    <path fill="#FFF" fill-rule="nonzero" d="M27.143 15.937v10.035h-5.817V16.61c0-2.352-.842-3.957-2.948-3.957-1.607 0-2.564 1.082-2.985 2.128-.153.374-.193.895-.193 1.419v9.773H9.38s.08-15.858 0-17.5h5.82v2.48l-.038.057h.038v-.057c.773-1.19 2.154-2.892 5.244-2.892 3.829 0 6.7 2.502 6.7 7.877zM3.293.035C1.303.035 0 1.341 0 3.058c0 1.68 1.265 3.026 3.216 3.026h.039c2.03 0 3.291-1.346 3.291-3.026C6.508 1.341 5.284.035 3.293.035zM.346 25.972h5.817v-17.5H.346v17.5z"/>
</svg>
