<svg xmlns="http://www.w3.org/2000/svg" xmlns:xlink="http://www.w3.org/1999/xlink" width="112" height="28" viewBox="0 0 112 28">
    <defs>
        <path id="a" d="M0 .795h17.144v16.952H0z"/>
        <path id="c" d="M.101.23h16.197v17.768H.1z"/>
    </defs>
    <g fill="none" fill-rule="evenodd">
        <g>
            <mask id="b" fill="#fff">
                <use xlink:href="#a"/>
            </mask>
            <path fill="#2FAABA" d="M8.617 15.374c-3.366.018-6.11-2.573-6.129-5.785-.019-3.213 2.694-5.832 6.06-5.85 3.366-.018 6.11 2.572 6.129 5.785v.057c-.02 3.185-2.715 5.766-6.052 5.793h-.008zm6.437-11.128l1.628-1.554a1.046 1.046 0 0 0 .003-1.528l-.003-.002-.051-.05a1.17 1.17 0 0 0-1.6-.002l-.003.003-1.714 1.636C9.37.249 4.05 1.275 1.432 5.039c-2.62 3.765-1.545 8.843 2.4 11.342 3.943 2.5 9.262 1.474 11.88-2.29 2.125-3.054 1.863-7.083-.641-9.861l-.017.016z" mask="url(#b)"/>
        </g>
        <path fill="#2FAABA" d="M17.828 28c-.637 0-1.154-.47-1.154-1.05.07-3.104-2.196-5.85-5.49-6.656-2.603-.587-5.348.175-7.146 1.984-.385.403-1.038.486-1.528.193-.531-.328-.67-.986-.31-1.469.032-.042.068-.083.106-.121 2.161-2.18 5.382-3.225 8.572-2.78 4.733.733 8.177 4.489 8.121 8.857-.004.58-.525 1.047-1.162 1.042h-.009zM30.261 2.37c.412.126.703.505.73.948a.99.99 0 0 1 0 .277.942.942 0 0 1-.373.587 1.345 1.345 0 0 1-.697.15c-.178 0-.484-.02-.916-.058a5.949 5.949 0 0 0-.713 0 5.322 5.322 0 0 0-3.63 1.224 4.034 4.034 0 0 0-1.41 3.195v9.141c0 .644-.503 1.166-1.126 1.166-.622 0-1.126-.522-1.126-1.166V3.377c0-.645.504-1.166 1.126-1.166.623 0 1.126.521 1.126 1.166v1.325a5.952 5.952 0 0 1 2.196-1.996A6.054 6.054 0 0 1 28.325 2a4.704 4.704 0 0 1 1.936.37M43.7 16.05a5.854 5.854 0 0 0 2.182-2.244c.553-.996.84-2.116.836-3.255a6.718 6.718 0 0 0-.836-3.28 5.843 5.843 0 0 0-2.181-2.31 6.518 6.518 0 0 0-6.343 0 5.913 5.913 0 0 0-2.232 2.278 6.612 6.612 0 0 0-.835 3.279c-.01 1.139.279 2.26.835 3.254a5.913 5.913 0 0 0 2.232 2.278 6.518 6.518 0 0 0 6.343 0zm-7.52 1.861a7.928 7.928 0 0 1-3.043-3.037 8.651 8.651 0 0 1-1.136-4.356 8.752 8.752 0 0 1 1.103-4.364A7.903 7.903 0 0 1 36.179 3.1a9.154 9.154 0 0 1 8.7 0 8.037 8.037 0 0 1 3 3.054A8.658 8.658 0 0 1 49 10.518a8.667 8.667 0 0 1-1.12 4.347 7.922 7.922 0 0 1-3.042 3.038 9.205 9.205 0 0 1-8.716 0l.058.008zM64.887 7.228a5.86 5.86 0 0 0-2.2-2.278 6.53 6.53 0 0 0-6.35 0 5.91 5.91 0 0 0-2.233 2.278 6.6 6.6 0 0 0-.836 3.28 6.54 6.54 0 0 0 .836 3.255 5.911 5.911 0 0 0 2.184 2.27 6.53 6.53 0 0 0 6.349 0 5.846 5.846 0 0 0 2.25-2.237c.552-.995.84-2.116.837-3.254a6.724 6.724 0 0 0-.837-3.28v-.034zm-9.754 10.675a7.916 7.916 0 0 1-3.028-3.047 8.647 8.647 0 0 1-1.104-4.348 8.74 8.74 0 0 1 1.104-4.365A7.907 7.907 0 0 1 55.15 3.09a9.17 9.17 0 0 1 8.667 0 8.042 8.042 0 0 1 3.044 3.054 8.645 8.645 0 0 1 1.138 4.365c.02 1.52-.36 3.02-1.105 4.348a7.924 7.924 0 0 1-3.077 3.047 9.22 9.22 0 0 1-8.726 0h.042z"/>
        <g transform="translate(95 2)">
            <mask id="d" fill="#fff">
                <use xlink:href="#c"/>
            </mask>
            <path fill="#2FAABA" d="M4.38 3.9A6.516 6.516 0 0 0 2.45 7.85h11.569A6.257 6.257 0 0 0 12.25 3.9a5.297 5.297 0 0 0-3.885-1.5 5.56 5.56 0 0 0-4.012 1.525L4.38 3.9zm8.126-2.572a7.494 7.494 0 0 1 2.796 3.043 9.594 9.594 0 0 1 .995 4.432c.014.304-.1.6-.315.814a1.13 1.13 0 0 1-.85.3H2.382c.214 3.397 3.078 6 6.451 5.863a6.976 6.976 0 0 0 2.295-.395 5.554 5.554 0 0 0 1.854-1.002c.24-.2.539-.31.85-.318.253.009.498.099.696.258.252.213.402.525.409.857a.976.976 0 0 1-.349.738 8.597 8.597 0 0 1-2.652 1.482 9.093 9.093 0 0 1-7.65-.54 8.036 8.036 0 0 1-3.111-3.155A9.277 9.277 0 0 1 .105 9.12a9.774 9.774 0 0 1 1.062-4.603 7.838 7.838 0 0 1 2.94-3.154A8.146 8.146 0 0 1 8.358.23a7.79 7.79 0 0 1 4.149 1.097z" mask="url(#d)"/>
        </g>
        <path fill="#2FAABA" d="M89.14 2.916a5.762 5.762 0 0 1 2.106 2.442 8.43 8.43 0 0 1 .752 3.668v8.846c.011.612-.459 1.116-1.05 1.128-.032 0-.066 0-.1-.003-.3.007-.59-.108-.81-.32a1.136 1.136 0 0 1-.323-.839V9.026a5.157 5.157 0 0 0-1.077-3.458 3.53 3.53 0 0 0-2.825-1.276 3.87 3.87 0 0 0-3.062 1.276 4.764 4.764 0 0 0-1.125 3.357v8.947c.008.612-.463 1.115-1.052 1.125h-.042c-.3.007-.59-.108-.81-.32a1.126 1.126 0 0 1-.322-.839V9.026a5.157 5.157 0 0 0-1.102-3.458 3.532 3.532 0 0 0-2.834-1.276 3.98 3.98 0 0 0-3.02 1.276A4.518 4.518 0 0 0 71.26 8.79v9.081c.01.612-.46 1.115-1.051 1.126l-.074-.001c-.3.007-.59-.108-.81-.32a1.13 1.13 0 0 1-.324-.839V3.436c-.036-.639.435-1.186 1.05-1.224l.084-.001c.303-.012.598.11.81.335.202.229.313.529.307.84v.671a5.776 5.776 0 0 1 1.968-1.52 5.728 5.728 0 0 1 2.477-.536 5.685 5.685 0 0 1 2.932.763 5.61 5.61 0 0 1 2.072 2.15 6.111 6.111 0 0 1 2.236-2.15 6.297 6.297 0 0 1 3.092-.763c1.1-.008 2.179.31 3.11.915"/>
        <path d="M-25-22h158v57H-25z"/>
    </g>
</svg>
