<svg xmlns="http://www.w3.org/2000/svg" width="71" height="65" viewBox="0 0 71 65">
    <g fill="#898989" fill-rule="nonzero">
        <path d="M43.764 45.682c0-.245-.088-.49-.263-.734-1.4-1.641-2.525-3.049-3.375-4.223.525-1.003.925-1.934 1.2-2.79l5.812-.881c.226-.025.426-.153.6-.385.175-.234.262-.472.262-.717V29.16a1.08 1.08 0 0 0-.262-.716 1.087 1.087 0 0 0-.637-.385l-5.7-.844c-.276-.833-.7-1.837-1.276-3.012.375-.539.938-1.273 1.688-2.203.75-.93 1.276-1.591 1.575-1.983.176-.245.263-.477.263-.697 0-.661-1.8-2.62-5.4-5.876a1.26 1.26 0 0 0-.788-.293c-.3 0-.55.085-.75.257l-4.425 3.268c-1.025-.514-1.963-.893-2.813-1.139l-.862-5.618c-.025-.245-.15-.46-.375-.643a1.159 1.159 0 0 0-.75-.275h-6.975c-.575 0-.95.294-1.125.881-.3 1.126-.588 3.012-.863 5.655a18.454 18.454 0 0 0-2.887 1.175l-4.312-3.304a1.368 1.368 0 0 0-.788-.257c-.475 0-1.463.722-2.963 2.166S5.05 17.85 4.5 18.584c-.175.196-.262.441-.262.735 0 .22.087.465.262.734 1.4 1.64 2.525 3.048 3.375 4.223-.525 1.004-.925 1.934-1.2 2.79l-5.812.881c-.226.024-.425.153-.6.385-.176.233-.263.471-.263.716v6.793c0 .27.087.508.262.716a.928.928 0 0 0 .638.349l5.7.881c.3.93.738 1.934 1.313 3.011-.4.54-.987 1.286-1.762 2.24a59.089 59.089 0 0 0-1.538 1.947c-.175.244-.263.478-.263.697 0 .662 1.8 2.62 5.4 5.876.25.195.513.292.788.292.325 0 .575-.085.75-.256l4.425-3.268c1.025.514 1.962.893 2.813 1.138l.862 5.618c.025.245.15.46.375.643s.475.275.75.275h6.975c.575 0 .95-.293 1.125-.881.3-1.151.587-3.048.862-5.692 1-.293 1.962-.673 2.888-1.138l4.312 3.305c.25.171.513.256.788.256.475 0 1.457-.728 2.944-2.185 1.487-1.455 2.519-2.552 3.094-3.286.175-.17.263-.403.263-.697zm-12.976-6.535C28.913 40.982 26.65 41.9 24 41.9c-2.65 0-4.914-.918-6.788-2.753C15.338 37.31 14.4 35.095 14.4 32.5c0-2.595.938-4.81 2.813-6.646C19.087 24.018 21.35 23.1 24 23.1c2.65 0 4.912.918 6.787 2.754C32.663 27.69 33.6 29.905 33.6 32.5c0 2.595-.937 4.81-2.812 6.647zM65.567 47.782a10.269 10.269 0 0 0-1.093-1.905c1.24-2.76 1.859-4.446 1.859-5.057 0-.096-.048-.182-.146-.256C63.27 38.855 61.763 38 61.667 38l-.22.074c-.996 1.001-2.114 2.369-3.353 4.103A12.08 12.08 0 0 0 57 42.103c-.244 0-.608.025-1.095.074-.339-.513-.971-1.338-1.895-2.473C53.088 38.569 52.528 38 52.334 38c-.049 0-.413.195-1.094.587-.68.391-1.397.806-2.151 1.246-.754.44-1.178.684-1.276.733-.098.073-.146.159-.146.256 0 .61.62 2.295 1.86 5.056a10.317 10.317 0 0 0-1.094 1.904c-3.622.366-5.433.745-5.433 1.136v5.129c0 .39 1.81.769 5.433 1.135.29.66.656 1.295 1.093 1.904-1.24 2.76-1.859 4.446-1.859 5.056 0 .098.048.184.146.257C50.778 64.133 52.285 65 52.333 65c.195 0 .755-.574 1.678-1.722.923-1.148 1.555-1.978 1.895-2.49.486.047.85.072 1.095.072.242 0 .607-.025 1.093-.073.34.513.971 1.343 1.895 2.491C60.912 64.426 61.47 65 61.666 65c.049 0 1.556-.867 4.521-2.601.098-.073.146-.159.146-.257 0-.61-.62-2.295-1.86-5.056a10.63 10.63 0 0 0 1.094-1.904C69.19 54.816 71 54.437 71 54.047v-5.13c0-.39-1.811-.77-5.433-1.135zM60.3 54.797c-.91.916-2.011 1.375-3.3 1.375-1.288 0-2.388-.459-3.299-1.375-.911-.916-1.368-2.02-1.368-3.315 0-1.27.463-2.37 1.387-3.297.923-.928 2.017-1.392 3.28-1.392 1.264 0 2.359.463 3.282 1.392.923.927 1.386 2.027 1.386 3.297-.001 1.294-.456 2.4-1.368 3.315zM65.567 9.782a10.26 10.26 0 0 0-1.093-1.906c1.24-2.76 1.859-4.445 1.859-5.055 0-.097-.048-.183-.146-.257C63.27.854 61.763 0 61.667 0l-.22.073c-.996 1.002-2.114 2.37-3.353 4.103-.486-.048-.85-.073-1.093-.073a12.1 12.1 0 0 0-1.095.073c-.339-.512-.971-1.337-1.895-2.472C53.088.568 52.528 0 52.334 0c-.049 0-.413.195-1.094.586-.68.392-1.397.807-2.151 1.246-.754.44-1.178.684-1.276.733-.098.073-.146.159-.146.256 0 .61.62 2.296 1.86 5.056a10.289 10.289 0 0 0-1.094 1.905c-3.622.366-5.433.745-5.433 1.136v5.129c0 .39 1.81.769 5.433 1.135.29.66.656 1.294 1.093 1.905-1.24 2.76-1.859 4.445-1.859 5.056 0 .097.048.183.146.256C50.778 26.133 52.285 27 52.333 27c.195 0 .755-.574 1.678-1.722.923-1.148 1.555-1.978 1.895-2.491.486.049.85.073 1.095.073.242 0 .607-.024 1.093-.073.34.513.971 1.343 1.895 2.491C60.912 26.426 61.47 27 61.666 27c.049 0 1.556-.867 4.521-2.601.098-.073.146-.159.146-.256 0-.611-.62-2.296-1.86-5.056.438-.61.803-1.246 1.094-1.905C69.19 16.816 71 16.437 71 16.047v-5.13c0-.39-1.811-.769-5.433-1.135zM60.3 16.797c-.91.916-2.011 1.374-3.3 1.374-1.288 0-2.388-.458-3.299-1.374-.911-.915-1.368-2.02-1.368-3.315 0-1.27.463-2.37 1.387-3.297.923-.929 2.017-1.393 3.28-1.393 1.264 0 2.359.465 3.282 1.393.923.928 1.386 2.027 1.386 3.297-.001 1.294-.456 2.4-1.368 3.315z"/>
    </g>
</svg>
