<svg xmlns="http://www.w3.org/2000/svg" xmlns:xlink="http://www.w3.org/1999/xlink" width="321" height="429" viewBox="0 0 321 429">
    <defs>
        <path id="a" d="M0 .207V125.12h321V.207H0z"/>
        <path id="c" d="M38.933.289H.529v46.354h38.404V.289z"/>
    </defs>
    <g fill="none" fill-rule="evenodd">
        <g transform="translate(0 303)">
            <mask id="b" fill="#fff">
                <use xlink:href="#a"/>
            </mask>
            <path fill="#E8E8EF" d="M321 62.663c0 34.493-71.86 62.456-160.5 62.456C71.859 125.12 0 97.156 0 62.663 0 28.171 71.859.207 160.5.207 249.14.207 321 28.171 321 62.663" mask="url(#b)"/>
        </g>
        <path fill="#342A44" d="M82 326.51l15.396-7.46s20.012-2.663 23.604 30.903c0 0-1.54 14.385-6.159 19.713 0 0-17.617 13.853-22.236 13.319L82 326.51z"/>
        <path fill="#AFB6D3" d="M105.34 353.057c2.581 15.682-2.641 29.487-11.666 30.836-9.025 1.35-18.433-10.27-21.014-25.95-2.581-15.682 2.641-29.487 11.668-30.836 9.024-1.35 18.433 10.27 21.012 25.95"/>
        <path fill="#5A4E71" d="M137 293.464L152.366 286s18.951 1.066 22.537 34.658c0 0 1.024 12.262-3.586 17.595 0 0-16.902 12.265-21.512 11.73L137 293.464z"/>
        <path fill="#CCC7E4" d="M160.34 320.057c2.581 15.682-2.641 29.487-11.666 30.836-9.026 1.35-18.435-10.27-21.014-25.95-2.581-15.682 2.641-29.487 11.668-30.836 9.023-1.35 18.431 10.27 21.012 25.95"/>
        <path fill="#82B0E1" d="M125.542 171.351l-47.388 26.797s-8.362 2.117-6.968 28.912v78.273s-2.787 8.463 13.241 14.808l27.875 14.104s6.272 7.053 18.815-1.41c12.545-8.461 40.42-26.092 40.42-26.092s9.755-.704 10.453-19.04V205.2s.697-13.398-9.755-16.924l-29.967-14.103s-11.15-7.052-16.726-2.822"/>
        <path fill="#7396CE" d="M86.494 196.905s-7.82 2.441-4.8 6.278c.973 1.235 22.93 17.092 35.729 17.79 12.797.698 41.948-11.86 40.527-22.671L125.599 184l-39.105 12.905z"/>
        <path fill="#82B0E1" d="M81.076 192.729s-6.727-39.7 13.456-53.291c20.184-13.593 42.492-14.665 57.718-5.365 0 0 19.122 7.153 15.226 53.648 0 0 1.77 7.155-13.102 14.308 0 0-30.01 16.72-44.174 10.64-10.832-4.65-24.166-13.143-24.166-13.143s-4.958-2.505-4.958-6.797"/>
        <path fill="#AFBEDB" d="M114 326.222l1.37 56.592c.123 5.056 3.204 9.56 7.852 11.478l41.544 21.983a22.779 22.779 0 0 0 21.055-1.92l94.524-63.405a13.976 13.976 0 0 0 6.308-10.286L287 303l-173 23.222z"/>
        <path fill="#9DAFCE" d="M114 324.256l76.54 35.316L287 304v11.426l-81.62 49.691a26.68 26.68 0 0 1-25.181 1.362l-65.675-30.798-.524-11.425z"/>
        <path fill="#C7D1EA" d="M227.57 251.2l81.337 35.758c2.59 1.138 2.83 4.708.418 6.184l-108.438 65.894a13.386 13.386 0 0 1-13.089.489l-85.007-38.485c-2.334-1.197-2.401-4.501-.117-5.792l112.199-63.412a14.2 14.2 0 0 1 12.698-.636"/>
        <path fill="#342A44" d="M134.426 136.347l-22.809 11.181s-10.962 4.854-10.609 23.574l1.061 37.438s13.083 9.36 27.936 5.546c9.325-2.394 20.462-8.887 27.46-13.389 6.22-4.116 11.79-13.735 11.526-27.515-.178-9.207-1.756-30.73-19.384-37.867-6.342-3.473-15.181 1.032-15.181 1.032"/>
        <path fill="#A2DEF9" d="M137 178c0 3.313-.672 6-1.5 6s-1.5-2.687-1.5-6 .672-6 1.5-6 1.5 2.687 1.5 6M152 173c0 3.313-.672 6-1.5 6s-1.5-2.687-1.5-6 .672-6 1.5-6 1.5 2.687 1.5 6"/>
        <path fill="#342A44" d="M77.182 221.888s8.098-4.575 9.448 7.043c0 0-30.034 48.23 29.022 78.86l1.348.703s-2.699 3.521-1.685 9.506c0 0-41.47-10.131-45.558-49.288-3.71-35.558 7.425-46.824 7.425-46.824"/>
        <path fill="#7396CE" d="M122 230.93c1.59-.519 51.94-26.93 51.94-26.93l1.06 2.07L123.06 233l-1.06-2.07z"/>
        <path fill="#6C7AB0" d="M92.916 353.446c.526 6.62-1.475 12.236-4.465 12.541-2.993.305-5.843-4.812-6.367-11.432-.525-6.62 1.474-12.236 4.466-12.542 2.99-.307 5.84 4.813 6.366 11.433M125 283.364l.524 8.636L169 267.174V258z"/>
        <path fill="#544A84" d="M120.651 304.093s-7.407 2.465-3.526 14.444c0 0 4.938 3.171 9.699.176 0 0-2.613.26-2.792-1.588-.318-3.276-.191-8.186 2.968-10.213 0 0-1.41-3.523-6.349-2.819"/>
        <path fill="#98B6DF" d="M125.941 306.95s15.66-9.95 17.082-9.95c1.425 0 19.575.71 23.844 16.702 0 0 1.067 3.196-2.848 4.264 0 0-1.066 2.842-4.98 3.199 0 0 .355 6.04-6.05 4.618l-12.1-7.817s-10.321 3.199-16.727.355c0 0-3.559-6.397 1.78-11.372"/>
        <path fill="#7396CE" d="M158 322l-14-11s9.562 3.667 14 11M149 304s11.2 3.385 14 12c0 0-1.05-10.768-14-12"/>
        <path fill="#6C7AB0" d="M175 217.5c0 1.38-.672 2.5-1.5 2.5s-1.5-1.12-1.5-2.5.672-2.5 1.5-2.5 1.5 1.12 1.5 2.5M175 232.5c0 1.38-.671 2.5-1.5 2.5-.828 0-1.5-1.12-1.5-2.5s.672-2.5 1.5-2.5c.829 0 1.5 1.12 1.5 2.5"/>
        <path fill="#7396CE" d="M131 240.434L167 222l-.694 24.815S131 267.021 131 265.96v-25.526z"/>
        <path fill="#98B6DF" d="M133 240.772l.359 20.228 31.564-16.458L166 225z"/>
        <path fill="#342A44" d="M180 229.527s30.714 11.369 45.715 45.473c0 0 3.928-5.328 9.285-4.617 0 0-16.786-38.37-53.213-49.383L180 229.527z"/>
        <path fill="#544A84" d="M223.604 277s-4.824-4.472-1.34-6.955c3.483-2.484 10.45-8.198 14.736.994L223.604 277z"/>
        <path fill="#F3F3F3" d="M225.317 286L202 300.768s26.851 15.799 34.27 19.232c.706-.343 24.73-17.172 24.73-17.172L225.317 286z"/>
        <path fill="#98B6DF" d="M225.139 273.435S220 277.263 220 282.138c0 0 2.055 13.227 1.714 17.751 0 0 3.767 2.09 8.906-1.739l.342-9.748s6.51 4.875 8.565 12.184c2.055 7.31 10.62 4.176 10.62.348 0 0 6.508 0 4.451-7.31 0 0-4.11-16.36-18.84-23.322 0 0-5.481-1.74-10.62 3.133"/>
        <path fill="#7396CE" d="M251 301s-2.545-11.13-8-16c0 0 5.455 9.39 8 16"/>
        <path fill="#F3F3F3" d="M186.317 306L163 320.768s26.851 15.797 34.27 19.232c.706-.343 24.73-17.172 24.73-17.172L186.317 306z"/>
        <path fill="#7396CE" d="M229 286s5.332 2.946 8 8l-8-8z"/>
        <path fill="#FFF" d="M253.417 284.323L285.99 299s22.659-12.231 22.659-13.629c0-1.397.352-40.888.352-40.888L277.845 234 252 245.88l1.417 38.443z"/>
        <path fill="#E7F0FA" d="M252 245l33.646 12.258L286 299s-32.228-13.5-32.582-14.92C253.064 282.657 252 245 252 245"/>
        <path fill="#F3F3F3" d="M133 282.956L161.261 267s23.315 11.967 36.739 15.231c0 0-30.027 17.406-31.793 17.769 0 0-27.555-9.066-33.207-17.044"/>
        <path fill="#EBEAF5" d="M287 257.574L311 244l-.364 41.25L287.364 299z"/>
        <path fill="#FFF" d="M217.237 104.832s-3.423 29.806 15.746 29.158c19.171-.649 26.017-7.127 26.017-7.127s-17.116 0-15.745-14.904c1.369-14.901 5.476-11.661 5.476-11.661l-31.494 4.534zM73 81.582s-5.816-29.836-23.238-23.768C32.344 63.883 28 72.101 28 72.101s15.729-4.858 18.951 9.962c3.223 14.821-1.525 12.85-1.525 12.85L73 81.583z"/>
        <g transform="translate(145)">
            <mask id="d" fill="#fff">
                <use xlink:href="#c"/>
            </mask>
            <path fill="#FFF" d="M19.452 46.643s27.087-12.679 17.38-28.348C27.125 2.628 18.321.288 18.321.288s8.175 14.291-5.207 20.917C-.266 27.829.539 22.71.539 22.71l18.913 23.932z" mask="url(#d)"/>
        </g>
        <path fill="#FFF" d="M5 258.214s9.392 28.316 26.026 20.384C47.662 270.664 51 262.17 51 262.17s-15.093 6.559-20.09-7.468c-4.998-14.026-.028-12.666-.028-12.666L5 258.214z"/>
    </g>
</svg>
