<svg xmlns="http://www.w3.org/2000/svg" width="423" height="481" viewBox="0 0 423 481">
    <g fill="none" fill-rule="evenodd">
        <path fill="#F1F2F9" d="M324.111 330.365L110.644 444.633l3.889 1.94L328.002 330.85z"/>
        <path fill="#F1F2F9" d="M192.82 302.464l226.72 73.8 2.917-1.949-228.177-73.306zM71.256 365.058l-1.458 1.455L314.94 446.25l2.97-1.987zM45.97 409.212l218.148 71.04 2.891-1.934-219.58-70.561zM140.791 336.915l-1.458 1.456 226.598 73.762 2.916-1.95zM342.36 296.573c-1.417 6.481-18.2 8.328-37.484 4.126-19.285-4.202-33.77-12.86-32.351-19.34 1.417-6.48 18.2-8.326 37.486-4.126 19.283 4.202 33.767 12.86 32.35 19.34"/>
        <path fill="#BD8663" d="M278.803 323.491s-1.372 4.84-5.805 6.142c0 0 .999 4.269 6.386 7.885 0 0 .914.852 1.658 3.544.745 2.693 1.09 4.748 4.227 4.374 0 0 4.834-2.09 4.682-4.336-.152-2.246-2.286-11.542-10.989-18.298l-.16.689z"/>
        <path fill="#007887" d="M269.529 325.876s6.079-1.092 8.753-6.064l2.43 3.76s-1.215 4.76-7.537 6.337l-3.646-4.033z"/>
        <path fill="#A3D399" d="M255.305 245.938s6.2 1.82 6.93 14.192c.73 12.374 4.377 31.66 5.47 34.208 1.094 2.546 11.306 24.018 11.306 24.018s0 7.642-10.942 8.005c0 0-13.492-22.198-16.045-28.383-2.553-6.187-5.472-25.112-5.472-25.112l8.753-26.928z"/>
        <path fill="#BD8663" d="M273.584 330.655s.35 3.839 2.388 7.77l1.16 3.579c.374 1.156 1.99 1.016 2.306.022.317-.994-2.369-5.738-.065-5.332 0 0-.482-6.22-5.789-6.039"/>
        <path fill="#729E80" d="M247.856 269.91l-1.546 3.685 4.134 20.136s-3.715-19.743-2.588-23.82M268.07 326.362s9.117.85 10.94-8.006c0 0-1.823 6.429-10.94 8.006"/>
        <path fill="#BD8663" d="M242.625 341.278s-3.144 5.024-7.628 6.142c0 0 .82 4.305 6.052 8.142 0 0 .877.89 1.51 3.611.63 2.722.89 4.789 4.04 4.545 0 0 5.3-2.354 5.242-4.603-.059-2.251-1.034-8.837-9.216-17.837"/>
        <path fill="#007887" d="M242.177 339.705l1.822 3.518s-1.337 5.094-9.239 4.61l-3.038-4.125s7.416-.364 10.455-4.003"/>
        <path fill="#462E58" d="M195.191 308.409s-3.646-4.61-7.78-1.94c-4.132 2.668-1.702 7.035-1.702 10.19 0 3.153-1.216 8.733 1.702 12.372 2.919 3.638 3.161 4.851 5.349 5.336 2.188.486 5.349-.727 5.592-2.182.244-1.456-2.918-4.853-2.43-9.948l-.73-13.828z"/>
        <path fill="#A99A9B" d="M200.236 307.438l-5.044.97s-3.16-1.212-3.648 3.154c-.485 4.367.183 6.612 4.316 9.523 0 0 .137-1.895 1.216-2.244 1.08-.35 3.829-.91 3.829-.91l-.669-10.493z"/>
        <path fill="#402A39" d="M195.191 308.409s-4.376-1.214-3.646 4.85c0 0 .06 2.973 1.823 5.764 0 0-3.038.06-3.283-7.217-.243-7.28 5.106-4.853 5.106-3.397"/>
        <path fill="#AC9C96" d="M128.878 350.259l11.913-8.43-.73-3.095-11.852 9.098z"/>
        <path fill="#C9B5AD" d="M130.215 318.72s1.277 12.555 8.935 17.649l3.1 2.365-13.372 9.827s-10.575-12.434-10.455-22.32l11.792-7.52z"/>
        <path fill="#E9D8D4" d="M118.423 326.24l11.793-7.52-3.162-2.185-13.007 7.764z"/>
        <path fill="#DCC5B5" d="M114.047 324.3l-.485 16.496 15.316 9.462v-1.698s-10.455-12.857-10.455-22.319l-4.376-1.942z"/>
        <path fill="#462E58" d="M135.2 322.601s-3.648-4.61-7.781-1.941c-4.133 2.669-1.702 7.035-1.702 10.19 0 3.153-1.216 8.734 1.702 12.374 2.918 3.638 3.161 4.851 5.349 5.336 2.188.486 5.349-.728 5.591-2.183.245-1.455-2.917-4.852-2.43-9.947l-.73-13.829z"/>
        <path fill="#A99A9B" d="M139.09 324.057l-3.89-1.455s-3.16-1.213-3.648 3.153c-.486 4.367 1.216 7.28 5.349 10.189l2.189-11.887z"/>
        <path fill="#677E78" d="M172.885 267.408c-10.941 6.187-13.13 18.56-8.754 33.115 4.376 14.558 10.942 36.028 10.942 36.028l-35.74-13.1s-6.93.363-5.47 9.46c1.094 8.006 11.67 12.01 11.67 12.01l37.198 14.194s7.66 2.91 12.035-.73c4.376-3.638 4.742-8.368 3.282-13.828-1.458-5.459-8.32-43.094-8.32-43.094s3.552-1.46 5.68-.947c5.286 1.277 20.788 5.136 29.629 4.617 0 0-3.836-1.785-11.49-1.153-4.685.39-12.878 2.785-16.41 3.822 0 0-4.377 7.824 3.647 14.738 0 0 2.553.728 8.934-1.82 0 0 35.497-6.975 40.239-12.797 2.963-3.64 4.335-9.772-.723-15.003-3.035-3.138-11.53-4.636-20.122-7.33l-9.467-3.4"/>
        <path fill="#536862" d="M227.407 302.162s4.193-1.82 5.653-1.275c0 0-1.46-1.638-6.019.365l-.364 1.454.73-.544z"/>
        <path fill="#A3D399" d="M231.236 242.662s20.908.607 21.395 12.251c.486 11.646-4.62 18.682-7.294 20.623-2.673 1.94-17.506 7.52-19.207 8.248-1.702.727-21.153 7.28-24.556 8.49-3.403 1.214-11.426 3.398-12.157 2.912-14.83.728-25.285-15.282-25.285-15.282s-2.184-4.68 0-7.523c5.591-7.278 25.164-21.35 67.104-29.72"/>
        <path fill="#A3D399" d="M202.425 275.05s3.646 10.553 6.199 18.56c2.554 8.006 4.012 24.746 6.565 28.386 2.553 3.638 16.046 22.198 16.046 22.198s9.118 1.455 11.671-5.46c0 0-13.494-22.562-14.588-28.749-1.094-6.185-2.553-28.748-2.553-33.48 0-4.73-2.553-18.194-14.222-15.647-11.671 2.546-9.848 11.646-9.118 14.192"/>
        <path fill="#9D603F" d="M229.777 254.671s1.215 9.22 8.509 14.556l4.377-2.183-12.886-12.373z"/>
        <path fill="#729E80" d="M226.13 249.092s-1.367.272-2.257 2.354c-.6 1.405-.596 2.986-.155 4.448.848 2.813 2.66 8.584 4.6 13.333l1.215 4.124s3.162-3.88 5.35-5.093l3.404.969s-6.808-5.58-7.78-12.373l-1.217-1.211s-.242 5.336 4.62 10.915l-3.647 4.125s-4.863-11.402-5.591-14.556c-.73-3.153.728-5.58 1.944-6.066l-.486-.969z"/>
        <path fill="#E59D88" d="M238.286 269.227l2.755-1.774-.323 1.41z"/>
        <path fill="#BD8663" d="M256.035 239.387s.973 5.095 0 8.49c0 0-.73 2.185-.973 2.67-.243.485 1.216 2.427-.243 6.065-1.459 3.64-3.282 9.037-4.254 10.25-.973 1.213-4.985 3.7-9.847 2.002-4.863-1.698-6.564-6.368-9.239-12.01 0 0-5.349 1.942-6.079-6.187l4.133-10.552s18.236-14.556 26.502-.728"/>
        <path fill="#48445E" d="M224.671 248.849s-3.646-4.732-.73-8.006c0 0-2.187-6.55 3.647-7.642 0 0-1.094-6.187 4.742-6.552 0 0 3.647-5.093 8.752-1.819 0 0 5.106-4.003 9.848 1.092 0 0 5.104.727 5.469 5.094 0 0 4.013.728 2.918 5.096 0 0 2.19 1.82-1.094 4.003 0 0-1.094 4.002-5.836 2.912 0 0-2.552 2.547-5.835 1.09 0 0-1.458 2.184-4.74 1.092 0 0-5.106-3.032-5.957 2.307-.668 4.19-3.89 4.245-3.89 4.245l.365 4.002-2.553-1.092s.146-2.805-.364-4.003c-.657-1.539-3.526-3.275-4.012 0l-.73-1.82z"/>
        <path fill="#9D603F" d="M239.441 253.215s1.823 1.638 4.56.729c2.734-.911 11.487-4.73 11.487-4.73l-.426 1.333L244 255.036s-3.464.363-4.559-1.82M246.735 260.312s3.282 1.638 3.465-1.092c.183-2.73-.183-5.459-.183-5.459l.73-.181.366 5.64s0 2.001-2.008 2.366c0 0-1.093.546-2.37-1.274"/>
        <path fill="#729E80" d="M207.652 290.334s-5.592-7.035-6.079-16.739c0 0-1.944 7.278 4.62 17.224l1.459-.485zM227.589 275.05l-1.702 9.461s-1.459-8.733-2.432-9.946l2.432 5.095s.972-4.125 1.702-4.61"/>
        <path fill="#36323C" d="M163.788 277.656s-1.325 2.458-1.514 5.479c0 0 9.656 16.438 29.727 12.092 0 0-18.746.379-28.213-17.571"/>
        <path fill="#677E78" d="M180.45 293.15l-.378 3.21 2.273.568.567-3.212z"/>
        <path fill="#918B99" d="M167.954 283.89s-2.083 2.268-1.894 4.913l1.515 1.322s1.137-3.4 2.084-3.967l-1.705-2.267z"/>
        <path fill="#729E80" d="M247.856 269.91s.18 2.377-1.181 4.412c-.818 1.223-2.48 2.224-4.255 2.79 0 0-6.564 2.912-16.29 6.672.71-.271 16.046-7.83 16.046-7.83s4.355-1.699 5.68-6.043M163.507 273.502s-2.168 5.1 4.447 11.146c0 0 9.846 12.28 24.047 10.58l6.438-1.89-7.196 1.134s-10.603 1.322-21.964-9.636c0 0-5.204-3.966-5.772-11.334"/>
        <path fill="#494B64" d="M175.073 336.551s2.917 8.612 5.106 12.252c0 0-4.133-3.033-5.106-12.252"/>
        <path fill="#494B64" d="M175.073 336.551s-1.277 3.822.364 8.006l.366-5.216-.73-2.79z"/>
        <path fill="#729E80" d="M231.236 344.194s8.753 1.454 11.67-5.46c0 0-3.647 4.367-11.67 5.46"/>
        <path fill="#536862" d="M189.729 301.462c.66-.695 4.064-.453 8.198-5.547l-1.945 3.64 13.372 4.063-13.945-3.1-5.476 2.463-.204-1.519z"/>
        <path fill="#536862" d="M182.123 298.584c-.745-.67 7.606 2.878 7.606 2.878l2.85 16.043-4.377-15.282s-3.647-1.455-6.079-3.64"/>
        <path fill="#402A39" d="M135.2 322.601s-4.377-1.213-3.648 4.852c0 0-.486 2.427 2.31 5.458 0 0-3.525.365-3.769-6.914-.243-7.277 5.106-4.851 5.106-3.396"/>
        <path fill="#E59D88" d="M237.861 269.712s-.71 6.475-3.994 10.931l.913-.455s4.072-5.276 4.315-10.885l-1.234.41z"/>
        <path fill="#007887" d="M240.057 268.878c.476.604.491 1.926-.614 3.029-1.703 1.7-3.842-.088-5.169-2.922.447-.463 2.33-1.046 2.33-1.046s1.258.925 2.472.683l.311-.12.67.376z"/>
        <path fill="#007887" d="M238.46 272.39s.495 9.696 1.042 13.335c.547 3.639 1.824 9.584 1.824 9.584s-.851 5.58-4.011 9.219c0 0-5.168-4.064-6.444-7.886 0 0 5.046-19.598 5.41-24.509l2.18.256z"/>
        <path fill="#CD8079" d="M271.856 29.399c.38 4.125.355 6.79-1.338 9.24 0 0-1.665 3.669-7.937 4.043 0 0-3.951-2.508-4.816-5.89l8.292-3.345s1.583-1.459 1.897-3.763l2.241-4.155s1.205.426 1.661 3.87"/>
        <path fill="#68545A" d="M263.06 17.723s-4.198 2.052-2.805 5.607c1.393 3.555 2.88 2.543 2.88 2.543l-.802 1.036s-1.92.386-3.309-3.32c-1.387-3.708 1.62-6.566 3.139-6.356l.898.49z"/>
        <path fill="#5B434A" d="M267.5 31.597s-3.482 9.389-8.796 6.6c-5.313-2.788-2.884-6.505-1.77-7.682 1.111-1.176 6.3-3.191 5.783-7.702-.518-4.514-2.835-5.818 2.643-9.42l-3.266-9.87s-1.095-2.022 2.098-3.044c2.905-.805 3.33 2.79 3.33 2.79l5.103 16.081c.3.955.209 1.988-.252 2.875l-4.873 9.372z"/>
        <path fill="#CED6B0" d="M262.2 46.704s-1.898-2.279 3.668-4.203c5.568-1.924 6.849-1.496 7.706.06 0 0-.673 3.706-2.862 5.072-2.187 1.364-6.229 1.29-8.511-.929"/>
        <path fill="#CD8079" d="M267.487 29.92s-2.559-5.045-5.401-4.542c-2.842.502-6.087 3.58-5.71 5.726.377 2.146 3.269 4.387 6.166 4.495 2.895.109 6.217-2.965 4.945-5.68"/>
        <path fill="#E1E3F2" d="M263.183 46.969l-.602-4.286s1.399 1.346 4.504-.06c3.106-1.408 3.753-2.374 3.94-3.28l1.727 4.786s-3.177 5.364-9.57 2.84"/>
        <path fill="#CD8079" d="M270.55 37.726l.668 2.538s-1.463 4.438-7.607 3.448l-1.045-.65-.395-1.69 8.38-3.646z"/>
        <path fill="#B06878" d="M292.22 107.495c-.107 2.822-.36 5.639-.467 8.461-.107 2.822-.36 5.637-.318 8.467-.107 2.82.084 5.654-.02 8.476-.107 2.82-.361 5.638-.618 8.455-.255 2.817-.657 5.627-1.061 8.438-.404 2.81-.66 5.627-1.063 8.439l-1.21 8.43c-.404 2.812-.808 5.623-1.36 8.429.106-2.823.36-5.638.615-8.456l.765-8.448c.254-2.817.509-5.633.913-8.445.404-2.81.659-5.626.909-8.294l.764-8.45c.255-2.816.063-5.65.318-8.465.07-5.8.876-11.42 1.832-17.037"/>
        <path fill="#5E6279" d="M297.69 97.378s-13.217-16.745-14.334-20.64c-4.588-16.011-9.693-34.478-9.693-34.478-3.488 7.484-11.462 4.444-11.462 4.444s.082 4.572 5.199 24.105c4.623 17.65 11.159 27.985 16.355 35.948 0 0 6.496 12.578 9.198 13.796s21.607-3.66 4.738-23.175"/>
        <path fill="#3B3D53" d="M317.2 284.952s-9.119 11.285-9.626 12.904c-.508 1.616.037 2.975 4.155 4.467 4.116 1.492 18.358-12.551 19.009-14.014.65-1.462-1.174-5.126-1.174-5.126s-6.577 6.449-12.364 1.769"/>
        <path fill="#2A2B3E" d="M315.37 287.362s7.391 4.987 14.74-2.175l-.546-2.003s-8.267 5.144-12.363 1.767l-1.83 2.411z"/>
        <path fill="#3B3D53" d="M294.155 274.15s-9.31 9.765-9.366 11.25c-.056 1.486 1.778 4.232 4.745 4.64 2.966.41 17.609-12.43 18.093-13.453.486-1.023-.994-5.244-.994-5.244l-12.478 2.807z"/>
        <path fill="#2A2B3E" d="M293.22 275.254s8.294 4.03 13.938-.717l-.525-3.193s-5.484 4.455-11.842 1.739l-1.572 2.171z"/>
        <path fill="#7693B3" d="M288.783 194.97s-2.774 38.122-2.902 41.538c-.128 3.416 6.79 29.555 7.664 34.05-.04 1.038-.124 3.267 2.379 4.103 2.502.839 10.066 1.864 12.402-4.74 0 0-6.185-25.814-6.271-31.468-.085-5.656 1.627-15.557 4.653-24.667 0 0 .356 30.208 1.38 34.708 1.023 4.5 8.076 34.956 8.076 34.956s.847 5.238 8.064 3.574c7.217-1.662 5.918-6.768 5.918-6.768s-6.269-23.587-4.743-32.452c0 0 3.146-55.956 2.752-61.324 0 0-25.556-6.163-32.812-11.342 0 0-5.924 2.901-6.56 19.832"/>
        <path fill="#FCCCAF" d="M301.195 106.642s-4.506 4.888-4.495 16.489c.01 11.602-1.538 36.979-1.507 40.102.032 3.124.272 8.637.272 8.637s8.823 7.173 16.573 7.164c0 0-1.688-10.624-.322-19.2 1.366-8.573-.005-23.647 1.69-29.087 1.694-5.44 8.045-15.763 9.333-22.259l-.655-2.403-20.89.557z"/>
        <path fill="#E98B40" d="M301.152 115.713c-.309.286.622 3.295 1.75 4.972 0 0 .982 1.674 2.663.548l2.665-3.471-2.843-3.675c-.148-.007-2.547.35-4.235 1.626"/>
        <path fill="#E98B40" d="M302.776 120.086s-5.31 26.277-5.18 30.743c0 0 2.021 5.727 4.247 9.975 0 0 4.34-4.447 5.77-6.774-.128-.6-2.632-33.117-2.632-33.117l-2.205-.827z"/>
        <path fill="#5E6279" d="M321.532 104.873s2.608 2.032-.918 8.593c-3.526 6.562-8.91 14.986-8.917 27.033-.004 12.047-1.521 24.634-.741 31.653.78 7.019-1.22 12.597-.637 16.932.582 4.334-.219 9.808-.219 9.808s5.545 3.182 11.554 1.92c0 0 10.414.538 16.475-6.077 0 0-.549-5.227-1.92-8.4 0 0 5.211-15.72 5.81-23.73.6-8.008-2.392-23.59-2.764-29.552-.373-5.964.793-9.192-1.736-13.303-2.535-3.96-12.25-11.166-12.25-11.166s-.55-5.227-3.773-6.687l.036 2.976zM298.705 100.157c2.15 4.132 2.804 6.036 2.81 5.901-4.043 4.46-5.087 20.335-4.72 26.447.366 6.111-.536 14.258-.865 23.022-.329 8.763-1.501 28.054-1.96 32.35-.46 4.296.706 8.95-.507 9.5-1.213.55-2.503-.838-4.828-2.412-2.326-1.574-3.549-4.743-3.549-4.743-.13-4.468-.46-15.279-.46-15.279s5.113-46.718 5.505-51.044c0 0 .128-13.058 2.089-16.403 1.96-3.346 6.485-7.339 6.485-7.339"/>
        <path fill="#FFDDB7" d="M305.238 114.08s9.192-2.63 16.437-9.052c0 0 1.02.632 1.063 3.461 0 0-5.946 7.51-14.179 12.408-.143-.152-1.475-4.368-3.32-6.817M303.355 108.656s.004 3.867 1.728 5.568c0 0-3.965 2.38-6.214 2.742.006-.148-.68-5.678 2.331-10.473.149.005.695 1.364 2.155 2.163"/>
        <path fill="#CD8079" d="M323.481 195.823s-1.23.995-2.737 5.401c0 0-1.633 3.806-1.094 5.313.54 1.509.363 2.245.633 2.998.27.755 2.332 1.426 2.696-.346.364-1.77-.256-5.065 1.238-5.159 1.643-.087.581 4.336.228 5.81-.182.885-1.684 5.143-1.42 6.044.264.903 1.09 2.718 4.146.75 0 0 3.954-2.081 5.317-6.643.85-2.794.677-10.088-.584-12.216-.006.147-4.572 2.654-8.423-1.952"/>
        <path fill="#444862" d="M323.79 124.144c-1.392 5.304-.35 9.613 1.098 15.709 1.294 5.254 1.932 10.732 2.625 16.111.247 1.348.346 2.69.438 4.18l-.155 4.16c-.101 2.673-.356 5.49-.605 8.157-.499 5.336-1.002 10.82-1.65 16.151-.686 2.355-1.22 4.714-1.31 7.09l.006-.148c.137.302.423.611.86.924.434.313.876.48 1.317.646.881.33 1.918.517 2.96.555a5.142 5.142 0 0 0 2.707-.642c.766-.567 1.39-1.286 1.726-2.315 1.183-3.674 2.209-7.206 3.39-10.88-.884 3.687-1.768 7.371-2.65 11.057-.338 1.028-.972 2.045-1.893 2.754-.921.71-2.124.962-3.165.923a12.492 12.492 0 0 1-3.258-.567c-1.03-.337-2.056-.821-2.75-2.186l.006-.15c.095-2.522.487-5.037 1.172-7.391l-.006.148c.647-5.33 1.003-10.82 1.501-16.155l.605-8.159c.05-1.336.25-2.669.151-4.01.05-1.335-.197-2.685-.301-3.879-.842-5.385-1.837-10.627-2.833-15.87l-.742-4.044c-.098-1.343-1.644-7.467.756-12.169"/>
        <path fill="#444862" d="M324.796 188.584c.876.48 1.61.805 2.492 1.134.733.326 1.614.655 2.36.684.886.182 1.63.21 2.524.243.893.033 1.791-.081 2.685-.047-.767.566-1.677.977-2.582 1.241-.903.263-1.945.225-2.981.037-1.037-.188-1.919-.519-2.64-1.14a5.256 5.256 0 0 1-1.858-2.152"/>
        <path fill="#56575A" d="M295.51 170.681s5.007 5.542 15.67 7.43l-.692 6.517s-10.661-1.887-15.688-6.982l.71-6.965z"/>
        <path fill="#A1B3BF" d="M299.136 173.346s-1.429 2.326-.423 7.272c0 0 4.073 2.681 7.032 3.238l.418-7.124s-5.16-1.532-7.027-3.386"/>
        <path fill="#50667F" d="M299.45 184.81l2.514 12.44 6.966 5.019-4.42-1.355s2.797 4.863 2.127 10.788l-.128 3.417s.865-11.122-5.65-16.275l-1.409-14.034z"/>
        <path fill="#EFB49B" d="M302 164.529c.493.02.874.565.85 1.221-.025.657-.445 1.174-.938 1.155-.494-.02-.873-.565-.849-1.221.025-.657.445-1.174.938-1.155"/>
        <path fill="#CD8079" d="M305.381 114.234c10.25-3.036 16.294-9.207 16.294-9.207l-.175-3.278c.883.33 1.948-.225 3.017-.93 1.07-.702 2.09-4.085 2.081-7.804-.01-3.717-3.174-2.795-3.174-2.795s.024-12.493.189-12.934c.597-3.992-2-6.32-2-6.32-10.476-6.789-20.801 6.211-22.649 7.779-1.847 1.567-1.476 7.53-1.476 7.53s-.198 1.33.06 2.382c.27.754.237 1.645.054 2.53-.331.88-.547 2.656-.488 5.039.207 6.403 5.36 12.099 6.092 12.423.155-.142-.122 3.27 2.175 5.585"/>
        <path fill="#443F42" d="M320.022 81.615s-5.576 5.59-4.944 8.59c.506 2.398 1.223 3.17 2.076 4.243.574.615.837 1.518.805 2.408l-.41 2.96 2.724-1.088.25-2.668c.11-2.97 1.965-4.686 1.965-4.686 3.347-1.808 4.1 1.94 4.1 1.94.84-2.498 1.107-9.628 1.246-13.34.14-3.714-2.065-4.54-2.065-4.54s.818-1.903.15-4.01c-.671-1.959-6.52-5.003-10.2-6.182-3.684-1.18-7.064 1.52-9.782 2.459-5.67-3.781-8.975.855-8.975.855-4.883 6.957 1.082 10.898 3.463 10.988 9.618 1.846 16.655-2.948 16.655-2.948s3.264.42 2.942 5.019"/>
        <path fill="#BC6D69" d="M303.355 108.656s3.064 1.75 9.295-1.438c1.82-.823 3.524-2.546 4.953-4.871 0 0 .604 3.74-5.312 6.494-2.426 1.1-4.356.879-6.031 1.856-.916.561-1.258 1.738-1.171 3.377-1.152-1.082-1.79-3.932-1.734-5.418M297.565 88.211s1.273 1.833 4.943 3.309c1.908.814 5.12 2.57 6.752 2.782 4.15.6 5.077-.258 5.077-.258s-.689 2.503-5.27 1.44c-5.32-1.24-9.828-4.236-10.969-5.617-.104-1.193-.533-1.656-.533-1.656"/>
        <path fill="#BC6D69" d="M321.501 101.749s-.297-.011-1.173-.49c-.294-.16-.706-1.068-1.147-1.233 0 0 .045 6.695-3.946 9.817 0 0 4.73-2.946 6.44-4.816l-.174-3.278zM321.185 94.301s1.44-2.624 3.05-1.82c1.61.804.52 5.969-.71 6.964-1.23.995-2.684.048-2.64-1.14 0 0 .044-1.188 1.092-1.298 1.048-.11-.056 1.485.85 1.222.902-.264 1.903-3.051 1.346-4.114-.551-1.21-.53 2.21-.84 2.497-.458.28-1.785-.067-1.151-1.084.337-1.028-.248-1.348-.997-1.227"/>
        <path fill="#444862" d="M294.54 187.12c1.51-12.437 2.853-44.216 2.723-48.682-.057-6.398-.494-18.61 1.424-25.975l2.604-5.852-2.285-3.547s-3.713 3.306-4.668 16.805c0 0-2.765 7.459-2.747 10.31.016 2.85 3.053 3.386 2.477 6.785-.575 3.4-2.531 11.076-1.455 18.107.842 5.385 1.662 19.249 2.04 25.063.087 1.64-.341 9.06-.341 9.06l.228-2.074zM321.495 101.897l.18 3.13s1.983 3.112-1.401 8.871c-3.384 5.763-7.588 13.537-8.496 22.8-.907 9.26-.243 39.528-.865 42.852 0 0 1.427-16.493 3.197-22.252 1.769-5.76 4.866-13.825 4.23-15.088-.634-1.262-1.402-5.629-1.402-5.629s2.701-.83 3.117-1.99c.417-1.163-.197-7.94 1.548-11.408 1.744-3.467 5.61-12.123 3.131-17.235 0 0-.956-3-3.239-4.05M288.236 108.735s1.278 5.624 1.733 8.43c0 0-4.295 50.54-5.031 55.582 0 0 3.609-26.976 6.104-54.425 0 0 .01-5.206.466-7.42l-1.077 3.864s-1.72-3.783-2.195-6.031M324.535 129.428s-1.525 5.892-.555 9.834l.84 2.448s.347-9.283-.285-12.282"/>
        <path fill="#50667F" d="M301.963 197.25l-6.703-2.73s3.6 3.357 7.247 5.477l-.544-2.748z"/>
        <path fill="#EFB49B" d="M295.881 171.365s4.335 4.946 15.298 6.745c0 0-.043-32.576.178-35.17.223-2.593-.008-13.015 5.722-23.336 5.728-10.32 4.571-9.248 4.989-10.472 0 0-6.517 8.185-13.51 11.766l-1.002-2.393s-1.834 2.534-2.602 3.127l2.146-.913 1.276 2.402s6.857-3.956 8.786-5.743c0 0-5.231 2.293-6.982 20.56-.796 8.304-1.613 21.004-.253 36.432 0 0 .08 1.242.404 2.493-10.635-1.266-14.633-7.24-14.633-7.24l.183 1.742z"/>
        <path fill="#BC6D69" d="M301.997 94.562s-1.856 4.764-.824 7.034c0 0 .53.763 2.205.825 1.674.064 1.881-.486 1.881-.486s-2.598-.284-3.486-1.433l.224-5.94z"/>
        <path fill="#EFB49B" d="M299.264 111.068s-1.553 1.676-2.078 13.99l-1.216 45.566.949 1.213s.49-34.5 1.173-39.494c.685-4.994 1.025-14.03 1.025-14.03l2.157-1.22-.215-.877-2.087.977s-.687-1.513.292-6.125"/>
        <path fill="#BC6D69" d="M331.904 197.775s-3.994 2.83-8.423-1.953c0 0-1.572.995-3.718 8.539 0 0 2.58-6.69 4.207-5.328 1.625 1.363 5.111 2.795 8.616 1.252 0 0 .085-1.435-.682-2.51"/>
        <path fill="#CD8079" d="M271.765 28.67c-.543-3.422-2.33-2.616-3.857-3.886-1.628-1.356-1.673-1.51-2.795-.106-1.12 1.406 1.309 3.096 1.309 3.096l1.859 1.338.307 1.282 3.177-1.724z"/>
        <path fill="#4D383F" d="M262.252 2.586c.16.482 1.174.584 2.267.225 1.092-.359 1.849-1.04 1.69-1.523-.16-.483-1.173-.584-2.266-.226-1.093.36-1.849 1.04-1.69 1.524"/>
        <path fill="#CD8079" d="M261.738 20.415s1.453-.098 1.926 1.595c.469 1.692-.062 3.653-1.2 3.458-1.137-.196-3.137-3.848-.726-5.053"/>
        <path fill="#FBBCA0" d="M219.626 352.988s-1.401 3.248-5.835 4.55c0 0 2.948 3.007 5.106 6.276 1.126 1.705 1.959 3.953 2.214 4.875.743 2.693 1.09 4.749 4.227 4.375 0 0 4.104-2.092 3.953-4.337-.153-2.245-.802-9.673-9.504-16.429l-.16.69z"/>
        <path fill="#FBBCA0" d="M213.79 357.81s-.201 4.086 1.838 8.017l1.158 3.58c.374 1.153 1.99 1.014 2.307.02.317-.994-2.368-5.74-.066-5.334 0 0 .072-6.464-5.236-6.283M176.567 376.184s.82 4.306 6.052 8.144c0 0 .877.89 1.509 3.611.63 2.72.89 4.787 4.04 4.545 0 0 5.258-2.037 5.2-4.288-.058-2.249-.182-9.068-9.786-17.559 0 0-2.531 4.432-7.015 5.547"/>
        <path fill="#AC9C96" d="M69.554 378.765l11.913-8.43-.73-3.094-11.852 9.098z"/>
        <path fill="#DAD1E5" d="M210.205 354.383s6.079-1.092 8.753-6.066l1.702 4.732s-.851 3.397-7.173 4.974l-3.282-3.64zM182.853 368.212l1.703 3.578s-2.736 4.913-8.025 4.367l-4.133-3.944s7.416-.362 10.455-4.001"/>
        <path fill="#472F3F" d="M136.233 342.738s-3.648-4.61-7.78-1.942c-4.134 2.669-1.702 7.036-1.702 10.19s-1.216 8.735 1.701 12.374c2.919 3.637 3.162 4.852 5.35 5.336 2.188.487 5.348-.728 5.591-2.182.244-1.456-2.917-4.854-2.43-9.948l-.73-13.828z"/>
        <path fill="#B3D2D9" d="M141.278 341.767l-5.045.971s-3.162-1.213-3.647 3.154c-.487 4.366.183 6.611 4.314 9.521l4.378-13.646z"/>
        <path fill="#402A39" d="M136.233 342.738s-4.376-1.213-3.648 4.851c0 0-.485 2.428 2.31 5.459 0 0-3.524.365-3.768-6.914-.243-7.278 5.106-4.852 5.106-3.396"/>
        <path fill="#C9B5AD" d="M70.891 347.226s1.277 12.555 8.935 17.65l3.1 2.365-13.372 9.825s-10.575-12.433-10.455-22.32l11.792-7.52z"/>
        <path fill="#E9D8D4" d="M59.1 354.746l11.792-7.52-3.16-2.184-13.008 7.764z"/>
        <path fill="#DCC5B5" d="M54.724 352.806l-.486 16.497 15.316 9.462v-1.7S59.1 364.209 59.1 354.747l-4.376-1.94z"/>
        <path fill="#472F3F" d="M75.876 351.108s-3.648-4.61-7.78-1.941c-4.134 2.668-1.702 7.035-1.702 10.19 0 3.153-1.216 8.734 1.701 12.372 2.919 3.639 3.162 4.853 5.349 5.336 2.189.486 5.349-.727 5.592-2.182.244-1.454-2.918-4.853-2.43-9.947l-.73-13.828z"/>
        <path fill="#B3D2D9" d="M79.766 352.563l-3.89-1.454s-3.16-1.215-3.648 3.153c-.486 4.367 1.216 7.278 5.35 10.189l2.188-11.888z"/>
        <path fill="#59739D" d="M113.56 295.915c-10.94 6.186-13.128 18.56-8.752 33.115 4.376 14.557 10.942 36.027 10.942 36.027l-35.741-13.1s-6.93.364-5.47 9.461c1.094 8.006 11.67 12.01 11.67 12.01l37.198 14.192s7.66 2.911 12.035-.728c4.376-3.638 4.742-8.37 3.282-13.828-1.457-5.459-8.32-43.094-8.32-43.094s3.552-1.46 5.681-.947c5.285 1.277 13.494 5.257 22.333 4.739 0 0-12.764 6.004-22.064 8.733 0 0-4.376 7.825 3.647 14.739 0 0 2.553.727 8.935-1.82 0 0 35.01-12.554 39.752-18.378 2.963-3.64 4.334-9.772-.723-15.002-3.034-3.14-9.585-5.243-18.176-7.936l-9.467-3.402"/>
        <path fill="#A9BFE3" d="M195.982 274.443s6.2 1.82 6.929 14.194c.73 12.372 4.377 31.66 5.47 34.207 1.094 2.547 11.306 24.02 11.306 24.02s0 7.64-10.942 8.004c0 0-13.492-22.198-16.045-28.385-2.553-6.186-5.47-25.11-5.47-25.11l8.752-26.93z"/>
        <path fill="#494B64" d="M168.083 330.669s4.193-1.82 5.653-1.275c0 0-1.46-1.638-6.019.364l-.364 1.455.73-.544z"/>
        <path fill="#A9BFE3" d="M171.912 271.169s20.91.605 21.396 12.251c.485 11.646-4.62 18.68-7.295 20.623-2.673 1.94-17.505 7.52-19.207 8.247-1.702.728-21.153 7.279-24.556 8.492-3.403 1.213-11.426 3.397-12.156 2.91-14.831.728-25.286-15.283-25.286-15.283s-2.183-4.678 0-7.521c5.592-7.28 25.164-21.35 67.104-29.72"/>
        <path fill="#A9BFE3" d="M143.101 303.557s3.646 10.553 6.2 18.56c2.554 8.005 4.01 24.746 6.564 28.384 2.553 3.638 16.047 22.198 16.047 22.198s9.117 1.457 11.67-5.458c0 0-13.493-22.563-14.588-28.749-1.094-6.187-2.553-28.748-2.553-33.48 0-4.73-2.553-18.195-14.222-15.649-11.67 2.548-9.848 11.646-9.118 14.194"/>
        <path fill="#F79E7D" d="M170.454 283.178s1.215 9.22 8.509 14.555l4.376-2.182-12.885-12.373z"/>
        <path fill="#6F8BBD" d="M166.806 277.597s-1.367.273-2.257 2.355c-.6 1.405-.596 2.985-.155 4.448.85 2.813 2.66 8.585 4.601 13.334l1.216 4.124s3.16-3.88 5.349-5.095l3.403.97s-6.93-6.61-7.902-13.404l-1.094-.18s-.243 5.336 4.62 10.916l-3.648 4.124s-4.863-11.403-5.591-14.556c-.73-3.154.728-5.58 1.944-6.065l-.486-.97zM178.962 297.734l2.755-1.774-.323 1.409z"/>
        <path fill="#FBBCA0" d="M196.711 267.894s.973 5.095 0 8.49c0 0-.73 2.184-.971 2.669-.245.486 1.214 2.426-.245 6.065-1.458 3.639-3.281 9.038-4.254 10.25-.973 1.213-4.498 3.458-9.36 1.76-4.864-1.698-7.051-6.126-9.726-11.767 0 0-.745-.809-1.458-.788-1.624.043-4.114.245-4.62-5.399l-.608-6.247 4.742-4.306s18.234-14.556 26.5-.727"/>
        <path fill="#593C28" d="M165.347 277.355s-5.591-16.497 7.172-22.441c0 0 9.36-5.215 18.236.242 0 0 10.576 9.583 7.171 13.95 0 0-13.189 7.521-19.206 2.608-1.324-1.08-5.106-2.547-3.1 4.003-.365 3.457-2.978 4.55-2.978 4.55l.364 4.003-2.553-1.092s.21-1.809.122-3.215c-.243-3.942-4.56-4.913-4.498-.789l-.73-1.819z"/>
        <path fill="#F79E7D" d="M180.118 281.722s1.823 1.638 4.559.727c2.734-.91 11.487-4.73 11.487-4.73l-.425 1.334-11.062 4.488s-3.465.365-4.56-1.819M187.411 288.819s3.283 1.636 3.465-1.092c.183-2.73-.182-5.46-.182-5.46l.73-.18.365 5.64s0 2.001-2.007 2.366c0 0-1.093.545-2.37-1.274"/>
        <path fill="#6F8BBD" d="M148.328 318.841s-5.592-7.035-6.077-16.74c0 0-1.946 7.279 4.618 17.225l1.46-.485zM168.265 303.557l-1.702 9.461s-1.458-8.734-2.431-9.946l2.431 5.095s.973-4.126 1.702-4.61"/>
        <path fill="#302C40" d="M104.465 306.163s-1.326 2.456-1.515 5.479c0 0 9.656 16.438 29.726 12.092 0 0-18.744.378-28.211-17.571"/>
        <path fill="#59739D" d="M121.127 321.656l-.38 3.21 2.274.567.568-3.21z"/>
        <path fill="#D36185" d="M180.247 296.899c.476.604.491 1.927-.613 3.03-1.704 1.7-3.863.438-5.188-2.396.447-.463 2.347-1.572 2.347-1.572s1.258.923 2.474.682l.311-.12.669.376z"/>
        <path fill="#59739D" d="M108.63 312.397s-2.082 2.268-1.893 4.912l1.514 1.323s1.137-3.401 2.084-3.967l-1.705-2.268z"/>
        <path fill="#6F8BBD" d="M188.533 298.416s-.19 5.291-4.923 6.803c0 0-17.513 7.343-16.803 7.07.71-.27 16.045-7.827 16.045-7.827s4.356-1.701 5.68-6.046M104.183 302.008s-2.168 5.1 4.447 11.145c0 0 9.847 12.28 24.047 10.581l6.438-1.89-7.195 1.133s-10.604 1.324-21.965-9.636c0 0-5.204-3.965-5.772-11.333"/>
        <path fill="#494B64" d="M115.749 365.058s2.917 8.612 5.106 12.251c0 0-4.133-3.032-5.106-12.251"/>
        <path fill="#494B64" d="M115.749 365.058s-1.277 3.822.364 8.006l.366-5.216-.73-2.79z"/>
        <path fill="#6F8BBD" d="M171.912 372.7s8.753 1.455 11.67-5.46c0 0-3.342 5.46-11.67 5.46M188.533 298.416l-1.546 3.685 4.133 20.136s-3.714-19.742-2.587-23.82M208.746 354.868s10.09.122 10.942-8.006c0 0-1.763 7.157-10.942 8.006"/>
        <path fill="#494B64" d="M130.405 329.97c.662-.698 4.065-.454 8.198-5.55l-1.945 3.64 12.521 4.73-13.094-3.766-5.68.945z"/>
        <path fill="#494B64" d="M122.8 327.09c-.746-.67 7.605 2.879 7.605 2.879l2.85 16.043-4.377-15.283s-3.647-1.456-6.079-3.64"/>
        <path fill="#402A39" d="M75.876 351.108s-4.376-1.214-3.648 4.852c0 0-.486 2.426 2.31 5.458 0 0-3.524.365-3.768-6.914-.243-7.279 5.106-4.851 5.106-3.396"/>
        <path fill="#D36185" d="M178.651 300.41s.494 9.696 1.041 13.336c.548 3.64 1.823 9.583 1.823 9.583s-.85 5.58-4.011 9.22c0 0-5.166-4.065-6.442-7.886 0 0 5.044-19.597 5.409-24.51l2.18.256z"/>
        <path fill="#002F3B" d="M169.724 279.599l14.262 3.225-.057 1.171-13.84-3.547z"/>
        <path stroke="#002F3B" stroke-width=".534" d="M186.713 280.706c1.685-.13 3.171 1.325 3.319 3.248.148 1.92-1.099 3.583-2.784 3.711-1.685.13-3.171-1.323-3.32-3.244-.146-1.924 1.1-3.585 2.785-3.715zM192.564 281.246c.208-1.916 1.608-3.337 3.128-3.174 1.521.164 2.586 1.85 2.378 3.766-.207 1.917-1.607 3.338-3.127 3.174-1.522-.163-2.586-1.85-2.379-3.766zM189.853 283.042s.828-2.056 2.671-.883"/>
        <path fill="#AC9C96" d="M71.116 410.622l13.248-9.786.104-1.712-14.02 9.073z"/>
        <path fill="#C9B5AD" d="M72.453 379.083s1.277 12.555 8.935 17.65l3.1 2.365-13.372 9.826s-10.577-12.434-10.455-22.32l11.792-7.52z"/>
        <path fill="#E9D8D4" d="M60.661 386.604l11.792-7.52-3.161-2.184-13.008 7.762z"/>
        <path fill="#DCC5B5" d="M56.285 384.662l-.486 16.499 15.316 9.46v-1.698s-10.453-12.857-10.453-22.319l-4.377-1.942z"/>
        <path fill="#D47A8B" d="M76.483 383.374s-3.707-5.634-7.536-2.546c-3.162 2.546-1.703 6.914-1.703 10.066 0 3.155.851 9.22 3.769 12.86 2.917 3.64 6.948 6.475 8.63 3.64.755-1.27-1.963-5.505-1.477-10.602l-1.683-13.418z"/>
        <path fill="#FBBCA0" d="M75.876 382.647s-5.592-2.79-6.322 1.092c-.729 3.88 1.337 11.886 3.161 14.07 1.823 2.184 2.675 2.911 3.89 1.456 1.215-1.456.73-9.704.73-9.704l-1.46-6.914z"/>
        <path fill="#FBBCA0" d="M88.58 346.134s26.014 8.43 29.478 14.072c3.466 5.64 1.095 8.916 0 10.554-1.093 1.636-40.967 19.043-40.967 19.043s-6.564-2.547-2.553-8.551c0 0 10.394-8.37 11.853-9.098 0 0-4.316-.911-12.583-8.006-3.225-2.771-4.011-21.835 14.771-18.014M148.48 387.711s-.296 1.957-4.73 3.26c0 0 2.948 3.008 5.107 6.277 1.125 1.706 1.958 3.953 2.213 4.876.743 2.692 1.09 4.746 4.227 4.373 0 0 2.908-1.529 2.756-3.776-.151-2.245-.14-9.893-8.843-16.648l-.73 1.638z"/>
        <path fill="#FBBCA0" d="M143.75 391.244s-.202 4.085 1.837 8.017l1.159 3.578c.374 1.154 1.99 1.016 2.306.02.318-.993-2.369-5.737-.066-5.331 0 0 .071-6.466-5.235-6.284"/>
        <path fill="#FBBCA0" d="M143.75 391.244s-17.79-18.727-18.884-28.916l12.4-5.276s4.034 19.983 12.32 29.37c0 0 1.015 3.715-5.835 4.822"/>
        <path fill="#AC9C96" d="M15.317 412.442l13.248-9.786.104-1.713-14.02 9.073z"/>
        <path fill="#C9B5AD" d="M16.654 380.902s1.278 12.557 8.935 17.65l3.1 2.365-13.372 9.827S4.741 398.31 4.862 388.424l11.792-7.522z"/>
        <path fill="#E9D8D4" d="M4.863 388.424l11.792-7.521-3.162-2.184-13.008 7.764z"/>
        <path fill="#DCC5B5" d="M.486 386.483L0 402.98l15.317 9.461v-1.698S4.863 397.885 4.863 388.424l-4.377-1.941z"/>
        <path fill="#D47A8B" d="M20.685 385.194s-3.707-5.634-7.536-2.547c-3.162 2.547-1.703 6.914-1.703 10.067 0 3.155.852 9.22 3.769 12.86 2.917 3.639 6.948 6.475 8.63 3.639.755-1.27-1.963-5.505-1.477-10.6l-1.683-13.419z"/>
        <path fill="#FBBCA0" d="M65.786 380.523s4.011 16.014 4.741 22.017c.729 6.005-6.2 12.374-14.406 10.19-15.469-4.116-35.678-21.228-35.678-21.228s-5.715-2.427-1.825-7.278c4.985.485 31 8.247 31 8.247l-.974-8.672s5.29-6.004 17.142-3.276"/>
        <path fill="#65273A" d="M34.424 339.597s-7.903 7.508-1.097 31.525l6.565 18.198s7.78 6.549 20.424.727c12.642-5.824 34.706-25.778 54.886-32.813 0 0-21.824-13.852-26.927-16.802-15.674-9.061-40.735-18.578-53.85-.835"/>
        <path fill="#E793BC" d="M137.084 355.05c-.932-2.61-3.484-20.607-4.213-32.98-.73-12.374-6.93-14.193-6.93-14.193l-10.07 26.126s4.235 19.727 6.788 25.914c.524 1.272.384 2.957 2.75 5.513 0 0 2.557 1.993 8.757-.372 6.2-2.366 3.81-7.506 2.918-10.009"/>
        <path fill="#734025" d="M127.693 299.008s4.833 18.65-7.111 23.836l-7.203-3.638 14.314-20.198z"/>
        <path fill="#DA748C" d="M117.884 332.093l-1.546 3.684 4.76 19.94s-4.34-19.545-3.214-23.624"/>
        <path fill="#E793BC" d="M101.871 304.603s20.91.606 21.396 12.251c.487 11.646-2.656 12.418-5.33 14.36-1.337.97-2.857 13.01-7.112 14.737-4.254 1.73-9.908 2.913-10.758 3.276-13.493 12.738-24.453 3.776-27.858 4.99-3.403 1.211-11.426 3.396-12.156 2.91-14.831.727-25.286-15.283-25.286-15.283s-2.183-4.679 0-7.522c5.592-7.279 25.164-21.35 67.104-29.719"/>
        <path fill="#F79E7D" d="M100.413 316.611s1.216 9.22 8.509 14.557l4.376-2.183-12.885-12.374z"/>
        <path fill="#DA748C" d="M96.766 311.032s-1.368.272-2.257 2.354c-.6 1.405-.597 2.986-.156 4.448.85 2.813 2.662 8.585 4.601 13.334l1.216 4.125s3.16-3.882 5.349-5.095l3.403.97s-6.929-6.61-7.902-13.404l-1.094-.181s-.243 5.336 4.62 10.917l-3.647 4.123s-4.863-11.402-5.592-14.556c-.73-3.153.729-5.58 1.944-6.064l-.485-.971z"/>
        <path fill="#FBBCA0" d="M126.671 301.328s.972 5.094 0 8.49c0 0-.73 2.185-.973 2.67-.243.486.08 2.896-1.38 6.535-1.457 3.64-3.858 7.976-4.831 9.188-.973 1.213-2.81 3.91-7.385 1.547-5.289-2.729-7.314-5.321-9.988-10.964 0 0-.744-.807-1.457-.788-1.624.045-4.114.247-4.62-5.397l-.608-6.247 4.74-4.307s18.234-14.555 26.502-.727"/>
        <path fill="#734025" d="M102.6 313.7l.365 4.002-2.553-1.09s.209-1.807.122-3.215c-.243-3.942-4.558-4.913-4.498-.788l-.729-1.82s-5.591-16.498 7.172-22.441c0 0 9.361-5.216 18.234.244 0 0 10.536 6.959 6.16 14.419 0 0-.61.795-2.013 1.628-.26.156-.548.312-.866.466-.325.157-4.68 1.466-7.33 1.413 0 0-3.103 1.042-5.474 5.045-2.37 4.003-7.514 1.545-8.59 2.138"/>
        <path fill="#734025" d="M97.765 317.34s2.485 9.325 4.855 11.69c0 0-13.494-6.187-11.67-20.197 1.193-9.176 3.562-14.45 6.795-17.56 1.704-1.637 3.647-2.673 5.786-3.364 0 0-9.58 11.992-7.476 24.625.165 2.144.547 3.737 1.71 4.806"/>
        <path fill="#F79E7D" d="M126.123 311.153l-.425 1.334s-10.132 6.353-15.621 2.67c0 0 6.545 2.32 16.046-4.004"/>
        <path fill="#DA748C" d="M79.28 347.317s-7.313-6.444-7.8-16.148c0 0-1.955 8.051 6.888 17.967l.911-1.819zM98.225 336.991l-1.703 9.462s-1.457-8.735-2.43-9.947l2.43 5.094s.973-4.124 1.703-4.609M34.143 335.442s-2.169 5.1 4.446 11.146c0 0 9.847 12.28 24.047 10.58l6.438-1.89-7.195 1.134s-10.604 1.322-21.965-9.636c0 0-5.202-3.965-5.771-11.334"/>
        <path fill="#FBBCA0" d="M106.526 409.62s.82 4.304 6.052 8.141c0 0 .879.89 1.51 3.611.63 2.722.89 4.789 4.04 4.547 0 0 3.15-.87 3.092-3.12-.06-2.252 1.925-10.236-7.679-18.727 0 0-2.53 4.43-7.015 5.547"/>
        <path fill="#FBBCA0" d="M113.542 404.072s-13.353-19.485-14.69-26.035c0 0-8.51 4.851-13.13 1.82 0 0 3.56 19.252 20.805 29.762 0 0 3.265 1.777 6.06.685 2.798-1.092 2.759-3.974.955-6.232"/>
        <path fill="#734025" d="M100.25 318.022s.455 4.732 2.734 6.504c0 0-4.49-3.206-5.539-7.482 0 0 .982 1.182 2.804.978"/>
        <path fill="#E793BC" d="M98.407 370.197c-1.095-6.186-2.553-28.749-2.553-33.48 0-4.729-2.553-18.195-14.223-15.647-11.67 2.547-9.847 11.645-9.117 14.193 0 0 3.647 10.553 6.199 18.56 1.336 4.185 2.371 10.757 3.42 16.597.957 5.33 1.927 10.05 3.144 11.786 0 0 3.148 2.143 8.499.41 1.793-.58 4.923-1.82 5.653-4.184l-1.022-8.235z"/>
        <path fill="#DA748C" d="M76.18 345.771s3.1 5.641 3.464 10.735l-5.47-14.011 2.005 3.276z"/>
        <path fill="#F79E7D" d="M39.892 389.319s4.62 11.887 9.968 15.526c0 0-7.779-11.403-8.266-14.313l-1.702-1.213z"/>
        <path fill="#FBBCA0" d="M20.078 384.466s-5.592-2.79-6.322 1.092c-.729 3.881 1.337 11.888 3.161 14.072 1.823 2.182 2.675 2.91 3.89 1.455 1.215-1.455.73-9.705.73-9.705l-1.46-6.914z"/>
        <path fill="#F79E7D" d="M86.756 382.708s3.647 17.285 19.77 26.911c0 0-14.847-10.537-18.493-26.548l-1.277-.363z"/>
        <path fill="#734025" d="M96.663 292.397s-3.646 3.395-7.416 13.95c-1.457 2.911-3.646 3.396-3.646 3.396s2.917 2.669 5.592.971c2.674-1.7 5.47-18.317 5.47-18.317M126.671 301.328s.2 6.05-8.004 8.416c-8.206 2.365-6.382 9.462-6.382 9.462s-2.372-7.097 3.829-11.646c6.2-4.549 5.834-6.55 5.834-6.55l4.723.318z"/>
        <path fill="#F79E7D" d="M117.39 321.389s1.459.91 2.917-.546c0 0-.547 3.274-2.917.546"/>
    </g>
</svg>
