<svg xmlns="http://www.w3.org/2000/svg" xmlns:xlink="http://www.w3.org/1999/xlink" width="257" height="438" viewBox="0 0 257 438">
    <defs>
        <path id="a" d="M0 372.162V451h266.686V.193H0V451h117.867v-78.838z"/>
        <path id="c" d="M118.769.538v78.838H.9V.538H118.77z"/>
        <path id="e" d="M.196.193h50.746v52.016H.196z"/>
        <path id="g" d="M.488 14.36L4.88.69 23.36 11.182l-1.554 17.7C16.482 16.352 4.149 16.956.488 17.436v-3.075z"/>
    </defs>
    <g fill="none" fill-rule="evenodd">
        <path fill="#C7D1EA" d="M102.389 90.667L89.893 80.294a9.35 9.35 0 0 1-3.017-6.878L84.763 56.15c0-2.388 4.467-3.483 5.92-2.143l14.386 9.486a9.348 9.348 0 0 1 3.016 6.878V88.11c0 2.145-4.24 3.897-5.696 2.558"/>
        <path fill="#C7D1EA" d="M100.368 92.045l-1.998.965 1.813-4.64 1.425 1.332z"/>
        <path fill="#C7D1EA" d="M99.563 85.453l.805 6.591 2.159-4.317z"/>
        <path fill="#FFF" d="M102.074 90.468l-14.386-9.485a9.346 9.346 0 0 1-3.015-6.879V56.365c0-1.977 2.35-3.007 3.805-1.668l14.386 9.485a9.348 9.348 0 0 1 3.016 6.879v17.738c0 1.978-2.35 3.008-3.806 1.67"/>
        <path fill="#FFF" d="M97.474 85.773l.895 7.238 2.069-4.963z"/>
        <path fill="#C7D1EA" d="M91.134 68.792c.188 1.319-.336 2.484-1.165 2.6-.827.117-1.65-.857-1.837-2.178-.187-1.317.334-2.482 1.164-2.598.828-.117 1.652.857 1.838 2.176M96.495 72.192c.185 1.319-.338 2.484-1.166 2.6-.828.119-1.652-.857-1.838-2.176-.186-1.319.336-2.484 1.164-2.6.83-.117 1.652.857 1.84 2.176M101.18 74.812c.186 1.317-.337 2.482-1.165 2.6-.828.117-1.652-.858-1.838-2.178-.186-1.319.336-2.482 1.163-2.6.83-.115 1.653.859 1.84 2.178M145.983 67.816l-12.497-10.373a9.354 9.354 0 0 1-3.016-6.879L128.357 33.3c0-2.388 4.465-3.482 5.92-2.143l14.385 9.485a9.343 9.343 0 0 1 3.018 6.879V65.26c0 2.143-4.243 3.895-5.697 2.556"/>
        <path fill="#C7D1EA" d="M143.96 69.194l-1.996.965 1.813-4.64 1.425 1.331z"/>
        <path fill="#C7D1EA" d="M143.157 62.601l.803 6.592 2.161-4.317z"/>
        <path fill="#FFF" d="M145.668 67.619l-14.386-9.488a9.348 9.348 0 0 1-3.016-6.878V33.516c0-1.98 2.352-3.01 3.806-1.67l14.386 9.485a9.354 9.354 0 0 1 3.016 6.878v17.74c0 1.976-2.352 3.008-3.806 1.67"/>
        <path fill="#FFF" d="M141.066 62.924l.897 7.236 2.069-4.961z"/>
        <path fill="#C7D1EA" d="M134.728 45.94c.188 1.32-.335 2.485-1.165 2.6-.828.12-1.653-.855-1.836-2.175-.188-1.32.333-2.485 1.161-2.6.83-.117 1.653.859 1.84 2.176M140.087 49.343c.188 1.317-.336 2.482-1.165 2.597-.827.12-1.65-.855-1.837-2.175-.187-1.319.334-2.484 1.164-2.6.83-.115 1.652.859 1.838 2.178M144.773 51.96c.187 1.32-.336 2.485-1.164 2.6-.828.117-1.652-.857-1.838-2.176-.187-1.318.334-2.484 1.164-2.6.83-.116 1.652.858 1.838 2.176"/>
        <g transform="translate(-10)">
            <mask id="b" fill="#fff">
                <use xlink:href="#a"/>
            </mask>
            <path fill="#E8E8EF" d="M116.277 439.061c-7.48 15.608-39.215 15.958-70.885.781C13.722 424.667-5.888 399.71 1.59 384.1c7.479-15.606 39.215-15.958 70.885-.779 31.669 15.175 51.28 40.132 43.802 55.74" mask="url(#b)"/>
        </g>
        <g transform="translate(137.918 294.052)">
            <mask id="d" fill="#fff">
                <use xlink:href="#c"/>
            </mask>
            <path fill="#E8E8EF" d="M117.179 67.437c-7.48 15.608-39.215 15.958-70.885.781-31.67-15.175-51.28-40.132-43.802-55.742C9.971-3.13 41.706-3.482 73.377 11.697c31.669 15.175 51.28 40.132 43.802 55.74" mask="url(#d)"/>
        </g>
        <path fill="#FFD4AE" d="M133.655 187s.891-.77 1.429-1.73c1.007-1.8 2.098-4.54 3.081-6.013 2.255-3.383 4.96-3.834 4.96-3.834s1.695 4.534 6.314 4.85c1.36.092.77-1.729 5.017-2.48 1.71-.304 2.931.562 2.886 2.016-.067 2.154-1.414 2.845-1.533 3.732a12.848 12.848 0 0 1-1.41 4.34c-.225 2.2-1.049 2.707-1.803 3.609-2.46 2.944-6.626 4.876-13.529 6.258 0 0 1.804-7.817-5.412-10.748"/>
        <path fill="#1E2746" d="M48.928 417.295s-.547 3.917.12 8.418c.665 4.5 4.898 6.245 8.196 5.597 3.3-.649 8.417-.12 26.605-10.903 0 0 9.548-5.25 6.168-10.312-3.379-5.065-24.647.652-24.647.652l-16.442 6.548zM15.556 397.451s-.546 3.917.12 8.418c.665 4.5 4.899 6.245 8.196 5.597 3.3-.649 8.417-.12 26.606-10.903 0 0 9.547-5.25 6.167-10.312-3.379-5.065-24.646.652-24.646.652l-16.443 6.548z"/>
        <path fill="#F4FBFE" d="M58.386 119.487c.207-2.951 2.204-5.215 4.46-5.056 2.254.158 3.913 2.68 3.704 5.63-.207 2.953-2.202 5.217-4.457 5.058-2.255-.158-3.913-2.679-3.707-5.632"/>
        <path fill="#FFBE92" d="M143.69 161.668s-8.156 10.824-6.953 19.844c0 0 3.006-5.807 7.29-4.68 0 0 .45.922 2.03 8.964.225 4.554 3.609 2.706 4.06.677.45-2.03-.377-5.939 1.201-7.743l3.007-.6s2.255-3.383.75-9.096c0 0 .527-2.932 2.48-6.915-2.084-1.203-9.769-7.743-13.866-.451"/>
        <path stroke="#081738" stroke-width=".598" d="M58.24 119.302c.207-2.951 2.204-5.215 4.459-5.056 2.253.158 3.913 2.68 3.705 5.63-.207 2.951-2.202 5.217-4.457 5.058-2.255-.159-3.915-2.679-3.707-5.632z"/>
        <path fill="#82B0E1" d="M183.639 49.635s-8.35-3.675-14.696 15.368l-11.386 45.477s-5.863 14.207 1.804 19.619c8.685 6.13 14.58-3.91 14.58-3.91l11.35-30.817s7.703-14 9.038-19.68c7.349-9.687 5.01-28.395-10.69-26.057"/>
        <path fill="#1E2746" d="M216.007 328.811s-16.066 14.584-17.154 16.839c-1.084 2.255-.58 4.356 5.105 7.416 5.688 3.06 29.454-14.432 30.717-16.43 1.262-2-.886-8.168-.886-8.168s-10.343 8.416-17.782.343M183.338 306.89s-17.061 17.403-17.224 19.593c-.164 2.19 2.39 6.343 6.738 7.106 4.345.765 26.607-17.396 27.377-18.879.77-1.484-1.181-7.793-1.181-7.793l-15.71-.027z"/>
        <path fill="#5968A0" d="M179.67 194.475s1.492 100.971 1.315 107.733c-.388 1.486-.42 6.166 2.915 8.17 2.946 1.772 10.905 3.85 16.49-1.75 1.36-1.362 2.074-3.236 2.097-5.16.17-12.786 1.119-70.133 4.624-82.207l7.388 104.95s.116 7.836 10.995 6.943c10.883-.893 10.078-8.632 10.078-8.632s2.493-136.852 1.614-144.757c0 0-37.978-7.683-48.955-14.93 0 .22-8.561 4.831-8.561 29.64"/>
        <path fill="#E6F3FF" d="M193.062 63.405s-6.366 7.465-5.71 24.59c.659 17.124-.218 54.667 0 59.276.22 4.61.879 12.734.879 12.734s13.392 10.099 24.807 9.66c0 0-3.074-15.586-1.535-28.32 1.535-12.733-1.319-34.908.876-43.031 2.196-8.124 10.977-23.712 12.514-33.37l-1.099-3.515-30.732 1.976z"/>
        <path fill="#6981BF" d="M193.5 76.797c-.438.439 1.097 4.831 2.854 7.247 0 0 1.537 2.412 3.95.657l3.735-5.268-4.393-5.27c-.218.219-3.73.877-6.146 2.634"/>
        <path fill="#6981BF" d="M196.134 83.164s-3.359 21.677-6.105 41.8c0 0 3.471 11.988 6.983 18.138 0 0 6.18-10.783 8.157-14.295-.22-.879-5.741-44.764-5.741-44.764l-3.294-.879z"/>
        <path fill="#82B0E1" d="M245.437 133.486c-3.526 29.89 4.885 48.607 4.885 48.607 2.13 6.64 2.275 8.736 2.275 8.736-8.561 10.1-23.972 10.671-23.972 10.671-8.78 2.196-17.122-2.197-17.122-2.197s.877-8.122-.222-14.488c-1.097-6.366.702-14.76.153-25.18-.64-12.166-.153-28.828-.811-46.612-.659-17.784 6.806-30.518 11.635-40.397 4.83-9.88.88-12.734.88-12.734l-.22-4.391c4.829 1.975 5.927 9.66 5.927 9.66s14.707 9.88 18.66 15.808c3.952 5.928 2.107 17.941 2.107 17.941s-1 7.683-4.175 34.576M186.695 48.256s-13.392-1.097-14.929 13.174c0 0-.05 10.96 6.967 16.144-.022 9.763-2.785 73.07-3.05 74.44-.212 1.08-2.161 29.068-1.721 35.655 0 0 1.975 4.61 5.487 6.806 3.514 2.196 5.49 4.171 7.246 3.292 1.757-.876-.22-7.685.218-14.05.439-6.367 1.097-34.908 1.097-47.861 0-12.955.88-25.029 0-34.03-.876-9.003-1.097-31.396 4.61-37.982 0 .22-6.145-3.733-5.925-15.588"/>
        <path fill="#6E8EC8" d="M179.888 65.161c0 4.173-.218 8.344-.218 12.514 0 4.171-.22 8.344 0 12.515 0 4.172.439 8.343.439 12.514 0 4.17-.22 8.344-.439 12.514-.22 4.171-.658 8.342-1.097 12.515-.442 4.17-.66 8.343-1.1 12.512l-1.315 12.516c-.44 4.171-.88 8.342-1.539 12.513 0-4.17.22-8.342.44-12.513l.659-12.516c.22-4.169.44-8.341.878-12.512.439-4.173.659-8.344.877-12.296.22-4.17.44-8.342.658-12.513.22-4.172-.218-8.343 0-12.514 0-8.564.66-16.905 1.757-25.249"/>
        <path fill="#E6F3FF" d="M199.428 74.382s13.39-4.391 23.71-14.27c0 0 1.535.877 1.755 5.05 0 0-10.098 11.855-20.854 18.002-.22-.439-1.757-5.488-4.611-8.782M196.572 66.259s.22 5.707 2.856 8.123c0 0-5.71 3.732-9.001 4.39 0 0-.365-11.26 2.049-15.21 0 0 1.463 2.038 4.096 2.697"/>
        <path fill="#6E8EC8" d="M175.278 76.797l2.196 7.247c.44 1.097.878 2.412 1.098 3.51.218 1.317.218 2.416 0 3.953h-.22c-.878-1.097-1.535-2.195-1.977-3.294-.438-1.097-.438-2.414-.657-3.73-.22-2.636-.658-5.05-.44-7.686M186.914 183.059c1.538-18.444 1.757-65.426 1.316-72.012-.438-9.44-1.755-27.445.66-38.422l3.513-8.782-3.563-5.109s-4.78 6.648-5.438 26.626c0 0-1.64 15.564-2.519 18.2 0 0 4.934 8.145 4.274 13.195-.659 5.049-4.827 8.781-2.854 19.1 1.537 7.904 3.514 28.321 4.392 36.883.219 2.416 0 13.393 0 13.393l.219-3.072z"/>
        <path fill="#FFD4AE" d="M199.646 74.382c14.928-5.05 23.49-14.49 23.49-14.49l-.44-4.83c1.319.44 2.854-.44 4.393-1.538 1.535-1.097 2.854-6.146 2.633-11.636-.438-5.488-4.829-3.95-4.829-3.95s-.658-18.443-.44-19.32c.659-5.928-3.292-9.22-3.292-9.22-15.807-9.442-23.272.438-29.417 1.315-6.148.879-5.05 10.32-5.05 10.32v12.293s-.22 1.978.219 3.513c.44 1.098.44 2.415.22 3.734-.438 1.315-.658 3.95-.438 7.463-.22 14.93 8.56 17.564 9.66 18.004.218.218-.22 5.05 3.291 8.342"/>
        <g transform="translate(180.433)">
            <mask id="f" fill="#fff">
                <use xlink:href="#e"/>
            </mask>
            <path fill="#4D384A" d="M3.038 7.042S9.052.694 16.262 5.25C20.752 2.593 26.445-.654 30.19.394 35.68 1.931 46.55 6.41 47.648 9.263c1.098 2.854 0 5.93 0 5.93s3.294 1.096 3.294 6.586c0 5.488-.556 16.597-1.653 20.33 0 0-1.537-5.489-6.147-2.633 0 0-2.636 2.632-2.636 7.023l-.218 3.953-3.95 1.757.438-4.391c0-1.319-.438-2.634-1.317-3.514-1.319-1.317-6.077-6.794-.186-12.042 0 0 5.345-6.68.146-11.116-2.736-1.193-5.99-.742-15.01 2.767-9.355 3.005-14.588-1.124-14.588-1.124-.164.164-5.817-2.51-5.62-8.565.063-2.019.165-4.343 2.837-7.182" mask="url(#f)"/>
        </g>
        <path fill="#FFBE92" d="M196.572 66.259s7.027 2.415 14.05-1.758c2.636-1.535 4.832-4.827 6.587-8.341 0 0 1.098 5.488-7.463 9.88-3.514 1.757-6.368 1.535-8.781 3.073-1.319.878-1.757 2.635-1.537 5.05-1.757-1.538-2.856-5.709-2.856-7.904M186.695 36.4s1.975 2.635 7.465 4.612c2.853 1.097 7.68 3.512 10.096 3.73 6.15.66 7.464-.656 7.464-.656s-.876 3.73-7.682 2.414c-7.905-1.537-14.71-5.708-16.466-7.684-.22-1.757-.877-2.415-.877-2.415"/>
        <path fill="#FFBE92" d="M222.697 55.281s-.438 0-1.757-.658c-.438-.218-1.097-1.537-1.755-1.757 0 0 .44 9.88-5.268 14.71 0 0 6.805-4.61 9.22-7.463l-.44-4.832zM222.04 44.304s1.975-3.95 4.39-2.854c2.414 1.097 1.097 8.782-.66 10.319-1.755 1.537-3.95.22-3.95-1.537 0 0 0-1.755 1.535-1.977 1.539-.218 0 2.197 1.319 1.757 1.316-.438 2.633-4.611 1.757-6.146-.88-1.537-.66 3.292-1.099 3.732-.438.439-2.635 0-1.755-1.537.218-1.757-.44-2.195-1.537-1.757"/>
        <path fill="#252A3D" d="M187.927 158.446s7.989 7.927 23.793 10.122l-.56 5.156-.099 4.505s-15.805-2.196-23.488-9.443l.354-10.34z"/>
        <path fill="#ECF8FE" d="M193.964 162.746s-1.71 3.978.045 10.564c0 0 3.75 3.156 10.468 3.601l.28-9.82c-5.306-1.693-5.578-1.6-10.793-4.345"/>
        <path fill="#414771" d="M194.818 178.887l4.39 18.222 10.537 7.025-6.586-1.757s4.393 7.026 3.732 15.808v5.05s.66-16.465-9.22-23.712l-2.853-20.636z"/>
        <path fill="#C9D1EB" d="M197.452 149.028c.726 0 1.316.788 1.316 1.757 0 .97-.59 1.755-1.316 1.755-.727 0-1.317-.785-1.317-1.755 0-.969.59-1.757 1.317-1.757"/>
        <path fill="#6E8EC8" d="M211.282 170.982s1.097-6.804 1.757-21.734c.658-14.928 6.804-32.494 6.804-33.152 0-.659-3.072-10.097-3.072-10.097s3.73-.222 5.049-1.758c1.317-1.757-1.319-9.44 2.195-18.224 3.512-8.781 5.49-13.83 4.61-21.734 0 0-1.536-7.463-5.928-9.002l.44 4.831s5.049 2.854-2.416 15.808c0 0-10.756 17.344-10.316 35.786 0 0 .657 20.198.218 25.686-.438 5.49 1.537 27.224.659 33.59"/>
        <path fill="#C9D1EB" d="M187.927 158.446s7.341 7.802 23.793 10.122c0 0-.834-15.702-1.018-21.191-.184-5.488.274-25.706 0-27.533-.274-1.831-1.553-18.114 4.665-32.752 0 0 3.568-8.323 6.404-13.17 0 0 2.561-5.489 2.927-8.418 0 0-11.685 13.182-20.66 17.66 0 0 10.78-4.58 17.457-12.537 0 0-9.42 13.904-11.067 25.705-1.645 11.8-1.099 49.217-1.099 54.337 0 5.123.643 15.37.643 15.37s-8.691 0-22.045-7.593M191.173 66.785s-.943 8.539-.747 11.99c0 0 2.051-.19 3.148-1.08 0 0 .619 3.154 2.538 6.037 0 0-5.383 36.45-6.068 41.252l5.314-40.91-2.47-4.529s-2.126.619-3.497.619c0 0-1.099 9.126-.482 18.662.619 9.536 1.189 36.225-.983 59.62 0 0 .23-34.236.433-38.9 0 0 .208-16.4-.754-21.956 0 0-.588-17.682 1.284-24.965 0 0 1.804-5.154 2.284-5.84"/>
        <path fill="#5968A0" d="M194.055 79.066s3.98-2.195 5.215-3.292l2.536 5.42s-1.028 2.332-2.332 3.842l-3.36-1.305 3.156 2.127 4.87 42.47s-4.926 10.954-7.126 14.773c0 0 6.645-9.08 8.155-14.295 0 0-5.473-42.037-4.863-44.106 0 0 2.53-3.301 2.734-3.987 0 0-2.152-5.32-3.611-6.332l-5.855 3.312s-.206.414.481 1.373"/>
        <path fill="#82B0E1" d="M194.878 91.758l5.761 6.175.688 5.764-7.409-5.9zM193.116 104.34l9.216 7.658.915 7.135-11.069-8.806zM191.219 116.184l12.669 9.879.366 2.287-1.874 3.933-11.939-9.834zM192.225 131.277l7.959 5.215-3.172 6.61s-3.322-6.244-4.787-11.825"/>
        <path fill="#414771" d="M198.262 199.977s-7.135-1.647-8.964-5.124c0 0 6.402 2.38 8.964 2.928v2.196z"/>
        <path fill="#FFD4AE" d="M234.554 216.708a4.937 4.937 0 0 0 .713-2.937c-.244-3.466-1.055-6.563-3.13-6.563-2.415 0-1.396 4.034-1.396 4.034s1.084 3.173-1.256 4.174c-2.336 1.003-2.617-1.402-2.617-1.402s-.267-1.178-.554-3.525c-.501-4.093.336-6.794.336-6.794 1.975-6.586 4.17-9.878 4.17-9.878 5.928 6.586 12.514 2.634 12.732 1.975 1.757 3.072 5.49 13.391 3.514 17.346-1.975 3.95-8.341 7.243-8.341 7.243s-1.12 3.236-3.382 3.456c0 0-2.264.063-2.61-2.073-.23-1.409.972-3.67 1.821-5.056"/>
        <path fill="#FFBE92" d="M230.82 193.816s1.104 3.599 9.337 3.69c0 0 2.743 0 3.566-1.188 0 0 3.386 6.036 3.75 12.44 0 0-2.926-6.586-6.312-7.867 0 0-7.316.274-11.158-5.946l.817-1.13zM235.217 215.034s-.121-6.953-3.08-7.826c0 0 3.518-.348 3.237 7.196l-.157.63z"/>
        <path fill="#82B0E1" d="M238.923 81.372s-14.864 5.346-11.357 27.394c0 0 6.847 26.057 7.015 32.238.168 6.178 2.141 13.49 12.194 13.194 5.677-.168 8.801-3.316 9.602-10.608.695-6.31-1.42-17.37-2.337-22.798-1.32-7.803-3.19-15.89-3.09-18.542 0 0 1.502-17.537-4.51-22.55 0 0-2.672-.5-7.517 1.672"/>
        <path fill="#82B0E1" d="M234.748 141.838s1.503 18.958-.835 28.73l-.92 12.61s-2.253 5.597-1.418 10.859c0 0 6.514 5.762 13.028 1.001 0 0 1.168-1.503 1.919-3.007.752-1.503 6.764-28.395 8.018-34.074.981-4.442 2.782-7.12 1.753-18.457-.285-3.157-1.515-11.363-11.858-10.856-4.75.599-9.765 3.496-9.687 13.194"/>
        <path fill="#6E8EC8" d="M230.82 87.775c-1.976 3.512-2.847 8.538-3.287 12.492-.438 3.951.695 7.94 2.013 11.892 2.196 7.902 3.47 14.475 5.006 22.379.44 1.977.66 3.952.878 6.148v6.146c0 3.953-.218 8.123-.438 12.076-.44 8.123-.878 16.027-1.537 24.15-.878 3.513-1.539 7.025-1.539 10.537v-.218c.22.438.66.877 1.32 1.317.658.44 1.316.658 1.976.879 1.315.438 2.854.658 4.389.658a7.582 7.582 0 0 0 3.952-1.097c1.097-.88 1.976-1.977 2.414-3.514 1.539-5.49 2.854-10.757 4.392-16.245l-3.294 16.465c-.438 1.537-1.316 3.074-2.633 4.17-1.319 1.098-3.074 1.538-4.61 1.538-1.538 0-3.295-.218-4.83-.659-1.537-.44-3.076-1.096-4.172-3.074v-.22c0-3.73.44-7.465 1.317-10.977v.22c.66-7.903.88-16.025 1.318-24.148.218-3.955.439-8.124.439-12.078 0-1.974.22-3.95 0-5.926 0-1.977-.439-3.95-.877-5.928-1.539-7.903-3.294-15.809-5.27-23.492-2.635-7.903-1.318-16.687 3.073-23.491"/>
        <path fill="#6E8EC8" d="M232.358 183.059a27.14 27.14 0 0 0 3.73 1.537c1.319.438 2.415.658 3.734.876 1.317.22 2.415.22 3.73.22 1.319 0 2.636-.22 3.953-.22-1.099.879-2.414 1.537-3.733 1.978-1.316.438-2.853.438-4.388.22-1.54-.22-2.856-.66-4.173-1.54-1.096-.658-2.195-1.756-2.853-3.071M223.794 95.459a17.102 17.102 0 0 0 1.543 7.689l1.717 2.332c.22 1.097.253 2.713.253 3.81-1.974-1.757-3.072-3.95-3.73-6.366-.221-1.319-.44-2.416-.44-3.734 0-1.315.219-2.634.657-3.731"/>
        <path fill="#FFBE92" d="M193.578 53.56s1.001 3.007 4.008 2.255l-4.008-2.255z"/>
        <path fill="#F4FBFE" d="M183.06 43.848c-.134-2.955 1.587-5.436 3.845-5.535 2.257-.103 4.196 2.21 4.33 5.167.133 2.955-1.59 5.433-3.846 5.534-2.259.103-4.196-2.21-4.33-5.166M197.589 47.19c-.132-2.957 1.59-5.436 3.848-5.537 2.256-.103 4.195 2.21 4.329 5.167.132 2.957-1.59 5.435-3.848 5.536-2.256.103-4.196-2.21-4.329-5.166"/>
        <path stroke="#081738" stroke-width=".598" d="M183.06 43.848c-.134-2.955 1.587-5.436 3.845-5.535 2.257-.103 4.196 2.21 4.33 5.167.133 2.955-1.59 5.433-3.846 5.534-2.259.103-4.196-2.21-4.33-5.166zM197.423 47.022c-.133-2.956 1.588-5.435 3.846-5.536 2.257-.103 4.196 2.21 4.33 5.167.133 2.956-1.59 5.435-3.846 5.536-2.259.103-4.196-2.21-4.33-5.167zM191.323 44.54s3.09-2.087 6.012 1.67M205.602 45.793l16.12-4.094"/>
        <path fill="#E793BC" d="M11.519 217.592C.935 218.618 1.433 206.265 1.433 206.265L.394 181.06s-.45-12.778 1.662-25.18c.752-12.138 14.728-24.787 25.1-12.77 0 0 42.334 3.894 34.72 22.466"/>
        <path fill="#E793BC" d="M18.493 206.238l9.712 52.846s-2.919 8.51-14.613 4.171c0 0-13.304-46.956-12.158-56.99 1.147-10.036 15.933-15.103 17.059-.027"/>
        <path fill="#6E8EC8" d="M26.986 257.099s-6.646 6.182-15.546 1.161l-.089-1.178s8.937 5.492 15.764-1.414l-.13 1.43z"/>
        <path fill="#FFBE92" d="M22.641 284.035l-5.41 5.26s-3.153.59-3.889-2.907c-.734-3.498 3.87-5.263 5.636-8.593 0 0-2.978 2.946-6.103-.848 0 0 2.674 2.526 6.83-.51 0 0 .738 1.959-2.165 4.308-2.902 2.348-4.52 4.483-3.057 6.624l2.316.893 5.842-4.227z"/>
        <path fill="#886EA1" d="M13.412 283.773s1.492 100.971 1.315 107.733c-.386 1.486-.42 6.166 2.916 8.17 2.945 1.772 10.906 3.85 16.49-1.75 1.359-1.362 1.89-3.247 2.097-5.161 1.896-17.324 2.797-64.53 4.625-82.207l7.387 104.952s.115 7.834 10.996 6.942c10.881-.893 10.076-8.633 10.076-8.633s2.493-136.851 1.617-144.756c0 0-37.98-7.683-48.957-14.93 0 .22-8.562 4.831-8.562 29.64"/>
        <path fill="#E793BC" d="M21.755 191.124c-.878-9.002 2.544-32.943 8.253-39.528 0 .219-9.791-2.186-9.57-14.042 0 0-13.391-1.099-14.928 13.173 0 0-.05 10.961 6.964 16.146-.02 9.763-2.783 73.069-3.05 74.438-.21 1.08-1.126 22.685-.687 29.274 0 0 .45 16.236 48.253 18.49 0 0 19.392-1.127 23.902-11.274 0 0-1.672-34.958-.451-57.277 1.479-27.039 2.915-32.315 2.915-32.315s1.843-12.013-2.109-17.943c-3.95-5.928-24.368-21.226-24.368-21.226"/>
        <path fill="#FFD4AE" d="M59.02 99.58c4.209.902 4.059 10.524 4.059 10.524l.301 23.752c-.902 9.321-6.465 10.598-6.465 10.598l-.036 4.736s-27.404 3.566-27.623 3.344c-11.048-10.824-8.819-42.204-8.819-42.204s-.05-9.998 9.42-12.554c9.47-2.555 12.928-6.915 29.163 1.804"/>
        <path fill="#C25184" d="M29.256 144.831s12.326 5.26 22.247 2.856c9.922-2.405 12.628 6.915 12.628 6.915s-2.519-1.729-13.378 1.203c-9.461 2.554-26.006.076-26.607-6.089l-.152-7.892 5.262 3.007z"/>
        <path fill="#E793BC" d="M59.166 163.423s11.561-6.982 25.062 10.8c0 0 14.08 22.969 18.428 27.363 4.35 4.397 8.262 10.878 1.099 17.934-4.048 3.987-8.484 4.066-14.303-.399-5.039-3.866-11.565-13.04-14.85-17.459-4.72-6.348-11.485-11.8-13.466-13.56 0 0-8.985-6.524-8.444-14.333 0 0-.613-6.206 6.474-10.346"/>
        <path fill="#82B0E1" d="M100.53 207.383s6.556-4.277 14.635-9.184c6.314-3.834 11.886-8.29 16.686-10.599 0 0 3.227-1.43 6.539.902 2.787 1.963 4.51 7.14-.451 12.253-.808 1.474-16.864 18.552-26.833 24.053-6.539 3.608-14.142 3.83-19.617-4.961-2.21-4.245 1.025-7.007 9.041-12.464"/>
        <path fill="#DD6FA9" d="M98.008 197.094c-4.645-6.577-8.51-12.043-12.701-19.095-1.943-3.684-4.037-7.261-7.196-9.678-3.159-2.416-7.392-5.263-11.296-6.266 7.953 1.537 15.207 6.66 19.092 14.028 4.184 6.742 8.677 13.476 13.322 20.053 1.124 1.684 4.098 5.784 6.241 8.827 0 0 1.579 2.82 1.69 5.638 0 0-3.607-6.314-5.185-8.004-1.579-1.693-3.967-5.503-3.967-5.503M58.705 188.025a17.106 17.106 0 0 0 6.265 4.718l2.83.602c.895.675 1.993 1.858 2.724 2.677-2.645.002-4.925-.907-7.02-2.275-1.04-.838-1.935-1.511-2.81-2.496-.876-.983-1.587-2.115-1.99-3.226"/>
        <path fill="#DD6FA9" d="M90.62 220.768c-3.179-3.335-8.174-7.945-11.5-12.323-11-14.475-13.605-14.484-13.605-14.484s1.283-4.6 14.965 13.497c3.027 4.003 7.508 8.977 11.22 12.41 0 0 9.11 8.998 15.573 6.442 0 0-7.751 3.798-16.653-5.542"/>
        <path fill="#FFBE92" d="M52.368 126.152s-1.69 4.735.338 8.23c0 0 2.029 4.623 5.413.339 0 0-1.015 3.72-4.06 4.847-3.044 1.13-1.465 8.006-1.465 8.006s-3.608 1.016-6.653.565c0 0 3.947-9.924 2.706-16.575-1.24-6.652 3.721-5.412 3.721-5.412"/>
        <path fill="#DD6FA9" d="M9.188 246.907c2.127-22.62 2.09-38.091 1.128-52.767-1.285-19.557.45-40.365.45-40.365s-3.156 6.089-2.029 16.462l-2.03-15.109s-2.254 6.991 1.805 21.423c0 0-1.804 10.373-.226 23.001 1.579 12.628-.225 42.62-.225 42.62l1.127 4.735z"/>
        <path fill="#4D384A" d="M61.876 103.038s1.046-1.622-.05-4.476c-1.1-2.854-11.971-7.333-17.459-8.868-3.746-1.05-9.438 2.197-13.93 4.854l-6.894 3.83s-6.126 3.195-4.809 18.114c0 0 0 16.613 1.954 22.626 0 0 1.804 8.569 10.823 9.922 9.02 1.353 18.189-3.233 18.64-9.321.45-6.089-.902-13.53 4.735-16.236 0 0 3.947-2.066 3.833 4.21l.067 1.949 1.286-.37s.45-9.471-.074-12.329c-.527-2.856-6.04-3.162-5.789-7.74.226-4.136 6.164-2.633 7.667-6.165"/>
        <path fill="#FFBE92" d="M57.216 128.144s.752-3.308-1.051-3.007c-1.804.301-3.309 2.556-2.407 7.216.902 4.66 3.91 2.556 4.21.6.3-1.953-.602 1.805-1.955.903-1.353-.902-1.503-6.013-.75-6.915.75-.902 1.502 1.052 1.201 2.105-.3 1.052-.902 1.653-.45 2.255 0 0 .376 1.128 1.278.826.902-.3-.828-.526-.828-1.728 0-1.203.752-.676.752-2.255"/>
        <path fill="#DD6FA9" d="M68.378 195.831s-5.637 1.353-9.357-.676c0 0 1.465 3.494 12.625 3.157l-3.268-2.48z"/>
        <path fill="#6E8EC8" d="M131.852 187.6s2.135-1.452 4.904-.506c1.488.506 3.561 2.04 4.678 4.114 0 0 1.973 4.51-2.592 8.494 0 0 3.607-5.712.3-9.471-3.308-3.758-7.29-2.63-7.29-2.63"/>
        <path fill="#6E8EC8" d="M127.06 190.306s6.815-.983 8.68 5.638c1.128 4.003-.788 8.118-.788 8.118l1.127-1.128s2.876-5.523-1.183-10.598c0 0-3.045-3.101-6.709-2.762l-1.127.732z"/>
        <path fill="#DD6FA9" d="M63.304 154.226s13.565 9.982 17.943 16.042c0 0-14.786-12.659-21.776-16.493l3.833.451z"/>
        <path fill="#634977" d="M28.504 284.94s3.608 6.917 12.627 12.33l5.112 88.695-7.516-87.193s-6.915-2.405-10.223-13.831"/>
        <path fill="#634977" d="M38.915 296.291s6.012 3.008 13.53 2.405c0 0-5.113 2.407-12.628 0l-.902-2.405z"/>
        <path fill="#82B0E1" d="M157.895 110.028s-8.343 15.785-14.887 50.67c0 0-.06 4.09 8.009 5.705 5.29 1.058 7.044-2.007 8.72-4.585 9.158-23.835 13.078-29.84 14.355-36.38 0 0 3.308-8.118 0-14.959-1.757-3.635-11.65-10.598-16.197-.45"/>
        <path fill="#081738" d="M66.836 118.973l-9.658 4.36.601.413.377.6 7.93-3.869zM52.856 125.024c-.236.375-.413.94-.788 2.443 0 0-1.053 1.918-1.127 6.428 0 0-.143 1.751-1.016 1.315-1.578-.79.152-8.757 2.931-10.186"/>
        <path fill="#FFD4AE" d="M144.103 176.852s-.501-1.066-.638-2.556c-.103-1.104.191-2.59 0-3.269-.451-1.598-1.88-1.692-2.706-1.692-.734 0-.703 3.442-1.932 5.708-3.142 5.792-3.292 9.776-3.292 9.776l9.02-5.111-.452-2.856z"/>
        <path fill="#F7A872" d="M150.82 178.665c1.014-1.382 2.565-2.79 2.34-6.51 0 0 1.052 2.254-.911 6.153l-.19.301s-1.304.46-1.605 1.965c0 0-.647-.527.366-1.909"/>
        <path fill="#FFBE92" d="M142.373 196.922s.625 1.165 2.407.676c.375-.104 1.502-1.053 1.201-2.105l-3.608 1.429z"/>
        <path fill="#6E8EC8" d="M159.736 114.914s9.02-1.804 11.725 4.96c0 0-7.216-4.96-11.725-4.96"/>
        <path stroke="#DEE1F2" stroke-width=".396" d="M159.734 183.985c0 12.194-7.127 22.076-15.92 22.076-8.791 0-15.918-9.882-15.918-22.076 0-12.191 7.127-22.075 15.919-22.075 8.792 0 15.919 9.884 15.919 22.075z"/>
        <path fill="#C7D1EA" d="M107.897 105.265l83.54 48.594a19.318 19.318 0 0 1 9.6 16.694v84.105c-.298 5.637-7.764 8.457-10.872 6.637l-79.722-51.566a19.314 19.314 0 0 1-9.552-16.663l-4.29-82.001c.102-4.988 8.186-7.61 11.296-5.8"/>
        <path fill="#82B0E1" d="M103.507 107.659l83.54 48.594a19.316 19.316 0 0 1 9.602 16.694v84.105c0 3.602-3.91 5.843-7.017 4.023l-83.577-48.952a19.312 19.312 0 0 1-9.554-16.665v-83.77c0-3.596 3.898-5.838 7.006-4.03"/>
        <path fill="#FFF" d="M107.283 114.382l76.217 44.337a17.619 17.619 0 0 1 8.76 15.23v76.732c0 3.287-3.567 5.331-6.403 3.671l-76.251-44.661a17.62 17.62 0 0 1-8.715-15.204v-76.429c0-3.28 3.556-5.325 6.392-3.676"/>
        <path fill="#82B0E1" d="M188.47 203.401c0 1.009-.531 1.824-1.186 1.824-.655 0-1.183-.815-1.183-1.824 0-1.006.528-1.823 1.183-1.823s1.185.817 1.185 1.823M188.47 212.18c0 1.008-.531 1.824-1.186 1.824-.655 0-1.183-.816-1.183-1.824s.528-1.824 1.183-1.824 1.185.816 1.185 1.824M188.47 220.959c0 1.006-.531 1.823-1.186 1.823-.655 0-1.183-.817-1.183-1.823 0-1.009.528-1.824 1.183-1.824s1.185.815 1.185 1.824"/>
        <path fill="#FFD4AE" d="M133.655 187s.891-.77 1.429-1.73c1.007-1.8 2.098-4.54 3.081-6.013 2.255-3.383 4.96-3.834 4.96-3.834s1.695 4.534 6.314 4.85c1.36.092.77-1.729 5.017-2.48 1.71-.304 2.931.562 2.886 2.016-.067 2.154-1.414 2.845-1.533 3.732a12.848 12.848 0 0 1-1.41 4.34c-.225 2.2-1.049 2.707-1.803 3.609-2.46 2.944-6.626 4.876-13.529 6.258 0 0 1.804-7.817-5.412-10.748"/>
        <path fill="#FFBE92" d="M143.69 161.668s-8.156 10.824-6.953 19.844c0 0 3.006-5.807 7.29-4.68 0 0 .45.922 2.03 8.964.225 4.554 3.609 2.706 4.06.677.45-2.03-.377-5.939 1.201-7.743l3.007-.6s2.255-3.383.75-9.096c0 0 .527-2.932 2.48-6.915-2.084-1.203-9.769-7.743-13.866-.451"/>
        <path fill="#E793BC" d="M100.53 207.383s6.556-4.277 14.635-9.184c6.314-3.834 11.886-8.29 16.686-10.599 0 0 3.227-1.43 6.539.902 2.787 1.963 4.51 7.14-.451 12.253-.808 1.474-16.864 18.552-26.833 24.053-6.539 3.608-14.142 3.83-19.617-4.961-2.21-4.245 1.025-7.007 9.041-12.464"/>
        <path fill="#DD6FA9" d="M131.852 187.6s2.135-1.452 4.904-.506c1.488.506 3.561 2.04 4.678 4.114 0 0 1.973 4.51-2.592 8.494 0 0 3.607-5.712.3-9.471-3.308-3.758-7.29-2.63-7.29-2.63"/>
        <path fill="#DD6FA9" d="M127.06 190.306s6.815-.983 8.68 5.638c1.128 4.003-.788 8.118-.788 8.118l1.127-1.128s2.876-5.523-1.183-10.598c0 0-3.045-3.101-6.709-2.762l-1.127.732z"/>
        <path fill="#FFD4AE" d="M144.103 176.852s-.501-1.066-.638-2.556c-.103-1.104.191-2.59 0-3.269-.451-1.598-1.88-1.692-2.706-1.692-.734 0-.703 3.442-1.932 5.708-3.142 5.792-3.292 9.776-3.292 9.776l9.02-5.111-.452-2.856z"/>
        <path fill="#F7A872" d="M150.82 178.665c1.014-1.382 2.565-2.79 2.34-6.51 0 0 1.052 2.254-.911 6.153l-.19.301s-1.304.46-1.605 1.965c0 0-.647-.527.366-1.909"/>
        <path fill="#FFBE92" d="M142.373 196.922s.625 1.165 2.407.676c.375-.104 1.502-1.053 1.201-2.105l-3.608 1.429z"/>
        <path fill="#6E8EC8" d="M159.736 114.914s9.02-1.804 11.725 4.96c0 0-7.216-4.96-11.725-4.96"/>
        <g transform="translate(143 137)">
            <mask id="h" fill="#fff">
                <use xlink:href="#g"/>
            </mask>
            <path fill="#82B0E1" d="M15.866-28.21S7.248-11.765.488 24.582c0 0-.062 4.263 8.273 5.945 5.465 1.101 7.276-2.092 9.007-4.778C27.228.916 31.278-5.341 32.597-12.155c0 0 3.417-8.458 0-15.586-1.815-3.787-12.034-11.043-16.731-.47" mask="url(#h)"/>
        </g>
        <g>
            <path fill="#82B0E1" d="M147.51 137.918l18.055 10.86 1.156-3.62-19.644-11.916zM155.346 153.417c5.2 3.507 4.117 8.485 4.117 8.485-1.626 4.072-3.647 4.337-3.647 4.337s2.96-4.261-3.683-6.75c-6.56-2.457-8.307 2.865-8.307 2.865-.974-1.998.144-4.656.957-8.54 0 0 3.106-5.425 10.563-.397"/>
            <path fill="#C7D1EA" d="M158.928 120.928l-9.176-7.954c-1.411-1.358-2.214-3.271-2.214-5.275l-1.553-13.236c0-1.832 3.28-2.672 4.347-1.644l10.563 7.272c1.411 1.358 2.215 3.27 2.215 5.275v13.601c0 1.642-3.116 2.987-4.182 1.96"/>
            <path fill="#C7D1EA" d="M157.443 121.985l-1.468.739 1.333-3.56 1.045 1.024z"/>
            <path fill="#C7D1EA" d="M156.853 116.93l.59 5.055 1.585-3.313z"/>
            <path fill="#FFF" d="M158.696 120.776l-10.563-7.273c-1.41-1.36-2.215-3.271-2.215-5.275v-13.6c0-1.517 1.728-2.308 2.794-1.28l10.565 7.272c1.41 1.357 2.213 3.27 2.213 5.274v13.602c0 1.515-1.726 2.306-2.794 1.28"/>
            <path fill="#FFF" d="M155.317 117.175l.659 5.548 1.518-3.803z"/>
            <path fill="#C7D1EA" d="M150.664 104.155c.135 1.012-.248 1.905-.854 1.995-.61.087-1.214-.659-1.35-1.67-.14-1.013.245-1.905.854-1.994.608-.09 1.213.657 1.35 1.67M154.598 106.763c.137 1.012-.246 1.904-.854 1.993-.609.089-1.212-.657-1.349-1.67-.139-1.011.244-1.903.855-1.992.608-.09 1.213.657 1.348 1.669M158.04 108.77c.136 1.013-.247 1.905-.855 1.994-.61.089-1.214-.659-1.349-1.67-.139-1.01.245-1.903.855-1.994.606-.089 1.211.657 1.348 1.67"/>
        </g>
    </g>
</svg>
