<svg xmlns="http://www.w3.org/2000/svg" xmlns:xlink="http://www.w3.org/1999/xlink" width="371" height="396" viewBox="0 0 371 396">
    <defs>
        <path id="a" d="M0 .456v220.428h370.805V.456H0z"/>
        <path id="c" d="M.112.176H40.81v40.098H.11V.176z"/>
    </defs>
    <g fill="none" fill-rule="evenodd">
        <g transform="translate(0 175.116)">
            <mask id="b" fill="#fff">
                <use xlink:href="#a"/>
            </mask>
            <path fill="#DEE1F2" d="M3.4 100.167L168.414 2.156a12.139 12.139 0 0 1 12.17-.128L367.08 107.59a7.321 7.321 0 0 1 3.686 7.138 8.671 8.671 0 0 1-4.211 6.541l-163.266 96.716a20.806 20.806 0 0 1-21.11.049L4.532 113.893a9.152 9.152 0 0 1-4.523-7.407 6.93 6.93 0 0 1 3.39-6.32" mask="url(#b)"/>
        </g>
        <path fill="#C7D1EA" d="M.025 280.583l183.74 106a18.66 18.66 0 0 0 18.732-.066l168.005-99.506s2.481 5.619-3.636 10.07L199.53 395.09s-9.357 2.894-17.2-1.647L6.047 290.582s-6.502-2.857-6.02-10"/>
        <path fill="#82B0E1" d="M269.8 266.653s.769 10.221-.709 15.92L262 275.388l7.8-8.735zM96.267 279.588s-.601-9.459 0-14.546l4.733-5.354-4.733 19.9z"/>
        <path fill="#C7D1EA" d="M270 277.1c0 23.904-38.95 43.282-87 43.282-48.048 0-87-19.378-87-43.281 0-23.904 38.952-43.282 87-43.282 48.05 0 87 19.378 87 43.282"/>
        <path fill="#EDEFF9" d="M270 267.15c0 23.904-38.95 43.282-87 43.282-48.048 0-87-19.378-87-43.281 0-23.904 38.952-43.282 87-43.282 48.05 0 87 19.378 87 43.282"/>
        <path fill="#82B0E1" d="M62.418 101.545l20.187 8.758c.249.108.406.353.394.618l-.741 16.81c-.02.469-.534.762-.97.552l-19.915-9.555a.643.643 0 0 1-.373-.599l.474-16.011c.011-.462.507-.762.944-.573"/>
        <path fill="#FFF" d="M62.288 101.545l18.351 8.758a.65.65 0 0 1 .36.618l-.675 16.809c-.017.468-.484.763-.88.553l-18.106-9.556a.653.653 0 0 1-.338-.599l.43-16.01c.01-.463.461-.763.858-.573"/>
        <path fill="#82B0E1" d="M167.493 40.026s-6.542-2.923-11.514 12.22l-16.225 32.145s-6.019 6.642-.26 12.75c5.755 6.11 11.775-1.593 11.775-1.593l13.869-18.86s9.682-11.424 10.73-15.942c5.755-7.703 3.924-22.58-8.375-20.72"/>
        <path fill="#FFD4AE" d="M109.5 118.55s-4.585-.523-6.205.394c-1.616.918-4.044 3.012-4.18 4.845-.135 1.833-.268 2.357-.268 2.357s-9.981 6.81-9.846 8.51c.136 1.703.54 2.881 3.103 2.226 2.56-.654 5.933-3.535 5.933-3.535s-.135 3.144 2.157 3.405c0 0 4.047 2.62 6.742 1.047 0 0 2.159.655 4.856-1.833 2.698-2.487 4.451-6.94 4.18-9.428l-6.472-7.987z"/>
        <path fill="#82B0E1" d="M141.761 84.414l-32.404 34.709s-2.7 6.725 6.751 10.224c0 0 32.944-26.907 37.535-33.634 4.59-6.725-3.24-19.909-11.882-11.299"/>
        <path fill="#6E8EC8" d="M112 115.185s.677 5.889 7.436 7.197l.564-.545s-6.986-1.09-7.436-7.415l-.564.763z"/>
        <path fill="#FFBE92" d="M99 126.804l.444 4.756s1.333 1.585 3.222.212c1.89-1.376.334-4.124.89-6.45 0 0 .222 2.645 3.444 2.116 0 0-2.445.104-3.222-3.066 0 0-1.222.635-.778 2.96.444 2.326.332 4.016-1.333 4.44l-1.556-.529-1.111-4.44z"/>
        <path fill="#1E2746" d="M194.925 260.958s-12.702 11.627-13.56 13.425c-.859 1.799-.46 3.476 4.036 5.914 4.495 2.441 23.286-11.506 24.285-13.1.997-1.594-.701-6.514-.701-6.514s-8.178 6.71-14.06.275M166.97 246.778s-11.836 12.234-11.964 14.028c-.128 1.796 1.881 5.201 5.303 5.828 3.42.626 20.944-14.265 21.549-15.48.608-1.216-.93-6.39-.93-6.39l-13.957 2.014z"/>
        <path fill="#5968A0" d="M167 155.975s1.215 80.544 1.071 85.936c-.314 1.185-.34 4.92 2.374 6.518 2.4 1.412 8.883 3.071 13.432-1.397 1.106-1.086 1.688-2.582 1.709-4.117.138-10.198.91-55.941 3.765-65.574l6.017 83.717s.094 6.251 8.956 5.539c8.863-.713 8.207-6.886 8.207-6.886s2.03-109.164 1.317-115.469c0 0-30.935-6.13-39.875-11.91 0 .175-6.973 3.853-6.973 23.643"/>
        <path fill="#E6F3FF" d="M177.44 50.335s-4.911 5.97-4.403 19.662c.508 13.693-.17 43.716 0 47.402.168 3.687.676 10.183.676 10.183s10.333 8.075 19.142 7.723c0 0-2.372-12.463-1.186-22.647 1.186-10.181-1.018-27.913.678-34.41 1.693-6.495 8.469-18.96 9.653-26.684l-.846-2.81-23.714 1.58z"/>
        <path fill="#6981BF" d="M177.057 61.574c-.33.313.827 3.44 2.15 5.16 0 0 1.16 1.719 2.98.469L185 63.45l-3.31-3.753c-.165.157-2.812.625-4.633 1.876"/>
        <path fill="#6981BF" d="M179.242 65.668S176.356 82.941 174 98.977c0 0 2.979 9.55 5.995 14.45 0 0 5.309-8.591 7.005-11.389-.187-.701-4.93-35.67-4.93-35.67l-2.828-.7z"/>
        <path fill="#82B0E1" d="M219.207 106.166c-2.855 23.529 3.954 38.263 3.954 38.263 1.724 5.228 1.839 6.878 1.839 6.878-6.928 7.95-19.398 8.4-19.398 8.4-7.106 1.728-13.858-1.728-13.858-1.728s.71-6.395-.178-11.407c-.89-5.012.566-11.62.122-19.823-.516-9.577-.122-22.694-.655-36.693-.533-13.999 5.508-24.024 9.416-31.8 3.908-7.779.71-10.025.71-10.025l-.177-3.457c3.908 1.555 4.797 7.603 4.797 7.603s11.903 7.779 15.101 12.445c3.197 4.667 1.705 14.124 1.705 14.124s-.81 6.05-3.378 27.22M172.884 37.824S161.325 36.957 160 48.24c0 0-.045 8.666 6.011 12.767-.017 7.718-2.402 57.774-2.63 58.858-.183.855-1.866 22.984-1.488 28.192 0 0 1.707 3.646 4.738 5.382 3.031 1.736 4.736 3.298 6.253 2.603 1.516-.693-.19-6.075.19-11.109.378-5.034.946-27.603.946-37.844 0-10.242.759-19.79 0-26.908-.758-7.117-.946-24.824 3.98-30.03 0 .172-5.306-2.954-5.116-12.327"/>
        <path fill="#6E8EC8" d="M166.801 51.739c0 3.359-.2 6.716-.2 10.074 0 3.359-.2 6.716 0 10.074 0 3.359.399 6.716.399 10.076 0 3.356-.199 6.715-.4 10.072-.198 3.36-.6 6.717-.999 10.074-.4 3.358-.601 6.717-1 10.074l-1.2 10.075c-.402 3.357-.801 6.716-1.401 10.074 0-3.358.199-6.717.4-10.074l.6-10.075c.202-3.357.4-6.716.8-10.074.4-3.357.6-6.715.8-9.897l.6-10.074c.2-3.359-.2-6.715 0-10.074 0-6.892.602-13.609 1.601-20.325"/>
        <path fill="#E6F3FF" d="M182 59.463s10.518-3.603 18.622-11.704c0 0 1.205.72 1.378 4.14 0 0-7.93 9.724-16.379 14.764-.173-.36-1.38-4.5-3.621-7.2M179.785 54.033s.17 4.853 2.215 6.907c0 0-4.43 3.172-6.985 3.733 0 0-.283-9.575 1.59-12.934 0 0 1.136 1.734 3.18 2.294"/>
        <path fill="#6E8EC8" d="M162.034 61.688l1.249 6.373c.249.964.498 2.122.623 3.088.125 1.158.125 2.124 0 3.474h-.125a13.926 13.926 0 0 1-1.123-2.895c-.25-.964-.25-2.124-.375-3.282-.125-2.316-.374-4.44-.249-6.758M172.19 145.802c1.066-14.691 1.22-52.12.912-57.366-.304-7.52-1.219-21.862.459-30.606L176 50.834l-2.473-4.07s-3.32 5.294-3.777 21.21c0 0-1.139 12.4-1.75 14.498 0 0 3.427 6.488 2.969 10.51-.457 4.025-3.354 6.997-1.982 15.217 1.067 6.297 2.44 22.561 3.05 29.383.152 1.924 0 10.67 0 10.67l.152-2.45z"/>
        <path fill="#FFD4AE" d="M183.277 58.704c11.765-3.931 18.512-11.276 18.512-11.276l-.345-3.76c1.039.341 2.249-.341 3.46-1.196 1.211-.855 2.25-4.784 2.077-9.055-.347-4.272-3.807-3.075-3.807-3.075s-.519-14.353-.346-15.035c.52-4.613-2.596-7.175-2.596-7.175-12.456-7.348-18.34.341-23.185 1.025-4.843.682-3.979 8.03-3.979 8.03v9.566s-.173 1.538.173 2.733c.347.855.347 1.88.174 2.906-.347 1.025-.52 3.075-.347 5.81-.173 11.616 6.747 13.667 7.613 14.009.174.17-.172 3.929 2.596 6.493"/>
        <g transform="translate(167)">
            <mask id="d" fill="#fff">
                <use xlink:href="#c"/>
            </mask>
            <path fill="#4D384A" d="M2.393 5.455S7.215.56 12.997 4.074C16.599 2.025 21.163-.478 24.168.33c4.4 1.186 13.12 4.637 14.001 6.838.881 2.2 0 4.57 0 4.57s2.642.845 2.642 5.077c0 4.23-.446 12.796-1.326 15.672 0 0-1.234-4.23-4.931-2.029 0 0-2.112 2.03-2.112 5.416l-.177 3.045-3.168 1.355.351-3.385c0-1.015-.351-2.03-1.054-2.708-1.058-1.015-4.874-5.239-.15-9.283 0 0 4.287-5.151.117-8.57-2.195-.92-4.805-.572-12.038 2.133-7.501 2.318-11.698-.867-11.698-.867-.133.127-4.667-1.934-4.51-6.603.053-1.556.135-3.347 2.278-5.536" mask="url(#d)"/>
        </g>
        <path fill="#FFBE92" d="M180 54.142s6.115 2 12.23-1.457c2.292-1.274 4.202-4.003 5.73-6.916 0 0 .956 4.55-6.495 8.19-3.059 1.457-5.543 1.273-7.643 2.549-1.147.726-1.53 2.183-1.338 4.185-1.53-1.274-2.484-4.731-2.484-6.551M173 27.86s1.58 2.02 5.965 3.535c2.28.84 6.14 2.693 8.07 2.862 4.913.504 5.965-.505 5.965-.505s-.702 2.86-6.141 1.852c-6.315-1.18-11.754-4.377-13.158-5.893-.175-1.347-.701-1.852-.701-1.852"/>
        <path fill="#FFBE92" d="M200.667 42.918s-.333 0-1.334-.579c-.333-.193-.833-1.353-1.332-1.545 0 0 .332 8.69-4.001 12.935 0 0 5.166-4.054 7-6.564l-.333-4.247zM201.186 35.997s1.667-2.811 3.703-2.031c2.036.781.925 6.247-.555 7.341-1.48 1.092-3.334.155-3.334-1.094 0 0 0-1.249 1.296-1.406 1.297-.156 0 1.562 1.111 1.25 1.11-.313 2.223-3.28 1.482-4.373-.74-1.093-.555 2.343-.927 2.655-.37.312-2.221 0-1.48-1.093.186-1.249-.371-1.562-1.296-1.249"/>
        <path fill="#252A3D" d="M173.293 125.367s6.617 6.38 19.707 8.145l-.465 4.15-.08 3.624s-13.092-1.766-19.455-7.598l.293-8.321z"/>
        <path fill="#ECF8FE" d="M176.518 129.347s-1.186 2.516.03 6.678c0 0 2.6 1.996 7.257 2.277l.195-6.21c-3.677-1.068-3.867-1.01-7.482-2.745"/>
        <path fill="#414771" d="M179 143.276l3.824 14.72 9.176 5.672-5.734-1.42s3.824 5.676 3.249 12.77v4.077s.575-13.298-8.03-19.151L179 143.276z"/>
        <path fill="#C9D1EB" d="M180 118.402c.552 0 1 .446 1 .995a.998.998 0 0 1-1 .995c-.553 0-1-.446-1-.995 0-.55.447-.995 1-.995"/>
        <path fill="#6E8EC8" d="M191.725 137.307s.892-5.444 1.43-17.384c.533-11.94 5.534-25.987 5.534-26.512 0-.527-2.5-8.077-2.5-8.077s3.035-.177 4.106-1.405c1.071-1.405-1.07-7.55 1.787-14.575 2.855-7.022 4.464-11.061 3.749-17.38 0 0-1.25-5.97-4.821-7.2l.356 3.862s4.107 2.283-1.964 12.643c0 0-8.748 13.87-8.391 28.62 0 0 .535 16.153.179 20.543-.358 4.39 1.248 21.773.535 26.865"/>
        <path fill="#C9D1EB" d="M173 126.21s5.79 6.254 18.766 8.112c0 0-.658-12.582-.803-16.98-.145-4.398.215-20.598 0-22.062-.216-1.467-1.226-14.513 3.68-26.242 0 0 2.812-6.67 5.05-10.555 0 0 2.02-4.397 2.307-6.744 0 0-9.214 10.563-16.293 14.151 0 0 8.501-3.669 13.768-10.046 0 0-7.429 11.142-8.728 20.597-1.299 9.455-.866 39.436-.866 43.54 0 4.105.505 12.314.505 12.314s-6.854 0-17.386-6.084"/>
        <path fill="#C9D1EB" d="M175.978 53.729s-.77 6.765-.609 9.5c0 0 1.67-.149 2.564-.856 0 0 .502 2.501 2.067 4.784 0 0-4.385 28.885-4.943 32.69l4.327-32.418-2.01-3.588s-1.733.489-2.85.489c0 0-.894 7.232-.392 14.788.504 7.556.97 28.705-.8 47.244 0 0 .186-27.13.354-30.826 0 0 .169-12.994-.614-17.397 0 0-.48-14.012 1.044-19.782 0 0 1.47-4.084 1.862-4.628"/>
        <path fill="#5968A0" d="M177.35 63.36s2.74-1.716 3.59-2.574l1.747 4.237s-.708 1.825-1.606 3.004l-2.313-1.02 2.172 1.665 3.352 33.205s-3.39 8.564-4.906 11.55c0 0 4.575-7.099 5.614-11.175 0 0-3.767-32.869-3.346-34.485 0 0 1.74-2.583 1.882-3.12 0 0-1.481-4.159-2.487-4.949l-4.03 2.589s-.14.323.331 1.073"/>
        <path fill="#82B0E1" d="M177.649 73.628l3.888 4.118.463 3.842-5-3.934zM176.677 82.583l6.662 6.696.661 6.239-8-7.698zM175.508 92.533l8.252 7.937.24 1.836-1.222 3.161-7.778-7.9zM176 105.467l5 3.51-1.993 4.45s-2.087-4.203-3.007-7.96"/>
        <path fill="#414771" d="M181 158.201s-5.57-1.278-7-3.98c0 0 5 1.848 7 2.274v1.706z"/>
        <path fill="#FFD4AE" d="M210.041 170.676a3.49 3.49 0 0 0 .597-2.239c-.202-2.641-.884-5.004-2.622-5.004-2.024 0-1.171 3.075-1.171 3.075s.908 2.42-1.051 3.182c-1.96.765-2.194-1.068-2.194-1.068s-.224-.897-.466-2.687c-.42-3.119.281-5.179.281-5.179 1.658-5.019 3.498-7.53 3.498-7.53 4.968 5.02 10.487 2.01 10.671 1.506 1.473 2.343 4.6 10.209 2.946 13.221-1.657 3.012-6.993 5.521-6.993 5.521s-.94 2.469-2.835 2.636c0 0-1.898.047-2.188-1.58-.19-1.075.816-2.798 1.527-3.854"/>
        <path fill="#FFBE92" d="M205.702 153.226s.946 3.117 8.016 3.195c0 0 2.354 0 3.062-1.029 0 0 2.906 5.227 3.22 10.769 0 0-2.514-5.7-5.42-6.809 0 0-6.281.236-9.58-5.147l.702-.979zM210.893 171.136s-.074-4.418-1.893-4.974c0 0 2.164-.22 1.99 4.574l-.097.4z"/>
        <path fill="#82B0E1" d="M212.278 64.061s-11.597 4.28-8.86 21.935c0 0 5.342 20.865 5.472 25.814.13 4.947 1.67 10.802 9.511 10.565 4.43-.133 6.866-2.654 7.492-8.492.54-5.055-1.107-13.911-1.825-18.256-1.03-6.248-2.486-12.725-2.41-14.847 0 0 1.173-14.044-3.518-18.057 0 0-2.084-.401-5.862 1.338"/>
        <path fill="#82B0E1" d="M210.664 112.88s1.194 14.914-.662 22.6l-.729 9.921s-1.788 4.402-1.126 8.54c0 0 5.169 4.533 10.335.788 0 0 .927-1.182 1.524-2.364.595-1.184 5.366-22.339 6.36-26.804.778-3.496 2.206-5.602 1.39-14.52-.226-2.484-1.202-8.94-9.406-8.54-3.768.472-7.747 2.75-7.686 10.378"/>
        <path fill="#6E8EC8" d="M206.694 68.653c-1.65 2.802-2.378 6.812-2.744 9.965-.365 3.15.58 6.332 1.68 9.485 1.833 6.302 2.896 11.545 4.177 17.85.369 1.576.551 3.152.735 4.903v4.902c0 3.154-.184 6.48-.366 9.634-.369 6.479-.735 12.781-1.284 19.26-.732 2.803-1.283 5.605-1.283 8.406v-.175c.184.35.55.7 1.1 1.052.548.35 1.098.525 1.649.699 1.1.35 2.382.525 3.664.525 1.283 0 2.382-.35 3.3-.875.914-.7 1.646-1.577 2.014-2.803 1.282-4.377 2.381-8.578 3.664-12.957-.915 4.379-1.832 8.756-2.748 13.134-.367 1.225-1.1 2.45-2.2 3.326-1.098.876-2.563 1.227-3.847 1.227-1.282 0-2.748-.175-4.03-.527-1.283-.35-2.566-.874-3.481-2.451v-.175c0-2.977.365-5.954 1.099-8.755v.174c.55-6.304.733-12.782 1.099-19.261.183-3.153.365-6.48.365-9.632 0-1.576.184-3.151 0-4.728 0-1.577-.365-3.151-.731-4.728a310.765 310.765 0 0 0-4.398-18.738c-2.198-6.303-1.1-13.308 2.566-18.737"/>
        <path fill="#6E8EC8" d="M209 146.261c1.13.552 2.073.918 3.203 1.287 1.13.367 2.073.551 3.203.735 1.13.183 2.073.183 3.204.183 1.13 0 2.26-.183 3.39-.183-.941.734-2.071 1.286-3.203 1.654-1.129.367-2.45.367-3.767.184-1.319-.184-2.45-.552-3.58-1.286-.942-.552-1.885-1.471-2.45-2.574M201.631 75.618c-.1 2.002.623 3.734 1.48 4.978l1.645 1.511c.211.71.244 1.756.244 2.466-1.894-1.138-2.948-2.558-3.58-4.122-.209-.852-.42-1.564-.42-2.416 0-.853.211-1.707.631-2.417"/>
        <path fill="#FFBE92" d="M177 41.789s1 2.519 4 1.889l-4-1.89z"/>
        <path fill="#F4FBFE" d="M170.004 34.962c-.081-2.198.97-4.04 2.348-4.115 1.38-.077 2.562 1.642 2.644 3.84.081 2.197-.97 4.04-2.348 4.115-1.378.076-2.562-1.643-2.644-3.84M180.004 37.946c-.081-2.197.97-4.04 2.348-4.114 1.38-.077 2.562 1.642 2.644 3.84.081 2.197-.97 4.04-2.348 4.114-1.38.077-2.562-1.642-2.644-3.84"/>
        <path stroke="#081738" stroke-width=".598" d="M170.004 34.962c-.081-2.198.97-4.04 2.348-4.115 1.38-.077 2.562 1.642 2.644 3.84.081 2.197-.97 4.04-2.348 4.115-1.378.076-2.562-1.643-2.644-3.84zM180.004 37.946c-.081-2.197.97-4.04 2.348-4.114 1.38-.077 2.562 1.642 2.644 3.84.081 2.197-.97 4.04-2.348 4.114-1.38.077-2.562-1.642-2.644-3.84zM175 36.331s2.57-1.848 5 1.478M188 37.809l13-3.98"/>
        <path fill="#82B0E1" d="M76.794 50.073L187.82 99.371a3.646 3.646 0 0 1 2.176 3.485l-4.08 94.632c-.113 2.637-2.936 4.287-5.326 3.112L71.048 146.807a3.641 3.641 0 0 1-2.047-3.37l2.595-90.14c.075-2.6 2.798-4.29 5.198-3.224"/>
        <path fill="#FFF" d="M79.278 54.03l103.688 46.057a3.405 3.405 0 0 1 2.03 3.254l-3.81 88.408c-.105 2.463-2.74 4.004-4.973 2.907L73.914 144.403a3.408 3.408 0 0 1-1.913-3.15l2.422-84.21c.07-2.429 2.613-4.007 4.855-3.012"/>
        <path fill="#82B0E1" d="M48.705 53.842l38.539 17.19c.478.213.777.694.755 1.214l-1.416 32.997c-.04.92-1.02 1.495-1.85 1.085L46.713 87.571a1.272 1.272 0 0 1-.711-1.175l.9-31.43c.026-.907.971-1.496 1.804-1.124"/>
        <path fill="#FFF" d="M49.64 53.84l37.62 16.864c.47.21.76.683.739 1.193l-1.383 32.375a1.25 1.25 0 0 1-1.804 1.064L47.695 86.933A1.25 1.25 0 0 1 47 85.78l.88-30.836a1.249 1.249 0 0 1 1.76-1.104"/>
        <path fill="#82B0E1" d="M271.289 93.633l-36.57 16.117a1.19 1.19 0 0 0-.718 1.14l.188 29.254c.038.862.968 1.4 1.755 1.017l36.082-17.586a1.19 1.19 0 0 0 .674-1.101l.3-27.787c-.023-.85-.921-1.402-1.711-1.054M298.99 102.546l-21.566 9.737a.719.719 0 0 0-.423.688l.11 17.676c.023.52.57.846 1.035.613l21.278-10.623a.724.724 0 0 0 .398-.668l.178-16.786a.717.717 0 0 0-1.01-.637M60 36.352c-.027 5.222-1.84 9.437-4.048 9.417-2.208-.02-3.978-4.267-3.952-9.49.027-5.22 1.84-9.435 4.048-9.415 2.21.02 3.978 4.267 3.952 9.488"/>
        <path fill="#82B0E1" d="M58 35.335c-.02 2.474-1.157 4.472-2.537 4.464-1.38-.008-2.484-2.02-2.463-4.49.02-2.474 1.157-4.473 2.537-4.465 1.38.007 2.484 2.019 2.463 4.491"/>
        <path stroke="#82B0E1" stroke-width=".22" d="M61 37.355c-.043 6.319-2.988 11.424-6.578 11.399-3.59-.022-6.465-5.166-6.422-11.485.044-6.32 2.988-11.424 6.58-11.4 3.588.024 6.463 5.168 6.42 11.486z"/>
        <path fill="#82B0E1" d="M263.984 148.017c-.195 5.22-2.136 9.332-4.337 9.185-2.2-.145-3.826-4.493-3.631-9.711.195-5.218 2.137-9.33 4.337-9.186 2.2.145 3.826 4.494 3.631 9.712"/>
        <path fill="#82B0E1" d="M262.985 144.87c-.15 2.471-1.386 4.43-2.759 4.375-1.372-.056-2.362-2.105-2.21-4.577.149-2.472 1.384-4.43 2.757-4.375 1.372.055 2.362 2.104 2.212 4.576"/>
        <path stroke="#82B0E1" stroke-width=".22" d="M267.974 147.077c-.318 6.318-3.472 11.296-7.048 11.12-3.576-.175-6.218-5.44-5.9-11.758.318-6.318 3.472-11.294 7.048-11.118 3.576.176 6.218 5.438 5.9 11.756z"/>
        <path fill="#E2CCE3" d="M91 139.82c-.017 3.572-1.15 6.456-2.53 6.441-1.38-.011-2.486-2.92-2.47-6.49.018-3.573 1.15-6.457 2.53-6.444 1.38.014 2.487 2.92 2.47 6.492"/>
        <path fill="#82B0E1" d="M91 137.814c-.018 1.924-.925 3.478-2.03 3.472-1.105-.007-1.987-1.57-1.97-3.493.014-1.923.925-3.477 2.03-3.471 1.103.004 1.986 1.568 1.97 3.492"/>
        <path stroke="#FFF" stroke-width=".444" d="M93 138.333c-.028 4.396-1.84 7.946-4.048 7.928-2.209-.016-3.977-3.592-3.952-7.989.028-4.397 1.84-7.946 4.048-7.93 2.21.017 3.98 3.594 3.952 7.99z"/>
        <path fill="#E2CCE3" d="M101 86.09c-.017 3.573-1.15 6.457-2.529 6.443-1.381-.012-2.487-2.92-2.47-6.491.016-3.573 1.15-6.457 2.53-6.444 1.38.015 2.487 2.92 2.469 6.493"/>
        <path fill="#82B0E1" d="M103 85.08c-.018 1.924-.926 3.478-2.03 3.473-1.105-.007-1.987-1.571-1.97-3.494.014-1.922.925-3.477 2.028-3.471 1.105.004 1.988 1.568 1.972 3.492"/>
        <path stroke="#FFF" stroke-width=".444" d="M102 83.609c-.028 4.397-1.84 7.946-4.048 7.929-2.21-.017-3.978-3.593-3.952-7.99.028-4.397 1.84-7.946 4.048-7.93 2.209.018 3.978 3.594 3.952 7.99z"/>
        <path fill="#82B0E1" d="M79 57.709c0 1.098-.448 1.99-1 1.99s-1-.892-1-1.99c0-1.099.448-1.99 1-1.99s1 .891 1 1.99M83 60.693c0 1.099-.448 1.99-1 1.99s-1-.891-1-1.99c0-1.098.448-1.99 1-1.99s1 .892 1 1.99M87 61.688c0 1.099-.448 1.99-1 1.99s-1-.891-1-1.99c0-1.098.448-1.99 1-1.99s1 .892 1 1.99M297.002 106.417c-.024.55.151 1.015.394 1.04.242.024.458-.4.483-.95.024-.548-.15-1.013-.394-1.039-.242-.025-.458.4-.483.949M294.002 107.412c-.024.55.151 1.014.394 1.04.242.023.458-.4.483-.95.024-.55-.15-1.014-.394-1.039-.242-.025-.458.4-.483.949M291.002 107.413c-.024.547.151 1.013.394 1.038.242.024.458-.399.483-.948.024-.55-.15-1.014-.394-1.04-.242-.025-.458.401-.483.95M50 59.698c0 1.099-.448 1.99-1 1.99s-1-.891-1-1.99c0-1.098.448-1.99 1-1.99s1 .892 1 1.99M54 61.688c0 1.099-.448 1.99-1 1.99s-1-.891-1-1.99c0-1.098.448-1.99 1-1.99s1 .892 1 1.99M60 62.683c0 1.099-.448 1.99-1 1.99s-1-.891-1-1.99c0-1.096.448-1.99 1-1.99s1 .894 1 1.99M99.137 91.538L157 117.326l-.41 1.076L99 92.612zM102.137 97.508L160 123.295l-.41 1.077L102 98.58zM248 115.904l9-4.467-.054.395-8.892 4.58zM248 119.883l9-4.466-.054.396-8.892 4.579z"/>
    </g>
</svg>
