<svg xmlns="http://www.w3.org/2000/svg" width="42" height="25" viewBox="0 0 42 25">
    <g fill="#393939" fill-rule="evenodd">
        <path d="M24.049 11.202l-.495-.346c-.72-.66-1.578-1.706-.85-2.857l.254-.233a4.244 4.244 0 0 0 .726-6.56 4.173 4.173 0 0 0-5.868 0 4.244 4.244 0 0 0 0 5.97c.297.304.626.55.975.741l.09.082c.728 1.15-.13 2.197-.85 2.857l-.24.167a6.819 6.819 0 0 0-1.8 1.267 6.884 6.884 0 0 0 0 9.685c2.654 2.7 6.864 2.7 9.518 0a6.884 6.884 0 0 0 0-9.685 6.855 6.855 0 0 0-1.46-1.088M38.222 13.961l-.405-.276c-.59-.528-1.291-1.365-.695-2.286l.208-.186c.21-.133.41-.288.594-.472a3.342 3.342 0 0 0 0-4.776 3.47 3.47 0 0 0-4.802 0 3.342 3.342 0 0 0 0 4.776c.243.243.512.44.798.593l.073.065c.596.92-.106 1.758-.696 2.286l-.196.134a5.581 5.581 0 0 0-1.472 1.013 5.42 5.42 0 0 0 0 7.748 5.49 5.49 0 0 0 7.788 0 5.42 5.42 0 0 0 0-7.748 5.602 5.602 0 0 0-1.195-.87M9.176 13.961l-.404-.276c-.59-.528-1.292-1.365-.696-2.286l.208-.186c.21-.133.41-.288.594-.472a3.342 3.342 0 0 0 0-4.776 3.47 3.47 0 0 0-4.802 0 3.342 3.342 0 0 0 0 4.776c.243.243.513.44.798.593l.073.065c.596.92-.106 1.758-.695 2.286l-.196.134a5.581 5.581 0 0 0-1.473 1.013 5.42 5.42 0 0 0 0 7.748 5.49 5.49 0 0 0 7.788 0 5.42 5.42 0 0 0 0-7.748 5.602 5.602 0 0 0-1.195-.87"/>
    </g>
</svg>
