<?xml version="1.0" encoding="UTF-8"?>
<svg width="36px" height="24px" viewBox="0 0 36 24" version="1.1" xmlns="http://www.w3.org/2000/svg" xmlns:xlink="http://www.w3.org/1999/xlink">
    <!-- Generator: sketchtool 48.1 (47250) - http://www.bohemiancoding.com/sketch -->
    <title>2155D7EB-252F-43E4-B325-4CA41AC0F5BA</title>
    <desc>Created with sketchtool.</desc>
    <defs></defs>
    <g id="Megamenu-About---Desktop-HD" stroke="none" stroke-width="1" fill="none" fill-rule="evenodd" transform="translate(-844.000000, -162.000000)">
        <path d="M878.479384,174.222497 C878.138257,173.886092 877.761324,173.611508 877.363932,173.388308 L876.986213,173.123359 C876.435765,172.617546 875.780658,171.816275 876.337007,170.935519 L876.530982,170.756477 C876.726924,170.629623 876.913816,170.480689 877.085757,170.304859 C878.335772,169.029489 878.335772,167.005838 877.085757,165.730869 C875.835349,164.498854 873.852322,164.498854 872.601914,165.730869 C871.351899,167.005838 871.351899,169.029489 872.601914,170.304859 C872.829332,170.536489 873.080752,170.724764 873.347516,170.872493 L873.415584,170.935519 C873.971933,171.816275 873.316433,172.617546 872.765986,173.123359 L872.583028,173.251819 C872.207276,173.435678 871.848049,173.665301 871.51479,173.944702 L870.698759,174.361395 C869.91145,174.762833 868.337619,174.762833 867.550704,174.361395 L865.354817,173.24098 C865.332783,173.228134 865.311537,173.214084 865.289896,173.201639 L864.7965,172.856001 C864.078047,172.195634 863.22267,171.149887 863.948993,169.999364 L864.202379,169.766129 C864.458127,169.600335 864.702071,169.406038 864.926341,169.177218 C866.558404,167.51165 866.558404,164.870586 864.926341,163.205821 C863.294672,161.59806 860.706114,161.59806 859.074052,163.205821 C857.44199,164.870586 857.44199,167.51165 859.074052,169.177218 C859.370326,169.479502 859.698863,169.725182 860.046679,169.917471 L860.135601,169.999364 C860.861924,171.149887 860.006547,172.195634 859.288093,172.856001 L859.048871,173.023802 C858.777778,173.156277 858.514949,173.311232 858.258808,173.48104 L856.533889,174.361395 C855.746974,174.762833 854.173143,174.762833 853.386228,174.361395 L852.329794,173.822263 C852.120081,173.660483 851.902106,173.514761 851.676261,173.388308 L851.298541,173.123359 C850.748488,172.617546 850.092987,171.816275 850.649336,170.935519 L850.843704,170.756477 C851.039646,170.629623 851.226145,170.480689 851.398086,170.304859 C852.648495,169.029489 852.648495,167.005838 851.398086,165.730869 C850.148071,164.498854 848.165045,164.498854 846.914636,165.730869 C845.664621,167.005838 845.664621,169.029489 846.914636,170.304859 C847.142055,170.536489 847.393474,170.724764 847.659845,170.872493 L847.728307,170.935519 C848.284656,171.816275 847.629155,172.617546 847.078708,173.123359 L846.89575,173.251819 C846.401961,173.493485 845.935713,173.813431 845.520616,174.222497 C843.493128,176.29111 843.493128,179.572468 845.520616,181.641081 C847.548496,183.710095 850.764619,183.710095 852.792107,181.641081 C853.94179,180.468479 854.43794,178.905679 854.284098,177.395066 C854.62798,176.889655 855.154033,176.843489 855.531359,177.258978 C854.88058,179.565644 855.453061,182.136456 857.25431,183.974642 C859.9011,186.675119 864.099293,186.675119 866.746083,183.974642 C868.528446,182.156126 869.105255,179.620641 868.487133,177.333646 C868.842032,176.867575 869.366118,176.853927 869.730853,177.2931 C869.543567,178.835427 870.032635,180.441984 871.208287,181.641081 C873.235774,183.710095 876.452291,183.710095 878.479384,181.641081 C880.506872,179.572468 880.506872,176.29111 878.479384,174.222497" id="Fill-1" fill="#393939"></path>
    </g>
</svg>