<svg xmlns="http://www.w3.org/2000/svg" xmlns:xlink="http://www.w3.org/1999/xlink" width="126" height="29" viewBox="0 0 126 29">
    <defs>
        <path id="a" d="M3.493 1.774C2.303 1.12 1.633.575 1.631.575 2.933 5.15.091 18.265.091 18.265c.466.75.962 1.353 1.473 1.834h1.93V1.774z"/>
        <path id="c" d="M.524 9.095C.93 6.952 1.512 3.537 1.8.323h3.44v8.772H.524z"/>
        <path id="e" d="M.495 1.893L.806.111h.91c.941.416 1.903.168 2.36 0h.242c-.068.244-.239.866-.464 1.782H.495z"/>
        <path id="g" d="M.283 2.11L.594.326h3.401c-.122.481-.27 1.082-.43 1.782H.283z"/>
        <path id="i" d="M.07 2.326L.383.543h3.315a87.03 87.03 0 0 0-.402 1.783H.07z"/>
        <path id="k" d="M11.739 21.175V.749H.199v20.426h11.54z"/>
    </defs>
    <g fill="none" fill-rule="evenodd">
        <path fill="#B080BC" d="M46.71 2.934s-1.546-1.457 2.2-1.56c0 0 5.693.107 8.487 2.376l-.608 4.232-7.71-1.119-2.369-3.929z"/>
        <path stroke="#361E61" stroke-width=".749" d="M46.71 2.934s-1.546-1.457 2.2-1.56c0 0 5.693.107 8.487 2.376l-.608 4.232-7.71-1.119-2.369-3.929z"/>
        <path fill="#B080BC" d="M55.723 4.459c-4.936-2.772-8.637-1.193-8.637-1.193l.747 5.552L53.9 9.85l1.823-5.391z"/>
        <path stroke="#361E61" stroke-width=".749" d="M55.723 4.459c-4.936-2.772-8.637-1.193-8.637-1.193l.747 5.552L53.9 9.85l1.823-5.391z"/>
        <path fill="#B080BC" d="M50.914 5.338c.795.439 4.756.117 8.48-3.032 0 0-.358 1.253-.785 2.253l-1.555 3.803-6.084-.396-.056-2.628z"/>
        <path stroke="#361E61" stroke-width=".749" d="M50.914 5.338c.795.439 4.756.117 8.48-3.032 0 0-.358 1.253-.785 2.253l-1.555 3.803-6.084-.396-.056-2.628z"/>
        <path fill="#B080BC" d="M51.547 5.434c5.487.845 9.42-1.81 9.42-1.81l-.835 2.289-.943 1.784-7.478-.873-.164-1.39z"/>
        <path stroke="#361E61" stroke-width=".749" d="M51.547 5.434c5.487.845 9.42-1.81 9.42-1.81l-.835 2.289-.943 1.784-7.478-.873-.164-1.39z"/>
        <path fill="#D8BCD2" d="M62.259 5.288S57 11.215 54.582 22.948c0 0-5.71 3.599-9.49-2.483 0 0 2.84-13.115 1.539-17.691-.004-.013 6.794 5.55 15.628 2.514"/>
        <g>
            <g transform="translate(45 2.2)">
                <mask id="b" fill="#fff">
                    <use xlink:href="#a"/>
                </mask>
                <path fill="#FFF9FF" d="M.776.116s1.207.99 2.589 1.607c0 0 1.019 2.606-2.676 18.376l-1.66-1.295S1.567 2.452.777.116" mask="url(#b)"/>
            </g>
            <g transform="translate(45 9.2)">
                <mask id="d" fill="#fff">
                    <use xlink:href="#c"/>
                </mask>
                <path fill="#FFF9FF" d="M2.134.515A4.385 4.385 0 1 1-.429 8.902 4.385 4.385 0 0 1 2.134.515" mask="url(#d)"/>
            </g>
        </g>
        <g>
            <path stroke="#361E61" stroke-width=".749" d="M62.259 5.288S57 11.215 54.582 22.948c0 0-5.71 3.599-9.49-2.483 0 0 2.84-13.115 1.539-17.691-.004-.013 6.794 5.55 15.628 2.514z"/>
            <path fill="#804B88" d="M53.282 8.38c-.133.12-.27.238-.407.354-.004.01 1.054.27 1.232.399-.001 0 .332.208.39.505a17.236 17.236 0 0 1-1.468-.35c-.147.116-.297.23-.45.34.612.188 1.24.342 1.88.463.014-.022-.142 1.033-1.978.393l-.147.41c.392.88.849 1.747 1.37 2.596.333.066.67.122 1.009.172a22.281 22.281 0 0 1-1.55-2.613c-.006 0 .736.184 1.48-.2.003.002.468-.28.519-.637.209.03.42.059.633.082.134-.14.265-.28.393-.421-.316-.033-.63-.075-.94-.125 0 0-.033-.386-.188-.512.293.044.589.08.887.108.12-.134.237-.27.35-.407a16.377 16.377 0 0 1-3.015-.557"/>
            <path fill="#B080BC" d="M45.378 19.053c3.44 5.33 8.18 3.099 8.18 3.099 1.104-8.744 5.491-14.728 5.491-14.728s-7.252.778-12.149-2.77l-.289-1.796s7.77 5.634 15.628 2.513c0 0-5.5 5.947-7.677 17.66 0 0-5.822 3.75-9.49-2.483l.306-1.495z"/>
            <path stroke="#361E61" stroke-width=".749" d="M45.378 19.053c3.44 5.33 8.18 3.099 8.18 3.099 1.104-8.744 5.491-14.728 5.491-14.728s-7.252.778-12.149-2.77l-.289-1.796s7.77 5.634 15.628 2.513c0 0-5.5 5.947-7.677 17.66 0 0-5.822 3.75-9.49-2.483l.306-1.495z"/>
        </g>
        <g>
            <g transform="translate(50 14.2)">
                <mask id="f" fill="#fff">
                    <use xlink:href="#e"/>
                </mask>
                <path stroke="#361E61" stroke-width=".281" d="M-1.695.11s3.383 2.664 7.096 1.48" mask="url(#f)"/>
            </g>
            <g transform="translate(50 15.2)">
                <mask id="h" fill="#fff">
                    <use xlink:href="#g"/>
                </mask>
                <path stroke="#361E61" stroke-width=".281" d="M-2.007.327S1.375 2.99 5.088 1.806" mask="url(#h)"/>
            </g>
            <g transform="translate(50 16.2)">
                <mask id="j" fill="#fff">
                    <use xlink:href="#i"/>
                </mask>
                <path stroke="#361E61" stroke-width=".281" d="M-2.32.543s3.382 2.663 7.096 1.48" mask="url(#j)"/>
            </g>
        </g>
        <g>
            <path fill="#361E61" d="M58.099 27.24c0 .53-3.315.96-7.405.96s-7.405-.43-7.405-.96 3.315-.96 7.405-.96 7.405.43 7.405.96M3.967 10.888v4.494h8.205c.18 0 .271.116.271.233v3.268c0 .117-.09.234-.27.234H3.966v8.024c0 .117-.09.233-.27.233H.27c-.15 0-.27-.116-.27-.233V7.357c0-.116.12-.234.27-.234h13.614c.18 0 .3.118.3.234v3.298c0 .116-.12.233-.3.233H3.967zM24.973 15.382h3.066c.87 0 3.125-.117 3.125-2.364s-2.494-2.364-3.125-2.364h-3.066v4.728zm2.254 3.734h-2.254v8.025c0 .117-.12.233-.3.233h-3.427c-.15 0-.27-.116-.27-.233V7.18c0-.115.12-.233.27-.233h6.793c1.202 0 7.122.059 7.122 6.07 0 3.122-1.773 4.757-3.876 5.486 1.322 2.889 2.734 5.69 4.057 8.55.09.175-.03.32-.241.32h-3.756c-.09 0-.241-.087-.271-.145l-3.847-8.113zM85.199 15.556c.18 0 .3.117.3.234V27.2c0 .117-.12.233-.3.233h-3.006c-.15 0-.27-.087-.27-.204l-.12-1.78c-1.533 1.487-3.276 2.246-5.591 2.246-5.68 0-10.128-3.823-10.128-10.534 0-6.07 4.719-10.505 10.549-10.505 2.945 0 5.56 1.11 7.454 2.976.12.088.12.263 0 .351l-2.405 2.334a.369.369 0 0 1-.421 0c-1.171-1.138-2.825-1.897-4.628-1.897-3.606 0-6.522 2.51-6.522 6.74 0 4.728 2.916 6.742 6.522 6.742a6.771 6.771 0 0 0 4.929-2.13V18.97h-5.229c-.181 0-.301-.117-.301-.233V15.79c0-.117.12-.233.301-.233h8.866zM97.76 21.626h4.237l-2.103-6.128-2.134 6.128zm5.53 3.443h-6.822l-.812 2.16c-.03.087-.15.145-.27.145h-3.697c-.241 0-.361-.145-.27-.32L99.623 6.51c.09-.204.45-.204.54 0l8.206 20.543c.09.175-.03.32-.24.32h-3.727c-.09 0-.21-.058-.241-.145l-.871-2.16z"/>
            <g transform="translate(114 6.2)">
                <mask id="l" fill="#fff">
                    <use xlink:href="#k"/>
                </mask>
                <path fill="#361E61" d="M11.438 17.41c.18 0 .301.117.301.234v3.297c0 .117-.12.234-.3.234H.498c-.18 0-.3-.117-.3-.234V.98c0-.115.12-.232.3-.232h3.395c.181 0 .301.117.301.233V17.41h7.243z" mask="url(#l)"/>
            </g>
        </g>
        <path d="M-16-14h158v57H-16z"/>
    </g>
</svg>
