<?xml version="1.0" encoding="UTF-8"?>
<svg width="27px" height="30px" viewBox="0 0 27 30" version="1.1" xmlns="http://www.w3.org/2000/svg" xmlns:xlink="http://www.w3.org/1999/xlink">
    <!-- Generator: sketchtool 48.1 (47250) - http://www.bohemiancoding.com/sketch -->
    <title>D910C7C2-4F51-4EC5-A272-C53E2BADDB4C</title>
    <desc>Created with sketchtool.</desc>
    <defs></defs>
    <g id="Megamenu-About---Desktop-HD" stroke="none" stroke-width="1" fill="none" fill-rule="evenodd" transform="translate(-562.000000, -158.000000)">
        <g id="Group-26" transform="translate(562.000000, 158.000000)" fill="#393939">
            <path d="M17.5203141,0.864084555 C16.3352784,-0.279381211 14.4389412,-0.296642832 13.2711746,0.864084555 C11.7958308,2.33085582 12.2980358,5.40762315 12.6364174,5.74632415 C12.974799,6.08455862 13.512009,6.08455862 13.8503906,5.74632415 C13.8919298,5.70433642 13.9129328,5.65301809 13.9442039,5.60589853 C15.0886339,6.24784422 16.5397076,6.09155657 17.5203141,5.11137641 C18.7053498,3.92685598 18.7053498,2.04860499 17.5203141,0.864084555" id="Fill-1"></path>
            <path d="M10.0486015,17.2016392 L9.55420582,16.8560007 C8.83372181,16.1956344 7.9759276,15.1498871 8.704303,13.9993644 L8.95840579,13.7661286 C9.214876,13.6003345 9.45950913,13.4060383 9.68441377,13.1768169 C11.3210883,11.5116501 11.3210883,8.87058627 9.68441377,7.20582086 C8.04813383,5.59805971 5.45226074,5.59805971 3.81558623,7.20582086 C2.17891172,8.87058627 2.17891172,11.5116501 3.81558623,13.1768169 C4.1126971,13.4795015 4.44216268,13.7251819 4.79096217,13.9174709 L4.88013488,13.9993644 C5.60851028,15.1498871 4.75071607,16.1956344 4.03023207,16.8560007 L3.79033378,17.0234005 C3.14363428,17.3385297 2.53362975,17.7568286 1.99070204,18.2903404 C-0.663567347,20.9904157 -0.663567347,25.2737643 1.99070204,27.9746425 C4.64497143,30.6751192 8.85502857,30.6751192 11.509298,27.9746425 C14.1635673,25.2737643 14.1635673,20.9904157 11.509298,18.2903404 C11.0622507,17.8511667 10.5686441,17.4930835 10.0486015,17.2016392" id="Fill-4"></path>
            <path d="M24.1761285,19.7613114 L23.7716229,19.4848005 C23.182136,18.9565075 22.4803044,18.1199097 23.0762479,17.1994915 L23.2841502,17.0129029 C23.4939895,16.8802676 23.6941438,16.7248306 23.8781567,16.5414535 C25.217254,15.2093201 25.217254,13.096469 23.8781567,11.7646567 C22.5393822,10.4784478 20.4154861,10.4784478 19.0763887,11.7646567 C17.7372914,13.096469 17.7372914,15.2093201 19.0763887,16.5414535 C19.3194794,16.7836012 19.5890422,16.9801455 19.8744236,17.1339768 L19.9473831,17.1994915 C20.5433266,18.1199097 19.841495,18.9565075 19.2520081,19.4848005 L19.0557276,19.6187204 C18.5266099,19.8708238 18.0275152,20.2054629 17.5833017,20.6322723 C15.4116267,22.7923325 15.4116267,26.2190115 17.5833017,28.379714 C19.7549766,30.5400953 23.1995688,30.5400953 25.3712438,28.379714 C27.5429187,26.2190115 27.5429187,22.7923325 25.3712438,20.6322723 C25.0054778,20.2809333 24.6016179,19.9944668 24.1761285,19.7613114" id="Fill-4-Copy"></path>
        </g>
    </g>
</svg>