<svg xmlns="http://www.w3.org/2000/svg" xmlns:xlink="http://www.w3.org/1999/xlink" width="28" height="27" viewBox="0 0 28 27">
    <defs>
        <path id="a" d="M.363.672h4.272v4.273H.363z"/>
    </defs>
    <g fill="none" fill-rule="evenodd">
        <path fill="#393939" d="M15.955 13.535l-.293-.202c-.427-.385-.935-.996-.504-1.667l.15-.136a2.453 2.453 0 0 0 .43-3.827 2.502 2.502 0 0 0-3.477 0 2.452 2.452 0 0 0 0 3.484c.176.176.37.32.578.432l.054.047c.431.67-.077 1.282-.505 1.667l-.142.097a4.063 4.063 0 0 0-1.066.74 3.971 3.971 0 0 0 0 5.65 3.958 3.958 0 0 0 5.64 0 3.971 3.971 0 0 0 0-5.65 4.058 4.058 0 0 0-.865-.635"/>
        <path stroke="#393939" stroke-width="1.219" d="M19.255 20.115c-5.956 5.542-13.137 7.52-16.04 4.419-2.902-3.101-.427-10.108 5.53-15.649 5.957-5.541 13.137-7.52 16.04-4.418 2.903 3.1.426 10.107-5.53 15.648z"/>
        <path stroke="#393939" stroke-width="1.219" d="M18.665 8.427c6.7 4.73 10.042 11.285 7.465 14.638-2.576 3.353-10.096 2.238-16.795-2.493C2.635 15.842-.707 9.29 1.87 5.936 4.446 2.58 11.966 3.697 18.665 8.427z"/>
        <g transform="translate(20)">
            <mask id="b" fill="#fff">
                <use xlink:href="#a"/>
            </mask>
            <path fill="#393939" d="M4.635 2.808a2.136 2.136 0 1 1-4.273.001 2.136 2.136 0 0 1 4.273-.001" mask="url(#b)"/>
        </g>
        <path fill="#393939" d="M4 11a2 2 0 1 1-3.999 0A2 2 0 0 1 4 11"/>
        <path d="M-4-5h35v35H-4z"/>
    </g>
</svg>
