<svg xmlns="http://www.w3.org/2000/svg" xmlns:xlink="http://www.w3.org/1999/xlink" width="19" height="16" viewBox="0 0 19 16">
    <defs>
        <path id="a" d="M0 0h19v16H0z"/>
    </defs>
    <g fill="none" fill-rule="evenodd">
        <g>
            <mask id="b" fill="#fff">
                <use xlink:href="#a"/>
            </mask>
            <path fill="#393939" d="M18.27 2.36a1.345 1.345 0 0 0-.032-.055C16.82-.001 13.85-.693 11.603.76c-1.097.702-1.733 2.054-2.152 3.12 0 0-.8 4.054-1.54 4.585-.627.387-3.265-.07-3.265-.07-1.207-.09-2.228-.032-3.123.648-1.67 1.268-2.02 3.683-.785 5.394a1.7 1.7 0 0 0 .019.026c1.249 1.701 3.606 2.042 5.265.761.898-.69 1.25-2.033 1.5-2.907 0 0 .318-2.503.816-3.143.759-.469 4.708.59 4.708.59 1.1.157 2.589.098 3.688-.606 2.255-1.442 2.943-4.486 1.536-6.799" mask="url(#b)"/>
        </g>
        <path d="M-8-10h35v35H-8z"/>
    </g>
</svg>
