<svg xmlns="http://www.w3.org/2000/svg" xmlns:xlink="http://www.w3.org/1999/xlink" width="19" height="19" viewBox="0 0 19 19">
    <defs>
        <path id="a" d="M0 0h19v19H0z"/>
    </defs>
    <g fill="none" fill-rule="evenodd">
        <g>
            <mask id="b" fill="#fff">
                <use xlink:href="#a"/>
            </mask>
            <path fill="#393939" d="M18.09 13.71a3.05 3.05 0 0 0-2.176-.894l-1.224.005a2.177 2.177 0 0 1-1.503-.691 2.359 2.359 0 0 1-.659-1.507l-.004-1.026V9.35l-.005-1.027a2.251 2.251 0 0 1 2.143-2.165l.857-.004a3.048 3.048 0 0 0 2.462-.89 3.095 3.095 0 0 0-.006-4.357l-.028-.028a3.046 3.046 0 0 0-4.328.047 3.093 3.093 0 0 0-.815 2.488l.003.873a2.185 2.185 0 0 1-.646 1.512 2.35 2.35 0 0 1-1.507.653l-1.122.005c-.01 0-.021.003-.032.004l-.032-.004-1.122-.005A2.349 2.349 0 0 1 6.839 5.8a2.183 2.183 0 0 1-.646-1.512l.003-.873c.11-.91-.19-1.822-.815-2.488A3.046 3.046 0 0 0 1.053.879l-.028.028a3.094 3.094 0 0 0-.006 4.356c.647.653 1.55.98 2.463.891l.856.004a2.252 2.252 0 0 1 2.143 2.165L6.477 9.35l-.001.247-.004 1.026a2.357 2.357 0 0 1-.66 1.507c-.391.42-.93.668-1.502.691l-1.224-.005a3.05 3.05 0 0 0-2.177.894 3.095 3.095 0 0 0-.018 4.364 3.046 3.046 0 0 0 4.355.019 3.092 3.092 0 0 0 .888-2.399l.014-.934c.03-.564.264-1.097.66-1.496a2.32 2.32 0 0 1 1.501-.651l.837.003c.12.007.237.005.354-.003.117.008.234.01.354.003l.836-.003a2.32 2.32 0 0 1 1.503.65c.395.4.63.933.66 1.497l.013.934c-.064.892.26 1.767.888 2.399l.028.028a3.046 3.046 0 0 0 4.327-.047l.008-.007a3.094 3.094 0 0 0-.026-4.357" mask="url(#b)"/>
        </g>
        <path d="M-8-8h35v35H-8z"/>
    </g>
</svg>
