<?xml version="1.0" encoding="UTF-8"?>
<svg width="119px" height="30px" viewBox="0 0 119 30" version="1.1" xmlns="http://www.w3.org/2000/svg" xmlns:xlink="http://www.w3.org/1999/xlink">
    <!-- Generator: Sketch 49 (51002) - http://www.bohemiancoding.com/sketch -->
    <title>Group 43</title>
    <desc>Created with Sketch.</desc>
    <defs></defs>
    <g id="Megamenu-About---Mobile" stroke="none" stroke-width="1" fill="none" fill-rule="evenodd">
        <g id="Group-43" fill-rule="nonzero">
            <g id="Group-42">
                <path d="M4.43416608,17.4879492 C4.14833327,17.7760381 3.68490673,17.7760381 3.39907392,17.4879492 C3.11324111,17.1998603 3.11324111,16.7327758 3.39907392,16.4446869 C3.68490673,16.156598 4.14833327,16.156598 4.43416608,16.4446869 C4.71999889,16.7327758 4.71999889,17.1998603 4.43416608,17.4879492 Z" id="Oval" fill="#523D93"></path>
                <path d="M8.00240964,8.68852459 C8.29518072,8.98360656 8.75060241,8.98360656 9.04337349,8.68852459 L10.1981928,7.52459016 C10.4909639,7.2295082 10.9463855,7.2295082 11.2391566,7.52459016 C11.5319277,7.81967213 11.5319277,8.27868852 11.2391566,8.57377049 L5.4813253,14.3770492 C5.18855422,14.6721311 5.18855422,15.1311475 5.4813253,15.4262295 C5.77409639,15.7213115 6.22951807,15.7213115 6.52228916,15.4262295 L11.1253012,10.7868852 C11.4180723,10.4918033 11.873494,10.4918033 12.1662651,10.7868852 C12.4590361,11.0819672 12.4590361,11.5409836 12.1662651,11.8360656 L9.62891566,14.3934426 C9.33614458,14.6885246 9.33614458,15.147541 9.62891566,15.442623 C9.92168675,15.7377049 10.3771084,15.7377049 10.6698795,15.442623 L12.1012048,14 C12.3614458,13.7377049 12.7680723,13.7377049 13.0283133,14 L18.4283133,8.55737705 L15.5493976,0.0983606557 L8.0186747,7.68852459 C7.70963855,7.93442623 7.70963855,8.39344262 8.00240964,8.68852459 Z" id="Shape" fill="#523D93"></path>
                <path d="M19.9084337,7 L13.0120482,13.9508197 C13.3373494,14.2786885 13.3373494,14.7868852 13.0120482,15.1147541 L9.97048193,18.1803279 C9.67771084,18.4754098 9.67771084,18.9344262 9.97048193,19.2295082 C10.263253,19.5245902 10.7186747,19.5245902 11.0114458,19.2295082 L16.4114458,13.7868852 C16.7042169,13.4918033 17.1596386,13.4918033 17.4524096,13.7868852 C17.7451807,14.0819672 17.7451807,14.5409836 17.4524096,14.8360656 L14.1180723,18.1967213 C13.8253012,18.4918033 13.8253012,18.9508197 14.1180723,19.2459016 C14.4108434,19.5409836 14.8662651,19.5409836 15.1590361,19.2459016 L17.3385542,17.0491803 C17.6313253,16.7540984 18.086747,16.7540984 18.3795181,17.0491803 C18.6722892,17.3442623 18.6722892,17.8032787 18.3795181,18.0983607 L15.386747,21.1147541 C15.0939759,21.4098361 15.0939759,21.8688525 15.386747,22.1639344 C15.6795181,22.4590164 16.1349398,22.4590164 16.4277108,22.1639344 L26.9512048,11.557377 L19.9084337,7 Z" id="Shape" fill="#41A1FA"></path>
                <polygon id="Shape" fill="#41A1FA" points="15.5331325 0.0491803279 23.9421687 2.93442623 26.9186747 11.5245902 18.4120482 8.50819672"></polygon>
                <path d="M6.95935735,10.7726459 C6.67352454,11.0607348 6.21009799,11.0607348 5.92426518,10.7726459 C5.63843237,10.484557 5.63843237,10.0174725 5.92426518,9.72938361 C6.21009799,9.44129468 6.67352454,9.44129468 6.95935735,9.72938361 C7.24519016,10.0174725 7.24519016,10.484557 6.95935735,10.7726459 Z" id="Oval" fill="#523D93"></path>
                <path d="M4.88915675,12.8526852 C4.60332394,13.1407742 4.13989739,13.1407742 3.85406458,12.8526852 C3.56823177,12.5645963 3.56823177,12.0975119 3.85406458,11.809423 C4.13989739,11.521334 4.60332394,11.521334 4.88915675,11.809423 C5.17498956,12.0975119 5.17498956,12.5645963 4.88915675,12.8526852 Z" id="Oval" fill="#523D93"></path>
                <path d="M5.46280753,20.6261098 C5.17697472,20.9141988 4.71354817,20.9141988 4.42771536,20.6261098 C4.14188255,20.3380209 4.14188255,19.8709365 4.42771536,19.5828475 C4.71354817,19.2947586 5.17697472,19.2947586 5.46280753,19.5828475 C5.74864034,19.8709365 5.74864034,20.3380209 5.46280753,20.6261098 Z" id="Oval" fill="#523D93"></path>
                <path d="M3.39260693,22.7061492 C3.10677412,22.9942381 2.64334757,22.9942381 2.35751476,22.7061492 C2.07168195,22.4180603 2.07168195,21.9509758 2.35751476,21.6628869 C2.64334757,21.374798 3.10677412,21.374798 3.39260693,21.6628869 C3.67843974,21.9509758 3.67843974,22.4180603 3.39260693,22.7061492 Z" id="Oval" fill="#523D93"></path>
                <path d="M1.33390735,24.7977803 C1.04807454,25.0858693 0.58464799,25.0858693 0.298815181,24.7977803 C0.012982371,24.5096914 0.012982371,24.042607 0.298815181,23.754518 C0.58464799,23.4664291 1.04807454,23.4664291 1.33390735,23.754518 C1.61974016,24.042607 1.61974016,24.5096914 1.33390735,24.7977803 Z" id="Oval" fill="#523D93"></path>
                <path d="M14.3223436,24.2111656 C14.0365107,24.4992545 13.5730842,24.4992545 13.2872514,24.2111656 C13.0014186,23.9230766 13.0014186,23.4559922 13.2872514,23.1679033 C13.5730842,22.8798144 14.0365107,22.8798144 14.3223436,23.1679033 C14.6081764,23.4559922 14.6081764,23.9230766 14.3223436,24.2111656 Z" id="Oval" fill="#41A1FA"></path>
                <path d="M12.2636277,26.3027967 C11.9777949,26.5908856 11.5143684,26.5908856 11.2285355,26.3027967 C10.9427027,26.0147078 10.9427027,25.5476234 11.2285355,25.2595344 C11.5143684,24.9714455 11.9777949,24.9714455 12.2636277,25.2595344 C12.5494605,25.5476234 12.5494605,26.0147078 12.2636277,26.3027967 Z" id="Oval" fill="#41A1FA"></path>
                <path d="M10.1819261,28.3944279 C9.89609327,28.6825168 9.43266673,28.6825168 9.14683392,28.3944279 C8.86100111,28.1063389 8.86100111,27.6392545 9.14683392,27.3511656 C9.43266673,27.0630766 9.89609327,27.0630766 10.1819261,27.3511656 C10.4677589,27.6392545 10.4677589,28.1063389 10.1819261,28.3944279 Z" id="Oval" fill="#41A1FA"></path>
                <path d="M13.0636654,21.3247262 C12.7778326,21.6128152 12.314406,21.6128152 12.0285732,21.3247262 C11.7427404,21.0366373 11.7427404,20.5695529 12.0285732,20.2814639 C12.314406,19.993375 12.7778326,19.993375 13.0636654,20.2814639 C13.3494982,20.5695529 13.3494982,21.0366373 13.0636654,21.3247262 Z" id="Oval" fill="#41A1FA"></path>
                <path d="M4.78284669,29.6680836 C4.49701388,29.9561725 4.03358733,29.9561725 3.74775452,29.6680836 C3.46192171,29.3799947 3.46192171,28.9129102 3.74775452,28.6248213 C4.03358733,28.3367324 4.49701388,28.3367324 4.78284669,28.6248213 C5.0686795,28.9129102 5.0686795,29.3799947 4.78284669,29.6680836 Z" id="Oval" fill="#41A1FA"></path>
                <polygon id="Shape" fill="#523D93" points="18.1843373 8.50819672 17.9566265 7.81967213 26.6746988 10.8032787 26.9186747 11.5245902 26.3656627 12.0819672 17.5987952 9.08196721"></polygon>
                <path d="M2.83012048,13.9016393 C2.56987952,13.6393443 2.14698795,13.6229508 1.85421687,13.852459 L0.69939759,15.0163934 C0.471686747,15.3114754 0.487951807,15.7213115 0.748192771,16 C1.00843373,16.2786885 1.4313253,16.2786885 1.72409639,16.0491803 L2.87891566,14.8852459 C3.10662651,14.5901639 3.09036145,14.1639344 2.83012048,13.9016393 Z" id="Shape" fill="#523D93"></path>
                <path d="M8.57168675,16.442623 C8.31144578,16.1803279 7.88855422,16.1639344 7.59578313,16.3934426 L6.44096386,17.557377 C6.21325301,17.852459 6.22951807,18.2622951 6.48975904,18.5409836 C6.75,18.8032787 7.17289157,18.8196721 7.46566265,18.5901639 L8.62048193,17.4262295 C8.86445783,17.1311475 8.84819277,16.7213115 8.57168675,16.442623 Z" id="Shape" fill="#523D93"></path>
                <path d="M8.91325301,20.2786885 C8.65301205,20.0163934 8.23012048,20 7.9373494,20.2295082 L6.78253012,21.3934426 C6.55481928,21.6885246 6.57108434,22.0983607 6.8313253,22.3770492 C7.09156627,22.6557377 7.51445783,22.6557377 7.80722892,22.4262295 L8.96204819,21.2622951 C9.2060241,20.9672131 9.18975904,20.5409836 8.91325301,20.2786885 Z" id="Shape" fill="#41A1FA"></path>
                <path d="M5.82289157,23.4098361 C5.5626506,23.147541 5.13975904,23.1311475 4.84698795,23.3606557 L3.69216867,24.5245902 C3.46445783,24.8196721 3.48072289,25.2295082 3.74096386,25.5081967 C4.00120482,25.7704918 4.42409639,25.7868852 4.71686747,25.557377 L5.87168675,24.3934426 C6.09939759,24.0983607 6.08313253,23.6721311 5.82289157,23.4098361 Z" id="Shape" fill="#41A1FA"></path>
                <path d="M2.71626506,26.5409836 C2.4560241,26.2786885 2.03313253,26.2622951 1.74036145,26.4918033 L0.585542169,27.6557377 C0.357831325,27.9508197 0.374096386,28.3606557 0.634337349,28.6393443 C0.894578313,28.9016393 1.31746988,28.9180328 1.61024096,28.6885246 L2.76506024,27.5245902 C2.99277108,27.2295082 2.97650602,26.8032787 2.71626506,26.5409836 Z" id="Shape" fill="#41A1FA"></path>
                <path d="M10.9951807,22.3606557 C10.7349398,22.0983607 10.3120482,22.0819672 10.0192771,22.3114754 L8.86445783,23.4754098 C8.63674699,23.7704918 8.65301205,24.1803279 8.91325301,24.4590164 C9.17349398,24.7213115 9.59638554,24.7377049 9.88915663,24.5081967 L11.0439759,23.3442623 C11.2716867,23.0491803 11.2554217,22.6229508 10.9951807,22.3606557 Z" id="Shape" fill="#41A1FA"></path>
                <path d="M7.88855422,25.4918033 C7.62831325,25.2295082 7.20542169,25.2131148 6.9126506,25.442623 L5.75783133,26.6065574 C5.53012048,26.9016393 5.54638554,27.3114754 5.80662651,27.5901639 C6.06686747,27.852459 6.48975904,27.8688525 6.78253012,27.6393443 L7.9373494,26.4754098 C8.16506024,26.1803279 8.14879518,25.7540984 7.88855422,25.4918033 Z" id="Shape" fill="#41A1FA"></path>
            </g>
            <g id="Group" transform="translate(37.000000, 9.000000)" fill="#523D93">
                <path d="M0.0829959514,1.56521739 C0.0829959514,0.869565217 0.61417004,0.295652174 1.29473684,0.295652174 L4.71417004,0.295652174 C7.32024291,0.295652174 8.89716599,1.91304348 8.89716599,4.24347826 L8.89716599,4.27826087 C8.89716599,6.92173913 6.93846154,8.29565217 4.48178138,8.29565217 L2.57287449,8.29565217 L2.57287449,10.5217391 C2.57287449,11.1304348 2.17449393,11.6869565 1.59352227,11.7913043 C0.780161943,11.9478261 0.0829959514,11.3565217 0.0829959514,10.5565217 L0.0829959514,1.56521739 Z M4.48178138,6.20869565 C5.69352227,6.20869565 6.39068826,5.42608696 6.39068826,4.4 L6.39068826,4.36521739 C6.39068826,3.1826087 5.6437247,2.55652174 4.43198381,2.55652174 L2.57287449,2.55652174 L2.57287449,6.20869565 L4.48178138,6.20869565 Z" id="Shape"></path>
                <path d="M13.5615385,10.173913 L17.3793522,1.13043478 C17.6449393,0.504347826 18.1263158,0.12173913 18.7902834,0.12173913 L18.9230769,0.12173913 C19.5870445,0.12173913 20.0518219,0.504347826 20.3174089,1.13043478 L24.1352227,10.173913 C24.3510121,10.6608696 24.334413,11.026087 23.8032389,11.5826087 C23.6206478,11.773913 23.3716599,11.9130435 23.1060729,11.9130435 C22.5417004,11.9130435 22.1765182,11.5652174 21.9441296,11.0434783 L21.2469636,9.2173913 L16.4165992,9.2173913 L15.6530364,11.1130435 C15.4538462,11.6 15.0388664,11.8956522 14.5408907,11.8956522 C13.9101215,11.8956522 13.4287449,11.373913 13.4287449,10.7130435 C13.4287449,10.5391304 13.4785425,10.3478261 13.5615385,10.173913 Z M20.3506073,7.11304348 L18.840081,3.32173913 L17.3295547,7.11304348 L20.3506073,7.11304348 Z" id="Shape"></path>
                <path d="M28.965587,1.46086957 C28.965587,0.626086957 29.7291498,-0.0173913043 30.6089069,0.243478261 C31.1234818,0.4 31.4554656,0.886956522 31.4554656,1.44347826 L31.4554656,5.35652174 L36.0534413,0.695652174 C36.3688259,0.382608696 36.6676113,0.191304348 37.0991903,0.191304348 C37.7963563,0.191304348 38.2445344,0.730434783 38.2445344,1.35652174 C38.2445344,1.75652174 38.0619433,2.05217391 37.7963563,2.31304348 L34.6093117,5.35652174 L38.0785425,9.82608696 C38.2777328,10.0695652 38.4105263,10.3304348 38.4105263,10.7130435 C38.4105263,11.426087 37.8793522,11.9478261 37.1489879,11.9478261 C36.6676113,11.9478261 36.3688259,11.7043478 36.1032389,11.3391304 L32.8663968,7.00869565 L31.4388664,8.36521739 L31.4388664,10.6956522 C31.4388664,11.2347826 31.0902834,11.7391304 30.5923077,11.8956522 C29.7291498,12.1565217 28.9489879,11.5130435 28.9489879,10.6782609 L28.9489879,1.46086957 L28.965587,1.46086957 Z" id="Shape"></path>
                <path d="M43.0748988,10.6956522 L43.0748988,1.51304348 C43.0748988,0.852173913 43.5894737,0.313043478 44.2202429,0.313043478 L50.6773279,0.313043478 C51.1089069,0.313043478 51.5072874,0.573913043 51.6732794,0.991304348 C51.988664,1.82608696 51.4076923,2.57391304 50.6441296,2.57391304 L45.5647773,2.57391304 L45.5647773,5.00869565 L49.7311741,5.00869565 C50.245749,5.00869565 50.7271255,5.37391304 50.8267206,5.91304348 C50.9761134,6.64347826 50.4283401,7.26956522 49.7643725,7.26956522 L45.5647773,7.26956522 L45.5647773,9.70434783 L50.7271255,9.70434783 C51.2417004,9.70434783 51.7064777,10.0695652 51.8226721,10.5913043 C51.9720648,11.3391304 51.4242915,11.9652174 50.7271255,11.9652174 L44.2866397,11.9652174 C43.6060729,11.9478261 43.0748988,11.3913043 43.0748988,10.6956522 Z" id="Shape"></path>
                <path d="M59.840081,2.55652174 L57.4331984,2.55652174 C56.9186235,2.55652174 56.4538462,2.20869565 56.3376518,1.68695652 C56.1716599,0.956521739 56.7360324,0.295652174 57.4497976,0.295652174 L64.7368421,0.295652174 C65.251417,0.295652174 65.7161943,0.643478261 65.8323887,1.16521739 C65.9983806,1.89565217 65.4340081,2.55652174 64.7202429,2.55652174 L62.3299595,2.55652174 L62.3299595,10.573913 C62.3299595,11.1826087 61.9315789,11.7391304 61.3506073,11.8608696 C60.537247,12.0173913 59.840081,11.426087 59.840081,10.6608696 L59.840081,2.55652174 Z" id="Shape"></path>
                <path d="M70.4635628,6.06956522 L70.4635628,6.03478261 C70.4635628,2.8173913 72.8870445,0.191304348 76.2068826,0.191304348 C79.5267206,0.191304348 81.917004,2.7826087 81.917004,6 L81.917004,6.03478261 C81.917004,9.25217391 79.4935223,11.8782609 76.1736842,11.8782609 C72.8538462,11.8782609 70.4635628,9.26956522 70.4635628,6.06956522 Z M79.2611336,6.06956522 L79.2611336,6.03478261 C79.2611336,4.10434783 77.9165992,2.50434783 76.0076923,2.50434783 C74.0987854,2.50434783 72.7874494,4.08695652 72.7874494,6 L72.7874494,6.03478261 C72.7874494,7.96521739 74.1319838,9.56521739 76.0408907,9.56521739 C77.9497976,9.56521739 79.2611336,8 79.2611336,6.06956522 Z" id="Shape"></path>
            </g>
        </g>
    </g>
</svg>