<?xml version="1.0" encoding="UTF-8"?>
<svg width="30px" height="34px" viewBox="0 0 30 34" version="1.1" xmlns="http://www.w3.org/2000/svg" xmlns:xlink="http://www.w3.org/1999/xlink">
    <!-- Generator: sketchtool 48.1 (47250) - http://www.bohemiancoding.com/sketch -->
    <title>10CB0329-801B-446D-85C0-1EB46A6C8082</title>
    <desc>Created with sketchtool.</desc>
    <defs></defs>
    <g id="Megamenu-About---Desktop-HD" stroke="none" stroke-width="1" fill="none" fill-rule="evenodd" transform="translate(-1131.000000, -156.000000)">
        <path d="M1150.37316,173.155639 C1148.98722,174.541583 1146.78874,174.541583 1145.40279,173.155639 C1144.01685,171.770113 1144.01685,169.571217 1145.40279,168.185273 C1145.68616,167.911924 1146.005,167.697001 1146.34261,167.535078 L1146.46781,167.449108 C1146.84382,167.110239 1147.29203,166.573556 1146.91185,165.983038 L1146.86511,165.941306 C1146.68274,165.842399 1146.5108,165.716366 1146.35555,165.561121 C1145.50087,164.706435 1145.50087,163.350956 1146.35555,162.49627 C1147.21024,161.670797 1148.56572,161.670797 1149.4204,162.49627 C1150.27509,163.350956 1150.27509,164.706435 1149.4204,165.561121 C1149.30272,165.678389 1149.17501,165.778131 1149.04147,165.863265 L1148.90834,165.983038 C1148.52816,166.573556 1148.97595,167.110239 1149.35238,167.449108 L1149.61029,167.626472 C1149.88197,167.775876 1150.13987,167.960334 1150.37316,168.185273 C1151.7591,169.571217 1151.7591,171.770113 1150.37316,173.155639 M1156.70109,159.516972 C1151.84465,154.827885 1144.23595,154.827467 1139.37868,159.516972 L1139.36157,159.533665 C1134.93832,163.957332 1134.53726,170.659189 1138.15633,175.496844 L1138.57324,176.298947 C1138.72806,176.596919 1138.83448,176.922434 1138.8445,177.258382 C1138.8566,177.685308 1138.75728,178.111816 1138.5386,178.485741 C1137.81287,179.72562 1136.75828,180.563613 1135.83014,181.131595 C1135.44328,181.369054 1134.99507,181.526386 1134.55229,181.627797 L1134.48134,181.641151 C1133.64794,181.756334 1132.8425,182.123164 1132.19314,182.74999 C1130.60229,184.341258 1130.60229,186.865252 1132.19314,188.456103 C1133.78441,190.047371 1136.30798,190.047371 1137.89883,188.456103 C1138.75227,187.602669 1139.1433,186.481729 1139.08154,185.379568 L1139.08613,185.383324 L1139.07653,185.271897 C1139.07361,185.241015 1139.07152,185.21055 1139.06819,185.179668 L1139.06234,185.1154 C1139.05441,184.632135 1138.9939,184.277824 1139.08696,183.810418 C1139.29938,182.744564 1139.77764,181.437913 1140.73875,180.315721 C1140.92696,180.096206 1141.15023,179.913417 1141.39687,179.774447 C1141.91143,179.483988 1142.52866,179.437247 1143.10249,179.579138 L1143.79358,179.749825 C1145.13904,180.251452 1146.57131,180.51562 1148.03988,180.51562 C1151.29796,180.51562 1154.37992,179.227749 1156.71778,176.889465 C1161.58382,172.023431 1161.58423,164.400117 1156.70109,159.516972" id="Fill-1" fill="#393939"></path>
    </g>
</svg>