<svg xmlns="http://www.w3.org/2000/svg" xmlns:xlink="http://www.w3.org/1999/xlink" width="98" height="26" viewBox="0 0 98 26">
    <defs>
        <path id="a" d="M.098.13h82.877V25.52H.098z"/>
    </defs>
    <g fill="none" fill-rule="evenodd">
        <path d="M-30-15h158v59H-30z"/>
        <path d="M-7-4h112v36.861H-7z"/>
        <g transform="translate(14.937 .253)">
            <mask id="b" fill="#fff">
                <use xlink:href="#a"/>
            </mask>
            <path fill="#38454E" d="M80.866 16.148V7.842c0-.177-.096-.265-.289-.265h-4.043c-1.598 0-2.397.857-2.397 2.571v6.149c0 1.713.799 2.57 2.397 2.57h1.646c.867 0 1.531-.235 1.993-.708.462-.474.693-1.143.693-2.01v-.001zm-3.06 4.61h-1.503c-1.33 0-2.373-.383-3.134-1.152-.76-.769-1.14-1.842-1.14-3.221v-6.326c0-1.379.38-2.454 1.141-3.222.76-.769 1.805-1.153 3.133-1.153h6.267c.27 0 .405.138.405.414v14.247c0 .276-.136.414-.405.414h-1.3c-.27 0-.404-.138-.404-.414v-1.153h-.115c-.481 1.045-1.463 1.567-2.946 1.567zm-26.732 0h-1.311c-.272 0-.408-.137-.408-.413V6.098c0-.276.136-.414.408-.414h1.311c.271 0 .408.138.408.414V7.25h.117c.543-1.045 1.573-1.567 3.088-1.567h1.078c1.71 0 2.894.67 3.555 2.01.31-.65.801-1.147 1.47-1.492a4.56 4.56 0 0 1 2.114-.518h1.02c1.321 0 2.35.384 3.089 1.153.738.768 1.107 1.843 1.107 3.221v10.287c0 .276-.136.414-.408.414h-1.311c-.272 0-.408-.138-.408-.414V10.147c0-1.713-.816-2.57-2.448-2.57h-.961c-.874 0-1.549.25-2.025.753-.476.502-.714 1.187-.714 2.054v9.96c0 .277-.136.415-.408.415h-1.311c-.272 0-.408-.138-.408-.414V10.147c0-1.713-.816-2.57-2.447-2.57h-1.079c-.874 0-1.544.235-2.01.708-.466.474-.699 1.143-.699 2.01v10.05c0 .276-.137.414-.408.414h-.001zm-7.737-5.217V7.885c0-.181-.096-.271-.289-.271h-4.014c-1.617 0-2.426.873-2.426 2.622v5.456c0 1.749.809 2.622 2.426 2.622h1.617c.866 0 1.53-.24 1.993-.723.462-.482.693-1.165.693-2.05zm-3.061 4.702h-1.618c-1.31 0-2.33-.391-3.06-1.174-.734-.786-1.099-1.88-1.099-3.287v-5.637c0-1.407.38-2.502 1.142-3.286.76-.783 1.804-1.175 3.132-1.175h6.268c.27 0 .404.14.404.423v14.95c0 1.388-.38 2.477-1.142 3.271-.76.794-1.804 1.191-3.133 1.191h-5.314c-.29 0-.433-.14-.433-.422V23.98c0-.281.144-.42.433-.42h5.055c1.617 0 2.426-.866 2.426-2.594v-2.321h-.115c-.5 1.065-1.483 1.598-2.946 1.598v-.001zm-10.468.104V6.184c0-.273.14-.41.418-.41h1.477c.3 0 .45.137.45.41v14.164c0 .275-.15.411-.449.411h-1.446c-.3 0-.45-.136-.45-.411v-.001zm0-17.043V.542c0-.274.14-.411.418-.411h1.477c.3 0 .45.137.45.411v2.762c0 .275-.15.412-.449.412h-1.477c-.28 0-.419-.137-.419-.412zM16.658 20.76h-1.3c-.27 0-.405-.138-.405-.414V6.098c0-.276.134-.414.404-.414h1.3c.27 0 .405.138.405.414V7.25h.115c.481-1.045 1.463-1.567 2.946-1.567h1.617c1.31 0 2.33.384 3.061 1.153.732.768 1.098 1.843 1.098 3.221v10.287c0 .276-.135.414-.404.414h-1.3c-.27 0-.405-.138-.405-.414V10.147c0-1.713-.808-2.57-2.425-2.57h-1.618c-.866 0-1.53.235-1.993.708-.461.474-.692 1.143-.692 2.01v10.05c0 .276-.136.414-.405.414zM2.466 12.69h6.238c.192 0 .29-.1.29-.296v-2.276c0-1.695-.81-2.542-2.427-2.542H4.604c-1.617 0-2.426.847-2.426 2.542v2.276c0 .197.096.295.29.295l-.001.001zm8.028 8.069H4.372c-1.328 0-2.373-.384-3.134-1.153-.76-.768-1.14-1.842-1.14-3.221v-6.326c0-1.379.38-2.454 1.141-3.222.76-.769 1.804-1.153 3.132-1.153h2.426c1.33 0 2.37.384 3.12 1.153.75.768 1.126 1.843 1.126 3.221v3.755c0 .296-.135.443-.404.443H2.466c-.193 0-.29.089-.29.266v1.803c0 1.714.81 2.572 2.427 2.572h5.892c.27 0 .404.138.404.414v1.063c0 .257-.135.385-.404.385z" mask="url(#b)"/>
        </g>
        <path fill="#F38082" d="M7.872 6.114H2.5v-.007a.583.583 0 0 0-.59-.574H.68a.583.583 0 0 0-.591.574v1.197c0 .317.264.575.59.575H1.91c.326 0 .59-.257.59-.575v-.007h5.373a.6.6 0 0 1 .608.592v5.847a.6.6 0 0 1-.609.592h-2.96v-.007a.583.583 0 0 0-.59-.574h-1.23a.583.583 0 0 0-.592.574v1.197c0 .317.264.575.591.575h1.23a.583.583 0 0 0 .592-.575v-.007H7.87c1.007 0 1.825-.796 1.825-1.775V7.89c0-.979-.818-1.775-1.825-1.775h.001z"/>
        <path fill="#F38082" d="M9.105 19.902h-1.23a.584.584 0 0 0-.59.576v.006H1.912a.601.601 0 0 1-.607-.592v-7.598c0-.327.272-.593.608-.593h2.96v.007c0 .318.264.575.59.575h1.23a.583.583 0 0 0 .592-.575v-1.2a.583.583 0 0 0-.591-.575h-1.23a.583.583 0 0 0-.592.576v.007H1.914c-1.007 0-1.825.797-1.825 1.778v7.598c0 .98.818 1.778 1.824 1.778h5.372v.006c0 .318.264.576.59.576h1.23a.584.584 0 0 0 .591-.576v-1.198a.583.583 0 0 0-.59-.576z"/>
    </g>
</svg>
