<svg xmlns="http://www.w3.org/2000/svg" xmlns:xlink="http://www.w3.org/1999/xlink" width="268" height="340" viewBox="0 0 268 340">
    <defs>
        <path id="a" d="M55.765.329v55.6H.117V.328h55.648z"/>
        <path id="c" d="M40.813 24.024a27.48 27.48 0 0 1-19.632 8.215c-8.486 0-16.075-3.833-21.13-9.861V.17h40.762v23.854z"/>
        <path id="e" d="M12.584 23.312a27.468 27.468 0 0 1-12.21 2.423V.385h12.21v22.927z"/>
        <path id="g" d="M8.452 28.75a27.398 27.398 0 0 1-8.055-3.28V.266h8.055V28.75z"/>
        <path id="i" d="M.378 3.313a27.864 27.864 0 0 0 3.325.181V.168H.378v3.145z"/>
        <path id="k" d="M.38 3.03a27.799 27.799 0 0 0 3.836-.274V.384H.38v2.647z"/>
        <path id="m" d="M0 60.61V.35h59.974V60.61z"/>
        <path id="o" d="M.07 7.902a29.93 29.93 0 0 0 7.08-4.028V.063H.07v7.84z"/>
        <path id="q" d="M.317 30.665a29.783 29.783 0 0 0 15.23 4.162 29.79 29.79 0 0 0 17.082-5.354V.142H.317v30.523z"/>
        <path id="s" d="M14.987 30.45A29.902 29.902 0 0 1 .236 22.571V.301h14.751V30.45z"/>
        <path id="u" d="M4.732 15.15a29.705 29.705 0 0 1-4.488-1.56V.14h4.488v15.01z"/>
        <path id="w" d="M.332 7.132a29.865 29.865 0 0 0 3.709-1.917V.445H.332v6.687z"/>
        <path id="y" d="M.114 12.07c1.386.197 2.802.3 4.243.3 4.687 0 9.124-1.08 13.076-3.003V.334H.113V12.07z"/>
        <path id="A" d="M.164.017h9.31v9.495H.163V.017z"/>
        <path id="C" d="M37.603 19.1H.142V.122h37.461V19.1z"/>
    </defs>
    <g fill="none" fill-rule="evenodd">
        <text fill="#4A4A4A" font-family="Lato-Regular, Lato" font-size="14" transform="translate(0 -3)">
            <tspan x="121.243" y="14">Sales</tspan>
        </text>
        <text fill="#4A4A4A" font-family="Lato-Regular, Lato" font-size="14" transform="translate(0 -3)">
            <tspan x=".325" y="210">Operation</tspan> <tspan x="4.504" y="227">Manager</tspan>
        </text>
        <text fill="#4A4A4A" font-family="Lato-Regular, Lato" font-size="14" transform="translate(0 -3)">
            <tspan x="107.036" y="342">Customer</tspan>
        </text>
        <text fill="#4A4A4A" font-family="Lato-Regular, Lato" font-size="16" transform="translate(0 -3)">
            <tspan x="207.052" y="210">Talent </tspan> <tspan x="189.908" y="229">Acquisition </tspan> <tspan x="209.964" y="248">Team</tspan>
        </text>
        <g transform="translate(210.806 127.153)">
            <mask id="b" fill="#fff">
                <use xlink:href="#a"/>
            </mask>
            <path fill="#C3F3EF" d="M.117 28.129c0 15.353 12.457 27.8 27.824 27.8s27.824-12.447 27.824-27.8c0-15.354-12.457-27.8-27.824-27.8S.117 12.775.117 28.129" mask="url(#b)"/>
        </g>
        <path fill="#443F42" d="M243.58 130.54s7.598.76 7.598 11.87c0 0 .206 3.117 1.156 5.776.95 2.658.353 13.544-8.63 13.505 0 0-1.455-6.274-.885-9.027 0 0 1.805.76 1.9-1.9 0 0-1.727-1.093-3.447-3.142-.614-.307-1.722-.663-2.573-4.412 0 0-6.708 1.027-9.083-4.48 0 0-.518 2.454-.484 6.22.002.363.606 1.796.622 2.167.06 1.302-.507 2.266-.217 3.561 0 0-2.2 1.036-2.39-5.61-.285-6.647 1.108-7.911 3.198-10.76.095-.095 6.585-7.376 13.234-3.768"/>
        <path fill="#383436" d="M245.192 151.061s-.419 2.218-2.352 1.627c0 0-.407 2.538 1.679 4.308 0 0 1.632 1.286 2.536 1.632 1.203.46 1.391 1.33 1.998 1.1 1.136-.43 2.065-2.471 2.065-2.471s-7.37.075-7.163-2.714l.119-.98s1.395-.088 1.118-2.502"/>
        <g transform="translate(217.313 150.844)">
            <mask id="d" fill="#fff">
                <use xlink:href="#c"/>
            </mask>
            <path fill="#00BAE1" d="M31.966 27.742c.665 1.614 2.09 5.981 1.995 5.981l-1.425 5.888-1.235-3.419c-.95-5.032.665-8.45.665-8.45M.05 38.376s3.704.095 4.464 3.513l4.654-7.88S6.51 44.927 5.845 48.06c-.665 3.133-.475 5.792-.475 5.792l.285 3.703s6.269 8.355 18.332 6.931L36.24 54.043s1.045-3.418-.095-6.932c0 0 4.56-7.595 4.654-11.204.19-3.608-1.615-20.983-6.933-26.396-.096 0-2.248-2.12-5.32-2.754 0 0-2.564 1.045-5.509 6.647 0 0-1.9 4.083-5.32 4.083 0 0-1.52 1.33-2.279 5.602 0 0-.855-5.128-.285-6.931 0 0-3.704-2.659 1.045-10.635 0 0-3.325-2.599-3.894-5.353 0 0-5.51.036-6.65 17.317 0 0 .096 6.931-.759 8.926C4.04 28.407.43 37.52.43 37.52s-.284.475-.38.855" mask="url(#d)"/>
        </g>
        <path fill="#FFD4AE" d="M242.914 152.664s-.657 2.935 2.573 5.214c0 0-2.383 2.192-5.422 6.94-3.04 4.747-5.13 3.608-5.13 3.608l-2.28 5.602-.57-6.932s-3.324-2.468 1.426-10.73c0-.094 5.319.666 9.403-3.702"/>
        <path fill="#FFD4AE" d="M245.289 149.53s2.175 5.747-2.385 3.373c0 0-4.363 5.727-10.248 3.369 0 0-2.795-1.203-3.554-8.324 0 0-1.48-9.337.704-11.426 0 0 11.874-7.595 15.198-.285 3.325 7.312.285 13.294.285 13.294"/>
        <path fill="#008DB4" d="M242.182 180.567s-4.908.554-7.757-1.82c.202.133 1.996 3.491 7.757 1.82"/>
        <path fill="#FAB6A1" d="M232.086 167.096c-1.587-4.381 1.795-9.505 1.795-9.505 1.454 0 2.669-.11 2.669-.11.948-.121 2.139-.517 3.61-1.399 2.754-1.804 2.825-2.98 2.73-3.834 0 0-2.865 4.067-6.91 4.309 0 0-1.88.251-2.544-.034 0 0-4.6 7.082-1.35 10.573M229.102 145.07s5.157 4.075 8.766 2.84c0 0-1.045 1.994-5.604-.284l-2.806-1.696-.356-.86z"/>
        <g transform="translate(237.256 157.334)">
            <mask id="f" fill="#fff">
                <use xlink:href="#e"/>
            </mask>
            <path fill="#C7D1EA" d="M12.01 29.048s-.415.95-1.959 2.612c-1.543 1.662-6.59 2.67-9.676 1.602 0 0 1.166-4.152.981-8.485-.084-1.95-.176-3.842-.269-5.223-.416-6.172 1.049-10.03 1.049-10.03s.672.012 2.73-3.837C7.005 1.69 8.034.662 9.419.386c0 0 2.454.534 3.166 1.661 0 0-4.866 2.019-4.789 9.733.08 7.912 3.997 10.088 3.997 10.088s.16.89-.316 2.73c-.475 1.84.475 1.84.534 4.45" mask="url(#f)"/>
        </g>
        <path fill="#008DB4" d="M246.892 168.105s-.432 5.273 2.387 10.48c0 0-4.465-6.385-2.387-10.48"/>
        <path fill="#008DB4" d="M247.172 173.579s-1.166-.919-1.367-2.408c0 0-.466 2.067 1.64 3.423l-.273-1.015z"/>
        <g transform="translate(223.806 153.625)">
            <mask id="h" fill="#fff">
                <use xlink:href="#g"/>
            </mask>
            <path fill="#C7D1EA" d="M8.452 2.433S4.386 8.01 5.335 23.283c0 0 0 4.668.317 7.595.317 2.928-.237 5.46-.237 5.46s-1.98-.158-3.562-2.137c0 0-.396-.553-.792-.712 0 0 .634-12.66.317-13.767 0 0-1.188-2.453-.95-4.273.237-1.82 2.454-4.906 3.562-8.07C5.098 4.213 6.79.266 6.79.266s.386 1.187 1.662 2.166" mask="url(#h)"/>
        </g>
        <path fill="#443F42" d="M239.352 145.337s1.82 5.578 5.383 5.42l4.25-.236-1.15-14.69-11.04.813 2.557 8.693z"/>
        <path fill="#A1B4DB" d="M225.184 173.347s.87 1.553 2.859 2.947c0 0-1.722-.504-2.79-1.988l-.07-.959z"/>
        <path fill="#008DB4" d="M235.236 168.52l-2.572 5.46-.906-7.205.357.297.667 5.8 2.154-4.446z"/>
        <path fill="#FAB6A1" d="M231.832 147.918s-.742 3.057-.059 4.807c0 0 .327.712 1.336.623 0 0-1.128-.356-1.158-2.284-.03-1.93.416-2.938.416-2.938l-.535-.208z"/>
        <path fill="#FFE050" d="M243.033 152.28a.494.494 0 1 0 .989 0 .494.494 0 0 0-.989 0"/>
        <path fill="#FFE050" d="M243.033 153.744a.494.494 0 0 0 .99 0c0-.274-.222-.97-.496-.97-.272 0-.494.696-.494.97"/>
        <path fill="#FAB6A1" d="M242.857 152.823s-.508 2.775 2.63 5.055c0 0-1.96 1.998-3.859 4.61 0 0 2.375-3.621 1.425-4.808-.95-1.186-1.425-3.205-1.425-3.205l1.229-1.652z"/>
        <path fill="#FAB6A1" d="M241.628 162.487s-3.768 6.892-6.693 5.939l-2.153 4.446-.668-5.8.846 4.02s.357-2.908 1.07-4.036l-.357 3.324 1.187-2.433s2.85.949 7.896-7.36l-1.128 1.9zM234.207 157.127l.317 2.69-.792-1.108.158-1.662z"/>
        <path fill="#FFE050" d="M244.062 156.691s-4.156 6.568-9.261 6.568c0 0-2.375.118-.95-4.985 0 0-2.375 4.747.475 5.578 0 0 4.75 1.701 9.736-7.161"/>
        <path fill="#FFE050" d="M235.038 163.852s-1.306 1.305-1.425-.474l1.425.474z"/>
        <g transform="translate(234.937 179.588)">
            <mask id="j" fill="#fff">
                <use xlink:href="#i"/>
            </mask>
            <path fill="#008DB4" d="M.378.168L3.703 3.57l-.158-2.294z" mask="url(#j)"/>
        </g>
        <path fill="#008DB4" d="M248.396 176.967l-.238 1.543.89.692.23-.617s-.645-.846-.882-1.618M231.358 175.958l2.612 6.172s-1.9-1.78-2.612-6.172"/>
        <path fill="#0085C1" d="M235.027 169.465c-.139.317-.095.642.098.727.193.084.462-.104.6-.421.14-.317.095-.643-.098-.727-.193-.085-.462.104-.6.42M232.8 174.102c-.157.308-.132.635.056.73.188.096.467-.077.624-.386.157-.308.131-.636-.056-.73-.189-.096-.468.077-.624.386"/>
        <g transform="translate(238.184 180.052)">
            <mask id="l" fill="#fff">
                <use xlink:href="#k"/>
            </mask>
            <path fill="#A1B4DB" d="M.38.384l3.836 1.931-.91 1.187-.04 1.424-2.81-1.82z" mask="url(#l)"/>
        </g>
        <g>
            <path fill="#443F42" d="M239.34 142.828s-3.607 1.778-10.276-3.419c0 0-.816.41-.544 5.197l-.613-1.71s-.068-6.358 3.267-8.478c0 0 7.961-6.084 14.086-1.367l2.517 4.307s-3.81 6.222-8.438 5.47"/>
            <path fill="#008DB4" d="M226.955 162.997s.816-1.709.408-4.444c0 0-.476.752-.612 3.214l-.477-2.94s-.408 1.094 0 3.76c0 0 0 1.914-.408 2.598l1.089-2.188z"/>
            <g transform="translate(2 121.243)">
                <mask id="n" fill="#fff">
                    <use xlink:href="#m"/>
                </mask>
                <path fill="#C3F3EF" d="M59.974 30.48c0 16.64-13.426 30.13-29.987 30.13S0 47.12 0 30.48 13.426.35 29.987.35c16.56 0 29.987 13.49 29.987 30.129" mask="url(#n)"/>
            </g>
        </g>
        <g>
            <g transform="translate(43.044 171.822)">
                <mask id="p" fill="#fff">
                    <use xlink:href="#o"/>
                </mask>
                <path fill="#FFD4AE" d="M4.557.063s-.798 5.604-.399 9.907.798 15.813.798 16.613c0 0 1.596 1.1 1.894 3.603.3 2.502.6 4.803-.298 5.304-.898.5-1.297.3-1.297.3s.498 4.303-3.092 3.903L.07 28.384.17.764 4.557.063z" mask="url(#p)"/>
            </g>
            <path fill="#FFD4AE" d="M35.534 155.373s1.396 3.202.997 5.804l-.897 5.705s-1.596-4.204-3.291-6.005c-1.796-1.802-4.987-4.103-5.585-4.804-.598-.7.698-4.403.698-4.403l3.59-2.302 4.488 6.005z"/>
            <g transform="translate(16.468 147.025)">
                <mask id="r" fill="#fff">
                    <use xlink:href="#q"/>
                </mask>
                <path fill="#78C9C8" d="M8.894 3.945s.2.3.698.3c0 0-.698 2.301-.3 3.102 0 0 3.292 4.404 5.586 5.404 2.293 1 4.288 6.905 4.288 6.905s1.05-5.669 1.05-6.57l-1.05-3.637 2.793-1.201s2.792-6.205 3.19-8.106c0 0 5.785 0 6.084 8.506-.1.3.3 10.308.3 10.308s.897-.5 1.096 1.3l-.199 3.803s-1.097 2.402-3.99 2.803c0 0 .4 16.212-.897 21.516 0 0-8.078 12.309-24.234 4.303 0 0-2.992-4.003-2.992-8.806 0-4.804 7.68-36.928 7.68-36.928l.897-3.002z" mask="url(#r)"/>
            </g>
            <path fill="#2EAABC" d="M36.442 175.838c.385.022.67.488.64 1.04-.032.55-.37.98-.755.958-.384-.022-.671-.487-.64-1.04.032-.55.37-.98.755-.958M35.733 156.974s.998 1.601.2 6.805l.898-2.702s-.3-3.402-.699-4.404l-.299-1-.498.6.398.7z"/>
            <g transform="translate(10.873 150.768)">
                <mask id="t" fill="#fff">
                    <use xlink:href="#s"/>
                </mask>
                <path fill="#78C9C8" d="M11.597 13.411c1.895 1.602 1.595 3.503 1.795 7.306.2 3.803-3.59 14.31-3.59 14.31l-1.795.3C1.524 35.829.236 31.81.236 31.81s.478-4.691 1.101-4.879c.434-2.429.888-5.147.985-6.113.399-4.003-.3-6.205 1.496-8.907 1.795-2.702 8.477-7.205 8.477-7.205s.498-3.503 2.692-4.404l-.199 2.102" mask="url(#t)"/>
            </g>
            <g transform="translate(19.732 165.74)">
                <mask id="v" fill="#fff">
                    <use xlink:href="#u"/>
                </mask>
                <path fill="#2EAABC" d="M3.835.14c.698 1.602.897 3.403.897 5.205 0 1.801-.199 3.502-.698 5.304-.997 3.303-2.58 9.586-3.079 9.649-.499.062-.803.094-.685-.636.592.093 1.714-3.534 1.496-4.316.084-.227.045-.268.124-.5.534-1.559.877-3.273 1.247-4.498.498-1.6.798-3.302.897-5.003.1-1.702.1-3.403-.2-5.204" mask="url(#v)"/>
            </g>
            <path fill="#2EAABC" d="M35.626 166.94s-.3-10.008 5.584-7.106c0 .1-4.487-1.3-5.584 7.106"/>
            <path fill="#2EAABC" d="M38.327 155.273l2.839 4.568-1.244-.365-2.094-4.003z"/>
            <path fill="#FFD4AE" d="M25.86 153.371l.184-2.1c-.71-.023-.951-.312-1.691-.894-1.013-.798-1.684-2.71-1.485-5.212.2-2.502 2.195-1.801 2.195-1.801s.298-8.407.199-8.807c-.3-2.702 1.496-4.203 1.496-4.203 7.18-4.303 13.762 4.703 14.96 5.804 1.196 1.1.797 5.104.797 5.104s.1.9-.1 1.601c-.199.5-1.496 1.602-.598 2.602 1.197 1.1-1.496 8.407-2.294 9.407-.698 1.001-3.79 1.702-3.989 1.802"/>
            <path fill="#4D3C54" d="M30.647 126.451c-1.396.3-1.496 1.1-1.795 1.5-2.094-.1-2.493 1.803-2.493 1.803-1.097-.1-2.294.8-2.493 1.3-.499 1.302 0 2.302 0 2.302s-1.796.6-1.297 2.802c0 0-1.296 1.101-.499 3.002 0 0-1.097 1.802.3 3.603 0 0-.599 1.201.598 2.502 0 0 .698-2.502 2.793-1.2 0 0 1.196 1.2 1.196 3.202l.1 1.801s1.396.2 1.596-1.1c.2-1.302.1-1.302.598-1.602.798-.6 1.296-1.201 1.097-2.902 0 0 2.593-1.101 1.795-3.103l-.797-1.501s.797 1.302 2.293.901c0 0 1.297 2.002 3.291.1 0 0 1.596 1 2.793-.901 0 0 1.995.901 2.593-1.5 0 0 1.795.1 1.396-2.403 0 0 .299-1.3-1.895-2.001 0 0 .3-2.002-2.793-2.502 0 0-.298-2.001-2.493-1.901 0 0-.299-2.602-2.992-1.602-.2 0-1.296-.9-2.892-.6"/>
            <path fill="#FFBE92" d="M42.316 142.663s-.898 1.201-3.39 2.102c-1.298.5-3.492 1.6-4.589 1.7-2.792.302-3.39-.3-3.39-.3s1.296 1.402 4.387.801c3.591-.7 5.286-2.001 6.084-2.802.798-.8.898-1.501.898-1.501M29.65 158.775s-3.59-2.602-4.587-4.403l.398-.8-.002-2.43s.686.391 1.299-.173c.2-.1.499-.7.798-.8 0 0 .034 2.463.46 4.789l5.386 6.582-3.752-2.765zM26.359 146.266s-.898-1.802-1.995-1.301c-1.097.5-.498 4.003.3 4.703.797.701 1.795.1 1.795-.7 0 0 0-.8-.698-.9-.699-.1 0 1-.599.8-.598-.2-1.196-2.102-.798-2.803.4-.7.3 1.502.5 1.702.198.2 1.196 0 .797-.7-.2-.801.2-1.002.698-.801"/>
            <path fill="#FFBE92" d="M39.224 145.565v5.104s-1.297 1.101-2.792.4l.498-.6 1.396-.1.3-4.503.598-.3z"/>
            <path fill="#2EAABC" d="M23.492 154.186s-.125 1.787 1.87 5.09c1.995 3.302 2.693 4.903 2.693 4.903s2.792-4.303 3.889-3.903c1.097.4 2.094 2.402 2.094 2.402l1.596 4.103s-3.291-7.105-4.388-5.604c-1.197 1.501-3.49 4.904-3.49 4.904s-3.97-7.722-4.37-9.223c-.498-1.4.106-2.672.106-2.672"/>
            <path fill="#2EAABC" d="M25.323 152.149c0 .8.038 1.723.537 2.323.2.3.5.6.698.9l.798.801c1.197.801 2.294 1.602 3.391 2.502l1.496 1.501c.499.5.898 1.101 1.097 1.802-.399-.6-.997-1.001-1.496-1.401-.499-.4-1.097-.8-1.695-1.201l-3.391-2.402-.898-.9c-.199-.301-.602-.687-.702-1.088-.387-.954-.135-2.037.165-2.837"/>
            <path fill="#FFBE92" d="M35.335 157.575c0-.1-4.987.3-6.782-5.805 0 0 1.145 1.843 2.992 3.302 1.518 1.168 2.547 2.038 4.043 1.637 0 0 .37.328.577 1.891-.332-.625-.83-1.025-.83-1.025"/>
            <path fill="#2EAABC" d="M44.31 156.173l.499 17.713s2.892-.2 3.989-2.802c0 0-2.194 2.102-3.49 1.802 0 0-.3-13.91-.998-16.713"/>
            <path fill="#2EAABC" d="M44.809 167.782s1.496.3 3.092-1.801c0 0-.499 2.302-2.893 2.802l-.2-1.001zM39.324 169.483c.299-.1 2.294-.4 4.189-2.702 0 0 .298.801-.6 1.502 0 0-1.495 1.6-3.889 2.101l.3-.9zM39.324 177.39s2.294.3 3.59-2.303c0 .1 0 3.603-3.59 2.302M36.036 168.965c.386.022.672.487.64 1.04-.032.55-.37.98-.754.958-.385-.022-.671-.487-.64-1.039.032-.552.37-.982.754-.96"/>
            <path fill="#FFBE92" d="M34.462 157.412s.935 3.127-.592 4.972l1.764 4.297s.012-2.202.386-3.765c.374-1.564.351-5.721-.432-6.207 0 0-.565.609-1.126.703"/>
            <g transform="translate(43.51 172.29)">
                <mask id="x" fill="#fff">
                    <use xlink:href="#w"/>
                </mask>
                <path fill="#FFBE92" d="M4.04.446l-.207 1.376s-1.911.667-1.787 2.877c.125 2.21-.872 19.807-.872 19.807L.55 24.38l-.218-1.042s.78-3.128.81-5.567c.032-2.44.686-14.26.375-16.2L4.04.446z" mask="url(#x)"/>
            </g>
            <g transform="translate(27.658 169.483)">
                <mask id="z" fill="#fff">
                    <use xlink:href="#y"/>
                </mask>
                <path fill="#8883EA" d="M17.4 4.004s.333 15.136-1.122 22.016c0 0-5.36 8.006-16.164 6.755 0 0 11.884-.334 15.54-7.088 0 0 .669-3.207.998-7.84.417-5.856.508-13.741.416-17.513l.332 3.67z" mask="url(#z)"/>
            </g>
        </g>
        <g>
            <path fill="#E8E8EF" d="M156.044 88.544c0 7.01-11.217 12.693-25.054 12.693-13.837 0-25.054-5.683-25.054-12.693s11.217-12.693 25.054-12.693c13.837 0 25.054 5.683 25.054 12.693"/>
            <path fill="#A5B2C6" d="M134.822 47.428s.394.052.433.262c0 0 .026.994-.013 1.23-.04.235-.315.3-.315.3l-.105-.235v-1.557z"/>
            <path fill="#6C788B" d="M134.874 47.507s.25.104.21.17a.525.525 0 0 1-.17.13l-.04-.3z"/>
            <path fill="#FFD4AE" d="M134.777 38.055s-.336 2.345-.168 4.146c.168 1.8.336 6.617.336 6.951 0 0 .672.462.798 1.508.126 1.047.252 2.01-.126 2.22-.378.209-.546.125-.546.125s.21 1.801-1.302 1.634l-.881-4.733.042-11.558 1.847-.293z"/>
            <path fill="#6C788B" d="M134.927 49.116s-.398.48-1.378.41l-.656-.148-.026-1.23s.16.39 1.067.314c.822-.07.98-.655.98-.655s.062-.024.085.157c.026.206.052 1.093-.072 1.152"/>
            <path fill="#FFBE92" d="M133.461 50.207s.315 1.012 1.015 1.081c0 0 .455.105.49.698l.105 1.02s-.385-.147-.385-1.16c0 0 0-.244-.49-.384a1.057 1.057 0 0 1-.735-1.255"/>
            <path fill="#D1D1D1" d="M127.58 80.748s3.115 2.641 3.343 3.061c.228.42.15.825-.908 1.46-1.058.634-5.759-2.483-6.018-2.852-.26-.37.05-1.259.05-1.259s2.185 1.195 3.533-.41M133.193 76.434s3.255 2.255 3.351 2.663c.096.408-.263 1.266-1.062 1.539-.798.272-5.545-2.49-5.734-2.746-.19-.257-.009-1.504-.009-1.504l3.454.048z"/>
            <path fill="#82586A" d="M133.98 55.727s-.225 9.274-.225 10.237c0 .963-.533 8.361-.531 9.65.067.287.21.898-.436 1.264-.647.366-2.685 1.058-3.689-.643 0 0 .157-6.507.241-8.098.084-1.592 0-3.831-.61-7.3 0 0-.422 6.842-.594 9.244-.093 1.297-.473 10.318-.473 10.318s.05 1.494-2.038 1.423c-2.087-.072-2.004-1.553-2.004-1.553s-.129-5.214.1-11.046c0 0-.912-14.794-.744-16.301 0 0-.958-3.844.014-4.11 2.506-.686 8.803 1.63 10.316.634-.042 0 .672 1.508.672 6.281"/>
            <path fill="#28151A" d="M133.14 47.687s.335 1.298.125 2.136c0 0-1.753 2.552-5.523 2.696-3.053-.148-5.332-1.392-5.332-1.392l.344-2.251c1.174.238 6.312 2.329 10.385-1.189"/>
            <path fill="#FFD4AE" d="M129.696 31.146s.588 1.34.42 2.429l-.378 2.387s-.672-1.76-1.385-2.513c-.757-.754-2.1-1.717-2.353-2.01-.251-.293.295-1.843.295-1.843l1.511-.963 1.89 2.513z"/>
            <path fill="#81CCB6" d="M125.413 29.303s.084.126.294.126c0 0-.294.963-.126 1.298 0 0 1.386 1.843 2.352 2.261.965.42 1.805 2.89 1.805 2.89s.442-2.372.442-2.75l-.442-1.522 1.176-.502s1.176-2.597 1.343-3.392c0 0 2.436 0 2.562 3.56-.042.125.126 4.312.126 4.312s.378-.209.462.545l-.084 1.591s-.462 1.006-1.68 1.173c0 0 .169 6.784-.378 9.003 0 0-3.4 5.151-10.204 1.8 0 0-1.26-1.674-1.26-3.684 0-2.01 3.234-15.453 3.234-15.453l.378-1.256z"/>
            <path fill="#DBEAB6" d="M130.204 40.299c.163 0 .294.187.294.418 0 .232-.131.42-.294.42-.163 0-.294-.188-.294-.42 0-.23.131-.418.294-.418"/>
            <path fill="#FFD4AE" d="M120.206 42.62s-.63 1.968.126 6.574c0 0 1.553 6.073 1.343 7.036 0 0 1.134.628 2.184-.503 0 0-.924-6.784-.84-9.087.084-2.303.084-3.476.084-3.476s-.671-1.8-2.897-.544"/>
            <path fill="#70ACA7" d="M129.78 31.816s.42.67.084 2.847l.378-1.13s-.126-1.424-.294-1.844l-.126-.418-.21.251.168.294z"/>
            <path fill="#81CCB6" d="M124.195 34.83c.798.67.672 1.466.756 3.058.084 1.591-1.512 5.988-1.512 5.988l-.756.126c-2.73.21-3.271-1.473-3.271-1.473s.2-1.963.463-2.041c.183-1.017.374-2.154.415-2.559.168-1.674-.126-2.596.63-3.727.755-1.13 3.569-3.014 3.569-3.014s.21-1.466 1.134-1.843l-.084.88"/>
            <path fill="#FFD4AE" d="M123.817 55.644s.63.335.966 1.59c0 0 .225.83.175 1.278-.07.628-.05.859-.133 1.068-.084.21-.672.377-.756-.125-.084-.503.126-1.424-.294-1.466-.007.697-.21 1.214-.126 1.633.042.251.42 1.466.336 1.717-.084.251-.336.754-1.176.167 0 0-1.102-.91-1.438-2.208-.21-.796.186-2.416.333-3.246.041.042.98.848 2.113-.408"/>
            <path fill="#70ACA7" d="M124.657 35.543c.294.67.378 1.424.378 2.177a8.07 8.07 0 0 1-.294 2.22c-.42 1.382-1.087 4.011-1.297 4.037-.21.026-.338.04-.288-.266.249.04.722-1.479.63-1.806.035-.095.018-.112.052-.209.225-.652.37-1.37.525-1.882.21-.67.336-1.382.378-2.094.042-.712.042-1.424-.084-2.177M129.735 35.986s-.127-4.188 2.351-2.973c0 .042-1.89-.545-2.351 2.973"/>
            <path fill="#70ACA7" d="M130.872 31.104l1.195 1.912-.523-.154-.882-1.674z"/>
            <path fill="#5B3C4F" d="M131.082 52.712l-.84 3.476-2.015 1.34 1.259-.335s-.84 1.34-.714 3.015v.963s-.126-3.14 1.764-4.523l.546-3.936z"/>
            <path fill="#FFD4AE" d="M125.623 30.308l.077-.879c-.299-.01-.4-.13-.712-.374-.426-.334-.709-1.134-.625-2.18.084-1.048.924-.755.924-.755s.126-3.517.084-3.685c-.126-1.13.63-1.759.63-1.759 3.023-1.8 5.794 1.969 6.299 2.429.504.46.335 2.136.335 2.136s.042.377-.042.67c-.083.21-.63.67-.251 1.089.504.46-.63 3.517-.966 3.936-.294.419-1.596.712-1.68.754"/>
            <g transform="translate(123.69 19)">
                <mask id="B" fill="#fff">
                    <use xlink:href="#A"/>
                </mask>
                <path fill="#443641" d="M3.948.043c-.588.126-.63.46-.756.628-.882-.042-1.05.754-1.05.754-.462-.042-.966.335-1.05.545-.21.544 0 .963 0 .963s-.755.25-.546 1.172c0 0-.546.46-.21 1.257 0 0-.462.753.126 1.507 0 0-.251.502.252 1.047 0 0 .294-1.047 1.176-.503 0 0 .504.503.504 1.34l.042.754s.588.084.672-.46c.084-.545.042-.545.252-.67.336-.252.546-.503.462-1.215 0 0 1.092-.46.756-1.298l-.337-.628s.337.544.967.377c0 0 .546.837 1.386.042 0 0 .671.418 1.175-.377 0 0 .84.377 1.092-.628 0 0 .756.042.588-1.006 0 0 .126-.544-.798-.837 0 0 .126-.837-1.176-1.047 0 0-.126-.838-1.05-.796 0 0-.126-1.088-1.26-.67-.084 0-.546-.377-1.217-.251" mask="url(#B)"/>
            </g>
            <path fill="#FFBE92" d="M132.552 25.827s-.378.503-1.428.88c-.546.21-1.47.67-1.932.711-1.175.126-1.428-.126-1.428-.126s.546.587 1.848.336c1.512-.294 2.226-.838 2.562-1.173.336-.335.378-.628.378-.628M127.218 32.57s-1.511-1.09-1.931-1.843l.168-.335v-1.016s.288.163.546-.073c.084-.042.21-.294.335-.335 0 0 .015 1.03.195 2.004l2.267 2.754-1.58-1.156zM125.833 27.335s-.378-.754-.84-.545c-.462.21-.21 1.676.126 1.969.336.293.756.041.756-.293 0 0 0-.336-.294-.378-.294-.042 0 .42-.252.336-.252-.085-.504-.88-.336-1.173.168-.293.126.628.21.712.084.083.504 0 .336-.293-.084-.335.084-.42.294-.335"/>
            <path fill="#FFBE92" d="M131.25 27.042v2.135s-.546.46-1.176.168l.21-.252.588-.042.126-1.884.252-.125z"/>
            <path fill="#248DA7" d="M119.408 42.62s.887 1.872 3.984 1.349c.192-.079.173-.344.173-.344s-2.892.51-4.11-1.584c0 .041-.089.327-.047.579M121.676 41.866c-.378-.126-.756-.293-1.05-.544a3.497 3.497 0 0 1-.738-.83c.63.46 1.225 1.084 2.994 1.276.378.042.8-.04 1.205-.226l-.144.272s-.35.47-2.267.052"/>
            <path fill="#70ACA7" d="M124.626 30.649s-.053.747.787 2.13c.84 1.381 1.134 2.052 1.134 2.052s1.175-1.801 1.637-1.634c.462.168.882 1.005.882 1.005l.672 1.717s-1.385-2.973-1.847-2.345c-.505.628-1.47 2.052-1.47 2.052s-1.672-3.23-1.84-3.86c-.21-.585.045-1.117.045-1.117"/>
            <path fill="#70ACA7" d="M125.396 29.796c0 .336.017.721.227.972.084.126.21.252.294.377l.336.335c.504.336.965.67 1.427 1.047l.63.629c.21.209.378.46.462.753-.168-.25-.42-.418-.63-.586-.21-.167-.462-.335-.714-.502L126 31.816c-.125-.127-.251-.252-.377-.378-.084-.125-.254-.287-.296-.454-.163-.4-.057-.852.07-1.188"/>
            <path fill="#FFBE92" d="M129.612 32.067c0-.042-2.1.126-2.856-2.43 0 0 .483.772 1.26 1.383.64.489 1.073.852 1.703.685 0 0 .156.137.243.79-.14-.26-.35-.428-.35-.428"/>
            <path fill="#70ACA7" d="M133.391 31.48l.21 7.413s1.218-.084 1.68-1.172c0 0-.924.879-1.47.753 0 0-.126-5.82-.42-6.994"/>
            <path fill="#70ACA7" d="M133.601 36.338s.63.126 1.302-.754c0 0-.21.963-1.218 1.173l-.084-.419zM131.292 37.05c.126-.042.965-.167 1.763-1.13 0 0 .126.335-.252.628 0 0-.63.67-1.637.88l.126-.378zM131.292 40.359s.965.125 1.511-.963c0 .041 0 1.507-1.511.963"/>
            <path fill="#DBEAB6" d="M130.247 43.723c.162 0 .294.187.294.418 0 .232-.132.42-.294.42-.162 0-.294-.188-.294-.42 0-.23.132-.418.294-.418M130.54 47.234c.163 0 .295.188.295.419 0 .232-.132.42-.294.42-.163 0-.294-.188-.294-.42 0-.231.131-.419.294-.419M129.911 36.708c.162 0 .294.187.294.419 0 .231-.132.419-.294.419-.162 0-.294-.188-.294-.42 0-.23.132-.418.294-.418"/>
            <path fill="#82586A" d="M132.384 48.818s.293 1.591.084 2.094l.63-.545-.127-2.094-.587.545zM127.344 50.786l.042 1.885-.671-.084.01-1.822z"/>
            <path fill="#FFBE92" d="M129.245 31.999s.393 1.309-.25 2.08l.743 1.798s.005-.92.163-1.575c.157-.654.148-2.394-.182-2.597 0 0-.238.254-.474.294M133.951 52.544l.07 2.06s.245.104.385-.035c0 0-.385.21-.315-.908.07-1.117-.07-1.396-.14-1.117M120.033 43.358s.813.811 3.07.628c0 0-.205 2.98-.037 4.277 0 0-.383-3.125-.278-3.518 0 0-.892.227-2.31-.21 0 0-.393 2.958-.183 4.293 0 0-.577-3.376-.262-5.47M134.756 38.411l-.087.576s-.805.28-.753 1.204c.053.925-.367 8.288-.367 8.288l-.262-.052-.093-.437s.328-1.308.342-2.328c.013-1.022.288-5.968.157-6.78l1.063-.47z"/>
            <path fill="#70ACA7" d="M133.706 38.725s.14 6.334-.472 9.213c0 0-2.257 3.35-6.807 2.827 0 0 5.005-.14 6.545-2.966 0 0 .28-1.342.42-3.28.175-2.452.214-5.75.174-7.33l.14 1.536z"/>
            <path fill="#ABACAD" d="M132.64 77.2l2.049 1.528s-1.048-.329-2.049-1.529"/>
            <path fill="#ABACAD" d="M133.393 77.346l-.687.591s.61 0 .687-.591M133.982 77.71l-.688.591s.612 0 .688-.59M134.655 78.127l-.688.59s.612.001.688-.59M127.008 81.796l2.049 1.528s-1.048-.329-2.049-1.528"/>
            <path fill="#ABACAD" d="M127.762 81.942l-.688.591s.61 0 .688-.59M128.35 82.307l-.688.59s.612.001.689-.59M129.023 82.722l-.688.592s.612 0 .688-.592M128.197 84.941s-.303-.184.182-.715c1.094-1.197 1.743-1.187 1.743-1.187s1.041.644.886 1.245c0 0-.486 1.202-1.608 1.074l-1.203-.417zM133.663 80.155s-.136-.102.35-.632c1.093-1.197 1.743-1.188 1.743-1.188s1.04.644.885 1.245c0 0-.683 1.222-1.607 1.075l-1.371-.5z"/>
            <path fill="#ABACAD" d="M123.888 81.862s1.892 1.628 4.542 2.81l.016.372s-2.944-1.212-4.45-2.627c0 0-.095-.155-.108-.555M129.667 77.393s1.128 1.206 4.477 2.61l.126.382s-3.01-1.042-4.514-2.458c0 0-.076-.134-.09-.534"/>
            <path fill="#5B3C4F" d="M130.536 56.648s2.12-1.172 2.068-1.905l-2.152 1.518.084.387z"/>
            <path fill="#FFD4AE" d="M139.157 56.536s-.665 1.605-.49 4.047c0 0 .412 1.955 1.986 2.234 0 0-.236-3.175.22-4.013.454-.838-.246-1.884-.246-1.884l-1.47-.384z"/>
            <path fill="#FABAA3" d="M139.035 56.911s.76.89 1.994.314v.419l-.656.863s.053-.497-.603-.576c-.657-.078-.945-.182-.945-.182s.105-.603.21-.838M139.716 58.525s-.144 1.745-.029 2.164c.115.418.56.348.624-.123.065-.471.043-1.152.194-1.387.15-.236.237-.34.28-.602 0 0 .194.183-.258.916l-.087 1.126s-.043.575-.473.55c-.43-.027-.495-.63-.474-.943.022-.314-.007-1.806.223-1.701"/>
            <path fill="#F27385" d="M146.173 85.431s-1.656 1.444-2.344 2.233c-.7.803-.07 1.71 1.155 1.257 1.224-.454 2.974-1.5 3.884-2.234l.14.489s.35.28.455-.28c.105-.558.49-2.372-.105-2.826 0 0-1.365 2.059-3.185 1.361"/>
            <path fill="#FFD4AE" d="M146.838 75.73s.595 6.91.14 8.165c-.455 1.257-1.294 2.13-1.294 2.13s-1.12 1.186.35.906c1.47-.279 2.834-1.36 3.219-1.954.385-.593-.28-1.291.105-2.896s1.33-4.258 1.47-6.666l-3.99.315z"/>
            <path fill="#FABAA3" d="M146.917 76.741s2.502.428 3.832-.445l.122-1.02-4.032.453.078 1.012z"/>
            <path fill="#F27385" d="M141.03 82.814s-1.567 1.125-2.345 2.233c-.613.871-.07 1.71 1.155 1.256 1.224-.453 2.974-1.5 3.884-2.233l.14.488s.35.28.455-.279c.105-.558.49-2.373-.105-2.826 0 0-1.365 2.059-3.185 1.36"/>
            <path fill="#FFD4AE" d="M141.694 73.112s.595 6.91.14 8.166c-.455 1.257-1.294 2.13-1.294 2.13s-1.12 1.185.35.906c1.47-.28 2.834-1.361 3.219-1.954.385-.594-.28-1.291.105-2.896.385-1.606 1.33-4.258 1.47-6.666l-3.99.314z"/>
            <path fill="#FABAA3" d="M141.843 75.24s1.417 1.52 3.237 1.03l.21-.68-3.517-1.326.07.977z"/>
            <path fill="#628AB3" d="M141.353 57.164s-1.067.742-1.207 2.067c-.14 1.327-.936 11.647-.936 11.647s-.42.803.175 1.675c.595.873 5.284 4.921 11.233 3.141 0 0 3.324-1.046 3.534-3.385l-1.015-10.678-11.784-4.467z"/>
            <path fill="#FFD4AE" d="M151.772 43.528s-2.03-.672-3.079 2.364c0 0-.665.942-.63 2.652 0 0 4.794.698 5.11-2.478 0 0-.246-2.146-1.4-2.538"/>
            <path fill="#E9E9F5" d="M148.964 68.628l-.34 4.999 7.366-3.935.087-4.886z"/>
            <path fill="#FABAA3" d="M149.909 46.485l.551 2.277.21-.052s-.13-1.753-.761-2.225"/>
            <path fill="#815258" d="M141.8 34.76s.314 1.954 0 3.228c-.316 1.273-.403 2.25 1.067 2.687l.77.104s-.735-4.71-.403-6.281c0 0-1.4-1.082-1.435.262"/>
            <path fill="#FFD4AE" d="M150.758 63.062s-.63.732-.63 2.024c0 1.29-.28 2.547-.28 2.547s.07.314.525.14c.455-.175.49-.698.524-1.222.036-.523.106-.733.106-.733s.21 1.257 0 2.303c-.21 1.048.91.664 1.505.175.594-.488 1.294-3 .7-4.78 0 0-1.68.209-2.45-.454"/>
            <path fill="#FABAA3" d="M150.696 63.157s1.557.768 2.511.359c0 0 .254.505.202 1.081 0 0-.228-.61-1.086-.55-1.313.094-1.75.133-1.836 1.126-.132 1.518-.578 2.303-.578 2.303s.262-2.172.21-2.617c-.052-.445.184-1.518.577-1.702"/>
            <path fill="#815258" d="M141.817 34.917s-.516-2.905 2.318-4.11c0 0 1.916-1.047 3.228-.706 1.312.34 3.57 1.099 3.858 2.774.289 1.675-.367 2.643.5 4.71.865 2.069 1.915 4.163.051 5.942 0 0-1.907-.652-2.44-1.125-1.024-.907-.788-1.675-.866-2.617 0 0-.866-.706-1.05-2.46v-1.362s-4.103 1.074-5.6-1.046"/>
            <path fill="#C3F3EF" d="M142.534 39.488s-2.414.506-2.782 3.595c-.367 3.088-.735 7.38-.945 8.689-.21 1.309-1.154 3.821 0 4.973 1.155 1.152 2.117.489 2.117.489l-.28-.332s.84 1.78 2.258 2.199c1.417.419 2.038.384 3.56 2.006 1.522 1.623 3.158 1.553 4.208 1.03 0 0-.087.436-.087.61 0 .175-.245.524 1.05.838 1.295.314 2.064-.21 2.17-.663.104-.454 1.014-5.2 1.189-6.072.175-.872.49-1.257 0-4.118-.49-2.862-1.54-6.107-2.1-7.678 0 0 .49 1.292-.42 2.234-.91.942-4.066 1.25-4.724 1.081-1.085-.278-4.234-1.081-4.794-5.792 0 0-.21-.768.262-1.483 0 0-.402-.436-.682-1.606"/>
            <path fill="#FFD4AE" d="M148.5 40.012s-.244 1.43 1.016 2.32c0 0 .56.314.7.384 0 0-2.179 2.862-3.57 5.41 0 0-2.642-.89-3.412-3.787 0 0-.778-1.989-.07-3.298 0 0 1.697 1.274 3.184.785 1.488-.488 1.977-2.129 1.977-2.129l.175.315z"/>
            <path fill="#FABAA3" d="M143.138 41.067s-.385 1.754.42 3.743c0 0 .77 2.408 2.45 3.036l-.85-.732.132-.55-.42.235s-1.916-3.324-1.548-5.522l-.184-.21z"/>
            <path fill="#FFD4AE" d="M142.29 35.422s-.106 2.565.244 4.066c.35 1.5 1.114 2.635 2.73 2.635 1.4 0 2.764-.419 3.079-2.164 0 0 .503.402.923-.213.053-.144.022-.275.022-.275s-1.575-.873-1.68-1.955c-.105-1.081.07-1.85.07-1.85s-3.49 1.318-5.389-.244"/>
            <path fill="#78B9C9" d="M148.194 48.405c.046-1.286.298-1.92.298-1.92 1.102-3.428 3.28-2.957 3.28-2.957-.367-.89-1.557-.812-1.557-.812-.717.13-1.645 1.02-1.645 1.02-1.65 1.538-1.023 4.005-2.563 4.11 0 0 1.838.732 2.187.559"/>
            <path fill="#FABAA3" d="M143.216 41.094s.998 1.326 2.922.977c0 0 1.243-.175 1.82-1.083 0 0-.472 1.432-2.205 1.432-1.486 0-1.941-.594-2.537-1.326"/>
            <path fill="#FABAA3" d="M148.536 41.74c.752.785 1.373.82 1.373.82-1.155-.708-.918-2.553-.918-2.553-.228.127-.49.005-.49.005-.007.13-.088-.367-.385.593 0 0-.018 1.012-2.1 1.78 0 0 .893-.105 2.52-.646"/>
            <path fill="#DEDAED" d="M151.084 66.809l-2.828 1.53-.341 5 .708.288.341-5 2.113-1.112s.059-.602.007-.706M153.4 65.578l-.092.747 2.768-1.518-.642-.314z"/>
            <path fill="#78B9C9" d="M141.327 43.868s.368 1.413-.21 2.722-1.05 3.56.787 4.763c0 0-2.31-.89-1.365-4.082.63-1.554.736-1.833.788-3.403M143.138 41.067s-.919 4.057 3.018 6.884c0 0-4.672-2.408-3.018-6.884M142.613 45.726s1.234 5.575 5.8 6.177c0 0-4.934-.471-5.8-6.177"/>
            <path fill="#78B9C9" d="M143.768 45.779s.735 4.946 5.17 4.266c0 0-3.806.392-4.855-3.9l-.315-.366z"/>
            <path fill="#78B9C9" d="M144.161 46.354s1.339 2.487 3.36 2.853c0 0-2.179-.052-3.438-2.538l.078-.315zM141.327 51.065s.709 2.356.498 3.455l-.446-2.356s-.157 2.801-.472 4.032c0 0-.28.82.227 1.457 0 0-.28.008-.49-.463 0 0-.052-.707.158-1.701.21-.995.551-4.319.34-4.685l.185.261zM143.453 53.944s2.755 4.816 6.456 2.435c0 0-2.94 1.78-6.456-2.435M151.038 49.207s.656 4.66.734 5.47c.08.812-.892 7.015-.892 7.59 0 .576.342 1.048 1.391 1.126 1.05.079 1.05-.078 1.47-.523 0 0-.079.863-1.444.732 0 0-1.513.044-1.723-.558 0 0-.166-.226.123-1.379.288-1.151.944-6.229.892-6.883 0 0-.998-5.365-.551-5.575"/>
            <path fill="#78B9C9" d="M151.274 52.557s.262 2.748-1.654 3.272c0 0 1.628-.497 1.785-2.643l-.131-.629zM151.956 52.06s1.391 1.361 2.073-.21c0 0-.446 2.042-2.073.21"/>
            <path fill="#78B9C9" d="M154.056 52.243s-.42 1.99-1.68 1.283c0 0 1.076.366 1.627-1.57l.053.287zM154.24 55.986s-.525 1.99-2.047 2.277c0 0 1.075-.052 1.653-1.151 0 0-.472 1.989-1.68 2.015 0 0 1.68.052 2.074-3.14M144.424 58.891s.945.419 1.942 1.937 3.255 1.623 3.255 1.623-2.363.313-3.728-1.832c-1.364-2.146-1.679-1.78-1.679-1.78M139.28 50.15s-.105 2.041 1.417 2.093c0 0-.997-.261-1.417-2.094"/>
            <path fill="#FABAA3" d="M142.534 37.272s1.26 1.466 4.304.995c0 0-3.464.994-4.304-.995"/>
            <path fill="#FABAA3" d="M143.741 38.633l-.052 1.256s.236.42.997.314l.079-.157s-.604.105-.892-.261c0 0 .104-1.518-.132-1.152M150.696 65.068s.07.28.298.82c.227.541.035 2.007.035 2.007s-.245.977.298.907c0 0-.333-.035-.14-.89.192-.854.227-2.303-.49-2.844M149.673 47.166l.656.706-.105-.47z"/>
            <path fill="#FABAA3" d="M151.772 43.528s-3.114-.428-3.578 4.877c0 0 1.636-.035 2.082-.218l-1.758-.027s.053-4.135 3.254-4.632M144.153 41.878l.175.768.244.036.07-.454z"/>
            <path fill="#E9E9F5" d="M151.038 67.319l-2.27 1.243-.302 4.986.183-5.064 2.428-1.256z"/>
            <path fill="#E9E9F5" d="M150.933 67.083l-2.441 1.388-.289 4.999-.183-.131.34-4.973 2.678-1.44zM153.452 65.67l2.1-1.02.13.078-2.308 1.152zM153.46 65.993l2.345-1.187-2.38 1.362z"/>
            <path fill="#4373A2" d="M142.088 63.34s.682 8.55 3.596 9.458c0 0-3.176-3.909-3.596-9.457"/>
            <path fill="#C65E6E" d="M141.03 82.814s-2.984 1.989-2.669 3.14c.315 1.152 2.537.367 5.363-1.884 0 0-3.683 2.879-4.995 1.989 0 0-.998-.732 2.3-3.245M146.147 85.483s-2.983 1.99-2.668 3.14c.315 1.153 2.537.367 5.363-1.884 0 0-3.788 2.749-4.995 1.99 0 0-.945-.628 2.3-3.246"/>
            <path fill="#E9EDF7" d="M131.123 49.567s.378.67.042 2.052c0 0-1.176.712-2.016.838l-.042-2.01c.042 0 1.512-.377 2.016-.88"/>
            <path fill="#70ACA7" d="M133.768 31.286s.273 1.123-.232 2.12l-.01.386s.91-1.068.242-2.506M124.95 37.888s.405-.611.448-1.383c0 0 .259 1.286-.43 2.058l-.017-.675z"/>
            <path fill="#1E2746" d="M121.907 96.244s-.105.745.022 1.601c.127.855.935 1.187 1.564 1.064s1.605-.023 5.073-2.073c0 0 1.821-.998 1.176-1.96-.644-.964-4.7.123-4.7.123l-3.135 1.245zM115.543 92.47s-.104.746.023 1.601c.126.856.934 1.188 1.563 1.065.629-.124 1.605-.023 5.073-2.074 0 0 1.82-.997 1.177-1.96-.645-.963-4.7.123-4.7.123l-3.136 1.246z"/>
            <path fill="#F4FBFE" d="M123.71 39.613c.04-.561.42-.992.85-.962.43.03.747.51.707 1.07-.04.562-.42.993-.85.963-.43-.03-.746-.51-.707-1.071"/>
            <path stroke="#081738" stroke-width=".44" d="M123.683 39.578c.039-.562.42-.992.85-.962.43.03.746.51.707 1.07-.04.562-.42.993-.85.962-.43-.03-.747-.51-.707-1.07z"/>
            <path fill="#D7D1D0" d="M114.773 58.269c-2.018.195-1.923-2.155-1.923-2.155l-.199-4.792s-.086-2.43.317-4.788c.143-2.309 2.809-4.714 4.787-2.429 0 0 8.073.74 6.621 4.272"/>
            <path fill="#D7D1D0" d="M116.103 56.11l1.852 10.048s-.557 1.619-2.786.794c0 0-2.538-8.93-2.32-10.838.219-1.908 3.039-2.872 3.254-.005"/>
            <path fill="#6E8EC8" d="M117.722 65.781s-1.267 1.175-2.964.221l-.017-.224s1.704 1.044 3.006-.27l-.025.273z"/>
            <path fill="#886EA1" d="M115.134 70.853s.284 19.202.25 20.487c-.073.283-.08 1.173.557 1.554.561.337 2.079.732 3.144-.333.26-.259.36-.618.4-.982.361-3.294.534-12.27.882-15.632l1.409 19.957s.022 1.491 2.097 1.32c2.075-.169 1.922-1.64 1.922-1.64s.475-26.025.307-27.528c0 0-7.242-1.461-9.335-2.839 0 .042-1.633.919-1.633 5.636"/>
            <path fill="#D7D1D0" d="M116.725 53.235c-.168-1.711.485-6.264 1.574-7.517 0 .042-1.867-.415-1.826-2.67 0 0-2.553-.208-2.846 2.506 0 0-.01 2.083 1.328 3.07-.004 1.856-.53 13.895-.581 14.155-.04.206-.215 4.314-.132 5.567 0 0 .086 3.087 9.202 3.516 0 0 3.698-.215 4.558-2.144 0 0-.319-6.648-.086-10.892.282-5.142.556-6.145.556-6.145s.352-2.285-.402-3.412c-.753-1.127-4.647-4.036-4.647-4.036"/>
            <path fill="#FFD4AE" d="M128.418 69.217s.573 1.372.315 2.316c-.258.944-.344 1.83-1.09 2.173-.744.343-.86-.115-.773-.515.086-.4.258-1.086.086-1.658-.172-.572-.66-1.458-.516-2.03.143-.571 1.462-.972 1.978-.286M123.831 35.827c.803.172.774 2.002.774 2.002l.058 4.516c-.173 1.773-1.233 2.015-1.233 2.015l-.007.9s-5.226.679-5.268.637c-2.107-2.058-1.681-8.025-1.681-8.025s-.01-1.902 1.796-2.388c1.806-.485 2.465-1.315 5.561.343"/>
            <path fill="#C3BAB2" d="M118.155 44.432s2.351 1 4.243.543c1.892-.457 2.408 1.315 2.408 1.315s-.48-.329-2.552.229c-1.804.485-4.959.015-5.073-1.158l-.03-1.501 1.004.572z"/>
            <path fill="#D7D1D0" d="M124.62 60.084c-.004-1.208-.29-3.507-.306-4.554-.025-1.504-.465-3.097-.576-3.589 0 0-.666-2.004.287-3.15 0 0 .595-1.026 2.154-.88 0 0 2.567.206 2.679 4.45 0 0-.24 4.578-.191 6.271 0 0-.048 4.94-.006 6.24.044 1.3.058 4.117.058 4.117s-.788 1.43-2.551.614c0 0-1.534-4.802-1.548-9.52"/>
            <path fill="#C3BAB2" d="M128.447 57.422c.012-1.53.022-2.804.158-4.357.11-.785.183-1.57-.038-2.294-.22-.724-.558-1.633-1.051-2.22 1.06 1.119 1.613 2.715 1.395 4.284a77.172 77.172 0 0 0-.169 4.575c-.013.385-.009 1.348-.016 2.056 0 0-.069.61-.365 1.058 0 0 .144-1.375.087-1.812-.056-.436-.001-1.29-.001-1.29M123.37 51.66c.041.587.237 1.078.445 1.424l.371.407c.063.203.102.508.124.715-.41-.293-.662-.686-.834-1.13-.068-.245-.131-.448-.157-.697a1.95 1.95 0 0 1 .05-.719"/>
            <path fill="#C3BAB2" d="M124.763 60.67c-.035-.961-.16-2.638-.184-3.593-.105-4.313-.815-3.745-.815-3.745s.402.29.494 3.747c.028 1.045.097 2.123.218 2.99 0 0 .215 5.918 1.677 9.606 0 0 1.806.943 2.666-.643l-.172-9.391-.286.883.243 8.422s-.56 1.03-2.365.557c0 0-1.29-3.759-1.476-8.833"/>
            <path fill="#FFBE92" d="M122.563 40.88s-.323.9.064 1.565c0 0 .387.88 1.032.064 0 0-.193.709-.774.923-.58.214-.28 1.522-.28 1.522s-.687.193-1.268.107c0 0 .753-1.887.516-3.152-.236-1.265.71-1.029.71-1.029"/>
            <path fill="#C3BAB2" d="M114.328 63.843c.406-4.301.4-7.244.215-10.034-.244-3.72.087-7.676.087-7.676s-.603 1.158-.388 3.13l-.387-2.873s-.43 1.33.344 4.074c0 0-.344 1.973-.043 4.374s-.043 8.104-.043 8.104l.215.9z"/>
            <path fill="#4D384A" d="M124.376 36.485s.2-.309-.01-.851c-.21-.543-2.283-1.395-3.33-1.687-.713-.2-1.799.418-2.655.923l-1.315.729s-1.168.607-.917 3.444c0 0 0 3.16.372 4.303 0 0 .344 1.63 2.064 1.887 1.72.257 3.469-.615 3.555-1.773.086-1.158-.172-2.573.903-3.087 0 0 .752-.393.73.8l.014.37.245-.07s.086-1.8-.014-2.344c-.1-.543-1.152-.601-1.104-1.472.043-.787 1.175-.5 1.462-1.172"/>
            <path fill="#FFBE92" d="M123.487 41.259s.144-.63-.2-.572c-.344.058-.631.486-.46 1.373.173.886.746.486.804.114.057-.372-.115.343-.373.171-.258-.171-.286-1.143-.144-1.315.144-.171.287.2.23.4-.058.2-.172.315-.086.43 0 0 .072.214.244.156.172-.057-.158-.1-.158-.328 0-.229.143-.129.143-.43"/>
            <path fill="#C3BAB2" d="M123.999 53.939s-1.024-.417-1.374-1.143c0 0-.162.702 1.604 1.889l-.23-.746zM124.648 46.219s2.587 1.898 3.422 3.05c0 0-2.82-2.407-4.153-3.136l.731.086z"/>
            <path fill="#634977" d="M118.012 71.076s.688 1.315 2.408 2.344l.975 16.866-1.434-16.58s-1.318-.458-1.949-2.63"/>
            <path fill="#634977" d="M119.997 73.234s1.147.572 2.58.457c0 0-.974.458-2.408 0l-.172-.457z"/>
            <path fill="#081738" d="M125.322 39.515l-1.842.829.115.079.071.114 1.512-.736zM122.656 40.666c-.045.07-.079.179-.15.464 0 0-.201.365-.215 1.222 0 0-.028.334-.194.25-.301-.15.029-1.665.559-1.936"/>
            <path fill="#C7D1EA" d="M169.475 91.594l1.285 23.319c0 1.763.938 3.393 2.464 4.283l19.453 13.005c1.243.724 3.931-1.183 3.931-2.62v-23.883a4.957 4.957 0 0 0-2.464-4.282l-20.579-11.992c-1.52-.936-4.09.734-4.09 2.17"/>
            <path fill="#DEE1F2" d="M169.358 91.961v23.884c0 1.763.938 3.393 2.465 4.282l20.579 11.992c1.243.724 2.805-.17 2.805-1.605V106.63a4.957 4.957 0 0 0-2.464-4.283l-20.58-11.991c-1.242-.725-2.805.17-2.805 1.605"/>
            <path fill="#FFF" d="M190.546 103.46c.015.35-.163.644-.4.653-.236.011-.44-.265-.456-.616-.015-.35.164-.643.4-.654.236-.01.44.266.456.617M192.064 104.479c.016.35-.163.644-.4.653-.236.011-.44-.265-.456-.616-.015-.35.164-.643.4-.654.237-.01.44.266.456.617M193.582 105.498c.016.35-.163.644-.4.653-.236.011-.44-.265-.455-.616-.016-.35.164-.643.4-.653.236-.01.44.265.455.616M170.916 94v23.449l21.955 12.733v-22.827z"/>
            <path fill="#9EAFDA" d="M97.474 165.097l1.284 23.32c0 1.762.938 3.392 2.464 4.282l19.453 13.005c1.243.725 3.932-1.183 3.932-2.62v-23.883a4.957 4.957 0 0 0-2.465-4.282l-20.579-11.991c-1.52-.937-4.09.733-4.09 2.169"/>
            <path fill="#C7D1EA" d="M97.357 165.465v23.883c0 1.763.938 3.393 2.464 4.282l20.579 11.992c1.243.725 2.805-.17 2.805-1.605v-23.884a4.957 4.957 0 0 0-2.464-4.282l-20.579-11.992c-1.243-.725-2.805.17-2.805 1.606"/>
            <path fill="#FFF" d="M118.544 176.963c.016.35-.163.643-.4.654-.236.01-.44-.266-.455-.617-.016-.35.164-.643.4-.653.236-.01.44.265.455.616M120.063 177.982c.015.351-.164.644-.4.654-.237.01-.44-.266-.456-.617-.016-.35.164-.643.4-.653.236-.01.44.265.456.616M121.58 179.001c.016.351-.163.644-.399.654-.236.01-.44-.266-.456-.616-.015-.351.164-.644.4-.654.236-.01.44.265.456.616"/>
            <path fill="#DEE1F2" d="M98.914 167.504v23.448l21.956 12.733v-22.827z"/>
            <path fill="#C7D1EA" d="M92.326 132.222l-6.291-5.207a4.689 4.689 0 0 1-1.519-3.453l-1.063-8.665c0-1.2 2.248-1.75 2.98-1.077l7.242 4.761a4.689 4.689 0 0 1 1.518 3.454v8.904c0 1.076-2.135 1.955-2.867 1.283"/>
            <path fill="#C7D1EA" d="M91.308 132.914l-1.006.485.913-2.33.717.67z"/>
            <path fill="#C7D1EA" d="M90.903 129.605l.405 3.309 1.087-2.168z"/>
            <path fill="#DEE1F2" d="M92.167 132.123l-7.242-4.762a4.688 4.688 0 0 1-1.518-3.453v-8.905c0-.992 1.184-1.51 1.916-.838l7.242 4.762a4.69 4.69 0 0 1 1.518 3.454v8.904c0 .992-1.184 1.51-1.916.838"/>
            <path fill="#DEE1F2" d="M89.85 129.766l.452 3.633 1.04-2.491z"/>
            <path fill="#FFF" d="M86.66 121.241c.094.662-.169 1.247-.586 1.306-.418.058-.832-.43-.926-1.093-.093-.662.17-1.247.586-1.305.418-.06.832.43.926 1.092M89.358 122.948c.094.663-.169 1.247-.586 1.306-.418.058-.832-.43-.925-1.093-.094-.662.168-1.246.585-1.305.418-.06.832.43.926 1.092M91.717 124.263c.094.662-.169 1.247-.587 1.305-.417.06-.831-.43-.924-1.092-.094-.662.168-1.247.585-1.306.418-.058.832.43.926 1.093"/>
            <path fill="#C7D1EA" d="M173.553 79.343l-6.29-5.208a4.689 4.689 0 0 1-1.519-3.453l-1.064-8.666c0-1.2 2.248-1.749 2.98-1.077l7.242 4.762a4.69 4.69 0 0 1 1.519 3.454v8.904c0 1.076-2.136 1.956-2.868 1.284"/>
            <path fill="#C7D1EA" d="M172.536 80.035l-1.006.484.913-2.33.717.67z"/>
            <path fill="#C7D1EA" d="M172.131 76.725l.405 3.31 1.087-2.169z"/>
            <path fill="#DEE5F4" d="M173.395 79.243l-7.242-4.762a4.69 4.69 0 0 1-1.52-3.453v-8.904c0-.993 1.185-1.51 1.918-.838l7.242 4.761a4.69 4.69 0 0 1 1.518 3.454v8.904c0 .993-1.184 1.51-1.916.838"/>
            <path fill="#DEE5F4" d="M171.079 76.886l.45 3.633 1.041-2.491z"/>
            <path fill="#FFF" d="M167.887 68.361c.094.663-.168 1.247-.586 1.306-.417.059-.831-.43-.925-1.093-.094-.662.168-1.246.586-1.305.418-.059.832.43.925 1.092M170.274 69.836c.094.662-.169 1.246-.586 1.305-.417.059-.832-.43-.925-1.093-.094-.662.168-1.246.586-1.305.417-.059.831.43.925 1.093M172.944 71.383c.094.662-.168 1.247-.585 1.305-.418.059-.832-.43-.926-1.092-.094-.663.169-1.247.586-1.306.418-.059.832.431.925 1.093"/>
            <path fill="#C7D1EA" d="M167.352 160.77l6.29-5.208a4.689 4.689 0 0 0 1.52-3.453l1.063-8.666c0-1.2-2.248-1.749-2.98-1.077l-7.242 4.762a4.689 4.689 0 0 0-1.519 3.454v8.904c0 1.076 2.136 1.956 2.868 1.284"/>
            <path fill="#C7D1EA" d="M168.37 161.461l1.005.485-.913-2.33-.717.67z"/>
            <path fill="#C7D1EA" d="M168.774 158.152l-.404 3.31-1.087-2.169z"/>
            <path fill="#DEE1F2" d="M167.51 160.67l7.243-4.762a4.689 4.689 0 0 0 1.518-3.453v-8.905c0-.992-1.184-1.51-1.916-.838l-7.242 4.762a4.69 4.69 0 0 0-1.519 3.454v8.904c0 .992 1.185 1.51 1.917.838"/>
            <path fill="#DEE1F2" d="M169.827 158.313l-.452 3.633-1.04-2.491z"/>
            <path fill="#FFF" d="M173.018 149.788c-.094.663.168 1.247.586 1.306.417.058.832-.43.925-1.093.094-.662-.168-1.247-.586-1.306-.417-.058-.831.431-.925 1.093M170.32 151.495c-.094.663.169 1.247.586 1.306.417.059.832-.43.925-1.093.094-.662-.169-1.246-.586-1.305-.417-.059-.832.43-.925 1.092M167.96 152.81c-.093.662.17 1.247.587 1.305.417.06.832-.43.925-1.093.094-.662-.169-1.246-.586-1.305-.417-.059-.832.43-.925 1.093"/>
            <path fill="#9EAFDA" d="M141.957 154.655s.948.858 3.41-1.296l-1.668-1.3-1.742 2.596z"/>
            <path fill="#9EAFDA" d="M143.816 153.592l-5.623-3.458a3.944 3.944 0 0 1-1.88-3.36v-18.468c0-.942 1.219-1.398 2.023-.904l5.438 3.338a3.945 3.945 0 0 1 1.881 3.36v18.468c0 .942-1.036 1.518-1.84 1.024"/>
            <path fill="#9EAFDA" d="M138.053 127.28s-1.254-.624-3.298 1.2l2.667.932.631-2.132z"/>
            <path fill="#C7D1EA" d="M144.468 137.157v3.649l.587-.317.02-3.687zM141.889 154.64l-5.623-3.458a3.944 3.944 0 0 1-1.88-3.36v-18.467a1.206 1.206 0 0 1 1.839-1.025l5.623 3.458a3.945 3.945 0 0 1 1.88 3.36v18.468c0 .942-1.036 1.519-1.84 1.024"/>
            <path fill="#DEE1F2" d="M135.008 131.503v13.96c0 .928.487 1.79 1.285 2.27l4.796 2.884a.841.841 0 0 0 1.277-.72V136.25c0-.91-.467-1.757-1.238-2.245l-4.958-3.14a.757.757 0 0 0-1.162.638M137.82 151.214c-.388-.273-.513-.761-.28-1.091.233-.33.737-.377 1.125-.105.387.273.512.76.279 1.09-.233.33-.736.378-1.124.106"/>
            <path fill="#C7D1EA" d="M145.153 141.955c0 .327-.17.592-.38.592s-.38-.265-.38-.592c0-.327.17-.592.38-.592s.38.265.38.592"/>
            <g transform="translate(119.954 301.309)">
                <mask id="D" fill="#fff">
                    <use xlink:href="#C"/>
                </mask>
                <path fill="#E8E8EF" d="M37.603 9.61c0 5.242-8.386 9.49-18.73 9.49C8.526 19.1.141 14.852.141 9.61c0-5.24 8.385-9.488 18.73-9.488S37.603 4.37 37.603 9.61" mask="url(#D)"/>
            </g>
            <path fill="#78C9C8" d="M134.123 236.784s-2.163-.95-3.807 3.968l-3.006 11.511s-1.763 3.76.525 5.3c2.511 1.688 4.146-1.612 4.146-1.612l2.57-7.356s1.994-3.615 2.34-5.082c1.903-2.502 1.298-7.333-2.768-6.73"/>
            <path fill="#1E2746" d="M142.505 308.877s-4.16 3.766-4.442 4.348c-.281.582-.15 1.126 1.322 1.915 1.472.79 7.627-3.726 7.954-4.242.327-.517-.23-2.11-.23-2.11s-2.678 2.174-4.604.089M134.044 303.216s-4.418 4.495-4.46 5.06c-.042.565.62 1.638 1.745 1.835 1.125.197 6.89-4.492 7.09-4.875.2-.384-.306-2.013-.306-2.013l-4.069-.007z"/>
            <path fill="#30A6AD" d="M133.095 274.187s.386 26.074.34 27.82c-.1.384-.108 1.593.755 2.11.763.457 2.824.994 4.27-.452.353-.352.537-.836.544-1.333.044-3.301.29-18.11 1.197-21.228l1.913 27.102s.03 2.023 2.848 1.793c2.818-.23 2.61-2.23 2.61-2.23s.645-35.34.418-37.381c0 0-9.835-1.984-12.678-3.856 0 .057-2.217 1.248-2.217 7.655"/>
            <path fill="#E6F3FF" d="M136.563 240.34s-1.649 1.927-1.478 6.35c.17 4.422-.057 14.117 0 15.307.057 1.191.227 3.288.227 3.288s3.468 2.608 6.424 2.495c0 0-.796-4.025-.398-7.314.398-3.288-.34-9.014.227-11.112.57-2.097 2.843-6.123 3.24-8.617l-.283-.907-7.96.51z"/>
            <path fill="#9EAFDA" d="M136.676 243.798c-.113.113.285 1.248.74 1.871 0 0 .397.624 1.023.17l.966-1.36-1.137-1.361c-.057.056-.966.226-1.592.68"/>
            <path fill="#9EAFDA" d="M137.358 245.442s-.87 5.598-1.58 10.795c0 0 .898 3.095 1.808 4.683 0 0 1.6-2.784 2.112-3.691-.057-.227-1.487-11.56-1.487-11.56l-.853-.227z"/>
            <path fill="#78C9C8" d="M150.126 258.437c-.913 7.719 1.265 12.552 1.265 12.552.552 1.715.59 2.256.59 2.256-2.218 2.608-6.208 2.756-6.208 2.756-2.274.567-4.435-.567-4.435-.567s.228-2.098-.057-3.742c-.284-1.644.182-3.812.04-6.502-.166-3.142-.04-7.445-.21-12.037-.171-4.593 1.762-7.881 3.013-10.432 1.25-2.552.227-3.289.227-3.289l-.056-1.133c1.25.51 1.534 2.494 1.534 2.494s3.81 2.552 4.833 4.082c1.023 1.531.546 4.633.546 4.633s-.26 1.985-1.082 8.929M134.914 236.428s-3.468-.284-3.866 3.402c0 0-.013 2.83 1.804 4.17-.005 2.52-.721 18.868-.79 19.222-.054.279-.56 7.506-.446 9.207 0 0 .512 1.19 1.422 1.758.91.567 1.421 1.077 1.876.85.455-.227-.057-1.984.057-3.628.113-1.644.284-9.015.284-12.36 0-3.345.227-6.463 0-8.788-.228-2.324-.284-8.107 1.194-9.807 0 .056-1.592-.965-1.535-4.026"/>
            <path fill="#30A6AD" d="M133.151 240.793c0 1.078-.057 2.155-.057 3.232 0 1.077-.056 2.154 0 3.231 0 1.078.114 2.155.114 3.232 0 1.077-.057 2.155-.114 3.232-.056 1.077-.17 2.154-.284 3.231-.113 1.077-.17 2.155-.284 3.232l-.341 3.232c-.114 1.077-.228 2.154-.398 3.23 0-1.076.057-2.153.114-3.23l.17-3.232c.057-1.077.114-2.155.228-3.232.113-1.077.17-2.154.227-3.175l.17-3.231c.057-1.078-.056-2.155 0-3.232 0-2.211.171-4.365.455-6.52"/>
            <path fill="#E6F3FF" d="M138.211 243.174s3.468-1.134 6.14-3.685c0 0 .398.227.455 1.304 0 0-2.615 3.062-5.4 4.65-.058-.114-.456-1.418-1.195-2.269"/>
            <path fill="#E6F3FF" d="M137.472 241.077s.057 1.474.74 2.097c0 0-1.479.964-2.332 1.134 0 0-.094-2.908.531-3.928 0 0 .38.527 1.061.697"/>
            <path fill="#4DADBD" d="M131.958 243.798l.568 1.871c.114.284.228.624.285.907.056.34.056.624 0 1.02h-.057a3.366 3.366 0 0 1-.512-.85c-.114-.283-.114-.623-.17-.963-.057-.681-.171-1.304-.114-1.985"/>
            <path fill="#30A6AD" d="M134.97 271.239c.399-4.763.456-16.896.342-18.597-.114-2.437-.455-7.087.17-9.921l.91-2.268-.922-1.319s-1.238 1.716-1.409 6.875c0 0-.424 4.02-.652 4.7 0 0 1.278 2.104 1.107 3.407-.17 1.304-1.25 2.268-.74 4.933.399 2.041.91 7.313 1.138 9.524.057.624 0 3.459 0 3.459l.057-.793z"/>
            <path fill="#FFD4AE" d="M138.268 243.174c3.866-1.304 6.083-3.741 6.083-3.741l-.113-1.248c.34.114.739-.113 1.136-.397.398-.283.74-1.587.683-3.005-.114-1.417-1.25-1.02-1.25-1.02s-.172-4.762-.115-4.989c.17-1.53-.852-2.38-.852-2.38-4.093-2.439-6.027.112-7.618.339-1.592.227-1.308 2.665-1.308 2.665v3.174s-.057.51.057.907c.114.284.114.624.057.965-.114.34-.171 1.02-.114 1.927-.057 3.855 2.217 4.536 2.502 4.65.056.056-.057 1.303.852 2.153"/>
            <path fill="#2F3C55" d="M134.08 225.785s1.557-1.64 3.424-.463c1.163-.686 2.637-1.525 3.606-1.254 1.422.397 4.238 1.553 4.522 2.29.284.737 0 1.532 0 1.532s.853.283.853 1.7c0 1.418-.144 4.287-.428 5.25 0 0-.398-1.417-1.592-.68 0 0-.682.68-.682 1.814l-.057 1.02-1.023.454.113-1.133c0-.34-.113-.68-.341-.908-.341-.34-1.573-1.754-.048-3.11 0 0 1.384-1.725.038-2.87-.709-.308-1.552-.192-3.887.714-2.422.777-3.778-.29-3.778-.29-.042.043-1.506-.648-1.456-2.212.017-.52.044-1.121.736-1.854"/>
            <path fill="#FFBE92" d="M137.472 241.077s1.82.623 3.639-.454c.682-.397 1.25-1.247 1.705-2.154 0 0 .284 1.417-1.933 2.551-.91.454-1.649.397-2.274.794-.34.226-.455.68-.398 1.304-.455-.397-.739-1.474-.739-2.041M134.914 233.366s.511.68 1.933 1.191c.739.283 1.99.907 2.615.964 1.592.17 1.933-.17 1.933-.17s-.227.963-1.99.624c-2.046-.398-3.809-1.475-4.264-1.985-.057-.454-.227-.624-.227-.624"/>
            <path fill="#FFBE92" d="M144.238 238.242s-.114 0-.455-.17c-.114-.057-.285-.397-.455-.453 0 0 .114 2.55-1.364 3.798 0 0 1.762-1.19 2.387-1.928l-.113-1.247zM144.067 235.407s.511-1.02 1.137-.737c.625.283.284 2.268-.17 2.665-.456.397-1.024.057-1.024-.397 0 0 0-.453.398-.51.398-.057 0 .567.341.453.341-.113.682-1.19.455-1.587-.228-.397-.17.85-.284.964-.114.113-.683 0-.455-.397.057-.454-.114-.567-.398-.454"/>
            <path fill="#252A3D" d="M135.233 264.883s2.069 2.047 6.162 2.613l-.145 1.332-.025 1.163s-4.094-.567-6.083-2.438l.091-2.67z"/>
            <path fill="#ECF8FE" d="M136.796 265.993s-.442 1.027.012 2.728c0 0 .971.815 2.71.93l.073-2.536c-1.374-.437-1.445-.413-2.795-1.122"/>
            <path fill="#008994" d="M137.017 270.161l1.137 4.706 2.729 1.814-1.705-.454s1.137 1.815.966 4.082v1.304s.171-4.251-2.388-6.123l-.739-5.329z"/>
            <path fill="#C9D1EB" d="M137.7 262.45c.188 0 .34.204.34.454s-.152.453-.34.453c-.189 0-.341-.202-.341-.453 0-.25.152-.454.34-.454"/>
            <path fill="#30A6AD" d="M141.281 268.12s.284-1.757.455-5.613c.17-3.855 1.762-8.39 1.762-8.56 0-.17-.796-2.608-.796-2.608s.967-.057 1.308-.454c.341-.454-.341-2.438.569-4.706.91-2.268 1.42-3.572 1.193-5.612 0 0-.398-1.928-1.534-2.325l.113 1.247s1.308.737-.625 4.083c0 0-2.786 4.478-2.672 9.24 0 0 .17 5.217.057 6.634-.114 1.417.398 7.03.17 8.674"/>
            <path fill="#C9D1EB" d="M135.233 264.883s1.901 2.014 6.162 2.613c0 0-.216-4.054-.264-5.472-.047-1.417.071-6.638 0-7.11-.07-.473-.402-4.677 1.208-8.457 0 0 .924-2.15 1.659-3.402 0 0 .663-1.417.757-2.173 0 0-3.025 3.404-5.35 4.56 0 0 2.792-1.182 4.522-3.237 0 0-2.44 3.59-2.867 6.638-.426 3.047-.284 12.71-.284 14.032 0 1.322.166 3.968.166 3.968s-2.25 0-5.709-1.96"/>
            <path fill="#C9D1EB" d="M136.074 241.213s-.245 2.205-.194 3.096c0 0 .532-.05.816-.28 0 0 .16.816.657 1.56 0 0-1.394 9.413-1.572 10.653l1.377-10.565-.64-1.169s-.55.16-.906.16c0 0-.284 2.356-.124 4.819.16 2.462.307 9.354-.255 15.396 0 0 .06-8.841.113-10.046 0 0 .053-4.235-.196-5.67 0 0-.152-4.566.332-6.446 0 0 .468-1.331.592-1.508"/>
            <path fill="#8888B3" d="M136.82 244.384s1.03-.567 1.35-.85l.657 1.4s-.266.602-.604.992l-.87-.337.817.549 1.261 10.967s-1.275 2.829-1.845 3.815c0 0 1.721-2.345 2.112-3.691 0 0-1.417-10.856-1.26-11.39 0 0 .656-.853.71-1.03 0 0-.558-1.373-.937-1.635l-1.516.855s-.052.107.125.355"/>
            <path fill="#C8DCEC" d="M137.033 247.662l1.493 1.594.177 1.488-1.918-1.523zM136.577 250.91l2.387 1.978.237 1.843-2.867-2.274zM136.086 253.97l3.28 2.55.095.59-.485 1.017-3.092-2.54zM136.346 257.867l2.061 1.346-.821 1.707s-.86-1.612-1.24-3.053"/>
            <path fill="#008994" d="M137.91 275.607s-1.848-.425-2.322-1.323c0 0 1.658.615 2.322.756v.567z"/>
            <path fill="#FFD4AE" d="M147.308 279.928c.14-.228.203-.492.184-.759-.063-.895-.273-1.694-.81-1.694-.625 0-.362 1.041-.362 1.041s.281.82-.324 1.078c-.606.26-.678-.362-.678-.362s-.07-.304-.144-.91c-.13-1.057.087-1.754.087-1.754.512-1.701 1.08-2.551 1.08-2.551 1.535 1.7 3.24.68 3.298.51.454.793 1.42 3.458.91 4.479-.513 1.02-2.161 1.87-2.161 1.87s-.29.837-.876.893c0 0-.586.016-.676-.535-.059-.364.252-.948.472-1.306"/>
            <path fill="#FFBE92" d="M146.341 274.016s.286.93 2.418.954c0 0 .71 0 .924-.307 0 0 .876 1.558.97 3.212 0 0-.757-1.7-1.634-2.031 0 0-1.895.07-2.89-1.536l.212-.292zM147.48 279.496s-.032-1.796-.798-2.021c0 0 .911-.09.838 1.858l-.04.163z"/>
            <path fill="#78C9C8" d="M148.44 244.98s-3.85 1.38-2.942 7.074c0 0 1.774 6.728 1.817 8.324.043 1.596.554 3.484 3.158 3.408 1.47-.044 2.28-.857 2.487-2.74.179-1.63-.368-4.485-.606-5.887-.342-2.014-.826-4.103-.8-4.788 0 0 .39-4.529-1.168-5.823 0 0-.692-.13-1.946.432"/>
            <path fill="#78C9C8" d="M147.358 260.594s.39 4.896-.216 7.42l-.238 3.255s-.584 1.446-.368 2.804c0 0 1.687 1.488 3.374.259 0 0 .303-.388.498-.777.194-.388 1.751-7.332 2.076-8.798.253-1.148.72-1.84.454-4.767-.074-.815-.393-2.934-3.071-2.803-1.23.154-2.529.902-2.509 3.407"/>
            <path fill="#30A6AD" d="M146.341 246.633c-.512.907-.738 2.205-.851 3.226-.114 1.02.18 2.05.52 3.07.57 2.041.9 3.739 1.298 5.78.113.51.17 1.02.227 1.587v1.587c0 1.021-.057 2.098-.114 3.119a228.881 228.881 0 0 1-.398 6.236c-.227.908-.398 1.815-.398 2.721v-.056c.057.113.17.226.341.34.171.114.342.17.512.227.341.113.74.17 1.137.17.398 0 .74-.113 1.024-.283.284-.228.511-.51.625-.908.398-1.417.739-2.778 1.137-4.195l-.853 4.252a2.188 2.188 0 0 1-.682 1.077c-.341.283-.796.398-1.194.398-.398 0-.853-.057-1.25-.17-.399-.114-.797-.284-1.08-.795v-.057c0-.963.113-1.927.34-2.834v.057c.17-2.041.228-4.14.341-6.236.057-1.021.114-2.098.114-3.119 0-.51.057-1.02 0-1.53 0-.511-.114-1.02-.227-1.531-.398-2.041-.853-4.083-1.365-6.067-.682-2.04-.34-4.309.796-6.066"/>
            <path fill="#30A6AD" d="M146.739 271.239c.34.17.625.283.966.396.341.114.626.17.967.227.34.057.625.057.966.057.341 0 .682-.057 1.023-.057a3.165 3.165 0 0 1-.966.51c-.341.114-.739.114-1.137.057a2.498 2.498 0 0 1-1.08-.397 2.008 2.008 0 0 1-.74-.793M144.522 248.617a4.4 4.4 0 0 0 .4 1.986l.443.602c.057.284.066.7.066.984-.511-.454-.796-1.02-.966-1.644-.057-.34-.114-.624-.114-.964 0-.34.057-.68.17-.964"/>
            <path fill="#FFBE92" d="M136.696 237.797s.26.777 1.038.583l-1.038-.583zM133.13 242.926s.7-3.377 2.043-3.978c1.343-.602 3.173-.267 3.29-.093.117.175.306.917-.628.975-.934.059-1.037.102-1.037.102s.714.108.803 1.165c.11 1.288-1.532 1.034-1.532 1.034s-.175 1.456-1.518 1.63c-1.343.175-1.421-.835-1.421-.835"/>
            <path fill="#6E8EC8" d="M127.933 253.641s2.335-.466 3.036 1.281c0 0-1.869-1.28-3.036-1.28"/>
            <path fill="#FFD4AE" d="M133.13 242.97s.68-3.208 1.984-3.78c1.305-.571 3.061-.426 3.175-.26.113.166.283.719-.624.774-.908.055-1.557.194-1.557.194s1.212-.096 1.323 1.126c.112 1.223-1.447 1.19-1.447 1.19s-.17 1.383-1.475 1.548c-1.304.166-1.38-.792-1.38-.792"/>
            <path fill="#6E8EC8" d="M127.933 253.641s2.335-.466 3.036 1.281c0 0-1.869-1.28-3.036-1.28"/>
            <path fill="#78C9C8" d="M127.193 253.602l5.45-10.132s.565-.757 1.654-.252c.314.145.838.601.74 1.222 0 0-1.674 7.61-2.258 9.512-.584 1.902-1.323 2.815-1.323 2.815s-.681.64-2.861-.137c0 0-2.103-.31-1.402-3.028"/>
            <path fill="#30A6AD" d="M127.514 252.612c-.233.437-.175.786-.175.786l1.431-2.707s-1.022 1.485-1.256 1.921"/>
            <path fill="#30A6AD" d="M132.711 243.402l-4.54 8.424-.38.364 4.838-9.005.024-.045s2.044-.873 2.423 1.165c0 0-.73-1.63-2.365-.903"/>
            <path fill="#30A6AD" d="M128.205 251.564s-.545.195-.779.68c0 0 .332-.389.604-.408l.175-.272z"/>
            <path fill="#FFBE92" d="M135.222 239.132s-1.226.96-1.197 2.62c0 0-.117.466.35.757.468.291.497 1.165.497 1.165s-.273-.588-1.772-.611c0 0 .72-3.582 2.122-3.931"/>
            <path fill="#C7D1EA" d="M156.033 238.414l2.425 1.667.058 2.678-2.483-1.782z"/>
            <path fill="#9EAFDA" d="M158.458 240.08l2.569-1.397v2.62l-2.511 1.456z"/>
            <path fill="#DEE1F2" d="M156.033 238.414l2.627-1.223 2.367 1.492-2.57 1.398z"/>
            <path fill="#C7D1EA" d="M161.007 217.603s1.678 1.355.429 4.387c-2.064 5.008-4.67 5.245-5.217 10.171-.409 3.688-.186 4.565-.186 4.565l2.541 1.433 1.986-1.844s-1.11-3.339.642-6.056c1.752-2.718 6.267-10.366 3.854-13.316-2.414-2.95-4.049.66-4.049.66"/>
            <path fill="#DEE1F2" d="M154.359 215.277s4.063-2.404 5.119-2.66c1.632-.394 3.743.368 5.373 1.667 0 0-3.707-.728-7.561 2.591l-2.931-1.598z"/>
            <path fill="#9EAFDA" d="M157.387 220.03s4.141-3.567 6.061-2.929c1.577.525 1.394 3.837.012 7.102-.56 1.322-1.917 2.778-2.842 4.037-2.823 3.839-2.044 9.92-2.044 9.92l2.511-1.38s-.117-4.58 1.168-6.172c1.012-1.747 1.966-2.774 2.686-3.92 1.83-2.912 2.053-5.425 2.185-6.406.296-2.205-.114-4.088-1.407-5.377-2.802-2.795-8.33 1.847-8.33 1.847v3.277z"/>
            <path fill="#C7D1EA" d="M157.387 216.752l-3.028-1.475.014 3.285 3.014 1.467z"/>
            <path stroke="#2EAABC" d="M107.723 99.94s-1.181 9.85-12.103 14.38M96.327 111.675l-1.4 2.818 3.05 1.183M78.922 123.396s-11.172-.698-18.021 6.78"/>
            <path stroke="#2EAABC" d="M61.194 126.975l-.61 3.51 3.696-.233M220.771 130.532s-3.27-13.277-20.788-16.072M83.203 70.561c6.826-4.91 14.86-9.17 24.286-12.16"/>
            <path stroke="#2EAABC" d="M105.415 56.64l2.735 1.61-1.519 2.925M201.89 112.674l-2.647 1.553 1.713 2.95M115.197 102.736s-4.204 20.11 13.314 30.125"/>
            <path stroke="#2EAABC" d="M127.732 129.134l1.168 3.883-4.126.776M142.759 126.805s.934-19.333 21.02-21.43"/>
            <path stroke="#2EAABC" d="M162.495 103.163l2.102 2.096-2.219 2.912M67.082 146.837s28.963-13.976 63.297-1.63"/>
            <path stroke="#2EAABC" d="M68.405 143.033l-1.635 4.192 4.205 1.63M222.64 184.338s-34.257 39.83-90.937 14.054"/>
            <path stroke="#2EAABC" d="M218.786 184.338l4.515-.62-.311 4.347M134.35 197.266l-3.114.815 1.596 3.144M222.562 88.535c9.498 8.3 14.171 20.544 13.58 34.58M159.662 51.278s18.676-1.96 32.62 11.71"/>
            <path stroke="#2EAABC" d="M161.397 48.6l-2.633 2.75 2.757 2.627M233.884 121.149l2.224 2.551 2.208-2.728M222.804 92.623l-.424-4.281 4.076.932M66.147 165.471s9.42 13.977 27.172 19.878"/>
            <path stroke="#2EAABC" d="M66.81 169.78l-1.247-4.658 4.36 1.242"/>
            <path fill="#C7D1EA" d="M197.609 51.763V82.2l18.997 10.56V62.012z"/>
            <path fill="#E4EBF7" d="M196.791 52.113v30.436l18.997 10.56V62.361z"/>
            <g fill="#FFF">
                <path d="M199.05 62.75l14.013 7.686v.932l-14.014-7.745zM199.05 66.787l14.013 7.687v.932L199.05 67.66zM199.05 70.824l14.013 7.687v.932l-14.014-7.745zM199.05 74.862l14.013 7.687v.931l-14.014-7.745z"/>
            </g>
            <path stroke="#9EAFDA" stroke-linecap="round" stroke-linejoin="round" d="M212.908 60.358V59.34c0-.532.558-.88 1.038-.648l.101.049c.482.232.788.719.788 1.252v3.23a.405.405 0 0 1-.621.34 1.045 1.045 0 0 1-.489-.884v-2.917"/>
            <path fill="#C7D1EA" d="M77.865 192.297v30.436l18.997 10.56v-30.747z"/>
            <path fill="#DEE1F2" d="M77.047 192.646v30.436l18.998 10.56v-30.747z"/>
            <g fill="#FFF">
                <path d="M79.305 203.283l14.015 7.687v.931l-14.015-7.744zM79.305 207.32l14.015 7.687v.932l-14.015-7.745zM79.305 211.358l14.015 7.686v.932l-14.015-7.745zM79.305 215.395l14.015 7.687v.932l-14.015-7.745z"/>
            </g>
            <path stroke="#9EAFDA" stroke-linecap="round" stroke-linejoin="round" d="M93.164 200.892v-1.018c0-.532.558-.88 1.038-.649l.102.049c.481.232.787.72.787 1.253v3.229c0 .318-.351.51-.621.341a1.045 1.045 0 0 1-.489-.885v-2.917"/>
            <path stroke="#2EAABC" d="M152.257 136.899s27.094-10.25 53.877 7.764M205.51 141.246l1.402 3.727-4.204.311"/>
            <path fill="#9EAFDA" d="M65.02 67.916l14.869 5.087a1.67 1.67 0 0 1 1.131 1.58v19.77a.729.729 0 0 1-1.049.653l-14.483-7.058-.467-20.032z"/>
            <path fill="#9EAFDA" d="M62.802 68.498s.312-1.32 2.219-.582l.963.835-.798 1.067-2.384-1.32z"/>
            <path fill="#C7D1EA" d="M64.826 68.149l14.868 5.087a1.671 1.671 0 0 1 1.132 1.58v19.77a.729.729 0 0 1-1.05.653l-14.483-7.058-.467-20.032z"/>
            <path fill="#FFF" d="M75.384 74.51l3.642 1.445c.139.055.23.188.23.337v1.864c0 .26-.267.436-.507.334l-3.643-1.554a.363.363 0 0 1-.22-.334v-1.754c0-.257.26-.432.498-.337M70.043 72.458l3.913 1.552a.722.722 0 0 1 .456.67v.193l-4.37-2.415zM75.384 78.054l3.642 1.445c.139.055.23.188.23.336V81.7c0 .26-.267.436-.507.334l-3.643-1.554a.363.363 0 0 1-.22-.334v-1.754c0-.257.26-.432.498-.338M75.384 81.598l3.642 1.445c.139.054.23.188.23.336v1.865c0 .26-.267.436-.507.334l-3.643-1.555a.362.362 0 0 1-.22-.333v-1.755c0-.256.26-.431.498-.337M75.384 85.142l3.642 1.444c.139.055.23.188.23.337v1.865c0 .26-.267.435-.507.333l-3.643-1.554a.363.363 0 0 1-.22-.333v-1.755c0-.256.26-.431.498-.337M75.384 88.712l3.642 1.445c.139.054.23.188.23.336v1.865c0 .26-.267.436-.507.333l-3.643-1.553a.363.363 0 0 1-.22-.334V89.05c0-.256.26-.432.498-.337"/>
            <path fill="#9EAFDA" d="M63.009 68.785s-.282-.667.348-.951c-.35.465.471.87.471.87l10.533 5.857c.53.296.86.854.86 1.46v19.681a.73.73 0 0 1-1.17.58l-9.908-7.51a1.562 1.562 0 0 1-.619-1.208l-.515-18.78z"/>
            <path fill="#DEE1F2" d="M62.736 68.998s-.036-.699.365-.982c-.35.466.455.902.455.902l10.532 5.857c.53.295.86.854.86 1.46v19.68c0 .602-.69.944-1.17.58l-9.908-7.51a1.563 1.563 0 0 1-.618-1.208l-.516-18.779z"/>
            <path fill="#C7D1EA" d="M65.018 68.217s-1.56-.636-1.71-.307c0 0-.24.356.48.773l1.131.625.1-1.09z"/>
            <path fill="#9EAFDA" d="M64.35 67.98s-1.336-.3-.935.414c0 0-.314-.386-.058-.56 0 0 .3-.24 1.021.072l-.029.073z"/>
            <path fill="#C7D1EA" d="M65.004 74.679l1.167.804a.165.165 0 0 1 .06.075l5.917 14.985c.064.16-.128.3-.261.19l-1.325-1.056a.163.163 0 0 1-.049-.065l-5.759-14.733c-.063-.153.113-.294.25-.2"/>
            <path fill="#C7D1EA" d="M64.64 85.507l6.045-7.91a.168.168 0 0 1 .179-.059l1.26.656c.113.033.158.17.084.264l-6.444 7.815a.168.168 0 0 1-.222.036l-.862-.56a.167.167 0 0 1-.04-.242"/>
            <path stroke="#2EAABC" d="M191.496 59.024l1.48 4.425-4.36.544M83.12 67.487l-.623 3.571 3.815-.233M49.44 122.531s2.02-15.251 13.156-28.046"/>
            <path stroke="#2EAABC" d="M59.68 94.673l3.255-.662.31 3.137M52.06 120.854l-2.672 1.97-1.61-2.714"/>
            <path fill="#DEE1F2" d="M225.344 102.683s.563 4.676-1.877 9.413c0 0 5.294 2.631 10.555 1.586 0 0 2.168-5.298 1.326-9.715l-10.004-1.284z"/>
            <path fill="#FFF" d="M226.902 104.966s4.608.823 7.296.901c0 0-.004.134-.05.438 0 0-1.833.057-7.256-.877-.008-.212.01-.282.01-.462M226.651 106.784s4.608.822 7.296.901c0 0-.003.134-.049.438 0 0-1.834.057-7.257-.877-.007-.212.01-.282.01-.462M226.275 108.602s4.577.978 7.26 1.147c0 0-.008.134-.063.436 0 0-1.835-.004-7.223-1.121 0-.212.02-.282.026-.462M225.856 110.284s4.563 1.043 7.244 1.252c0 0-.01.133-.07.434 0 0-1.834-.03-7.206-1.225.003-.212.024-.28.032-.46"/>
            <path fill="#DEE1F2" d="M92.449 71.526s2.08 4.229 1.346 9.503c0 0 5.869.74 10.488-1.98 0 0 .292-5.714-1.966-9.607l-9.868 2.084z"/>
            <path fill="#FFF" d="M94.675 73.168s4.623-.742 7.185-1.553c0 0 .042.128.1.43 0 0-1.713.658-7.14 1.562-.078-.197-.085-.27-.145-.44M95.04 74.966s4.623-.742 7.185-1.552c0 0 .042.128.1.43 0 0-1.712.657-7.14 1.561-.077-.197-.084-.27-.144-.439M95.288 76.806s4.644-.584 7.233-1.308c0 0 .037.13.085.433 0 0-1.734.6-7.19 1.32-.07-.2-.074-.273-.128-.445M95.45 78.532s4.652-.518 7.251-1.205c0 0 .036.13.079.434 0 0-1.742.574-7.207 1.217-.068-.201-.071-.274-.123-.446"/>
            <path fill="#DEE1F2" d="M81.107 155.03s-2.53 3.977-7.424 6.107c0 0 2.432 5.377 7.17 7.886 0 0 5.04-2.736 7.189-6.69l-6.935-7.304z"/>
            <path fill="#FFF" d="M80.866 157.78s3.047 3.544 5.08 5.3c0 0-.088.102-.316.309 0 0-1.457-1.113-5.065-5.257.128-.168.187-.212.3-.352M79.519 159.03s3.047 3.544 5.08 5.3c0 0-.089.102-.316.308 0 0-1.457-1.112-5.065-5.255.128-.169.187-.213.3-.353M78.074 160.201s2.925 3.645 4.896 5.469c0 0-.09.098-.325.297 0 0-1.419-1.16-4.884-5.424.134-.164.194-.206.313-.342M76.683 161.24s2.872 3.686 4.817 5.538c0 0-.093.098-.33.294 0 0-1.401-1.182-4.805-5.494.137-.163.197-.204.318-.338"/>
            <path fill="#DEE1F2" d="M205.66 153.028s-.728 4.654-4.363 8.555c0 0 4.381 3.963 9.73 4.378 0 0 3.526-4.514 3.915-8.994l-9.281-3.939z"/>
            <path fill="#FFF" d="M206.54 155.647s4.213 2.037 6.778 2.839c0 0-.04.128-.165.408 0 0-1.782-.44-6.748-2.804.05-.206.087-.27.135-.443M205.805 157.329s4.212 2.037 6.778 2.839c0 0-.04.128-.166.408 0 0-1.78-.44-6.747-2.804.05-.206.087-.27.135-.443M204.949 158.978s4.14 2.178 6.677 3.066c0 0-.043.127-.18.402 0 0-1.764-.5-6.647-3.03.057-.205.095-.266.15-.438M204.089 160.484s4.109 2.237 6.633 3.161c0 0-.046.126-.186.4 0 0-1.757-.525-6.603-3.125.06-.204.099-.265.156-.436"/>
            <path fill="#DEE1F2" d="M123.3 181.498s.085 4.709-2.824 9.175c0 0 5 3.153 10.34 2.645 0 0 2.695-5.052 2.306-9.532l-9.822-2.288z"/>
            <path fill="#FFF" d="M124.618 183.926s4.501 1.285 7.167 1.635c0 0-.017.133-.093.431 0 0-1.83-.129-7.13-1.607.014-.211.038-.28.056-.459M124.184 185.71s4.5 1.284 7.166 1.634c0 0-.017.133-.093.43 0 0-1.83-.128-7.13-1.606.014-.21.039-.28.057-.459M123.624 187.48s4.455 1.437 7.107 1.876c0 0-.022.133-.107.428 0 0-1.825-.191-7.072-1.847.021-.21.049-.278.072-.457M123.037 189.111s4.433 1.5 7.079 1.978c0 0-.023.132-.113.426 0 0-1.822-.217-7.044-1.948.023-.21.051-.277.078-.456"/>
            <path fill="#9EAFDA" d="M179.637 168.075l-14.868 5.087a1.671 1.671 0 0 0-1.131 1.58v19.77c0 .538.564.89 1.049.654l14.483-7.06.467-20.031z"/>
            <path fill="#9EAFDA" d="M181.856 168.657s-.312-1.32-2.219-.582l-.963.835.798 1.068 2.384-1.32z"/>
            <path fill="#C7D1EA" d="M179.832 168.308l-14.868 5.087a1.67 1.67 0 0 0-1.132 1.58v19.77c0 .538.565.89 1.05.653l14.483-7.058.467-20.032z"/>
            <path fill="#FFF" d="M169.274 174.67l-3.642 1.444a.362.362 0 0 0-.23.337v1.865c0 .26.267.435.507.333l3.642-1.554a.362.362 0 0 0 .22-.334v-1.754a.363.363 0 0 0-.497-.337M174.615 172.617l-3.913 1.552a.721.721 0 0 0-.456.67v.194l4.37-2.416zM169.274 178.213l-3.642 1.445a.362.362 0 0 0-.23.336v1.865c0 .26.267.436.507.334l3.642-1.554a.362.362 0 0 0 .22-.334v-1.754a.363.363 0 0 0-.497-.338M169.274 181.757l-3.642 1.445a.362.362 0 0 0-.23.336v1.865c0 .26.267.436.507.334l3.642-1.554a.361.361 0 0 0 .22-.334v-1.754a.363.363 0 0 0-.497-.338M169.274 185.301l-3.642 1.444a.362.362 0 0 0-.23.337v1.865c0 .26.267.436.507.333l3.642-1.554a.362.362 0 0 0 .22-.333v-1.755a.363.363 0 0 0-.497-.337M169.274 188.871l-3.642 1.445a.362.362 0 0 0-.23.336v1.865c0 .26.267.436.507.333l3.642-1.553a.362.362 0 0 0 .22-.334v-1.755a.363.363 0 0 0-.497-.337"/>
            <path fill="#9EAFDA" d="M181.65 168.944s.282-.667-.349-.951c.35.466-.47.87-.47.87l-10.534 5.858a1.67 1.67 0 0 0-.86 1.46v19.68a.73.73 0 0 0 1.171.58l9.907-7.51c.38-.287.608-.732.62-1.208l.514-18.78z"/>
            <path fill="#DEE1F2" d="M181.922 169.157s.036-.698-.365-.982c.35.466-.455.902-.455.902l-10.532 5.857c-.53.295-.86.854-.86 1.46v19.68a.73.73 0 0 0 1.17.58l9.908-7.51a1.56 1.56 0 0 0 .619-1.208l.515-18.779z"/>
            <path fill="#C7D1EA" d="M179.64 168.376s1.56-.636 1.71-.307c0 0 .24.356-.479.773l-1.132.625-.099-1.09z"/>
            <path fill="#9EAFDA" d="M180.309 168.138s1.335-.298.934.415c0 0 .314-.386.058-.56 0 0-.3-.24-1.021.073l.029.072z"/>
            <path fill="#C7D1EA" d="M179.654 174.838l-1.167.804a.165.165 0 0 0-.06.075l-5.917 14.985c-.064.16.128.3.261.19l1.325-1.056a.163.163 0 0 0 .049-.065l5.76-14.733c.062-.153-.114-.294-.25-.2"/>
            <path fill="#C7D1EA" d="M180.019 185.666l-6.045-7.91a.168.168 0 0 0-.18-.059l-1.26.657a.166.166 0 0 0-.084.263l6.444 7.815c.054.068.15.083.222.036l.862-.56a.167.167 0 0 0 .041-.242"/>
        </g>
    </g>
</svg>
