<svg xmlns="http://www.w3.org/2000/svg" xmlns:xlink="http://www.w3.org/1999/xlink" width="634" height="461" viewBox="0 0 634 461">
    <defs>
        <linearGradient id="a" x1="0%" y1="50%" y2="50%">
            <stop offset=".81%" stop-color="#B84FC7"/>
            <stop offset="33.57%" stop-color="#CC53B6"/>
            <stop offset="100%" stop-color="#FF5C8B"/>
        </linearGradient>
        <linearGradient id="b" x1="0%" y1="50%" y2="50%">
            <stop offset=".81%" stop-color="#450E65"/>
            <stop offset="21.11%" stop-color="#4B0C79"/>
            <stop offset="62.42%" stop-color="#5B06AC"/>
            <stop offset="100%" stop-color="#6B00E0"/>
        </linearGradient>
        <path id="c" d="M.45 73.57L162.387.002 26.673 92.42l-15.182 75.865z"/>
        <linearGradient id="e" x1="80.631%" x2="18.735%" y1="-5.469%" y2="89.78%">
            <stop offset=".81%" stop-color="#450E65"/>
            <stop offset="21.11%" stop-color="#4B0C79"/>
            <stop offset="62.42%" stop-color="#5B06AC"/>
            <stop offset="100%" stop-color="#6B00E0"/>
        </linearGradient>
        <linearGradient id="f" x1="-.042%" x2="100.042%" y1="49.999%" y2="49.999%">
            <stop offset=".81%" stop-color="#B84FC7"/>
            <stop offset="33.57%" stop-color="#CC53B6"/>
            <stop offset="100%" stop-color="#FF5C8B"/>
        </linearGradient>
        <linearGradient id="g" x1="-.008%" x2="100.008%" y1="49.991%" y2="49.991%">
            <stop offset=".81%" stop-color="#B84FC7"/>
            <stop offset="33.57%" stop-color="#CC53B6"/>
            <stop offset="100%" stop-color="#FF5C8B"/>
        </linearGradient>
        <linearGradient id="h" x1="-.034%" x2="100.034%" y1="50.003%" y2="50.003%">
            <stop offset=".81%" stop-color="#B84FC7"/>
            <stop offset="33.57%" stop-color="#CC53B6"/>
            <stop offset="100%" stop-color="#FF5C8B"/>
        </linearGradient>
        <linearGradient id="i" x1="-.089%" x2="100.089%" y1="50.001%" y2="50.001%">
            <stop offset=".81%" stop-color="#B84FC7"/>
            <stop offset="33.57%" stop-color="#CC53B6"/>
            <stop offset="100%" stop-color="#FF5C8B"/>
        </linearGradient>
        <linearGradient id="j" x1="-27.916%" x2="235.815%" y1="161.471%" y2="-202.829%">
            <stop offset=".81%" stop-color="#450E65"/>
            <stop offset="21.11%" stop-color="#4B0C79"/>
            <stop offset="62.42%" stop-color="#5B06AC"/>
            <stop offset="100%" stop-color="#6B00E0"/>
        </linearGradient>
        <linearGradient id="k" x1="-.003%" x2="99.999%" y1="50.002%" y2="50.002%">
            <stop offset=".27%" stop-color="#7E56CC"/>
            <stop offset="22.77%" stop-color="#866AD1"/>
            <stop offset="68.57%" stop-color="#9A9DDC"/>
            <stop offset="100%" stop-color="#A9C4E5"/>
        </linearGradient>
        <linearGradient id="l" x1="114.787%" x2="29.733%" y1="107.97%" y2="30.272%">
            <stop offset=".27%" stop-color="#7E56CC"/>
            <stop offset="22.77%" stop-color="#866AD1"/>
            <stop offset="68.57%" stop-color="#9A9DDC"/>
            <stop offset="100%" stop-color="#A9C4E5"/>
        </linearGradient>
        <linearGradient id="m" x1="25.099%" x2="91.892%" y1="14.251%" y2="103.705%">
            <stop offset=".27%" stop-color="#7E56CC"/>
            <stop offset="22.77%" stop-color="#866AD1"/>
            <stop offset="68.57%" stop-color="#9A9DDC"/>
            <stop offset="100%" stop-color="#A9C4E5"/>
        </linearGradient>
        <linearGradient id="n" x1="99.875%" x2="9.304%" y1="111.731%" y2="6.422%">
            <stop offset=".27%" stop-color="#7E56CC"/>
            <stop offset="22.77%" stop-color="#866AD1"/>
            <stop offset="68.57%" stop-color="#9A9DDC"/>
            <stop offset="100%" stop-color="#A9C4E5"/>
        </linearGradient>
        <linearGradient id="o" x1=".003%" x2="99.994%" y1="50%" y2="50%">
            <stop offset=".27%" stop-color="#7E56CC"/>
            <stop offset="22.77%" stop-color="#866AD1"/>
            <stop offset="68.57%" stop-color="#9A9DDC"/>
            <stop offset="100%" stop-color="#A9C4E5"/>
        </linearGradient>
        <linearGradient id="p" x1="156.516%" x2="-21.933%" y1="146.724%" y2="7.129%">
            <stop offset=".81%" stop-color="#DCC4FF"/>
            <stop offset="34.81%" stop-color="#C8D5FF"/>
            <stop offset="100%" stop-color="#98FFFF"/>
        </linearGradient>
        <linearGradient id="q" x1="51.088%" x2="48.248%" y1="141.472%" y2="-23.055%">
            <stop offset=".81%" stop-color="#DCC4FF"/>
            <stop offset="34.81%" stop-color="#C8D5FF"/>
            <stop offset="100%" stop-color="#98FFFF"/>
        </linearGradient>
        <linearGradient id="r" x1="-13561.036%" x2="111.368%" y1="25.35%" y2="25.35%">
            <stop offset=".81%" stop-color="#B84FC7"/>
            <stop offset="33.57%" stop-color="#CC53B6"/>
            <stop offset="100%" stop-color="#FF5C8B"/>
        </linearGradient>
        <linearGradient id="s" x1="-1.572%" x2="102.82%" y1="50.032%" y2="50.032%">
            <stop offset=".81%" stop-color="#B84FC7"/>
            <stop offset="33.57%" stop-color="#CC53B6"/>
            <stop offset="100%" stop-color="#FF5C8B"/>
        </linearGradient>
        <linearGradient id="t" x1="-52.4%" x2="19309.642%" y1="51.325%" y2="51.325%">
            <stop offset=".81%" stop-color="#B84FC7"/>
            <stop offset="33.57%" stop-color="#CC53B6"/>
            <stop offset="100%" stop-color="#FF5C8B"/>
        </linearGradient>
        <linearGradient id="u" x1=".35%" x2="100.095%" y1="35.905%" y2="61.396%">
            <stop offset=".81%" stop-color="#B84FC7"/>
            <stop offset="33.57%" stop-color="#CC53B6"/>
            <stop offset="100%" stop-color="#FF5C8B"/>
        </linearGradient>
        <linearGradient id="v" x1=".297%" x2="100.064%" y1="36.573%" y2="59.766%">
            <stop offset=".81%" stop-color="#B84FC7"/>
            <stop offset="33.57%" stop-color="#CC53B6"/>
            <stop offset="100%" stop-color="#FF5C8B"/>
        </linearGradient>
        <linearGradient id="w" x1=".372%" x2="100.029%" y1="32.602%" y2="64.993%">
            <stop offset=".81%" stop-color="#B84FC7"/>
            <stop offset="33.57%" stop-color="#CC53B6"/>
            <stop offset="100%" stop-color="#FF5C8B"/>
        </linearGradient>
        <linearGradient id="x" x1="101.524%" x2="23.326%" y1="134.921%" y2="6.207%">
            <stop offset=".27%" stop-color="#7E56CC"/>
            <stop offset="29.63%" stop-color="#7352B8"/>
            <stop offset="89.46%" stop-color="#564685"/>
            <stop offset="100%" stop-color="#50447B"/>
        </linearGradient>
        <linearGradient id="y" x1="509.904%" x2="81.461%" y1="1661.95%" y2="136.95%">
            <stop offset=".27%" stop-color="#7E56CC"/>
            <stop offset="29.63%" stop-color="#7352B8"/>
            <stop offset="89.46%" stop-color="#564685"/>
            <stop offset="100%" stop-color="#50447B"/>
        </linearGradient>
        <linearGradient id="z" x1=".009%" x2="100.018%" y1="50.001%" y2="50.001%">
            <stop offset=".27%" stop-color="#7E56CC"/>
            <stop offset="29.63%" stop-color="#7352B8"/>
            <stop offset="89.46%" stop-color="#564685"/>
            <stop offset="100%" stop-color="#50447B"/>
        </linearGradient>
        <linearGradient id="A" x1="-.006%" x2="99.994%" y1="50.006%" y2="50.006%">
            <stop offset=".81%" stop-color="#724FB8"/>
            <stop offset="33.57%" stop-color="#7D56CC"/>
            <stop offset="100%" stop-color="#9868FF"/>
        </linearGradient>
        <linearGradient id="B" x1="-.005%" x2="99.995%" y1="50%" y2="50%">
            <stop offset=".81%" stop-color="#724FB8"/>
            <stop offset="33.57%" stop-color="#7D56CC"/>
            <stop offset="100%" stop-color="#9868FF"/>
        </linearGradient>
        <linearGradient id="C" x1="-7.869%" x2="106.747%" y1="36.677%" y2="63.665%">
            <stop offset=".81%" stop-color="#B84FC7"/>
            <stop offset="33.57%" stop-color="#CC53B6"/>
            <stop offset="100%" stop-color="#FF5C8B"/>
        </linearGradient>
        <linearGradient id="D" x1="-2.608%" x2="101.342%" y1="50.372%" y2="50.372%">
            <stop offset=".81%" stop-color="#B84FC7"/>
            <stop offset="33.57%" stop-color="#CC53B6"/>
            <stop offset="100%" stop-color="#FF5C8B"/>
        </linearGradient>
        <linearGradient id="E" x1="-6.757%" x2="101.417%" y1="51.226%" y2="51.226%">
            <stop offset=".81%" stop-color="#B84FC7"/>
            <stop offset="33.57%" stop-color="#CC53B6"/>
            <stop offset="100%" stop-color="#FF5C8B"/>
        </linearGradient>
        <linearGradient id="F" x1="-.001%" x2="99.999%" y1="-.01%" y2="-.01%">
            <stop offset=".81%" stop-color="#B84FC7"/>
            <stop offset="33.57%" stop-color="#CC53B6"/>
            <stop offset="100%" stop-color="#FF5C8B"/>
        </linearGradient>
        <linearGradient id="G" x1="-.001%" x2="99.999%" y1="-.01%" y2="-.01%">
            <stop offset=".81%" stop-color="#B84FC7"/>
            <stop offset="33.57%" stop-color="#CC53B6"/>
            <stop offset="100%" stop-color="#FF5C8B"/>
        </linearGradient>
        <linearGradient id="H" x1="0%" y1="-.01%" y2="-.01%">
            <stop offset=".81%" stop-color="#B84FC7"/>
            <stop offset="33.57%" stop-color="#CC53B6"/>
            <stop offset="100%" stop-color="#FF5C8B"/>
        </linearGradient>
        <linearGradient id="I" x1="-.001%" x2="99.999%" y1="-.01%" y2="-.01%">
            <stop offset=".81%" stop-color="#B84FC7"/>
            <stop offset="33.57%" stop-color="#CC53B6"/>
            <stop offset="100%" stop-color="#FF5C8B"/>
        </linearGradient>
    </defs>
    <g fill="none" fill-rule="evenodd">
        <path fill="#FFF" fill-rule="nonzero" d="M250.784 207.927l232.782-40.001-68.546 149.431-33.584-25.29-52.445 46.44-10.58-95.636z"/>
        <path fill="#ECF8FE" fill-rule="nonzero" d="M449.012 173.559H211.44c-20.879 0-37.804-16.916-37.804-37.783 0-20.868 16.925-37.783 37.804-37.783h237.572c20.88 0 37.804 16.915 37.804 37.783 0 20.866-16.926 37.783-37.804 37.783z"/>
        <path fill="#ECF8FE" fill-rule="nonzero" d="M596.196 239.048H258.821c-20.879 0-37.804-16.915-37.804-37.782 0-20.868 16.925-37.783 37.804-37.783h337.375c20.879 0 37.804 16.915 37.804 37.783 0 20.867-16.926 37.782-37.804 37.782z"/>
        <path fill="#ECF8FE" fill-rule="nonzero" d="M423.56 300.986H183.57c-20.88 0-37.804-16.916-37.804-37.783s16.925-37.783 37.804-37.783h239.99c20.879 0 37.804 16.916 37.804 37.783s-16.926 37.783-37.804 37.783z"/>
        <path fill="#ECF8FE" fill-rule="nonzero" d="M479.998 373.983H308.62c-20.879 0-37.804-16.915-37.804-37.782 0-20.868 16.925-37.783 37.804-37.783h171.378c20.88 0 37.804 16.915 37.804 37.783 0 20.867-16.926 37.782-37.804 37.782z"/>
        <path fill="url(#a)" fill-rule="nonzero" d="M235.504 206.927l232.783-40.001-68.547 149.431-33.583-25.29-52.445 46.44-10.581-95.636z" transform="translate(15.28 1)"/>
        <path fill="#3C336C" fill-rule="nonzero" d="M414.176 179.737s5.982 4.317 9.815 5.39c3.728 1.042 1.759 3.573-3.45 2.81-5.752-.843-13.42-2.146-16.333-3.909 0 0-1.228-.536.383-3.909 0 0 4.601 2.146 9.585-.382zM439.593 175.427s4.524 3.448 9.124 4.981c4.6 1.533-.997 2.989-3.527 2.452-2.53-.536-10.965-1.84-10.965-1.84l-4.754-1.148.154-2.222c0-.001 5.363 1.12 9.968-2.223z"/>
        <path fill="url(#b)" fill-rule="nonzero" d="M.45 73.57L162.387.002 26.673 92.42l-15.182 75.865z" opacity=".36" transform="translate(317.5 170.222)"/>
        <g transform="translate(317.5 170.222)">
            <mask id="d" fill="#fff">
                <use xlink:href="#c"/>
            </mask>
            <g stroke="#FFF" stroke-dasharray="2.2172,1.3858,0" mask="url(#d)">
                <path d="M52.865 55.251l8.081 66.344M45.914 57.703l8.08 66.344M38.144 61.382l8.08 66.344M31.192 65.06l8.08 66.345M24.035 68.33l8.08 66.344M16.674 71.6l8.08 66.344M9.312 75.278l8.081 66.345"/>
            </g>
        </g>
        <path fill="url(#e)" fill-rule="nonzero" d="M328.894 261.642l37.263 29.426-52.445 46.439z" opacity=".7" transform="translate(15.28 1)"/>
        <path fill="#94AAC3" fill-rule="nonzero" d="M442.366 92.5l1.82 49.954-4.264 33.228s-3.09 4.562-10.651 2.166l3.873-34.84-2.766-31.706-2.214 30.047-12.703 39.126s-5.648 3.088-11.435-.738l13.072-40.692.738-43.227c-.001 0 12.91 2.212 24.53-3.318z"/>
        <path fill="#F19C94" fill-rule="nonzero" d="M381.685 25.24l.07-1.383s1.453-.415 1.315 1.452l-1.385-.07z"/>
        <path fill="#F5F6CD" fill-rule="nonzero" d="M434.734 46.047l3.6 2.43 3.242 20.215-3.374 27.487-17.892-.103-1.022-41.996 3.118-5.288 3.96-2.814z"/>
        <g stroke-dasharray="4.1573,5.5431">
            <path stroke="url(#f)" d="M1.456 21.405L168.308.253" transform="translate(415.991 1)"/>
            <path stroke="url(#g)" d="M2.99 27.23l160.41-3.68" transform="translate(415.991 1)"/>
            <path stroke="url(#h)" d="M3.297 30.907L162.174 46.54" transform="translate(415.991 1)"/>
            <path stroke="url(#i)" d="M.843 33.973l152.13 38.317" transform="translate(415.991 1)"/>
        </g>
        <path fill="#F19C94" fill-rule="nonzero" d="M405.34 116.556l-.07 3.595c-.017 2.213.815 4.47 1.995 6.344l2.132 2.591c.353.56 1.562.851 2.156.555l.354-.177c.505-.254.788-.807.695-1.364l-1.384-3.595.095-2.833s1.358 2.764 2.71 2.605c1.43-.168-.429-2.234-1.145-3.92-.716-1.685-.809-3.242-2.905-5.184-2.096-1.941-3.363.47-3.363.47l-1.27.913z"/>
        <path fill="#F5ADAD" fill-rule="nonzero" d="M498.369 54.096c.383.165.503.277.85.624.179.179.374.38.418.518.092.292-.005.662-.165.867-.16.206-.412.589-.61.67-.935.388-1.8.612-2.672 1.266-.22.165-.536.299-.663-.032a.77.77 0 0 1-.042-.257c-.01-.629-1.44-1.735-1.058-1.91.262-.121.559-.263.755-.536a.465.465 0 0 0-.101-.64c-.142-.103 1.596.503 1.468.359a.272.272 0 0 1-.08-.168c-.006-.103.06-.175.117-.224l.88-.742c.132-.112.285-.228.428-.15.194.105.375.537.533.33"/>
        <path fill="#FFC4D0" fill-rule="nonzero" d="M488.689 56.762c5.38-3.782 12.001-5.77 18.576-5.574.188.006.398.02.478.261.083.251-.079.522-.33.604a55.122 55.122 0 0 1-7.557 1.875c-1.5.26-3.283.669-3.81 2.098-.124.34-.14.766.118 1.02.15.146.364.206.572.223 1.314.108 2.4-1.298 3.473-1.81.235-.111 1.585-.46 1.687.154.12.715-1.791 1.701-2.266 2.272-2.646 3.18-6.387 1.206-9.315 2.851.212-.659-.475-1.203-.874-1.77a4.856 4.856 0 0 1-.857-2.343"/>
        <path fill="#F19C94" fill-rule="nonzero" d="M435.564 48.051l.07-4.562s1.673.747 3.898-.403c2.223-1.149 3.45-8.343 3.45-8.343l.154-2.146-1.457-4.429-1.917-.996-4.908.306-6.977 2.836-1.073 5.271v4.997l-.576 5.81 6.433 8.364 2.903-6.705z"/>
        <path fill="url(#j)" fill-rule="nonzero" d="M418.935 29.212s.105 6.25-4.09 6.131c0 0-.573-2.468-1.789-2.12-1.073.306-1.786 2.215-.056 4.012l-.321 1.345a1.053 1.053 0 0 1-1.706.609c-1.187-.988-2.637-2.984-2.287-6.734.228-2.443 1.048-9.58 5.342-8.557 0 0 9.61-7.357 13.7 1.43 0 0 .41 2.044-.205 2.861 0 0 1.483 1.414 1.023 5.016 0 0-.288 1.913-1.055 1.952 0 0 .237-5.128-.99-6.559 0 .002-4.294 2.862-7.566.614z" transform="translate(15.28 1)"/>
        <path fill="#F19C94" fill-rule="nonzero" d="M371.236 20.156s2.365 5.056 1.388 10.199c-.174.915-1.23-.04-1.329.817-.307 2.657-.17 6.102-2.016 6.563 0 0-3.057.985-5.715.985l-.9 6.221-9.89-5.253 1.797-3.182 2.863-10.933 8.69-6.233 5.112.816z"/>
        <path fill="url(#k)" fill-rule="nonzero" d="M349.03 45.315l20.004 11.899 13.121-20.253s3.988 2.759 7.055 2.682l-15.258 27.972s-2.863 4.981-12.575-1.61c-9.838-6.676-18.02-15.94-18.02-15.94l5.673-4.75z" transform="translate(15.28 1)"/>
        <path fill="#3C336C" fill-rule="nonzero" d="M371.85 21.383l-4.703 1.542c-3.579.5-2.111 5.981-2.148 7.142l-2.453.716s-1.294-3.743-3.68-1.533c-.56.518-.173 2.202.27 2.833.825 1.17.571 2.365-.512 3.301a5.836 5.836 0 0 1-4.635 1.358l-.236-.034s-5.93-4.496-.512-18.086c0 0 1.739-3.575 7.362-3.066 4.39.4 7.784-.76 9.06-1.286.7-.289 1.453-.442 2.207-.39 1.209.081 2.695.641 3.046 2.801.525 3.23-3.067 4.702-3.067 4.702z"/>
        <path fill="#F19C94" fill-rule="nonzero" d="M358.559 197.439l1.687 4.445-7.821.306.306-4.751zM343.53 204.796l2.147 3.372-4.14 1.84-5.522-3.066 2.761-3.065z"/>
        <path fill="url(#l)" fill-rule="nonzero" d="M337.759 37.039s8.384 1.94 11.246 7.765l-.102 2.555-13.393-6.335s-.206-2.657 2.249-3.985z" transform="translate(15.28 1)"/>
        <path fill="#6E263E" fill-rule="nonzero" d="M425.806 93.138s8.78.728 11.374-.331c2.418-.988.112 3.235.112 3.235s-1.534.612-5.559.651c-1.823.018-3.97.041-5.597-.23-3.882-.646-.33-3.325-.33-3.325z"/>
        <path fill="#3C336C" fill-rule="nonzero" d="M348.744 115.695s.613 39.032-12.883 89.714c0 0 4.704 3.678 9.815.612l4.703-15.94-.204 9.81s6.747 2.247 10.632-1.43l.41-4.496s2.671-31.635 4.974-55.841c2.49-10.231 6.685-21.626 5.902-25.9l-23.35 3.47z"/>
        <path fill="#42ADE2" fill-rule="nonzero" d="M422.432 48.537s5.393 11.061 4.052 45.7c0 0-.903 14.669-1.824 20.937l-13.778-5.507s1.307-12.271 1.651-17.996c.415-6.913 2.213-25.577 2.213-25.577L408.65 87.28a2.368 2.368 0 0 0-.165 1.58c.39 1.617 1.132 7.196 1.919 26.324 0 0-2.776 2.35-5.744 1.533l-5.087-27.68s-.383-.51 1.34-7.459c1.355-5.46 6.207-20.614 7.687-25.945a7.955 7.955 0 0 1 2.411-3.872l11.42-3.224zM437.875 48.17c3.108 1.195 7.135 2.976 8.364 3.96 0 0 6.963 8.02 15.955 8.987 8.991.968 7.472 1.75 25.491-4.993 0 0 3.45 1.227 2.684 6.207 0 0-17.79 9.58-30.212 9.427 0 0-7.238-.09-13.918-3.682-.434-.233.277 16.867-1.699 39.445 0 0-4.293 6.642-9.61 8.175 0 0-.022-3.8.52-10.199.82-9.69 2.397-23.901 3.058-28.528.984-6.88.324-20.395.024-25.483-.076-1.308-.327-2.049-.657-3.315z"/>
        <path fill="#F19C94" fill-rule="nonzero" d="M400.808 30.451l1.917-2.912 4.83.306s-.23 6.744-2.837 8.89l-1.074 1.763-3.68-1.456.844-6.59z"/>
        <path fill="url(#m)" fill-rule="nonzero" d="M336.736 40.614c-6.799 2.862-6.491 16.196-5.111 32.596 5.367 24.37-2.76 40.464-2.76 40.464s14.415 10.728 31.437 2.606c0 0 1.534-28.508-5.52-48.127 0 0 10.427 6.437 12.882 3.679 2.453-2.759 5.935-29.364 5.935-29.364s-2.256-2.056-6.55-1.443l-4.753 19.925-13.393-13.59c0-.002-5.93-7.103-12.167-6.746z" transform="translate(15.28 1)"/>
        <path fill="#E94B78" fill-rule="nonzero" d="M370.55 25.784l43.217-2.665s2.147 3.219.154 7.051l-43.372-1.473c0-.001-1.226-1.993 0-2.913z"/>
        <path fill="url(#n)" fill-rule="nonzero" d="M373.984 42.224l.39-2.082a.817.817 0 0 0-.728-.971c-1.099-.094-3.107-.431-5.52-1.597a.573.573 0 0 0-.817.395l-.54 2.7a.82.82 0 0 0 .428.891c.926.48 3.005 1.34 5.992 1.337a.824.824 0 0 0 .795-.673z" transform="translate(15.28 1)"/>
        <path fill="#F19C94" fill-rule="nonzero" d="M399.211 35.75c.814-1.416.088-3.18.088-4.81 0-1.023.305-2.043.866-2.898.92-1.4 2.467-2.31 3.5-3.527l.192.038c1.205 1.31.122 2.535-.577 3.562-.393.579-.952 1.13-.948 1.829.004.626.47 1.154.59 1.768.08.404.006.822-.078 1.224a23.597 23.597 0 0 1-.93 3.257 1.6 1.6 0 0 1-.565.766c-.705.499-1.302.056-1.804-.353-.181-.148-.37-.308-.444-.53-.075-.222.027-.518.257-.564"/>
        <path fill="url(#o)" fill-rule="nonzero" d="M382.017 36.689l1.092-1.898c.2-.347.673-.438.973-.171.774.685 2.44 1.807 5.427 2.307a.64.64 0 0 1 .51.846l-.673 1.872a.631.631 0 0 1-.557.423c-1.077.062-4.03-.039-6.67-2.6a.645.645 0 0 1-.102-.779z" transform="translate(15.28 1)"/>
        <path fill="#302838" fill-rule="nonzero" d="M360.119 199.125c2.221.758 4.69 1.997 7.457 2.457 1.122.187 2.892.719 3.999.982 1.107.263 2.188 1.123 2.229 2.259.033.914-3.154 1.367-4.056 1.518-5.19.874-11.904.6-17.732-.932-.887-.234-1.37-.59-1.738-1.43-.321-.734-.093-2.017.204-2.759.15-.375.423-.835.818-.919.352-.075.893.196 1.194.394 1.274.836 2.94 1.24 4.34.64.507-.22.954-.557 1.395-.891l1.95-1.479M333.876 210.25c-.128 1.258.962 2.498 2.16 2.91.686.235 2.783.375 3.507.422 5.022.336 10.11.686 15.131 1.022 1.36.09 3.476.511 4.112-.509.377-1.417-.84-2.819-2.203-3.365-1.362-.547-3.08-.947-4.502-1.315-1.775-.46-3.136-1.076-4.756-1.935-.475-.25-.98-.494-1.516-.485-.564.01-1.08.295-1.598.519-2.472 1.061-6.412.477-7.364-1.493l-.363-.19c-.413.394-2.42 2.56-2.608 4.419z"/>
        <path fill="url(#p)" fill-rule="nonzero" d="M570.437 245.408c.158-8.378-6.511-15.297-14.894-15.455a15.255 15.255 0 0 0-3.582.36 16.48 16.48 0 0 0 .993-5.342c.169-8.997-6.878-16.446-15.82-16.842a19.248 19.248 0 0 0 1.62-7.39c.2-10.663-8.287-19.47-18.957-19.67-10.669-.2-19.48 8.282-19.68 18.946-.05 2.67.445 5.223 1.382 7.555a15.755 15.755 0 0 0-1.674-.122c-8.638-.161-15.77 6.705-15.933 15.337a15.57 15.57 0 0 0 1.166 6.225c-7.96.593-14.306 7.158-14.459 15.293-.161 8.633 6.709 15.76 15.346 15.923.832.016 1.65-.035 2.448-.146l64.138-.03a15.308 15.308 0 0 0 5.478-.003h.185l-.007-.035c6.87-1.343 12.113-7.325 12.25-14.604z" transform="translate(15.28 1)"/>
        <path fill="url(#q)" fill-rule="nonzero" d="M174.436 258.18c-.102-4.84-3.808-8.756-8.503-9.248a9.763 9.763 0 0 0 2.342-6.566c-.113-5.416-4.599-9.715-10.018-9.601a9.84 9.84 0 0 0-2.836.48 21.75 21.75 0 0 0 .868-6.57c-.252-12.018-10.203-21.556-22.228-21.305-12.023.252-21.567 10.197-21.316 22.215.039 1.852.31 3.645.782 5.353-9.607.254-17.217 8.215-17.015 17.83.202 9.648 8.191 17.305 17.845 17.103.313-.006.624-.022.932-.045l49.256.049c.194.007.387.01.583.007.048 0 .095-.004.143-.006h.165l-.003-.008c5.107-.27 9.112-4.542 9.003-9.688z" transform="translate(15.28 1)"/>
        <path stroke="#FFF" stroke-dasharray="2.2172,1.3858,0" stroke-width=".832" d="M319.607 208.781l20.089 13.028M311.785 212.612l20.09 13.03M308.411 220.43l18.71 11.8M381.948 248.598l20.09 13.028M374.126 252.43l20.09 13.028M370.753 260.247l18.709 11.8" opacity=".84"/>
        <g stroke-width="2">
            <path stroke="url(#r)" d="M304.358.883c-.76.179-1.505.37-2.233.571" transform="translate(15.28 335.02)"/>
            <path stroke="url(#s)" stroke-dasharray="4.1193,5.4924" d="M296.363 3.383c-25.729 10.211-30.496 34.85-69.396 38.9-53.118 5.53-53.118 44.24-53.118 44.24s-.554 22.12 19.92 32.075c10.475 5.093 27.816 11.532 47.585-2.212 12.726-8.848 17.953-34.593 10.513-50.324-12.4-26.22-53.949-38.85-107.898-10.508C66.151 96.436 18.913 66.303 3.88 52.678" transform="translate(15.28 335.02)"/>
            <path stroke="url(#t)" d="M1.683 50.587a41.077 41.077 0 0 1-1.577-1.669" transform="translate(15.28 335.02)"/>
        </g>
        <path fill="url(#u)" fill-rule="nonzero" d="M530.755 321.996l-7.502-8.15-10.579 7.875-8.033-8.59-9.681 6.187 8.357-2.244 7.428 7.232-5.03 2.087 13.819.835-5.302-2.571 9.015-6.69z" transform="translate(15.28 1)"/>
        <path fill="url(#v)" fill-rule="nonzero" d="M490.935 343.57l-7.583-8.074-10.567 8.713-8.05-9.243-9.62 6.282 8.334-2.326 7.5 7.157-5.009 2.138 13.827.697-5.328-2.518 8.949-6.78z" transform="translate(15.28 1)"/>
        <path fill="url(#w)" fill-rule="nonzero" d="M535.77 356.545l-7.241-8.38-10.372 7.525-8.209-8.828-9.871 5.879 8.424-1.979 7.196 7.463-5.094 1.927 13.786 1.27-5.218-2.737 9.222-6.402z" transform="translate(15.28 1)"/>
        <path stroke="#D7E4F9" stroke-linecap="round" stroke-linejoin="round" stroke-width="5" d="M265.702 72.39h39.57M503.262 143.176h28.557M468.009 284.066h23.927M178.431 196.853h26.65"/>
        <path fill="#F1C8A8" fill-rule="nonzero" d="M426.56 92.232s6.764.75 10.163.06l-.075.83s-6.907.783-10.127.093l.039-.983z"/>
        <path fill="url(#x)" fill-rule="nonzero" d="M342.896 58.88l4.87 3.59c1.627 1.177 3.252 2.35 4.91 3.47a110.154 110.154 0 0 0 5.058 3.227c1.734.995 3.488 1.956 5.328 2.816-1.978-.452-3.902-1.17-5.736-2.055-1.83-.896-3.578-1.947-5.27-3.073-3.341-2.312-6.482-4.922-9.16-7.976z" transform="translate(15.28 1)"/>
        <path fill="#CF6461" fill-rule="nonzero" d="M435.634 43.489l-4.077-1.63s1.722 2.26 4.005 2.882l.072-1.252z"/>
        <path fill="url(#y)" fill-rule="nonzero" d="M341.899 61.255l3.68-.553v1.106z" transform="translate(15.28 1)"/>
        <path fill="url(#z)" fill-rule="nonzero" d="M332.62 100.875s1.765-9.273 2.454-13.564c0 0 .351 6.763-2.453 13.564z" transform="translate(15.28 1)"/>
        <path fill="#F19C94" fill-rule="nonzero" d="M383.252 36.185s-1.936-1.221-1.844-7.12c0 0 .691.138 1.498-.07.68-.62 1.134-2.386.991-4.148 0 0-.193-2.729.946-2.788 1.314-.07 1.198 1.682 1.198 1.682s.415-.263 1.315-.115c.348.057.771.575 1.268.6 2.398.114 2.513 1.82 2.236 3.755-.276 1.936-1.336 6.637-2.166 8.11l-.738 4.61-4.888-1.291.184-3.225zM403.725 23.765l3.873-.208s-.415-1.29-1.336-1.29c-.922 0-1.799.346-2.537 1.498z"/>
        <path fill="#EF8781" fill-rule="nonzero" d="M402.333 29.944s2.245 1.932 2.039 4.213c0 0-.827-2.759-2.039-4.213z"/>
        <path fill="#CF6461" fill-rule="nonzero" d="M361.73 30.735s-.691-2.488-2.179-1.313c0 0-.726.656-.034 1.693 0 0 0-1.555.761-1.452.762.102.762.863.347 1.106-.415.242-.588.69.138 1.037.726.346-.346-1 .967-1.07zM361.028 36.738s3.596 2.12 8.023 1.06c0 0-7.655 2.81-8.023-1.06z"/>
        <path fill="#2C2355" fill-rule="nonzero" d="M350.33 190.06s13.095-40.6 15.861-52.766c0 0-8.715 45.347-15.908 57.698l.047-4.932z"/>
        <path fill="#CF6461" fill-rule="nonzero" d="M429.548 36.784s.07-1.797-1.177-1.452c-1.246.345.692 2.627.692 2.627s-1.038-2.144-.415-2.212c.623-.069.415 1.314.415 1.314l.485-.277z"/>
        <path fill="#F1C8A8" fill-rule="nonzero" d="M432.66 54.757l-5.257 2.004-4.997-7.969 4.513 9.49 5.672-3.041 5.325 3.18.692-4.632-.139-1.52-1.037 4.769z"/>
        <path fill="url(#A)" fill-rule="nonzero" d="M414.821 55.554s2.629 3.457 5.257.139l-2.767-1.452-2.49 1.313z" transform="translate(15.28 1)"/>
        <path fill="url(#B)" fill-rule="nonzero" d="M416.205 56.522l-2.767 17.697 3.873 5.392 3.182-5.254-2.213-17.973z" transform="translate(15.28 1)"/>
        <path fill="#6E263E" fill-rule="nonzero" d="M430.378 111.303l1.106-7.005 2.859-1.935-2.214 3.041-.184 22.857z"/>
        <path stroke="url(#C)" stroke-dasharray="4.1573,5.5431" stroke-width="2" d="M.808 329.969s27.395 53.126 75.48 66.49" transform="translate(1 1)"/>
        <path stroke="url(#D)" stroke-dasharray="4.1573,5.5431" stroke-width="2" d="M47.21 344.844S-2.585 314.982 5.715 232.035" transform="translate(1 1)"/>
        <path stroke="url(#E)" stroke-dasharray="4.1573,5.5431" stroke-width="2" d="M206.56 407.884s-8.3 24.884 14.938 29.862" transform="translate(1 1)"/>
        <path stroke="url(#F)" stroke-dasharray="4.1573,5.5431" stroke-width="2" d="M202.516 85.417h35.412" transform="translate(1 1)"/>
        <path stroke="url(#G)" stroke-dasharray="4.1573,5.5431" stroke-width="2" d="M270.021 148.46h47.586" transform="translate(1 1)"/>
        <path stroke="url(#H)" stroke-dasharray="4.1573,5.5431" stroke-width="2" d="M287.727 167.263h-68.612" transform="translate(1 1)"/>
        <path stroke="url(#G)" stroke-dasharray="4.1573,5.5431" stroke-width="2" d="M553.322 151.779h48.692M567.708 138.506h50.906" transform="translate(1 1)"/>
        <path stroke="url(#I)" stroke-dasharray="4.1573,5.5431" stroke-width="2" d="M402.818 334.273h44.266" transform="translate(1 1)"/>
    </g>
</svg>
