<svg xmlns="http://www.w3.org/2000/svg" width="766" height="352" viewBox="0 0 766 352">
    <defs>
        <linearGradient id="a" x1="48.793%" x2="82.052%" y1="33.526%" y2="-271.687%">
            <stop offset=".81%" stop-color="#B84FC7"/>
            <stop offset="33.57%" stop-color="#CC53B6"/>
            <stop offset="100%" stop-color="#FF5C8B"/>
        </linearGradient>
        <linearGradient id="b" x1="-49.97%" x2="50.03%" y1="50%" y2="50%">
            <stop offset=".81%" stop-color="#450E65"/>
            <stop offset="21.11%" stop-color="#4B0C79"/>
            <stop offset="62.42%" stop-color="#5B06AC"/>
            <stop offset="100%" stop-color="#6B00E0"/>
        </linearGradient>
        <linearGradient id="c" x1="21.373%" x2="77.32%" y1="19.222%" y2="85.235%">
            <stop offset=".81%" stop-color="#FF666F"/>
            <stop offset="24.71%" stop-color="#F05271"/>
            <stop offset="73.37%" stop-color="#CA1F76"/>
            <stop offset="100%" stop-color="#B30079"/>
        </linearGradient>
        <linearGradient id="d" x1="-113.404%" x2="71.604%" y1="115.886%" y2="31.404%">
            <stop offset=".27%" stop-color="#7E56CC"/>
            <stop offset="22.77%" stop-color="#866AD1"/>
            <stop offset="68.57%" stop-color="#9A9DDC"/>
            <stop offset="100%" stop-color="#A9C4E5"/>
        </linearGradient>
        <linearGradient id="e" x1="90.798%" x2="10.671%" y1="131.021%" y2="-49.167%">
            <stop offset=".81%" stop-color="#724FB8"/>
            <stop offset="33.57%" stop-color="#7D56CC"/>
            <stop offset="100%" stop-color="#9868FF"/>
        </linearGradient>
        <linearGradient id="f" x1=".001%" x2="99.999%" y1="50.027%" y2="50.027%">
            <stop offset=".81%" stop-color="#724FB8"/>
            <stop offset="33.57%" stop-color="#7D56CC"/>
            <stop offset="100%" stop-color="#9868FF"/>
        </linearGradient>
        <linearGradient id="g" x1=".002%" x2="99.999%" y1="50.034%" y2="50.034%">
            <stop offset=".81%" stop-color="#724FB8"/>
            <stop offset="33.57%" stop-color="#7D56CC"/>
            <stop offset="100%" stop-color="#9868FF"/>
        </linearGradient>
        <linearGradient id="h" x1=".007%" x2="100.001%" y1="50.004%" y2="50.004%">
            <stop offset=".81%" stop-color="#724FB8"/>
            <stop offset="33.57%" stop-color="#7D56CC"/>
            <stop offset="100%" stop-color="#9868FF"/>
        </linearGradient>
        <linearGradient id="i" x1="88.037%" x2="-20.324%" y1="16.91%" y2="111.176%">
            <stop offset=".81%" stop-color="#B84FC7"/>
            <stop offset="33.57%" stop-color="#CC53B6"/>
            <stop offset="100%" stop-color="#FF5C8B"/>
        </linearGradient>
        <linearGradient id="j" x1="81.845%" x2="-17.921%" y1="-52.255%" y2="223.745%">
            <stop offset=".81%" stop-color="#450E65"/>
            <stop offset="21.11%" stop-color="#4B0C79"/>
            <stop offset="62.42%" stop-color="#5B06AC"/>
            <stop offset="100%" stop-color="#6B00E0"/>
        </linearGradient>
        <linearGradient id="k" x1="25.405%" x2="80.408%" y1="9.981%" y2="78.991%">
            <stop offset=".81%" stop-color="#FF666F"/>
            <stop offset="24.7%" stop-color="#F05271"/>
            <stop offset="55.96%" stop-color="#D83274"/>
            <stop offset="100%" stop-color="#B30079"/>
        </linearGradient>
        <linearGradient id="l" x1="0%" x2="99.999%" y1="50%" y2="50%">
            <stop offset=".81%" stop-color="#B84FC7"/>
            <stop offset="33.57%" stop-color="#CC53B6"/>
            <stop offset="100%" stop-color="#FF5C8B"/>
        </linearGradient>
        <linearGradient id="m" x1=".001%" y1="50%" y2="50%">
            <stop offset=".81%" stop-color="#B84FC7"/>
            <stop offset="33.57%" stop-color="#CC53B6"/>
            <stop offset="100%" stop-color="#FF5C8B"/>
        </linearGradient>
        <linearGradient id="n" x1="446.455%" x2="-188.169%" y1="26.262%" y2="64.837%">
            <stop offset=".81%" stop-color="#B84FC7"/>
            <stop offset="33.57%" stop-color="#CC53B6"/>
            <stop offset="100%" stop-color="#FF5C8B"/>
        </linearGradient>
        <linearGradient id="o" x1="79.185%" x2="-50.897%" y1="25.602%" y2="134.423%">
            <stop offset=".81%" stop-color="#B84FC7"/>
            <stop offset="33.57%" stop-color="#CC53B6"/>
            <stop offset="100%" stop-color="#FF5C8B"/>
        </linearGradient>
        <linearGradient id="p" x1="171.207%" x2="-24.562%" y1="33.468%" y2="69.02%">
            <stop offset=".81%" stop-color="#B84FC7"/>
            <stop offset="33.57%" stop-color="#CC53B6"/>
            <stop offset="100%" stop-color="#FF5C8B"/>
        </linearGradient>
        <linearGradient id="q" x1="-49.98%" x2="50.02%" y1="50%" y2="50%">
            <stop offset=".81%" stop-color="#450E65"/>
            <stop offset="21.11%" stop-color="#4B0C79"/>
            <stop offset="62.42%" stop-color="#5B06AC"/>
            <stop offset="100%" stop-color="#6B00E0"/>
        </linearGradient>
        <linearGradient id="r" x1="56.044%" x2="47.994%" y1="210.559%" y2="27.608%">
            <stop offset=".81%" stop-color="#724FB8"/>
            <stop offset="33.57%" stop-color="#7D56CC"/>
            <stop offset="100%" stop-color="#9868FF"/>
        </linearGradient>
        <linearGradient id="s" x1="79.205%" x2="42.242%" y1="242.376%" y2="-5.225%">
            <stop offset=".27%" stop-color="#7E56CC"/>
            <stop offset="22.77%" stop-color="#866AD1"/>
            <stop offset="68.57%" stop-color="#9A9DDC"/>
            <stop offset="100%" stop-color="#A9C4E5"/>
        </linearGradient>
        <linearGradient id="t" x1="-30.882%" x2="141.195%" y1="70.508%" y2="31.639%">
            <stop offset=".27%" stop-color="#7E56CC"/>
            <stop offset="22.77%" stop-color="#866AD1"/>
            <stop offset="68.57%" stop-color="#9A9DDC"/>
            <stop offset="100%" stop-color="#A9C4E5"/>
        </linearGradient>
        <linearGradient id="u" x1=".001%" x2="100.002%" y1="50%" y2="50%">
            <stop offset=".81%" stop-color="#450E65"/>
            <stop offset="21.11%" stop-color="#4B0C79"/>
            <stop offset="62.42%" stop-color="#5B06AC"/>
            <stop offset="100%" stop-color="#6B00E0"/>
        </linearGradient>
        <linearGradient id="v" x1="50.961%" x2="48.875%" y1="110.878%" y2="-26.599%">
            <stop offset=".81%" stop-color="#450E65"/>
            <stop offset="21.11%" stop-color="#4B0C79"/>
            <stop offset="62.42%" stop-color="#5B06AC"/>
            <stop offset="100%" stop-color="#6B00E0"/>
        </linearGradient>
        <linearGradient id="w" x1=".001%" x2="100.004%" y1="50.008%" y2="50.008%">
            <stop offset=".27%" stop-color="#7E56CC"/>
            <stop offset="22.77%" stop-color="#866AD1"/>
            <stop offset="68.57%" stop-color="#9A9DDC"/>
            <stop offset="100%" stop-color="#A9C4E5"/>
        </linearGradient>
        <linearGradient id="x" x1="50.448%" x2="49.784%" y1="98.889%" y2="-7.466%">
            <stop offset=".81%" stop-color="#8E4FC7"/>
            <stop offset="32.4%" stop-color="#A244BA"/>
            <stop offset="96.8%" stop-color="#D52799"/>
            <stop offset="100%" stop-color="#D82597"/>
        </linearGradient>
        <linearGradient id="y" x1="75.66%" x2="12.791%" y1="170.769%" y2="-87.985%">
            <stop offset=".81%" stop-color="#8E4FC7"/>
            <stop offset="32.4%" stop-color="#A244BA"/>
            <stop offset="96.8%" stop-color="#D52799"/>
            <stop offset="100%" stop-color="#D82597"/>
        </linearGradient>
        <linearGradient id="z" x1="97.278%" x2="60.041%" y1="98.006%" y2="61.799%">
            <stop offset=".81%" stop-color="#724FB8"/>
            <stop offset="33.57%" stop-color="#7D56CC"/>
            <stop offset="100%" stop-color="#9868FF"/>
        </linearGradient>
        <linearGradient id="A" x1="133.183%" x2="-210.178%" y1="165.623%" y2="-318.772%">
            <stop offset=".81%" stop-color="#724FB8"/>
            <stop offset="33.57%" stop-color="#7D56CC"/>
            <stop offset="100%" stop-color="#9868FF"/>
        </linearGradient>
        <linearGradient id="B" x1="49.964%" x2="44.889%" y1="32.394%" y2="-2076.308%">
            <stop offset=".81%" stop-color="#8E4FC7"/>
            <stop offset="32.4%" stop-color="#A244BA"/>
            <stop offset="96.8%" stop-color="#D52799"/>
            <stop offset="100%" stop-color="#D82597"/>
        </linearGradient>
        <linearGradient id="C" x1="-.001%" y1=".02%" y2=".02%">
            <stop offset=".81%" stop-color="#B84FC7"/>
            <stop offset="33.57%" stop-color="#CC53B6"/>
            <stop offset="100%" stop-color="#FF5C8B"/>
        </linearGradient>
        <linearGradient id="D" x1="0%" x2="99.999%" y1=".02%" y2=".02%">
            <stop offset=".81%" stop-color="#B84FC7"/>
            <stop offset="33.57%" stop-color="#CC53B6"/>
            <stop offset="100%" stop-color="#FF5C8B"/>
        </linearGradient>
        <linearGradient id="E" x1="0%" x2="100.001%" y1=".01%" y2=".01%">
            <stop offset=".81%" stop-color="#B84FC7"/>
            <stop offset="33.57%" stop-color="#CC53B6"/>
            <stop offset="100%" stop-color="#FF5C8B"/>
        </linearGradient>
        <linearGradient id="F" x1="0%" x2="100.001%" y1=".02%" y2=".02%">
            <stop offset=".81%" stop-color="#B84FC7"/>
            <stop offset="33.57%" stop-color="#CC53B6"/>
            <stop offset="100%" stop-color="#FF5C8B"/>
        </linearGradient>
    </defs>
    <g fill="none" fill-rule="evenodd">
        <g>
            <path fill="#F4F2F9" fill-rule="nonzero" d="M548.636 283.197H14.548c-7.498 0-13.576-6.078-13.576-13.576V43.882c0-7.497 6.078-13.576 13.576-13.576H574.28v227.247c-.001 14.163-11.482 25.644-25.645 25.644z"/>
            <path fill="#EEF5FF" fill-rule="nonzero" d="M401.102 229.259h95.336V6.809L301.353 8.574l-6.179 221.568z"/>
            <path fill="#D9E9FC" fill-rule="nonzero" d="M401.102 229.259h33.544v9.71h-34.427s2.208-11.035.883-9.71z"/>
            <g transform="translate(24.137 5.029)">
                <ellipse cx="34.168" cy="316.918" fill="#BFCAEF" fill-rule="nonzero" opacity=".35" rx="19.42" ry="2.648"/>
                <ellipse cx="313.702" cy="329.864" fill="#BFCAEF" fill-rule="nonzero" opacity=".35" rx="35.31" ry="7.944"/>
                <ellipse cx="150.69" cy="338.691" fill="#BFCAEF" fill-rule="nonzero" opacity=".35" rx="35.31" ry="7.944"/>
                <path fill="#BFCAEF" fill-rule="nonzero" d="M19.738 37.615l-6.124 4.746 5.518 258.837 354.965 5.568s3.31-4.827 5.42-9.213V36.915s-333.393.224-357.31-.125a3.938 3.938 0 0 0-2.469.825z"/>
                <path fill="#EEF5FF" fill-rule="nonzero" d="M13.702 42.028v264.69h360.385V42.435s-360.385 0-360.385-.407z"/>
                <path fill="#D9E9FC" fill-rule="nonzero" d="M13.702 306.718h360.385v-3.63H13.94s-.22 1.471-.237 3.63zM331.825 254.776H95.328a3.723 3.723 0 0 1-3.712-3.713V83.385a3.723 3.723 0 0 1 3.712-3.712h236.497a3.723 3.723 0 0 1 3.712 3.712v167.678a3.723 3.723 0 0 1-3.712 3.713z"/>
                <path fill="#FBFBFC" fill-rule="nonzero" d="M328.379 250.183H100.024a3.723 3.723 0 0 1-3.712-3.712V87.751a3.723 3.723 0 0 1 3.712-3.712H328.38a3.723 3.723 0 0 1 3.712 3.713v158.72c0 2.041-1.67 3.711-3.712 3.711z"/>
                <path fill="#77C0E0" fill-rule="nonzero" d="M204.517 159.277l13.992-11.826c.297-.253.625-.467.975-.64l3.66-1.816c.231-.115.465.15.323.365l-1.997 3.015a4.832 4.832 0 0 1-.865.985l-14.13 12.268-1.958-2.351z"/>
                <path fill="#BFCAEF" fill-rule="nonzero" d="M635.024 264.955H437.158c-17.401 0-31.507-14.106-31.507-31.507V57.428c0-17.402 14.106-31.508 31.507-31.508h197.866c17.401 0 31.507 14.106 31.507 31.507v176.021c0 17.401-14.106 31.507-31.507 31.507z"/>
                <path fill="#F4F2F9" fill-rule="nonzero" d="M630.544 256.405H441.638c-14.72 0-26.654-11.934-26.654-26.655V61.126c0-14.72 11.934-26.654 26.654-26.654h188.906c14.72 0 26.654 11.934 26.654 26.654V229.75c0 14.722-11.934 26.656-26.654 26.656z"/>
                <g fill-rule="nonzero">
                    <path fill="#FDE6B2" d="M156.124 333.79c.203.338 3.122 4.14 3.122 4.14l-4.82 2.783-8.144-3.598 1.765-3.121 8.077-.204z"/>
                    <path fill="#2A2338" d="M147.378 337.155a9.802 9.802 0 0 0 4.946 1.984c2.147.216 4.629-.566 5.539-2.719.11-.259.208-.55.431-.695.246-.16.557-.087.834-.01a97.23 97.23 0 0 0 16.837 3.098c.5.047 1.052.118 1.384.532.68.85.572 1.88.118 2.841-1.392 2.948-11.305 3.702-16.428 3.032-4.147-.54-9.171-.053-13.143-.605-1.7-.236-2.82-2.2-2.71-3.913.09-1.396.346-2.749.917-4.082l1.275.537z"/>
                </g>
                <path fill="#EF948E" fill-rule="nonzero" d="M601.505 211.046c.084-.017.543 1.222.543 1.222s-.492 1.07-.543 1.086c-.052.017-3.003-.849-2.986-.899.017-.051.187-1.408.187-1.408h2.799zM621.595 204.146l.339 1.968 2.76-1.244v-1.222l-1.38-.882z"/>
                <path fill="url(#a)" fill-rule="nonzero" d="M657.234 234.123l-242.408-.232s1.127 20.353 21.43 22.412l199.351.147s20.578-1.695 21.627-22.327z"/>
                <path fill="#FDE6B2" fill-rule="nonzero" d="M523.723 233.648l-.204 2.443 5.362.136-.204-3.394zM537.568 232.63l1.494 2.036 3.597-3.461-2.172-1.697z"/>
                <path fill="#F19C94" fill-rule="nonzero" d="M201.594 162.733s2.943-6.474 5.297-8.24c2.353-1.764 7.797-2.206 7.797-2.206s4.266-2.942 5.444-2.5c1.176.44-.295 2.5-2.355 4.265 0 0-.441 3.237-.588 5.296-.147 2.06-3.42 5.518-6.951 6.732-3.532 1.214-5.076 1.324-6.51 2.427 0 0-5.591-2.942-2.134-5.774z"/>
                <path fill="#21C1B5" fill-rule="nonzero" d="M523.111 207.653l14.072 26.651s3.891-1.448 5.294-4.343l-9.456-26.788-9.91 4.48z"/>
                <path fill="#BB1F78" fill-rule="nonzero" d="M523.292 235.118s-.724 5.34.09 6.606c.815 1.268 13.937.272 13.937.272s1.991-2.263-2.172-2.714c-4.163-.453-6.516-4.344-6.516-4.344l-5.339.18z"/>
                <path fill="#CF5C71" fill-rule="nonzero" d="M522.163 172.728a25.74 25.74 0 0 1 4.627-2.918c.289-.142.588-.28.91-.3.599-.036 1.136.342 1.616.702 1.221.915 2.476 1.867 3.234 3.19.063.11.123.248.06.357-.053.09-.169.122-.273.132-1.25.123-2.166-1.394-3.42-1.39-.768.003-1.396.572-2.077.925-.686.356-1.46.501-2.221.636-.58.103-1.206.197-1.737-.057a1.465 1.465 0 0 1-.813-1.338"/>
                <path fill="#70489D" fill-rule="nonzero" d="M502.275 173.037l6.855 6.72 13.1-8.213s1.289.407 1.424 1.696c.136 1.29-15.067 10.453-15.067 10.453l-6.312-10.656z"/>
                <path fill="#EC778F" fill-rule="nonzero" d="M523.222 173.149c1.708-1.35 3.895-2.084 5.85-3.042.344-.17 1.09-.176 1.471-.2.715-.043 1.354.408 1.927.837 1.455 1.09 2.95 2.225 3.852 3.8.076.131.146.295.07.426-.062.109-.2.145-.324.157-1.488.146-2.58-1.661-4.075-1.656-.915.003-1.663.682-2.474 1.103-.818.424-1.74.596-2.648.757-.692.123-1.437.236-2.07-.067a1.747 1.747 0 0 1-.969-1.594"/>
                <path stroke="url(#b)" d="M611.617 33.491v110.361"/>
                <path fill="#FDE6B2" fill-rule="nonzero" d="M131.758 324.695l-3.394 5.769 5.838 2.782 5.633-1.289.068-5.904z"/>
                <path fill="#2A2338" fill-rule="nonzero" d="M139.496 330.192c1.268-.385 4.177 1.82 5.42 2.283.904.337 1.348.93 2.022 1.622.674.691.319 3.307-.383 3.969-3.074.148-4.057-.093-8.039-.183-6.155-.14-11.393.52-12.248-1.876-1.243-3.48-.33-5.296 1.876-9.048 0 0 3.17 5.721 11.352 3.233z"/>
                <path fill="#DB496C" fill-rule="nonzero" d="M322.209 280.548l3.557 30.631 6.788-.27 3.229-30.09-3.53-4.886z"/>
                <path fill="#27003D" fill-rule="nonzero" d="M323.566 309.059l10.317.272-2.986 22.534h-4.615l-.815-1.358-17.03 1.238c-.811.109-1.646-.18-2.159-.818-.77-.957-.825-2.607 3.986-4.764 7.873-3.529 15.203-5.158 15.203-5.158l-1.9-11.946z"/>
                <path fill="#EC778F" fill-rule="nonzero" d="M314.063 282.99l3.559 28.778h8.144l.515-28.234-2.171-5.158z"/>
                <path fill="#B2CCF4" fill-rule="nonzero" d="M272.11 103.172l2.171 20.498 21.041-2.037-3.394-20.103z"/>
                <path fill="#EC778F" fill-rule="nonzero" d="M294.87 126.062s-4.56-7.246-11.756-13.024c-1.411-.916-2.515-.18-.492 2.174 2.133 2.5 2.832 3.31 2.832 3.31s-1.36.625-2.205 2.389c0 0-1.534 3.47.256 5.518.654.749 1.076 1.155 1.655 1.876.554.69 2.06 1.765 4.605 1.565l1.5 1.746 4.556-4.061-.95-1.493z"/>
                <path fill="url(#c)" fill-rule="nonzero" d="M290.354 131.77c0 .544 15.7 22.399 25.52 28.96l9.773-.182 3.077-6.697-33.122-27.873s-5.248 1.268-5.248 5.793z"/>
                <path fill="#7D2573" fill-rule="nonzero" d="M129.994 217.556s4.88 41.395 3.262 57.58c-1.618 16.183-6.989 54.472-6.989 54.472s7.504 5.737 14.315.585l8.195-37.697-3.877 44.532c-.193 1.33.649 2.603 1.957 2.912 3.092.73 8.906 1.184 14.72-3.27l4.414-59.18s1.765-28.543 5.088-58.124c0 0-28.597 4.434-41.085-1.81z"/>
                <path fill="#51235D" fill-rule="nonzero" d="M170.92 229.085s-7.063 10.262-24.056 6.179c-11.109-2.67-15.154-9.416-15.154-9.416l-.81-4.193c.002 0 16.333 11.109 40.02 7.43z"/>
                <path fill="#BACDE8" fill-rule="nonzero" d="M291.53 180.232s9.295-7.812 13.71-11.81c0 0-10.135 3.195-13.71 11.81z"/>
                <path fill="#DD4A6D" fill-rule="nonzero" d="M283.148 175.04s-3.563-2.003 1.153-5.6c1.233-.94-4.038-1.188-4.038-1.188l-1.56 4.955 3.393 1.595 1.052.238z"/>
                <path fill="#F19C94" fill-rule="nonzero" d="M173.884 111.493s1.147 5.87 1.448 10.854c.015.25-.186.465-.424.541-.176.057-.633.386-1.337.51-.091.634-.281 1.49-.63 2.26-.181.402-.543.699-.661 1.103-.253.865-.02 1.721-.258 2.355-.803 2.144-2.427 2.712-4.716 2.762-1.81.04-3.584.744-4.258 3.27-1.459 5.473-1.494 4.016-1.494 4.016s-9.803-3.638-14.69-5.266c1.398-3.458 2.722-7.798 3.605-10.225.546-6.125 12.002-12.922 12.002-12.922l11.413.742z"/>
                <path fill="url(#d)" fill-rule="nonzero" d="M170.807 146.425s7.512 14.66 9.955 27.059l16.652-8.235s5.792 5.34 6.154 7.963c0 0-10.77 11.403-22.896 17.557 0 0-4.616 2.353-8.597-4.163l-11.132-19.456 7.422-22.987 2.442 2.262z"/>
                <path fill="#BACDE8" fill-rule="nonzero" d="M305.095 168.397s-10.813-16.625-12.726-19.789c-1.986.295-3.384 1.545-3.384 1.545l16.11 18.244z"/>
                <path fill="#EC778F" fill-rule="nonzero" d="M316.779 138.468s-4.525 16.651 6.878 13.755c11.403-2.896 12.851-8.325 12.851-8.325l-7.421-14.48-12.851 5.611.543 3.439z"/>
                <path fill="#DFEBFF" fill-rule="nonzero" d="M274.562 160.82l16.968 19.412s7.093-8.746 13.71-11.81l-15.474-18.073-1.958-2.034s-9.853 4.632-13.246 12.506z"/>
                <path fill="url(#e)" fill-rule="nonzero" d="M313.471 201.619l11.814-1.614 10.358 1.614s12.486 3.484 6.474 43.019l-5.248 36.634s-12.243 5.855-24.542 1.195l-5.33-35.857s-6.96-39.972 6.474-44.991z"/>
                <g fill="#7E6DDB" fill-rule="nonzero">
                    <path d="M211.525 207.679l-.497-.646 8.662-10.536 8.56 3.1 4.192-5.636 6.044 2.546 10.22-9.347.74.506-10.74 10-5.966-2.501-4.254 5.675-8.764-3.16z"/>
                    <path d="M245.433 184.6l6.11 6.621 3.205-9.532z"/>
                </g>
                <g fill-rule="nonzero">
                    <path fill="url(#f)" d="M29.384 3.032H1.827a1.324 1.324 0 1 1 0-2.649h27.557a1.324 1.324 0 1 1 0 2.65z" transform="translate(235.337 134.766)"/>
                    <path fill="url(#g)" d="M21.918 7.783H3.32a1.324 1.324 0 1 1 0-2.649h18.597a1.324 1.324 0 1 1 0 2.65z" transform="translate(235.337 134.766)"/>
                    <path fill="url(#h)" d="M15.673 12.671H5.628a1.324 1.324 0 1 1 0-2.65h10.045a1.324 1.324 0 1 1 0 2.65z" transform="translate(235.337 134.766)"/>
                </g>
                <path fill="#DFEBFF" fill-rule="nonzero" d="M199.13 127.643h4.024l-.111 7.6 4.47-7.6h14.306a2.69 2.69 0 0 0 2.683-2.682v-15.089a2.69 2.69 0 0 0-2.683-2.682H199.13a2.69 2.69 0 0 0-2.682 2.682v15.089a2.69 2.69 0 0 0 2.682 2.682z"/>
                <path fill="#FBDD89" fill-rule="nonzero" d="M108.274 100.545l10.679-5.43 3.745 6.924 2.228 4.117s-6.154.362-11.403 5.249l-5.249-10.86z"/>
                <path fill="#E95C64" fill-rule="nonzero" d="M234.212 112.315l10.678-5.43 3.746 6.924 2.227 4.117s-6.154.362-11.402 5.249l-5.25-10.86z"/>
                <path fill="#F5E6F0" fill-rule="nonzero" d="M186.544 204.708l10.679-5.43 3.745 6.924 2.228 4.117s-6.154.362-11.403 5.249l-5.25-10.86z"/>
                <path fill="#F9C273" fill-rule="nonzero" d="M119.603 120.848l10.678-5.43 3.746 6.923 2.227 4.118s-6.154.362-11.403 5.248l-5.248-10.86z"/>
                <g fill="#FBFBFC" fill-rule="nonzero" transform="translate(275.566 106.606)">
                    <circle cx="14.387" cy="3.61" r="1.387"/>
                    <path d="M13.237 3.473L8.318 2.38l.068-.307 4.885 1.025z"/>
                    <circle cx="7.176" cy="1.886" r="1.387"/>
                    <circle cx="1.503" cy="7.497" r="1.324"/>
                    <path d="M2.05 6.637l4.354-4.355.708.707-4.356 4.355z"/>
                </g>
                <path fill="url(#i)" fill-rule="nonzero" d="M466.913 72.334l-.543-38.824 2.715-.038.543 38.824z"/>
                <circle cx="492.942" cy="76.217" r="2.953" fill="#FFF" fill-rule="nonzero"/>
                <circle cx="468.202" cy="81.206" r="2.953" fill="#FFF" fill-rule="nonzero"/>
                <path fill="url(#j)" fill-rule="nonzero" d="M580.9 187.834s-11.345-2.444-9.875 6.109c1.45 8.435 39.22 10.452 45.522.815 0 0 3.432-7.67-3.922-7.331-7.354.339-12.606 3.393-19.54 2.647-6.933-.747-12.184-2.24-12.184-2.24z"/>
                <path fill="url(#k)" fill-rule="nonzero" d="M287.865 177.924s11.13 12.896 13.166 11.131l9.91-23.619s2.036-5.023 10.724-6.109l21.855 9.23s2.534 21.81-6.833 33.078c0 0-10.136 4.389-24.615.905 0 0-.905-3.982-1.674-8.326 0 0-2.444 6.517-8.145 6.517 0 0-4.343.678-10.86-7.467l-8.28-11.538s1.449-2.987 4.752-3.802z"/>
                <path fill="url(#l)" fill-rule="nonzero" d="M479.402 80.188c0-3-4.909-8.145-11.131-8.145-6.223 0-11.403 5.147-11.403 8.145h22.534z"/>
                <path fill="url(#m)" fill-rule="nonzero" d="M504.107 75.3c0-2.998-4.909-8.143-11.131-8.143s-11.403 5.146-11.403 8.144h22.534z"/>
                <path fill="url(#n)" fill-rule="nonzero" d="M607.138 182.88s4.004-.34 1.56 7.126c-2.443 7.466-7.059 21.312-7.059 21.312s-.633 1.017-3.416.271l1.316-22.433c.153-1.696-1.415-3.062-3.06-2.63-.022.006-.044.01-.065.018l10.724-3.665z"/>
                <path fill="url(#o)" fill-rule="nonzero" d="M491.347 33.763h2.714v33.664h-2.714z"/>
                <path fill="#BFCAEF" fill-rule="nonzero" d="M633.2 115.617l24.03.407-.002 6.245h-24.027zM438.966 154.169l-24.027.407v6.245h24.027z"/>
                <path fill="#EF948E" fill-rule="nonzero" d="M603.36 133.4l.113 3.348 2.533 2.082 3.078 7.15-7.874.994-5.61-.723-1.63-1.81-.633-6.969 5.159-6.425z"/>
                <path fill="#FEDDC0" fill-rule="nonzero" d="M592.794 142.992s7.421 5.611 14.208-.452l5.249 25.158-14.027 10.95-12.58 3.348-2.172-7.782 9.322-31.222z"/>
                <path fill="#EF948E" fill-rule="nonzero" d="M604.796 120.097s5.193 11.675-.69 13.303c-5.882 1.63-6.787-.905-6.787-.905l-3.53-4.344 6.155-4.163 4.852-3.89z"/>
                <path fill="#F06499" fill-rule="nonzero" d="M605.193 138.106l1.176 22.534 13.032-3.348-4.117-9.651a14.302 14.302 0 0 0-5.224-6.29l-4.867-3.245z"/>
                <path fill="url(#p)" fill-rule="nonzero" d="M586.64 179.644c.272 0 20.724-9.05 27.964-5.702 0 0 2.896.634 6.064 16.018l3.009 12.744a.678.678 0 0 1-.107.552c-.28.39-.881 1.104-1.679 1.36a.688.688 0 0 1-.817-.327c-1.07-1.999-9.649-14.64-11.537-19.125-.724-1.72-.952-1.907-1.38-1.674-3.2 1.737-11.351 5.162-16.598 6.103a.548.548 0 0 0-.058.014c-.525.15-8.126 2.215-10.14-2.669a.69.69 0 0 1-.05-.299l.41-7.62a.685.685 0 0 1 .676-.649l1.666 1.354c.752-.009.88.745 2.577-.08z"/>
                <path fill="#F06499" fill-rule="nonzero" d="M593.97 144.44s2.864 25.134-7.068 34.614c-1.64 1.565-3.067 3.336-4.15 5.327l-1.394 2.557s-4.039-3.9-1.505-13.764l5.554-23.62 8.564-5.113z"/>
                <path fill="#784FC6" fill-rule="nonzero" d="M604.553 153.32l24.355.425c.51.009.883.484.77.982l-3.711 16.244a.804.804 0 0 1-.776.625l-25.185.254a.804.804 0 0 1-.784-1.011l4.54-16.923a.804.804 0 0 1 .791-.596z"/>
                <path stroke="url(#q)" d="M575.509 33.491v154.343"/>
                <path fill="#EF948E" fill-rule="nonzero" d="M593.376 155.068l1.544-2.087c.43-.631.734-1.204.995-1.92.326-.897 1.078-1.865 2.06-2.39 1.219-.65 2.28-1.848 2.647-2.074a.205.205 0 0 1 .313.178c-.008.486-.154 1.355-.991 2.1-.949.845.601.554 1.752.322.456-.093.954-.53 1.14-.957l1.213-1.904c.258-.634.847-.745.994.249.175 1.184-.754 3.585-1.398 4.671-.3.505-2.638 2.378-4.304 3.174a9.352 9.352 0 0 0-2.041 1.328l-1.791 1.532-2.133-2.222z"/>
                <path fill="#70489D" fill-rule="nonzero" d="M590.737 174.973l8.513-3.762 26.316.275-5.296 2.318c-1.292.635-3.107.929-4.548.969l-24.556 1.07c-.299.008-.716-.791-.429-.87z"/>
                <path fill="#EC778F" fill-rule="nonzero" d="M502.614 145.074s2.714 8.96-3.8 10.588c0 0-1.223.272-3.258 0l-.892 7.659-8.996-3.18 4.594-17.103 11.674-.95.678 2.986z"/>
                <path fill="#7E2B45" fill-rule="nonzero" d="M492.232 136.823c2.428 1.465 5.556.184 7.943-1.346.927-.596 1.977-1.257 3.05-1.004 1.364.323 1.972 1.963 1.925 3.364-.075 2.249-1.264 4.379-2.968 5.848-1.703 1.469-3.882 2.316-6.101 2.679-.362.059-.752.118-1.015.373-.224.217-.314.54-.332.853-.061 1.076.603 2.056.765 3.121.371 2.436-1.87 4.432-3.99 5.686-1.502.887-3.13 1.686-4.872 1.758-1.743.071-3.626-.753-4.33-2.349-.176-.398-.266-.883-.038-1.254.24-.392.747-.524 1.08-.844.814-.784.234-2.13-.291-3.132-1.194-2.278-1.894-4.88-1.575-7.432.319-2.551 1.758-5.027 4.03-6.231 2.3-1.218 4.389-1.07 6.922.016"/>
                <path fill="url(#r)" fill-rule="nonzero" d="M486.822 160.006s-3.71-.61-4.253 4.887c-.705 7.142-.634 28.868-.634 28.868l24.253-2.896 19.457-14.026s.995-2.624-2.082-4.706l-14.751 9.14-11.674-16.018s-3.166-4.434-10.316-5.249z"/>
                <path fill="#84D6D2" fill-rule="nonzero" d="M506.822 192.495s28.326 5.973 31.13 9.411c2.805 3.439-8.144 33.756-8.144 33.756s-4.343.724-7.33-2.172c0 0 4.524-20.634 6.063-22.987l-12.398-3.891-33.756-11.312v-3.077l3.89-1.267 17.558-.09 2.987 1.629z"/>
                <path fill="#523C88" fill-rule="nonzero" d="M518.605 193.4h-35.692a1.707 1.707 0 0 1-1.702-1.702v-.58c0-.934.766-1.7 1.702-1.7h35.692c.935 0 1.701.765 1.701 1.7v.58c0 .936-.765 1.702-1.701 1.702z"/>
                <path fill="#E95C64" fill-rule="nonzero" d="M468.994 165.978c-1.783-3.195 1.814-5.924 5.069-4.252 2.96 1.52 5.158 5.973 4.524 11.584 0 0-3.076 25.339 18.823 23.528 21.9-1.81 21.358 14.932 21.358 14.932s-15.294 7.421-32.67.724c0 0-12.614-3.945-14.445-23.304-.208-2.2-.212-4.414-.078-6.62.215-3.49.337-11.588-2.581-16.59v-.002z"/>
                <g fill="#BFCAEF" fill-rule="nonzero">
                    <path d="M535.739 172.23a1.055 1.055 0 0 1-.598-1.362l13.73-35.223c.21-.54.822-.809 1.362-.599.54.21.809.823.599 1.363l-13.73 35.223c-.211.54-.824.809-1.363.599z"/>
                    <path d="M541.3 159.87l5.214 13.647c.15.6.03 1.236-.326 1.742l-1.72 2.44c-.4.567-1.05.904-1.741.904l-12.865.193a.778.778 0 0 0-.778.757l-.047.676a.777.777 0 0 0 .796.797l13.936-.348a3.147 3.147 0 0 0 2.45-1.274l2.274-3.07a3.15 3.15 0 0 0 .526-2.633l-4.732-21.569-2.986 7.738z"/>
                </g>
                <path fill="#C5515F" fill-rule="nonzero" d="M605.594 123.101s-2.835 4.462-8.728 6.397c0 0 3.32 11.3-2.776 14.01l1.297.89s5.351-4.468 2.372-13.351c0-.001 8.442-3.146 7.835-7.946z"/>
                <path fill="#FFF" fill-rule="nonzero" stroke="#000" stroke-width="1.217" d="M505.012 145.889v4.796M504.74 148.15h-9.954"/>
                <path fill="#BFCAEF" fill-rule="nonzero" d="M524.09 184.938l33.031-.734a3.642 3.642 0 0 1 2.657 1.066l3.05 3.05a3.642 3.642 0 0 1 .815 3.905l-19.968 50.862a6.673 6.673 0 0 0 1.207 6.85l.576.653c.204.231.502.357.81.342l2.972-.145a1.014 1.014 0 0 0 .71-1.685 4.587 4.587 0 0 1-1.036-2.037l-.313-1.41a4.586 4.586 0 0 1 .201-2.651l19.66-50.671a6.168 6.168 0 0 0-1.462-6.667l-3.788-3.662a6.167 6.167 0 0 0-4.379-1.734l-34.82.512a2.078 2.078 0 1 0 .077 4.156z"/>
                <path fill="#E95C64" fill-rule="nonzero" d="M508.45 214.71l5.295 29.865s-1.358 1.696-2.85.678l-8.688-31.085 6.244.543zM487.546 213.037l-8.868 30.498s-1.539 1.086-3.348-.272l7.511-32.488s2.624 1.629 4.705 2.262z"/>
                <path fill="#BFCAEF" fill-rule="nonzero" d="M635.32 275.242H572.17a5.98 5.98 0 0 1-5.98-5.98v-2.742c0-1.48 1.2-2.68 2.68-2.68h69.752c1.48 0 2.68 1.2 2.68 2.68v2.742a5.98 5.98 0 0 1-5.98 5.98z"/>
                <path fill="#BFCAEF" fill-rule="nonzero" d="M638.495 286.022h-69.683a5.52 5.52 0 1 1 0-11.04h69.683a5.52 5.52 0 1 1 0 11.04z"/>
                <path fill="#BFCAEF" fill-rule="nonzero" d="M641.663 297.063h-75.836a5.611 5.611 0 0 1 0-11.222h75.836a5.611 5.611 0 0 1 0 11.222z"/>
                <path fill="#390D56" fill-rule="nonzero" d="M316.236 311.503l10.045-.272-1.086 22.806-6.245.271-.814-1.357-17.105.543c-.811.108-1.646-.18-2.159-.818-.77-.957-.751-1.912 4.06-4.069 7.873-3.529 15.204-5.158 15.204-5.158l-1.9-11.946z"/>
                <path fill="url(#s)" fill-rule="nonzero" d="M196.372 165.785s-1-.887.33-1.765c.524-.345 2.179-1.616 3.215-2.242a1.764 1.764 0 0 1 1.75-.038c3.773 2.039 5.598 5.881 6.243 7.596a1.19 1.19 0 0 1-.337 1.323s-3.403 3.072-3.882 3.292c-.478.22-.845-.037-.845-.037l-6.474-8.129z"/>
                <path fill="#BB1F78" fill-rule="nonzero" d="M538.111 233.92s1.833 5.27 4.186 4.185c2.354-1.086 7.24-8.235 7.602-10.317.362-2.082-.633-2.624-1.9-.543-1.268 2.082-5.52 3.62-5.52 3.62s-2.376 2.964-4.368 3.054z"/>
                <path fill="url(#t)" fill-rule="nonzero" d="M145.197 132.308l-1.63 3.257-3.785 1.793c-5.787 2.742-9.66 8.385-10.09 14.774-.453 6.707-.331 16.976 1.66 32.03 0 0 2.846 15.18-2.583 37.714 0 0 21.666 20.375 45.828 5.444l-1.25-16.037-1.815-26.578-2.444-39.908-6.2-5.385-6.968-6.968-7.557-1.856-3.166 1.72z"/>
                <path fill="#F06499" fill-rule="nonzero" d="M593.767 143.31l.204 1.13-6.47 6.607-2.49-3.835.181-5.396 4.401-.814z"/>
                <path fill="#7D2573" fill-rule="nonzero" d="M605.012 118.457c3.153 3.042-.11 8.933-5.611 10.498l-2.535.543s2.896 10.135-1.448 13.393c0 0-3.257 3.529-9.14.362 0 0-2.353-1.086.181-4.344 2.534-3.257 4.887-6.063 4.072-10.588-.814-4.525-.09-10.045 7.873-10.045s6.608.181 6.608.181z"/>
                <path fill="#F06499" fill-rule="nonzero" d="M585.192 141.816c-3.322.87-5.305 3.38-5.97 5.394l-7.106 22.161s-1.494 6.38 5.294 4.66c4.656-1.179 19.004-16.017 19.004-16.017l-3.53-3.439-10.373 7.787c-.1.092-.257-.02-.2-.145l2.288-5.574a19.928 19.928 0 0 0 1.161-12.297l-.568-2.53z"/>
                <path fill="#9EB3DC" fill-rule="nonzero" d="M560.261 182.353l-36.399.58a.646.646 0 0 1-.654-.634l-.003-.171a.646.646 0 0 1 .633-.655l36.4-.58a.646.646 0 0 1 .654.634l.003.171a.646.646 0 0 1-.634.655z"/>
                <path fill="#E75CA2" fill-rule="nonzero" d="M536.686 243.354l-12.67-.724a.363.363 0 0 1-.362-.362c0-.2.163-.363.362-.363h13.122c.2 0 .362.163.362.363.001.199-.615 1.086-.814 1.086zM549.887 226.454l-7.568 11.402c-.332.452-.18.815.136.973.335.167.868.09 1.199-.362 0 0 5.836-8.303 6.53-11.598.067-.323.186-.367-.042-.602-.034-.036-.128-.035-.255.187z"/>
                <path fill="#EC778F" fill-rule="nonzero" d="M283.114 181.726s-7.331-5.838-5.566-9.774c1.765-3.936 4.887-6.923 4.887-6.923s2.172.679-1.494 4.886c0 0-1.765 2.444-.136 3.937 1.63 1.493 5.702 2.444 5.159-3.258 0 0-.68-2.308.814-3.257 1.494-.95.272 2.444 1.222 3.936.95 1.494 1.901 5.294-.95 8.144-2.85 2.852-3.936 2.309-3.936 2.309z"/>
                <path fill="#70489D" fill-rule="nonzero" d="M490.825 177.025a80.688 80.688 0 0 1 4.69 5.999c.742 1.03 1.489 2.062 2.132 3.16.636 1.101 1.242 2.222 1.733 3.401l-.047.026c-.762-1.024-1.429-2.097-2.146-3.138-.697-1.054-1.339-2.144-2.03-3.204a106.591 106.591 0 0 0-4.372-6.209l.04-.035zM491.774 175.938c.358.297.64.704.768 1.19.07.236.13.506.045.755-.088.243-.232.466-.47.597l-.047-.026c-.04-.272.002-.466-.017-.67.002-.193.065-.381.06-.588a2.647 2.647 0 0 0-.378-1.221l.04-.037z"/>
                <path fill="#C12F71" fill-rule="nonzero" d="M609.355 184.802c-.2-.5-.438-1.026-.794-1.31-.18-.13-.338-.167-.506-.08-.222.076-.47.191-.708.303l-2.907 1.403c-1.958.914-3.93 1.806-6.018 2.478 1.777-1.288 3.685-2.325 5.64-3.275.986-.46 1.977-.905 3.021-1.262.267-.085.523-.172.824-.235.358-.11.78.096.974.344.389.517.464 1.085.474 1.634zM580.057 172.562s9.67-7.05 13.878-12.073c0 0-7.08 10.63-14.547 14.915 0 0 .51-2.464.669-2.842z"/>
                <path fill="#EC778F" fill-rule="nonzero" d="M322.028 151.319l1.9 9.32 6.787-5.248-3.529-8.236z"/>
                <path fill="#C12F71" fill-rule="nonzero" d="M600.017 145.614c-3.48 0-6.172-1.619-6.212-1.644l.285-.463c.057.036 5.808 3.485 11.227.026l.293.457a10.229 10.229 0 0 1-5.593 1.624z"/>
                <path fill="#F27A94" fill-rule="nonzero" d="M621.875 205.271c.72-.01 1.557-.082 1.96-.68.14-.208.206-.455.323-.676.275-.516.799-.841 1.299-1.143l3.893-2.346c.984-.594 2.073-1.21 3.211-1.048.168.024.338.066.473.168.278.209.336.622.226.953-.11.331-.35.6-.586.857a110.717 110.717 0 0 1-7.108 7.075c-.383.348-.826.716-1.344.693-.521-.023-.932-.433-1.285-.816-.548-.595-1.114-1.227-1.304-2.014-.1-.413.015-.981.436-1.042M598.492 212.306c1.237.38 2.155.065 3.318-.502.837-.407 6.056 6.484 6.42 7.28.11.241.222.487.244.75.022.264-.072.54-.28.702-.19.149-.47.201-.736.166-.75-.1-5.105-2.642-6.938-4.667-.417-.46-1.02-1.108-1.37-1.62-.388-.567-.793-1.196-.733-1.88.012-.137.113-.313.24-.258"/>
                <path stroke="#D35F7E" stroke-width=".308" d="M625.734 202.676a2.31 2.31 0 0 1 1.112 1.72M627.223 201.795c.265.055.483.256.621.49.14.233.208.5.277.763M628.497 200.95c.537.258.996.676 1.304 1.185M624.378 209.055s.18.226 1.267-.815c1.086-1.04 7.511-7.511 7.511-7.511M598.416 212.777s-.034 1.9 5.057 5.667c0 0 3.292 2.274 4.31 2.274M601.18 213.881c.63-.21 1.2-.594 1.631-1.098.017-.02.043-.042.066-.03.024.014-.019.054-.02.027M602.275 215.705a3.068 3.068 0 0 0 1.831-1.142c.011-.014.029-.031.045-.024.017.007-.004.04-.011.023"/>
                <path stroke="#D35F7E" stroke-width=".308" d="M603.581 217.35a3.155 3.155 0 0 0 1.681-1.09c.013-.016.032-.034.052-.028.02.006.005.047-.01.032M532.702 238.796c.224.467.162 1.06-.155 1.47M534.099 239.215a2.3 2.3 0 0 1-.086 1.393M535.183 239.387c.178.427.18.923.008 1.353M544.93 229.855c.512.118.923.586.974 1.11M546.084 229.14c.362.143.646.468.739.845M546.799 228.56c.396.083.743.377.888.755"/>
                <path fill="url(#u)" fill-rule="nonzero" d="M337.187 281.111l-1.159.497 6.456-48.368c2.813-25.652-6.726-31.136-6.823-31.188l1.084-.552c.423.223 9.724 5.367 6.817 31.868l-6.375 47.743z"/>
                <path fill="#780058" fill-rule="nonzero" d="M310.357 194.198c-.024-.806.092-1.558.257-2.292.157-.737.394-1.442.65-2.14.281-.689.579-1.37.958-2.021.371-.654.79-1.29 1.348-1.872l.012-.012a.043.043 0 0 1 .06-.001.04.04 0 0 1 .01.045l-1.565 4.179-1.647 4.147a.043.043 0 0 1-.055.024.044.044 0 0 1-.028-.038v-.019z"/>
                <path fill="url(#v)" fill-rule="nonzero" d="M334.02 128.503a34.69 34.69 0 0 0-3.233-7.882c-.796-1.416-1.722-2.807-3.035-3.764-1.478-1.078-3.34-1.52-5.168-1.603-4.805-.216-9.89 2.287-11.79 6.705-.664 1.544-.923 3.231-1.043 4.907-.099 1.394-.103 2.815.27 4.161.93 3.362 4.192 5.761 7.639 6.296 3.446.535 5.35.119 8.326-1.697-2.326 1.57-3.2 9.49 5.418 10.055-7.168 5.679-11.54 14.728-11.538 23.873.001 1.937.19 3.885.733 5.744 2.128 7.285 10.181 12.242 17.675 11.035 7.494-1.208 13.539-8.287 13.74-15.875.083-3.153-.721-6.265-1.749-9.247-.999-2.895-2.292-5.825-4.628-7.805-1.667-1.413-3.918-2.44-4.603-4.513-.623-1.885.33-3.925 1.508-5.523 1.179-1.597 2.64-3.064 3.247-4.954.995-3.096-.938-6.82-4.043-7.788-1.456-.453-3.021-.355-4.526-.596-1.506-.242-3.103-.977-3.639-2.405"/>
                <path fill="#DD4A6D" fill-rule="nonzero" d="M325.84 151.404l-3.54 1.09 2.951-.17z"/>
                <path fill="#7D2573" fill-rule="nonzero" d="M290.354 131.77s-.317-4.252 5.249-5.791l.555.45s-5.37.147-5.444 5.885l-.36-.543z"/>
                <path fill="url(#w)" fill-rule="nonzero" d="M143.432 135.52s7.918 4.525 18.642 3.212l2.518 2.226s.442-3.384-2.206-5.444c-1.585-1.233-6.466-3.071-6.466-3.071s-9.057-4.433-10.77-.498l-1.718 3.575z"/>
                <path fill="#51235D" fill-rule="nonzero" d="M148.336 240.413c.402 1.665.705 33.039 1.25 36.413 0 0 .179 8.782-.258 15.76-.568 9.078-.992 13.131-2.17 18.593.153-1.295.57-9.324 1.26-16.775-.298-8.66-.673-17.507-.673-17.507-.584-3.367.754-34.778.59-36.484z"/>
                <path fill="#7E6DDB" fill-rule="nonzero" d="M171.232 187.155l-10.882-20.18c-1.946-1.117-4.705-3.185-4.705-3.185.194-.067.598-.197 5.247 2.48l.102.058.06.102 10.499 19.178-.321 1.547z"/>
                <path fill="#7E6DDB" fill-rule="nonzero" d="M160.358 166.554c-1.018-1.028-1.96-3.863-1.96-3.863.743 1.168 2.13 2.782 3.18 4.603l-1.22-.74zM177.329 177.62s-.414-2.05 3.227-5.03c.22.662.22.939.22.939-.496.605-1.89 1.755-3.447 4.091zM162.075 138.733c-9.457 1.448-18.642-3.212-18.642-3.212s7.367 5.769 18.642 3.212z"/>
                <g transform="translate(0 187.063)">
                    <path fill="#E95C64" fill-rule="nonzero" d="M28.148 85.867l3.242 40.687a5.15 5.15 0 0 0 5.136 4.742h5.986a5.15 5.15 0 0 0 5.123-4.616l4.224-40.451"/>
                    <ellipse cx="40.049" cy="86.138" fill="#B80E3E" fill-rule="nonzero" rx="11.901" ry="2.534"/>
                    <path fill="url(#x)" fill-rule="nonzero" d="M37.922 85.312c-2.592-4.28-5.27-8.855-5.212-13.858.046-3.993 1.853-7.824 1.781-11.817-.114-6.26-4.737-11.518-6.198-17.607a17.958 17.958 0 0 1-.107-7.876c1.053-4.975 4.231-9.689 3.438-14.712-.568-3.593-3.142-6.765-3.076-10.402.068-3.695 3.041-6.913 6.55-8.074 3.51-1.16 7.393-.57 10.844.755.94.36 1.89.795 2.562 1.546.746.832 1.066 1.96 1.25 3.063a16.693 16.693 0 0 1-1.359 9.809c-1.328 2.812-3.435 5.225-4.556 8.126-1.75 4.528-.88 9.657.72 14.24.959 2.75 2.19 5.545 1.922 8.445-.266 2.881-1.972 5.391-3.441 7.884-1.47 2.492-2.788 5.359-2.182 8.188.403 1.879 1.605 3.469 2.501 5.168 2.968 5.625 2.185 13.346-2.677 17.447-.428.36-.915.706-1.474.748-.56.043-1.184-.336-1.215-.895"/>
                    <path fill="url(#y)" fill-rule="nonzero" d="M45.577 82.236c2.821-3.112 3.816-7.487 3.982-11.685.166-4.198-.389-8.402-.176-12.597.212-4.196 1.311-8.561 4.235-11.579.853-.88 1.882-1.644 3.074-1.934 1.193-.291 2.567-.035 3.403.863.433.465.71 1.076 1.216 1.459 1.326 1.003 3.17-.08 4.493-1.086 1.897-1.443 4.454-2.822 6.525-1.643 1.392.793 1.991 2.48 2.254 4.06.263 1.58.319 3.244 1.072 4.657.535 1.004 1.395 1.82 1.854 2.86.459 1.042.326 2.515-.705 2.998-1.127.528-2.385-.487-3.01-1.563-.626-1.076-1.076-2.376-2.172-2.967-1.14-.614-2.559-.212-3.717.367-1.159.58-2.286 1.342-3.578 1.445-1.523.12-3.004-.74-3.952-1.938-.948-1.2-.318-3.697-1.764-4.188-1.382-.47-.744 2.688-.785 4.147-.065 2.286-1.375 4.318-2.44 6.341A33.313 33.313 0 0 0 51.61 73.98c-.07 1.326-.06 2.669-.388 3.955-.9 3.537-4.096 5.94-7.138 7.957-.162-1.53.542-3.122 1.782-4.03"/>
                    <path fill="url(#z)" fill-rule="nonzero" d="M32.736 56.416c-2.57-5.285-7.545-8.907-10.632-13.908-1.934-3.132-2.755-6.801-4.04-10.25-1.286-3.448-3.259-6.919-6.56-8.545-1.377-.678-2.91-.992-4.44-1.098-1.222-.083-2.487-.03-3.607.462C1.063 24.13-.115 27.05.243 29.638c.358 2.59 1.96 4.854 3.832 6.678 1.659 1.618 3.731 3.336 3.646 5.65-.115 3.12-4.023 4.744-5.002 7.71-.77 2.34.553 4.951 2.49 6.473 1.939 1.522 4.38 2.213 6.728 2.959s4.763 1.64 6.453 3.432c2.612 2.771 2.866 6.922 3.586 10.66.528 2.742 1.402 5.467 3.007 7.752 1.605 2.284 4.015 4.098 6.77 4.547 1.707.278 3.856-.277 4.302-1.947.267-1.005-.186-2.045-.627-2.986-1.602-3.427-3.195-7.076-2.833-10.84.147-1.523.612-2.997.858-4.507 0 .002 1.156-4.953-.717-8.803z"/>
                    <path stroke="#BDBBEA" stroke-width=".923" d="M39.965 6.715c-4.217 2.572-4.516 8.471-4.329 13.406.188 4.92.374 9.84.56 14.761l.592 15.588.26 6.828c.16 4.245.322 8.495.84 12.71.213 1.73.486 3.454.878 5.152a37.376 37.376 0 0 0 1.086 3.782"/>
                    <path stroke="#BDBBEA" stroke-width=".923" d="M37.36 25.393l.644-3.85c.222-1.324.476-2.718 1.346-3.74 1.058-1.243 2.766-1.648 4.255-2.317 1.488-.669 2.993-2.006 2.757-3.62M30.942 33.392c.66-.136 1.322.33 1.656.917.334.586.425 1.275.558 1.936.4 1.97 1.25 3.848 2.465 5.449M39.863 74.287a7.995 7.995 0 0 1 2.066-5.87M48.953 80.302c2.398-5.02 1.827-10.87 2.256-16.416a44.06 44.06 0 0 1 2.603-11.868c.471-1.276 1.113-2.646 2.364-3.182 3.462-1.482 6.794 4.713 10.25 3.219.947-.41 1.637-1.357 2.647-1.56 1.74-.351 2.991 1.585 3.698 3.213M30.964 81.093c-5.56-4.456-7.369-12.182-7.288-19.307.044-3.92.304-8.468-2.649-11.047-2.145-1.873-5.433-2.079-7.42-4.12-2.27-2.33-1.985-6.021-2.24-9.265C11.114 34.111 9.25 30.22 6 30.396"/>
                    <path stroke="#BDBBEA" stroke-width=".923" d="M10.337 50.997a6.296 6.296 0 0 1 5.023 1.498c.997.885 1.683 2.064 2.587 3.044.905.98 2.183 1.79 3.499 1.57M13.667 43.299c.57-3.03.87-6.112.897-9.194M28.92 75.686c-1.075-2.827.165-5.962.16-8.986 0-.178-.022-.387-.174-.482-.152-.094-.401.115-.272.24"/>
                </g>
                <g transform="translate(662.766 154.88)">
                    <path fill="#E95C64" fill-rule="nonzero" d="M28.869 86.406l3.242 40.687a5.15 5.15 0 0 0 5.136 4.742h5.986a5.15 5.15 0 0 0 5.123-4.616l4.224-40.451"/>
                    <ellipse cx="40.769" cy="86.677" fill="#B80E3E" fill-rule="nonzero" rx="11.901" ry="2.534"/>
                    <path fill="#84D6D2" fill-rule="nonzero" d="M38.643 85.85c-2.593-4.28-5.271-8.855-5.213-13.858.046-3.993 1.853-7.824 1.781-11.817-.114-6.26-4.737-11.518-6.198-17.607a17.958 17.958 0 0 1-.107-7.876c1.053-4.975 4.231-9.689 3.438-14.711-.567-3.594-3.142-6.766-3.076-10.403.068-3.695 3.042-6.913 6.55-8.073 3.51-1.161 7.394-.57 10.844.754.94.36 1.89.795 2.562 1.546.746.832 1.066 1.96 1.25 3.063a16.693 16.693 0 0 1-1.359 9.809c-1.327 2.812-3.434 5.225-4.556 8.126-1.75 4.528-.88 9.657.72 14.24.959 2.75 2.19 5.545 1.922 8.445-.266 2.881-1.972 5.391-3.441 7.884-1.47 2.492-2.788 5.36-2.182 8.188.404 1.879 1.605 3.469 2.501 5.169 2.968 5.624 2.185 13.345-2.677 17.446-.428.36-.915.706-1.474.748-.56.042-1.184-.336-1.215-.895"/>
                    <path fill="#21C1B5" fill-rule="nonzero" d="M46.297 82.775c2.821-3.112 3.816-7.487 3.982-11.685.166-4.198-.389-8.402-.176-12.597.212-4.194 1.311-8.561 4.235-11.578.854-.881 1.882-1.645 3.074-1.935 1.192-.291 2.567-.035 3.404.863.432.465.709 1.076 1.215 1.459 1.326 1.003 3.17-.08 4.493-1.086 1.897-1.443 4.454-2.821 6.525-1.643 1.392.793 1.991 2.48 2.254 4.06.263 1.58.319 3.244 1.072 4.657.535 1.004 1.395 1.82 1.854 2.86.46 1.042.326 2.515-.705 2.998-1.127.528-2.385-.487-3.01-1.563-.626-1.076-1.076-2.376-2.172-2.967-1.14-.614-2.559-.212-3.717.367-1.159.58-2.286 1.342-3.577 1.445-1.524.12-3.004-.74-3.953-1.938-.948-1.2-.318-3.697-1.764-4.188-1.382-.47-.744 2.688-.785 4.147-.065 2.286-1.375 4.318-2.44 6.341A33.313 33.313 0 0 0 52.33 74.52c-.07 1.326-.06 2.669-.388 3.955-.9 3.537-4.096 5.94-7.137 7.957-.162-1.53.54-3.122 1.78-4.03M33.456 56.954c-2.57-5.285-7.545-8.907-10.632-13.908-1.934-3.132-2.755-6.801-4.04-10.25-1.286-3.448-3.259-6.919-6.56-8.545-1.377-.678-2.91-.992-4.44-1.097-1.222-.084-2.487-.03-3.607.461C1.783 24.667.605 27.587.963 30.176c.359 2.59 1.96 4.854 3.832 6.678 1.659 1.618 3.731 3.336 3.646 5.652-.115 3.12-4.023 4.743-5.001 7.708-.772 2.34.552 4.952 2.49 6.474 1.938 1.522 4.379 2.213 6.727 2.959 2.348.746 4.763 1.64 6.454 3.432 2.611 2.771 2.865 6.922 3.585 10.661.528 2.742 1.402 5.466 3.007 7.751 1.605 2.284 4.015 4.098 6.77 4.547 1.707.278 3.856-.277 4.302-1.947.267-1.005-.186-2.045-.627-2.986-1.602-3.427-3.195-7.076-2.833-10.84.147-1.523.612-2.997.858-4.507 0 .002 1.157-4.954-.717-8.804z"/>
                    <path stroke="#C8FCF8" d="M40.685 7.254c-4.217 2.572-4.515 8.471-4.328 13.406l.56 14.76.591 15.588.26 6.828c.16 4.245.322 8.495.84 12.71.213 1.73.486 3.454.878 5.152a37.376 37.376 0 0 0 1.087 3.782"/>
                    <path stroke="#C8FCF8" d="M38.08 25.932c.216-1.283.43-2.566.645-3.85.222-1.324.476-2.718 1.346-3.74 1.058-1.243 2.766-1.648 4.255-2.317 1.488-.669 2.993-2.006 2.758-3.62M31.662 33.93c.66-.136 1.322.33 1.656.917.334.586.425 1.275.558 1.936.4 1.97 1.25 3.848 2.465 5.449M40.584 74.826a7.995 7.995 0 0 1 2.065-5.87M49.674 80.841c2.398-5.02 1.827-10.87 2.256-16.416a44.06 44.06 0 0 1 2.603-11.868c.472-1.276 1.113-2.646 2.364-3.181 3.462-1.483 6.794 4.712 10.25 3.218.947-.41 1.637-1.357 2.648-1.56 1.74-.351 2.99 1.585 3.698 3.213M31.684 81.632c-5.56-4.455-7.369-12.182-7.288-19.307.044-3.92.304-8.468-2.648-11.047-2.146-1.873-5.434-2.078-7.423-4.12-2.27-2.33-1.984-6.021-2.238-9.265-.255-3.243-2.118-7.134-5.368-6.958"/>
                    <path stroke="#C8FCF8" d="M11.058 51.535a6.296 6.296 0 0 1 5.023 1.498c.998.885 1.683 2.064 2.588 3.044.904.98 2.183 1.79 3.499 1.57M14.387 43.838c.57-3.03.87-6.112.897-9.194M29.641 76.225c-1.075-2.827.165-5.962.16-8.986 0-.178-.022-.387-.174-.482-.152-.094-.4.115-.272.239"/>
                </g>
                <path fill="#780058" fill-rule="nonzero" d="M312.677 187.555c.193-.717.642-.823.772-.896.29-.042.51-.049.69-.015.179.022.312.059.639.18l.05.02a.028.028 0 0 1 .017.035c-.001.004-.004.007-.006.01-.248.243-.547.41-.846.568a9.646 9.646 0 0 1-.955.328c-.015.004-.521.254-.526.238-.001-.004.165-.468.165-.468zM317.173 159.768c.455-.234.93-.381 1.41-.511.485-.103.976-.188 1.487-.19.508-.01 1.03.032 1.585.217l.023.008c.02.007.033.03.026.051a.04.04 0 0 1-.028.027l-2.886.744s-3.258 1.01-3.25 1c0 0 .737-.92 1.633-1.346z"/>
                <path fill="url(#A)" fill-rule="nonzero" d="M32.845 271.603s1.84.81 2.869 3.384h1.03s-.735-3.016-1.913-4.707l-1.986 1.323z"/>
                <path fill="url(#B)" fill-rule="nonzero" d="M37.994 271.31s1.177 2.206-.295 3.972c0 0 .662.147 1.103.147 0 0 2.06-1.03 1.765-4.34l-2.573.22z"/>
                <path fill="#EA7B75" fill-rule="nonzero" d="M163.867 119.046s-1.02-1.986-2.4-1.158c-1.378.828-.22 4.193 1.104 4.275 1.324.083 1.324-.359 1.324-.359s-2.151-.22-2.29-2.013c-.139-1.794.828-1.572 1.297-1.159.468.413-.773.662-.47 1.241.304.58 1.682.938 1.435-.827z"/>
                <path fill="#7D2573" fill-rule="nonzero" d="M159.48 125.915c1.02-.718.133-6.857.955-8.241.522-.88 2.86-1.858 4.49.992 0 0 .953 5.298 1.213 4.197 1.103-.22.634-1.899.515-3.9-.119-1.998.112-4.32.295-4.633.997-1.716 1.96-2.746 6.179-2.28 2.354-.368 3.64-2.209 4.412-6.593 1.457-8.28-17.85-6.594-23.096-4.81-2.977 1.014-8.677 3.555-9.416 9.27-.157 1.213-.147 12.358 4.634 16.992 0 0 6.84 1.102 9.82-.994z"/>
                <path fill="#7D2573" fill-rule="nonzero" d="M173.572 123.397s-4.271-.24-4.86 2.85c-.588 3.089-2.06-6.548-2.06-6.548l-1.875-1.398s.338 1.512.276 2.759c-.08 1.6-2.101 5.968-1.931 7.945.226 2.644 2.892 2.548 4.854 2.905 6.474 1.177 4.855-2.022 4.855-2.022s-3.751-2.244-2.501-3.935c1.25-1.692 2.795-.883 2.795-.883s1.04-.476.447-1.673z"/>
                <path fill="#EA7B75" fill-rule="nonzero" d="M160.584 122.494s.993 1.876 2.593 1.49c0 0-1.765 8.275 3.862 7.89 0 0-4.745 1.433-5.076-6.125 0 0-1.048-1.269-1.379-3.255z"/>
                <path fill="#7D2573" fill-rule="nonzero" d="M172.28 126.761s1.214 2.28.662 4.34l-1.472-1.325s.662-1.03.037-2.537c0 0-.11-.478.773-.478z"/>
                <path fill="#EA7B75" fill-rule="nonzero" d="M171.876 115.36l-3.678 1.323 3.751.956z"/>
                <path fill="#77C0E0" fill-rule="nonzero" d="M212.776 155.928l-6.89 6.363s-.834.515-1.716-.662c-.883-1.176-.093-1.91-.093-1.91l7.597-6.44s2.188-2.316 4.358-1.985c-.002 0-1.27 2.317-3.256 4.634z"/>
                <path fill="#C12F71" fill-rule="nonzero" d="M582.864 161.887l-3.31 3.2 3.2-4.414s3.31-5.738 3.2-8.718c0 0-.22 3.642-2.537 8.276l8.938-5.848-9.491 7.504z"/>
                <path fill="#C5515F" fill-rule="nonzero" d="M603.314 133.602s-1.913.331-4.414-.33c0 0 2.28 1.544 4.487 1.36l-.073-1.03z"/>
                <ellipse cx="615.989" cy="163.04" fill="#E5E5E5" fill-rule="nonzero" rx="1.269" ry="1" transform="rotate(-80.497 615.989 163.04)"/>
                <g fill-rule="nonzero">
                    <path fill="#E95C64" d="M429.608 150.576s5.842-2.555 9.144-6.035c.956-1.007 1.88-2.036 1.773-3.421l-.004-.051c-.187-2.414-2.628-3.982-4.9-3.148-1.034.378-1.704.972-2.277 1.91-1.38 2.262-3.92 10.707-3.736 10.745z"/>
                    <path fill="#E95C64" d="M428.336 150.215s1.143.554 2.844-2.489c.682-1.22 2.22-5.499 2.63-6.81.417-1.327.796-2.661.128-3.922l-.026-.046c-1.165-2.196-3.945-2.705-5.582-1.02-.745.765-1.082 1.588-1.193 2.699-.266 2.676 1.024 11.627 1.199 11.588z"/>
                    <path fill="#E95C64" d="M428.742 150.74s.415-6.567-1.205-11.218c-.468-1.347-.972-2.674-2.285-3.214l-.048-.02c-2.287-.94-4.86.589-5.168 3.07-.14 1.127.086 2.02.672 2.98 1.414 2.318 7.914 8.554 8.034 8.402z"/>
                    <path fill="#9D2888" d="M431.31 147.252l-.413-.353c1.953-2.288 3.81-4.675 6.409-6.19l.273.47c-2.544 1.484-4.354 3.83-6.268 6.073zM429.535 147.308c-.094-2.216.115-6.937.397-9.137.05-.383.278-.853.623-1.006a.56.56 0 0 1 .568.058l-.31.445c-.148.042-.31.312-.343.571-.278 2.17-.487 6.86-.394 9.046l-.541.023zM427.534 147.765c-.625-.608-.87-1.436-1.106-2.235-.154-.522-.314-1.062-.578-1.517-.26-.447-.625-.821-1.01-1.218-.235-.243-.479-.494-.7-.765-.75-.926-.98-1.951-.62-2.743l.494.227c-.406.888.317 1.888.548 2.175.204.251.44.495.667.728.39.402.794.818 1.088 1.323.298.51.467 1.082.63 1.635.227.766.441 1.49.964 1.998l-.377.392z"/>
                    <path fill="#7E2B45" d="M423.456 146.99h12.358l-2.354 7.357h-7.944z"/>
                </g>
                <g fill-rule="nonzero">
                    <path fill="#784FC6" d="M643.23 112.618s5.843-2.555 9.145-6.034c.956-1.008 1.88-2.037 1.773-3.422l-.004-.051c-.187-2.414-2.628-3.982-4.901-3.148-1.033.378-1.703.972-2.276 1.91-1.38 2.263-3.92 10.708-3.736 10.745z"/>
                    <path fill="#784FC6" d="M641.958 112.258s1.144.553 2.845-2.49c.682-1.22 2.22-5.499 2.63-6.81.417-1.327.796-2.661.127-3.921l-.025-.047c-1.165-2.196-3.945-2.705-5.583-1.02-.744.765-1.082 1.589-1.192 2.699-.266 2.676 1.022 11.627 1.198 11.589z"/>
                    <path fill="#784FC6" d="M642.365 112.783s.415-6.568-1.205-11.219c-.469-1.347-.973-2.674-2.285-3.213l-.048-.02c-2.287-.94-4.86.588-5.169 3.07-.14 1.127.087 2.019.673 2.98 1.413 2.317 7.914 8.554 8.034 8.402z"/>
                    <path fill="#A687F4" d="M644.933 109.294l-.413-.353c1.953-2.288 3.81-4.675 6.408-6.19l.274.47c-2.545 1.484-4.355 3.831-6.269 6.073zM643.156 109.35c-.093-2.215.116-6.937.398-9.137.049-.383.278-.852.623-1.005a.56.56 0 0 1 .567.057l-.31.446c-.147.042-.31.311-.342.57-.278 2.17-.487 6.86-.395 9.045l-.54.024zM641.157 109.807c-.626-.608-.87-1.435-1.106-2.235-.154-.522-.314-1.062-.579-1.516-.26-.448-.624-.822-1.008-1.218-.237-.244-.48-.495-.7-.766-.75-.926-.982-1.95-.62-2.742l.493.226c-.406.888.317 1.889.548 2.175.204.252.44.495.667.729.39.402.793.817 1.088 1.322.298.51.467 1.082.63 1.635.227.767.441 1.49.964 1.999l-.377.39z"/>
                    <path fill="#F06499" d="M637.079 109.033h12.358l-2.354 7.356h-7.945z"/>
                </g>
                <path stroke="url(#C)" stroke-dasharray="4.1573,5.5431" stroke-width="2" d="M573.583 13.245h67.524"/>
                <path stroke="url(#D)" stroke-dasharray="4.1573,5.5431" stroke-width="2" d="M608.45.005h45.457"/>
            </g>
            <ellipse cx="625.318" cy="243.162" fill="#784FC6" fill-rule="nonzero" opacity=".53" rx="22.51" ry="4.193"/>
            <path fill="#D9E9FC" fill-rule="nonzero" d="M294.291 43.295V10.633c0-5.687 4.611-10.298 10.299-10.298h188.317c5.687 0 10.298 4.611 10.298 10.298v20.892h-10.593V15.342a5.003 5.003 0 0 0-5.002-5.002H311.652a5.003 5.003 0 0 0-5.003 5.002v27.954c0-.001-11.475-.884-12.358-.001z"/>
        </g>
        <path stroke="url(#E)" stroke-dasharray="4.1573,5.5431" stroke-width="2" d="M200.507 15.626h-50.313"/>
        <path stroke="url(#F)" stroke-dasharray="4.1573,5.5431" stroke-width="2" d="M426.919 292.35h47.664"/>
    </g>
</svg>
