<svg xmlns="http://www.w3.org/2000/svg" xmlns:xlink="http://www.w3.org/1999/xlink" width="1440" height="174" viewBox="0 0 1440 174">
    <defs>
        <path id="a" d="M.69.785h1396.624v173.14H.689z"/>
        <path id="c" d="M478.296 132.616H.109V.366h478.187v132.25z"/>
        <path id="e" d="M170.613 107.58H.373V.016h170.24V107.58z"/>
        <path id="g" d="M95.038 137.623H.065V.277h94.973z"/>
        <path id="i" d="M6.57 73.677C3.061 55.434-.45 29.4.127.073H39.4c8.864 25.403 13.889 53.694 16.59 73.604H6.57z"/>
        <path id="k" d="M207.418 95.062H.438V.396h206.98v94.666z"/>
        <path id="m" d="M39.995 43.738H.608V.462h39.387v43.276z"/>
        <path id="o" d="M119.573 80.04H.123V.89h119.45v79.15z"/>
        <path id="q" d="M93.027 96.313H.703V.021h92.324v96.292z"/>
        <path id="s" d="M704.911 93.81H.325V.948h704.586z"/>
        <path id="u" d="M77.58 115.09H.917V.608h76.665V115.09z"/>
        <path id="w" d="M61.479 22.457H.916V.193H61.48v22.264z"/>
        <path id="y" d="M60.37 103.824H.07V.058h60.3z"/>
        <path id="A" d="M66.6 19.954H.35V.97H66.6z"/>
        <path id="C" d="M.35 2.369C.57 1.472.939.812 1.529.607h.866c1.132.316 2.052 1.758 2.782 3.608v4.232H.351V2.37z"/>
        <path id="E" d="M.501 1.847c.68-.424 1.438-.83 2.331-1.209.828-.348 1.98-.57 2.87-.49.401.035.84.1 1.103.41.213.267.238.645.188.987-.25 1.8-1.93 2.955-3.258 4.2a90.79 90.79 0 0 1-.197.184H.5V1.847z"/>
    </defs>
    <g fill="none" fill-rule="evenodd">
        <path fill="#FFFFFE" d="M.075 173.925h1439.85V.785H.075z"/>
        <g transform="translate(42.611)">
            <mask id="b" fill="#fff">
                <use xlink:href="#a"/>
            </mask>
            <path fill="#BDE0EC" d="M76.277 86.158s.47-1.475-3.693-3.52l.069 5.005 3.624-1.485" mask="url(#b)"/>
            <path fill="#F9F8F8" d="M384.77 118.073s3.228-2.62 13.874-9.145c35.665-21.86 23.891-13.03 47.395-36.022 21.958-21.482 65.057-34.293 130.115-18.637 0 0 55.043 8.957 98.118 2.982 24.01-3.331 53.446-15.688 72.524-24.602C798.842 8.332 840.282-.766 902.879-.086l526.055 5.707-1.417 219.643-999.575-16.896-85.332-1.073 42.16-89.222" mask="url(#b)"/>
            <path fill="#999FAD" d="M597.042 158.176l2.118 21.701-41.502 1.018 4.235-26.11 35.15 3.391" mask="url(#b)"/>
            <path fill="#867DAE" d="M1269.28 125.151s-21.606 29.704-32.672 58.984c3.095 5.593 25.566 1.365 25.566 1.365s7.896-16.168 16.493-40.71c0 0 2.52 1.511 5.34.666 0 0 2.067 26.507 5.827 37.789l25.353-1.593s-5.063-31.6-20.365-55.091c0 0-18.661 3.936-25.542-1.41" mask="url(#b)"/>
            <path fill="#F2BEC7" d="M97.981 160.28l13.173 29.61-18.203 2.856-14.24-23.336 19.27-9.13M21.438 118.355l-8.522 5.553-6.67-22.947-5.557 1.11s3.254 33.535 6.67 36.27c0 0 3.172 4.667 20.75-10.362l-6.67-9.624" mask="url(#b)"/>
            <path fill="#E57289" d="M52.255 165.29l.753 16.733s13.105 2.685 22.74-2.25l-.99-11.843 7.576 10.281s13.341-3.29 20.093-12.995l-8.565-15.463-41.607 15.537" mask="url(#b)"/>
        </g>
        <path fill="#F2BEC7" d="M81.468 97.608l2.47-2.138 8.882-3.6s1.957 1.472 2.894-.02c1.282-.123 6.669-1.48 6.669-1.48l-3.787 13.817-17.128-6.58M105.018 81.322l1.977-18.259-11.733-32.662 4.785-1.656 18.311 33.332-3.459 35.036-9.88-15.791"/>
        <path fill="#BB745F" d="M69.101 74.076s11.854-5.42 13.88-12.942c2.027-7.522-8.671-8.7-15.238 3.013-5.033 8.976-8.15 7.799-8.642 13.011-.659 6.97 16.55 14.996 25.562 11.071l-8.268-13.443-7.294-.71"/>
        <path fill="#574E62" d="M1006.82 64.988c0 2.65-2.106 4.795-4.705 4.795-2.6 0-4.706-2.146-4.706-4.795 0-2.647 2.106-4.794 4.706-4.794 2.599 0 4.704 2.147 4.704 4.794"/>
        <path fill="#F2BEC7" d="M1082.298 142.117s2 1.546 3.746 5.289c1.034 2.216 1.153 2.4 1.592 4.584 0 0 .377 3.12-.2 3.84-.455.571-1-.064-1.07-.304-.596-2.04.092-5.112-2.154-7.205 0 0 1.017 1.208 1.49 3.905.206 1.17.052 1.782.187 4.369a.634.634 0 0 1-.326.56c-.476.279-1.373-.496-1.634-4.655 0 0-.155-1.894-1.783-3.426 0 0 1.86 1.63 1.742 6.94 0 0-1.014 1.388-1.605-2.057 0 0-.783-3.83-2.265-5.347a.399.399 0 0 0-.678.203c-.074.383-.11 1.044-.027 2.184.258 3.469-1.445 3.34-1.445 3.34s-.415-.176-.134-2.175c.335-2.367-.32-3.77-.662-4.91-.28-.93-.25-3.195.762-3.868"/>
        <path fill="#F2BEC7" d="M1077.995 143.72s-4.743-13.83-8.932-24.187c-2.172-5.373-9.21-24.364-9.21-24.364l8.497-5.118 7.567 24.5s3.597 13.422 6.863 28.741"/>
        <g transform="translate(585.274 41.31)">
            <mask id="d" fill="#fff">
                <use xlink:href="#c"/>
            </mask>
            <path fill="#F2BEC7" d="M452.886 29.414s.658 4.982-9.506 7.52l1.506 14.57 10.823 8.649 11.011-10.435 5.176-12.596s-7.058-1.222-7.623-7.144l-11.387-.564M441.874 115.709s-.283 9.87 1.413 24.252h33.88s.565-8.741 1.129-25.945l-36.422 1.693" mask="url(#d)"/>
            <path fill="#F2BEC7" d="M444.838 3.469l-3.247 19.74 6.071 6.628 18.211.986 3.53-20.446-5.647-10.01-18.918 3.102" mask="url(#d)"/>
            <path fill="#70B2B5" d="M193.416 93.335c1.693 7.615-2.18 12.18-5.223 16.64-4.94 7.237-3.246 14.193-3.246 14.193l2.54 10.435h-41.361s2.964-10.153 7.057-13.537c0 0-.424-27.214 6.776-47.236l4.848-13.583 4.516-2.068s14.07-1.693 24.799 12.69c10.729 14.382 27.67 30.175 27.67 30.175l27.104-23.126 6.212 7.475s-22.164 22.232-29.881 29.751c-1.29 1.257-3.577 1.88-7.2-.281-7.421-4.43-23.012-16.921-27.434-21.434" mask="url(#d)"/>
            <path fill="#574E62" d="M53.976 84.96s-.353-1.033-1.095-.671l-.175 1.864 1.164.05.106-1.242" mask="url(#d)"/>
            <path fill="#F2BEC7" d="M23.26 25.465s2.42 8.953-2.635 10.341c-3.418.938-10.616 1.808-13.74 3.478-2.012 1.076-6.776 6.11-6.776 6.11l11.858 35.721 6.776-20.493 9.976 10.718 12.987-5.83 4.14-14.852-3.95 39.105 11.48 3.95.566-1.976-1.977-23.97L64.67 92.303s6.21 24.534 6.21 41.454v6.767l6.212-.846s3.389-23.123 2.26-42.3c0 0-.848-21.151-21.175-50.198 0 0-3.267-6.903-16-9.587-2.915-.616-3.105-3.103-3.482-11.564l-15.436-.564" mask="url(#d)"/>
        </g>
        <path fill="#F2BEC7" d="M406.286 100.899s-29.223-.565-34.87-.848l-35.432-19.88-3.388 5.217 32.045 23.97 30.633 5.076 11.012-13.535M390.568 69.783s0 4.863.633 10.332c.178 1.534-2.198 3.917-1.95 5.46.188 1.176 3.094 1.19 3.247 1.833 1.12 4.736 2.774 7.903 5.788 7.756 0 0 7.528-.189 15.434-10.716l-1.505-14.29-21.647-.375"/>
        <path fill="#8C83B1" d="M421.955 95.681s-2.4-2.82-7.2-1.27l1.27 3.385 5.93-2.115"/>
        <path fill="#F2BEC7" d="M404.35 92.897s2.053 4.71 2.689 6.968c0 0 2.917-1.787 6.587-2.07 2.22-.17 4.518.777 6.494 3.667l.094-4.137s-4.188-5.753-4.234-7.801c-.044-1.933 3.787-6.745 3.787-6.745l-12.21 2.679-3.207 7.44"/>
        <path fill="#8C83B1" d="M404.121 103.436s9.223-10.529 16.94 4.513c0 0 7.624 20.256-12.8 16.779l-7.481 8.318s-1.553 5.64 6.494 8.461c0 0 11.435 2.962 17.223 19.458 0 0 18.117-1.786 25.74-15.698 0 0-13.13-19.13-21.506-38.306-6.21 2.397-9.528-6.91-9.528-6.91s-3.317-4.864-12.07-.28l-3.012 3.665"/>
        <path fill="#342E59" d="M400.64 56.06c-4.032.93-15.718 5.92-11.859 13.441 1.195 2.328 6.963 2.727 11.575 2.068 0 0-.94 9.4 6.683 10.247 0 0 .613-2.448 1.976-3.103 2.353-1.128 4.182.3 3.106 4.607-.404 1.612-3.247 5.076.94 6.58.906.325-.208-.012.895.285.782.21 1.684.693 2.812 1.841.84.857.832 2.114.544 3.76a52.07 52.07 0 0 1-.391 1.916c-.623 2.875 3.2 13.7 17.034 8.061 4.759-1.94 7.812-6.65 5.646-12.385-1.716-4.544-7.246-2.351-6.4-7.896.68-4.447 3.482-10.693-2.351-12.879-8.282-3.102-9.313-4.063-10.07-10.058-1.13-8.93-14.776-7.726-20.14-6.486"/>
        <path fill="#F2BEC7" d="M408.262 124.728l-26.822 29.753s-2.918 3.665-8.941-5.36l-21.081-28.953 4.612-4.887 19.858 22.749s26.774-32.901 28.233-34.594c1.459-1.691 8.8-8.46 15.858 2.116 0 0 6.776 13.112-1.411 18.188 0 0-3.106 2.539-10.306.988"/>
        <path fill="#EEA2A4" d="M408.262 124.728l6.917-7.755-4.659 6.909s8.495 1.48 11.507-4.723c0 0-.493 4.183-6.047 5.71-1.862.511-4.894.845-7.718-.141"/>
        <g transform="translate(313.316 66.345)">
            <mask id="f" fill="#fff">
                <use xlink:href="#e"/>
            </mask>
            <path fill="#F2BEC7" d="M10.103 4.8S6.29 2.828 5.022.782c0 0-.478-1.021-1.13-.703-.682.331-.141 1.41-.141 1.41s2.54 4.722 6.775 5.921c0 0-3.528-.141-7.622-6.345 0 0-.725-1.074-1.341-.635-.522.372 0 1.481 0 1.481s2.4 6.274 8.258 7.403c0 0-3.318.635-7.623-4.724 0 0-1.059-.988-1.554-.493-.65.65.072 1.48.072 1.48S3.464 9.664 6.08 11.71c1.698 1.326 4.446 3.666 7.553 4.158L12.08 5.435l-1.977-.634" mask="url(#f)"/>
            <path fill="#FAE4AD" d="M111.18 94.62s-.14 19.742 3.812 30.034c0 0 39.668 2.82 55.621-5.076 0 0-6.117-25.474-33.693-40.656 0 0-6.964 13.16-25.74 15.698" mask="url(#f)"/>
        </g>
        <path fill="#F2BEC7" d="M351.418 120.168s-2.664-1.45-4.33-2.726c-3.046-2.332-6.626-5.465-11.858-7.896 0 0-3.2-2.726 3.765-.094l3.482 1.504s-6-3.313-7.976-5.851c-1.976-2.539 8.823 3.878 8.823 3.878s-7.506-6.111-7.976-8.084c-.47-1.974 8.258 5.357 8.258 5.357s-4.196-4.476-5.27-6.205c-.142-.225-.668-1.857.752-.75 1.615 1.257 6.024 5.545 6.024 5.545s3.86 4.23 4.893 2.444c1.035-1.786-.658-4.888.755-6.299 1.41-1.41 1.034 1.599 1.222 3.008.189 1.411.283 2.727 1.318 4.325 1.035 1.599 1.13 5.546 2.824 7.05l-4.706 4.794"/>
        <path stroke="#EEA2A4" stroke-width=".225" d="M395.274 114.434l9.317-11.491-9.317 11.491z"/>
        <path fill="#F2BEC7" d="M335.984 80.17s.14-6.908-4.377-9.517c0 0-5.859-1.974-6.846-4.019l1.27 8.602 2.54 8.106 4.025 2.046 3.388-5.218"/>
        <path fill="#E57289" d="M316.126 49.76l12.422 40.987s2.446 1.314 3.577-1.13l-12.518-41.079-3.481 1.222"/>
        <path stroke="#E57289" stroke-width="2.478" d="M324.574 32.746c1.988 8.492-1.446 16.555-7.671 18.01-6.226 1.453-12.884-4.252-14.873-12.745-1.989-8.494 1.447-16.556 7.672-18.011 6.224-1.453 12.883 4.252 14.872 12.746z"/>
        <path stroke="#E57289" stroke-width=".451" d="M323.09 30.678l-15.717-8.272-1.978 1.691 19.012 11.094v3.29L303.515 25.79l-1.036 3.383 22.21 12.597-1.694 3.76-21.645-14.477.283 3.104L321.49 46.94l-2.07 2.07-17.6-12.034.754 3.666 14.775 9.87 7.528-17.672-2.634-4.136-7.246 21.996-3.107-.564 8.94-24.722-1.88-2.445-9.319 26.134-2.258-1.974 8.94-25.946-2.729-.563-7.622 25.192-2.542-3.384 8.094-22.56-2.824 1.035-6.493 20.68-.753-3.384 4.423-16.452"/>
        <path stroke="#E57289" stroke-width="2.511" d="M66.36 54.627c-1.651 8.685-8.15 14.745-14.516 13.537-6.366-1.207-10.187-9.226-8.536-17.91 1.652-8.683 8.15-14.743 14.515-13.536 6.365 1.206 10.187 9.226 8.536 17.91z"/>
        <path stroke="#E57289" stroke-width=".457" d="M65.834 52.104L54.677 37.99l-2.527.755 13.049 18.078-1.354 3.048-14.136-20.33-2.35 2.71 15.394 20.785-3.115 2.788L45.54 43.53l-1.015 2.988 13.139 19.994-2.77 1.067L43.54 49.21l-.811 3.706 9.629 15.207L66.6 54.84l-.738-4.913L50.1 67.33l-2.645-1.796L65.908 46.3l-.74-3.037-19.38 20.387-1.28-2.756 18.954-20.367-2.296-1.642-17.426 20.21-.961-4.177 16.777-17.58-3.04-.2-14.522 16.494.693-3.445 10.865-13.424"/>
        <path fill="#F2BEC7" d="M607.735 65.084s1.693 7.614 7.059 8.178c0 0 7.834.986 11.503-7.615l1.696-.493 4.446-6.064-.635-3.877-2.188-8.178-5.93-5.006-6.352 1.833-1.765 5.004-4.941-7.825-4.8 8.603-2.823 5.78-1.059 2.326 3.813 5.57 1.976 1.764"/>
        <path fill="#BB745F" d="M609.89 46.077c-.514 1.504-1.357 4.153-3.99 3.402 0 0 .187 2.63-.284 6.862 0 0-2.454-1.472-2.557.845-.007.168-.002.355.017.564.283 3.104 3.952 4.936 3.952 4.936l.707 2.398s-2.683 1.83-4.66-4.373c0 0-3.105-1.268-1.976-5.358 0 0-2.542-3.947.989-6.908 0 0-2.26-6.064 2.964-7.474 0 0-2.54-8.742 7.905-7.191 0 0 7.06-8.601 12.988 1.41 0 0 7.906-1.692 6.918 8.179 0 0 4.657.423 2.682 7.896 0 0 .439 7.388-3.67 11.35-2.047 1.974-5.612 3.067-5.612 3.067l1.128-2.644s4.06-.705 3.354-4.513c-.706-1.832-2.4.072-2.4.072s1.623-3.948.564-7.332c-1.3-1.447-4.517-.142-5.504-5.5 0 0 0 5.922-5.93 6.205 0 0-4.657.211-6.364-5.865-.171-.606-1.015-.625-1.22-.028"/>
        <g transform="translate(547.676 36.302)">
            <mask id="h" fill="#fff">
                <use xlink:href="#g"/>
            </mask>
            <path fill="#574E62" d="M48.247 42.88l5.6-1.126s-.142 26.79 13.129 26.79c0 0 12.658.189 13.787-25.756l3.717 1.08s-2.311 38.048.66 45.263c3.482 8.46 6.433.88 6.433.88l3.354 34.089s1.695 5.64-8.187 6.768c0 0-20.894 5.64-30.776-3.102 0 0-4.236-28.483-9.034-47.941 0 0 6-6.627 1.317-36.945" mask="url(#h)"/>
            <path fill="#E57289" d="M58.788 144.685S53.334 62.704 26.601 16.372C25.057 13.697 17.245-.34 11.92.298 4.86 1.143 2.577 10.314 1.474 21.73-5.021 88.85 13.049 145.815 13.049 145.815l45.74-1.13" mask="url(#h)"/>
        </g>
        <g transform="translate(547.676 81.367)">
            <mask id="j" fill="#fff">
                <use xlink:href="#i"/>
            </mask>
            <path fill="#F9DDE2" d="M-8.973 13.608L22.93 28.273 46.648.073l11.857 46.531-27.95 27.073L-9.821 55.91l.848-42.302" mask="url(#j)"/>
        </g>
        <path fill="#F2BEC7" d="M776.15 64.8l-.125 9.59s1.634 2.592 2.947 5.216c.707 1.41-3.246 1.41-3.246 1.41l.14 5.5s.848 8.178-16.092 5.076l-3.953-24.254 9.035-3.664 11.294 1.127"/>
        <path fill="#F2BEC7" d="M766.55 90.604l-.142 11.14s-7.482-2.396-12.987-1.973c-5.506.422 2.541-14.242 2.541-14.242l10.588 5.075"/>
        <g transform="translate(542.663 78.863)">
            <mask id="l" fill="#fff">
                <use xlink:href="#k"/>
            </mask>
            <path fill="#F2BEC7" d="M10.227 68.073C4.015 69.2 2.463 61.164.934 43.937c0 0-1.883-23.125 1.694-34.029 0 0 1.035-2.537 2.023-8.038 0 0 .494-3.454 1.27.212.778 3.666 0 6.063 0 6.063s3.176-4.37 9.67-5.64c0 0 2.917-.187-.824 2.14-3.74 2.326-4.893 3.36-4.893 3.36s6.564-4.865 9.811-5.217c3.247-.352-5.576 3.842-8.117 6.415 0 0 6.494-4.583 8.188-5.006.907-.226 1.167.2-.071 1.446-1.075 1.082-3.247 2.456-6.6 5.146 0 0 4.92-3.895 6.2-3.748.612.07.394.704-.353 1.645-.938 1.182-3.216 2.2-4.894 4.748-1.695 2.573-2.894 4.935-6.493 6.768 0 0-1.483 29.61 2.682 47.87" mask="url(#l)"/>
            <path fill="#70B2B5" d="M207.418 24.196s-11.319 2.193-24.846 44.37c-1.91 5.954-4.141 16.92-3.765 29.328h10.728l1.13-8.46c3.953-20.116 7.227-20.467 10.728-30.832l3.012-14.288 3.013-20.118" mask="url(#l)"/>
            <path fill="#336F70" d="M203.144 38.98c-1.008 3.433-1.886 6.898-2.747 10.36-.847 3.47-1.56 6.965-2.217 10.465a96.333 96.333 0 0 0-1.344 10.571c-.24 3.528-.247 7.104.465 10.537l.043.2-.107.166c-1.584 2.485-3.18 4.976-4.686 7.511a110.956 110.956 0 0 0-2.195 3.838c-.7 1.294-1.38 2.605-1.913 3.957l-.45-.155c.48-1.431 1.127-2.772 1.799-4.096.675-1.323 1.377-2.63 2.103-3.922 1.456-2.582 2.939-5.146 4.525-7.655l-.064.367c-.79-3.574-.826-7.225-.628-10.82.231-3.6.794-7.158 1.468-10.685.668-3.527 1.565-7.003 2.55-10.448a117.446 117.446 0 0 1 3.398-10.191" mask="url(#l)"/>
        </g>
        <path fill="#F2BEC7" d="M834.405 119.51s.749-.92 1.412-1.74c1.778-2.191 5.218-6.087 11.482-5.591 2.712.215 5.92.48 10.87-.565.82-.173 2.188 1.375-1.942 3.597-1.773.952-4.341 1.374-6.811 1.198 0 0 6.777.916 9.6-1.128 1-.725 2.837-2.43 3.953-2.962.53-.252 2.609-.657.387 2.318-.55.734-1.13 1.525-2.646 2.934-1.52 1.412-3.67 1.868-8.187 1.376l5.867.087c.789.012 1.65-.37 2.744-1.216l3.6-3.278s3.195-2.088.07 2.891c-.835 1.33-1.513 2.356-2.294 2.996-.604.497-1.094.917-2.153 1.163-2.14.5-7.27.177-7.27.177l7.411.106s2.33.035 4.307-3.349c1.975-3.385 2.4-.38 1.059 1.973-.693 1.214-1.413 3.032-4.095 3.878-2.683.847-8.118-.212-8.118-.212s6.247 1.834 8.789.282c2.54-1.55 2.144-2.042 3.069-2.678.727-.5 2.26-.141-.988 3.384-3.247 3.524-8.576 2.502-12.74 2.22-3.266-.22-3.305-1.234-12.2-1.657l-5.176-6.204"/>
        <g transform="translate(833.42 130.187)">
            <mask id="n" fill="#fff">
                <use xlink:href="#m"/>
            </mask>
            <path fill="#C1396D" d="M.608 3.002h38.68L35.196.462 3.008.605l-2.4 2.397" mask="url(#n)"/>
            <path fill="#E57299" d="M39.253 2.966l.742 48.964H.797L.68 2.966h38.574" mask="url(#n)"/>
        </g>
        <path fill="#C1396D" d="M845.04 136.431c0 .779-.482 1.88-1.223 1.88-.741 0-1.458-1.101-1.458-1.88 0-.779.599-1.41 1.34-1.41.741 0 1.34.631 1.34 1.41M864.663 136.22c0 .74-.483 1.996-1.223 1.996-.742 0-1.459-1.257-1.459-1.997a1.34 1.34 0 1 1 2.682 0"/>
        <g transform="translate(843.446 93.885)">
            <mask id="p" fill="#fff">
                <use xlink:href="#o"/>
            </mask>
            <path stroke="#A1BFDA" stroke-width="1.126" d="M10.064 22.524s-11.389.564-9.787 19.553m19.105-9.26s1.693 4.09.564 9.306" mask="url(#p)"/>
            <path fill="#867DAE" d="M77.605 81.408s-14.96-21.325-3.196-34.816c3.67-4.206 15.464-9.108 11.473-19.149-2.372-5.967-9.585-21.524.726-25.677 9.732-3.915 11.328 6.24 10.603 11.75-.727 5.515 2.648 15.53 11.328 19.73 13.797 6.673-.727 21.615-.727 21.615s-6.68 7.833 5.374 8.123c12.054.29 4.794 18.278-3.34 18.424H77.605" mask="url(#p)"/>
        </g>
        <path fill="#825156" d="M1027.854 43.369s4.235 7.05 16.94 4.37c0 0-2.4 7.331 4.237 10.294l-1.413 4.653s-.423 8.272 2.4 10.386c0 0 9.882-.234 10.87-14.052 0 0-.424-22.278-10.87-20.023 0 0-7.623-9.87-19.199-.846 0 0-3.53 1.974-2.965 5.218"/>
        <path fill="#825156" d="M1030.678 45.906s-7.34 19.882 5.787 22.561c0 0 3.765 3.196-.565 5.076 0 0-8.187 2.539-11.01-5.076 0 0-4.517-12.408 3.952-24.252l1.836 1.691"/>
        <path fill="#DE8E94" d="M766.456 92.25s-5.364-.283-6.682-.658c0 0 2.446 2.35 6.682.658"/>
        <g transform="translate(983.812 77.612)">
            <mask id="r" fill="#fff">
                <use xlink:href="#q"/>
            </mask>
            <path fill="#F2BEC7" d="M33.173 9.186L14.256 25.26 6.632 4.768.703 6.365s6.776 29.893 12.142 32.15c0 0 1.693 3.947 26.539-20.305l-6.211-9.024" mask="url(#r)"/>
            <path fill="#E5726D" d="M45.453.021s2.118 16.92 12.002 20.446c0 0 9.598-2.82 14.398-20.164 0 0 4.94 1.268 7.905 3.808 2.965 2.537 7.482 5.78 7.482 5.78l-10.68 10.2s1.364 3.37 1.364 6.297c0 1.761-.937 4.013-1.782 5.306-.306.47-.559.965-.76 1.48a8.69 8.69 0 0 0-.39 4.897c3.31 16.154 18.035 52.897 18.035 52.897s-27.104 19.178-62.113 6.204c2.855-6.418 11.77-38.705 12.459-54.545.145-3.352-.72-6.697-2.62-9.466-1.384-2.024-2.579-5.609-.523-11.285L30.207 6.93 45.453.021" mask="url(#r)"/>
        </g>
        <path fill="#F2BEC7" d="M991.82 77.21c-.112 1.365-.466 2.43-.87 3.739-.225.725-.367 1.482-.69 2.168-.323.687-.876 1.32-1.613 1.503-1.283.32-2.643-.792-3.895-.363-1.296-2.585-2.809-4.598-3.915-7.167-.411-.954-.693-1.975-.723-3.015a.625.625 0 0 1 .097-.385c.107-.154.292-.23.473-.282 1.28-.367 2.777.079 3.911-.62.761-.47 1.18-1.365 2.052-1.717.193-.079.405-.115.611-.095.759.074.986.727 1.165 1.313.344 1.142.69 2.282 1.037 3.422"/>
        <path fill="#C9CBD1" d="M973.928 77.526l24.104-15.368s4.059 2.96 3.53 7.789l-24.74 11.916s-2.86-.847-2.894-4.337"/>
        <path fill="#F2BEC7" d="M976.891 81.828s-3.21.987-4.198-.847c0 0-.53-2.044 1.27-3.455 0 0 .211 2.786 2.928 4.302M979.78 70.626c-.611.387-.733 1.167-.668 1.843.098 1.033.572 2.12 1.566 2.63.219.11.49.192.715.09.255-.115.335-.407.365-.663.147-1.282-.285-2.61-1.176-3.613-.138-.153-.295-.305-.503-.36-.21-.055-.477.027-.533.217"/>
        <path fill="#F2BEC7" d="M981.604 69.317c-.728.506-.871 1.522-.796 2.404.118 1.35.68 2.769 1.864 3.432.259.148.582.252.85.119.303-.15.398-.53.433-.866a6.495 6.495 0 0 0-1.398-4.715c-.162-.2-.35-.399-.599-.472-.248-.07-.565.038-.635.287"/>
        <path fill="#F2BEC7" d="M983.862 68.377c-.728.506-.87 1.522-.794 2.405.117 1.35.68 2.767 1.86 3.432.261.147.585.25.853.118.302-.15.397-.531.432-.866a6.501 6.501 0 0 0-1.397-4.715c-.162-.2-.351-.399-.6-.472-.246-.071-.564.038-.633.287"/>
        <path fill="#F2BEC7" d="M986.122 66.498c-.728.505-.872 1.521-.796 2.403.118 1.35.68 2.768 1.862 3.433.26.146.584.25.851.118.302-.15.398-.531.434-.867a6.502 6.502 0 0 0-1.399-4.714c-.163-.2-.35-.4-.598-.472-.248-.071-.565.038-.635.287M991.82 77.21c.068-.809-.24-2.2-.387-2.996-.318-1.727-.07-3.022-.07-3.022-.094-.547-.8-.74-1.143-.303-1.039 1.325-1.311 3.263-.544 4.777l-.184.98 2.328.564"/>
        <g transform="translate(288.25 80.115)">
            <mask id="t" fill="#fff">
                <use xlink:href="#s"/>
            </mask>
            <path stroke="#574E62" stroke-width="1.126" d="M685.253.948s-5.647 5.265 2.636 18.05c8.281 12.783 3.2 24.252 3.2 24.252s-1.694 9.587 9.41 15.228c11.107 5.64-2.258 18.988-2.258 18.988s-5.27 6.018-2.823 10.53c2.447 4.512 7.529 6.015 4.33 12.407" mask="url(#t)"/>
            <path stroke="#67619C" stroke-width=".695" d="M649.72 92.184s-5.883-15.013 1.632-33.617c3.39-8.392-1.229-14.822-4.574-20.888-5.409-9.811-.471-18.37-.471-18.37m4.502 40.909c3.071-2.22 10.457-2.322 13.506-8.415m-16.137 17.73c-1.214-.74-2.756-.674-4.147-.38-1.392.296-2.754.795-4.175.848-2.446.09-4.588-1.08-6.307-3.48m15.121 21.94c2.045-2.561 5.604-3.235 8.856-3.657 3.252-.42 6.794-.895 9.072-3.25m-20.147-44.402c-.966-2.785-.049-7.031 1.469-9.56.653-1.086 1.402-2.252 1.252-3.511" mask="url(#t)"/>
            <path fill="#867DAE" d="M34.425 95.178S46.579 77.852 37.02 66.89c-2.981-3.419-12.565-7.4-9.323-15.559 1.928-4.85 7.788-17.489-.589-20.861-7.906-3.183-9.205 5.067-8.615 9.546.59 4.48-2.15 12.618-9.204 16.03-11.21 5.422.59 17.562.59 17.562s5.429 6.364-4.366 6.601c-9.794.235-3.894 14.851 2.714 14.969h26.197" mask="url(#t)"/>
            <path stroke="#67619C" stroke-width=".565" d="M20.678 92.745s4.778-12.198-1.329-27.313c-2.753-6.819 1-12.043 3.717-16.972 4.397-7.972.385-14.927.385-14.927m-3.658 33.24c-2.495-1.805-8.496-1.887-10.975-6.837M21.93 74.342c.987-.601 2.24-.547 3.37-.308 1.131.239 2.237.646 3.391.688 1.988.073 3.727-.877 5.125-2.826M21.53 89.72c-1.66-2.08-4.553-2.627-7.196-2.97-2.642-.34-5.52-.728-7.37-2.642m16.368-36.076c.787-2.262.04-5.712-1.192-7.767-.53-.883-1.14-1.831-1.019-2.854" mask="url(#t)"/>
        </g>
        <path fill="#563944" d="M773.42 73.357c-1.156.15-2.133.334-3.12.607-.49.14-.982.288-1.477.464-.503.168-1 .37-1.579.526.597-1.022 1.637-1.703 2.766-2.033a4.907 4.907 0 0 1 1.759-.15c.582.06 1.171.224 1.651.586M1039.093 50.737c.838-.402 1.785-.479 2.715-.357.457.104.925.235 1.326.508.396.274.718.655.869 1.093-.685-.617-1.438-.933-2.289-1.045-.836-.172-1.706-.14-2.62-.2M1034.726 50.21c-.404-.136-.803-.154-1.197-.15-.396.014-.79.03-1.182.12-.398.036-.79.141-1.19.215-.403.081-.804.179-1.234.231a4.996 4.996 0 0 1 1.103-.644c.394-.167.81-.274 1.235-.36.43-.048.87-.075 1.306.008.426.084.873.24 1.159.58"/>
        <path stroke="#DE8E94" stroke-width=".451" d="M1035.477 52.157s-.658 5.076-1.222 7.709c0 0 .752.751 2.54.47"/>
        <path fill="#563944" d="M758.926 70.158s5.46.94 11.107 0c2.142-.355 4.445-1.633 6.117-2.82 0 0 6.633 1.834 8.893-3.1 0 0 1.553-6.205-2.965-7.334-4.517-1.128-11.293.706-11.293.706s-4.093-9.024-15.388-8.038c0 0-15.67 1.128-11.575 22.843 0 0-14.117 4.653-11.435 16.075 2.682 11.421 9.035 15.37 14.964 14.382 0 0 20.47.564 11.575-32.714"/>
        <path fill="#DE8E94" d="M1036.465 68.467s6.777 0 11.153-5.78c0 0-2.494 6.531-11.153 5.78M1037.454 63.344c0 .389-.906.704-2.024.704-1.116 0-2.023-.315-2.023-.704 0-.39.907-.047 2.023-.047 1.118 0 2.024-.343 2.024.047"/>
        <path stroke="#DE8E94" stroke-width=".451" d="M775.585 84.26s.282.423-2.965.14"/>
        <path fill="#DE8E94" d="M609.005 68.537s2.612 4.795 6.988 4.583c0 0 4.87-.07 7.976-3.808 0 0-1.825 4.371-7.694 4.443-5.788.07-7.27-5.218-7.27-5.218"/>
        <path fill="#BB745F" d="M608.016 53.662s1.27-1.692 4.66-1.41M621.428 52.253s3.246-.566 4.94 1.831"/>
        <path fill="#DE8E94" d="M393.862 91.31s1.554.14 3.389-1.27"/>
        <path fill="#4B4677" d="M392.028 75.376s3.246-1.691 5.364-.282"/>
        <path stroke="#DE8E94" stroke-width=".225" d="M615.64 55.636l-.424 7.614h2.541"/>
        <path fill="#DE8E94" d="M615.781 66.634s2.965.847 4.376-1.129c0 0-1.41 3.104-4.376 1.13"/>
        <g transform="translate(205.535 58.835)">
            <mask id="v" fill="#fff">
                <use xlink:href="#u"/>
            </mask>
            <path stroke="#70B2B5" stroke-linecap="round" stroke-width="2.79" d="M76.239.608l1.342 131.17" mask="url(#v)"/>
            <path stroke="#70B2B5" stroke-linecap="round" stroke-width="2.678" d="M.916 22.549l.504 121.32" mask="url(#v)"/>
        </g>
        <path stroke="#70B2B5" stroke-width=".676" d="M206.217 88.875l74.09-19.453 1.103 59.769-74.04 25.213z"/>
        <path stroke="#70B2B5" stroke-width=".661" d="M208.645 95.701l73.039-19.958.02 7.063-74.143 20.917.052 9.677 74.117-22.083.024 8.148-74.14 20.609.093 9.964 73.698-22.24.022 7.062-73.437 23.545-.283 7.896 73.737-25.465.94 8.072-4.16 1.373-.484-60.139-5.79 1.646 1.923 59.877-5.449 1.92-1.518-60.515-6.538 1.831 3.233 60.055-5.603 2.19-3.421-60.779-6.725 1.832 4.954 60.728-7.678 2.52-3.628-61.6-5.415 1.646 3.776 61.77-6.325 2.254-3.617-62.557-6.723 2.194 6.033 61.698-6.65 2.32-5.363-63.095-5.79 1.828 6.392 62.704-5.603 1.828-3.508-63.64"/>
        <path fill="#F2BEC7" d="M79.528 63.24c2.689-.436 6.054 1.067 9.278 3.562.834.645 3.5.07 4.525.48 1.064.425-.818 2.868-.222 3.522 1.67 1.834 3.168 3.847 4.346 5.864 3.741 4.946-2.849 8.024-6.462 12.057-1.782.007-2.085-2.246-6.242-.538-2.113.866-10.016-.63-10.016-3.072 0-2.248 3.586-2.758 3.586-2.758s-9.413-.713-9.538-8.174c.618-3.678 7.197-4.756 10.745-10.942"/>
        <path fill="#F2BEC7" d="M77.577 83.874s3.655 6.332 5.373 13.899c1.718 7.566 12.25-1.46 12.25-1.46s-4.12-5.649-3.75-11.238l-13.873-1.2"/>
        <path fill="#BDE0EC" d="M82.456 96.456s9.882 6.416 10.376-4.607l2.165-1.482c2.85-1.41 4.752-3.549 5.981-6.115l3.83-5.866s10.005 7.772 14.08 7.772l-2.011 15.562 23.22 46.716s-13.175 21.55-45.783 20.07c0 0-1.482-13.983-5.435-27.307-1.29-4.352-6.093-17.108-6.093-17.108l-13.92 10.92s-3.334-12.584-9.263-17.025c0 0 12.109-13.388 22.853-21.53"/>
        <path fill="#F2BEC7" d="M95.153 30.417s-4.085-.806-6.933-9.053c-.623-1.805-1.267-3.915-.722-7.602 0 0 .746-2.794 1.367 1.365.158 1.055.005 2.112.158 2.721.648 2.589 1.362 3.047 1.362 3.047s-.706-1.742-1.054-3.896c-.366-2.272-.35-4.985.492-5.967 0 0 .36-.705.715.891.127.57.073 2.272.235 3.56.576 4.586 1.646 4.558 1.646 4.558s-.664-1.748-.782-3.818c-.091-1.63.212-3.457 1.056-4.782 0 0 1.217-1.58 1.009 1.34-.012.175-.03.364-.053.572-.105.955-.27 1.992-.22 2.789.145 2.273.903 3.626.903 3.626s-.371-1.697-.41-3.545c-.027-1.384.196-2.871.548-3.689.455-1.064.87-.667.955.38.069.835-.112 2.39-.082 3.124.048 1.165.577 3.599.577 3.599s.965 2.549 1.4 1.582c.267-.596.267-1.799.623-3.621.374-1.918 1.858-2.182 1.436 1.792-.257 2.405.83 4.065.693 8.978-.137 4.916-4.92 2.05-4.92 2.05M43.3 102.072s-6.162-6.645-5.474-11.456c.083-.575.703-.686 1.029-.78l10.581-2.715s2.306 9.83-.579 13.84c-4.347 6.049-5.557 1.11-5.557 1.11"/>
        <path fill="#E57289" d="M45.982 66.39l.842 9.585-7.408 30 3.822 1.15 7.646-31.505L56.61 68.8l-3.485-1.552-3.542 6.255-.278-7.407-3.323.292"/>
        <path fill="#F2BEC7" d="M37.826 91.78c-.008.565 1.03 2.404 1.949 3.483.868 1.02 1.986 1.88 3.296 2.267.25.075.526.13.767.033a.82.82 0 0 0 .377-.346c.238-.404.186-.921-.022-1.342-.207-.42-.55-.76-.893-1.086-1.529-1.447-4.9-4.484-5.471-3.025"/>
        <path fill="#F2BEC7" d="M39 89.157c-.556 1.008 1.106 2.679 2.095 3.883.933 1.137 2.135 2.094 3.542 2.527.27.084.567.144.825.035a.872.872 0 0 0 .405-.384c.257-.452.2-1.028-.023-1.496-.223-.468-.591-.849-.96-1.212-1.644-1.613-5.267-4.998-5.881-3.372"/>
        <path fill="#F2BEC7" d="M40.18 88.028c-.203.776 1.11 2.343 2.363 3.06 1.12.641 2.145 1.51 3.424 1.685.243.033.509.044.718-.087a.766.766 0 0 0 .295-.39c.158-.425.027-.917-.232-1.289-.258-.373-.632-.65-1.003-.913-1.65-1.162-5.263-3.576-5.564-2.083"/>
        <path fill="#F2BEC7" d="M41.343 87.114c-.193.586.917 1.732 1.996 2.243.961.456 1.837 1.085 2.947 1.19.211.02.443.024.627-.078a.654.654 0 0 0 .266-.298c.147-.323.041-.687-.175-.962-.218-.274-.537-.474-.856-.662-1.413-.836-4.512-2.57-4.804-1.446"/>
        <path fill="#F2BEC7" d="M49.525 87.626c-.336-1.719-.541-1.41-.85-4.022-.11-.929-.616-.731-.824-.533-.412.39-.743 1.496-.83 2.123-.195 1.434-.382 2.945.15 4.29.174.434.51.893.977.878.51-.015.815-.577.917-1.076.103-.5.137-1.062.505-1.413"/>
        <path fill="#BB745F" d="M81.314 67.62s-3.67 1.412-3.954 6.205"/>
        <path stroke="#EEA2A4" stroke-width=".676" d="M95.713 74.39l-4.235 3.666"/>
        <path fill="#EEA2A4" d="M80.184 88.79s-.26 1.537 5.459 1.024M106.995 63.063c.845.701 1.845.929 2.929 1.033-.265.07-.54.116-.817.107-.279.002-.553-.06-.825-.13-.52-.189-1.035-.507-1.287-1.01M55.527 123.908c.495.646.62 1.466.676 2.245-.015.393-.023.788-.107 1.172a4.225 4.225 0 0 1-.38 1.116c-.082-.794-.031-1.531-.076-2.276.005-.746-.064-1.47-.113-2.257"/>
        <path fill="#99C9DF" d="M116.918 101.727c.107.377.16.73.275 1.08.071.35.145.692.248 1.028.198.669.336 1.331.544 1.98.181.657.39 1.305.586 1.977.193.678.448 1.337.61 2.106l-.068.049a13.13 13.13 0 0 1-1.94-3.898c-.381-1.409-.55-2.887-.339-4.337l.084.015"/>
        <path stroke="#DE8E94" stroke-width=".451" d="M998.068 102.872l1.411 3.243"/>
        <path fill="#C65655" d="M1058.489 112.319s-2.965 2.115-8.047 2.257"/>
        <path fill="#BDE0EC" d="M59.603 117.986s-.49 1.705.818 5.002c1.789 4.513 5.128 11.73 8.446 12.022l1.905-7.979-11.17-9.045"/>
        <path fill="#EEA2A4" d="M38.963 93.001s.705 2.892 2.753 3.95"/>
        <path stroke="#EEA2A4" stroke-width=".113" d="M38.963 93.001s.705 2.892 2.753 3.95"/>
        <path fill="#E4728B" d="M1146.318 109.422c-3.11-1.03-6.549-.722-9.332 1.004-3.52 2.18-6.914 6.968-6.42 17.391 0 0 .802 25.745 29.732 13.91l17.29-7.505-27.576-15.052-3.694-9.748"/>
        <path fill="#F2BEC7" d="M1163.33 55.87s.187 22.372 16.941 20.681c0 0 16.375-1.034 11.953-22.749-4.426-21.715-14.213-7.896-14.213-7.896l-12.611.563-2.07 9.401"/>
        <path fill="#BB745F" d="M1177.73 41.205s-13.553-8.271-22.776 12.597l9.694 4.443s.518-4.489 3.317-7.756c1.297-1.515 3.6-3.032 7.182-2.232 1.998.448 4.017.805 5.852-.104 2.536-1.256 6.666-1.29 11.6 6.214l6.07-5.78s-10.964-18.097-20.94-7.382"/>
        <path fill="#BB745F" d="M1157.966 54.18l6.894 10.762.635-.235-1.411-10.693-6.118.165M1191.658 50.606l.871 10.317h.493l3.53-13.7-4.894 3.383"/>
        <path fill="#F2BEC7" d="M1164.944 62.994c-.433-.412-.876-.83-1.428-1.059-.549-.229-1.238-.225-1.688.165-.403.35-.533.94-.454 1.468.08.528.335 1.01.598 1.474.648 1.147 1.41 2.304 2.567 2.933.59.322 1.39.462 1.89.013.161-.146.273-.34.342-.546.267-.806-.137-1.678-.614-2.38-.478-.703-1.058-1.386-1.198-2.223M1192.495 60.846a3.867 3.867 0 0 1 1.676-1.9c.22-.121.466-.225.714-.193.371.048.646.397.724.763.076.365-.004.744-.097 1.106a15.938 15.938 0 0 1-1.546 3.853c-.234.417-.51.845-.945 1.043-.193.089-.42.124-.618.044-.409-.163-.495-.69-.522-1.13-.041-.728-.082-1.465.05-2.184.133-.717.462-1.426 1.036-1.875"/>
        <path fill="#70B2B5" d="M1160.413 104l1.128 10.153 19.2 21.573 20.611-1.55-1.695-33.56 17.13 17.485 8.658-10.904s-20.422-23.877-29.74-25.475c-5.216-.895-23.984.177-31.998.693-2.39.152-4.776.853-6.643 2.353-1.005.807-2.016 2.711-2.016 2.711"/>
        <path fill="#89CDCD" d="M1215 115.47c-.486.59-.764 1.394-.229 1.94.59.605 1.392 1.332 2.168 1.729 1.485.762 9.258-9.818 9.258-9.818l-2.73-3.252-8.468 9.4"/>
        <path fill="#E4728B" d="M1152.434 108.635l5.68 1.374c6.263 1.515 12.855.579 18.478-2.565 5.13-2.867 11.92-4.418 16.326 3.306 7.878 13.809 2.13 28.22-12.742 24.46-12.22-3.091-34.233-18.99-34.233-18.99l6.49-7.585"/>
        <path fill="#574E62" d="M1254.342 98.172l1.315 6.204-75.77 19.954-1.309-7.586 75.764-18.572"/>
        <path fill="#AB6671" d="M1181.321 122.048c0 4.362-3.608 7.897-8.062 7.897-4.454 0-8.065-3.535-8.065-7.897 0-4.36 3.611-7.895 8.065-7.895 4.454 0 8.062 3.535 8.062 7.895M1140.931 120.074l2.54 14.947 3.388-1.129-2.54-14.945-3.388 1.127"/>
        <path fill="#574E62" d="M1250.479 99.205l4.276-2.29c2.745-1.472 6.141.08 6.83 3.116.602 2.672-1.453 5.204-4.198 5.168l-5.497-.07-1.411-5.924"/>
        <g transform="translate(1153.003 151.468)">
            <mask id="x" fill="#fff">
                <use xlink:href="#w"/>
            </mask>
            <path fill="#E5726D" d="M58.089 7.525H4.304A3.396 3.396 0 0 1 .916 4.14v-.564A3.394 3.394 0 0 1 4.304.193h53.785c1.865 0 3.39 1.52 3.39 3.383v.564a3.397 3.397 0 0 1-3.39 3.385" mask="url(#x)"/>
            <path fill="#E5726D" d="M51.925 4.986l-4.517 19.74 10.87.282L55.69 5.55l-3.765-.564" mask="url(#x)"/>
        </g>
        <path fill="#89CDCD" d="M1174.247 78.196l-6.775 3.244s3.387 7.896 5.08 11.561l4.236-3.383-2.541-11.422"/>
        <path fill="#423733" d="M1209.987 149.286s11.102 6.484 12.916 9.589c1.883 3.22.754 6.321-6.634 3.525-6.703-2.538-7.624-6.91-7.624-6.91l1.342-6.204"/>
        <path fill="#89CDCD" d="M1182.717 88.49l4.235-10.999 6.636 2.962-5.79 11.845-5.08-3.808"/>
        <g transform="translate(1150.496 70.1)">
            <mask id="z" fill="#fff">
                <use xlink:href="#y"/>
            </mask>
            <path fill="#F2BEC7" d="M23.327 4.289s.565 6.204-1.128 8.178l7.058 17.908 9.317-19.036S35.47 8.379 35.327.058l-12 4.23" mask="url(#z)"/>
            <path fill="#BABEC4" d="M50.856 64.075l8.752 18.048-2.824 24.817-15.811-.283 2.542-24.534-9.6-15.228 7.623 10.434-19.339-4.09s37.974 5.358 37.409 5.5c2.118 5.921-.846 9.306-.846 9.306s-36.706-1.974-50.54-5.359c-3.234-.79-11.01-2.819-7.058-11.28 3.953-8.46 21.833-9.212 33.41-6.674.979-.004 4.07.259 6.964-1.432 4.895-.197 9.318.775 9.318.775" mask="url(#z)"/>
        </g>
        <path stroke="#E8EAE5" stroke-width=".451" d="M1140.823 127.305l110.503-26.97m-110.112 29.423l110.488-27.733m-110.207 29.8l110.584-28.2"/>
        <path fill="#F2BEC7" d="M1237.208 109.452l3.566-2.225.323-.585a4.252 4.252 0 0 0 .45-2.897c-.335-1.672-.763-4.15-.385-4.257.918-.258 2.257 5.64 2.257 5.64s.132-1.249-.087-2.556c-.272-1.623-.871-3.383-.442-3.507 1.249-.358 2.224 5.5 2.224 5.5s.144-1.229-.018-2.556c-.189-1.558-.665-3.258-.276-3.38 1.106-.339 1.988 5.56 1.988 5.56s.07-1.224-.054-2.515c-.153-1.625-.468-3.402-.016-3.467.377-.053.712.835 1.163 2.306.35 1.146.57 2.332.648 3.528.105 1.572.18 2.86-.173 4.116l-.627 2.235-7.858 2.209-2.683-3.149"/>
        <path fill="#F2BEC7" d="M1248.634 105.622c.063.438.208.75.366 1.15.05.13.142.276.278.267a.323.323 0 0 0 .166-.075c.468-.336.853-.774 1.31-1.126.454-.351 1.022-.62 1.591-.533.153.025.325.098.361.248.046.19-.15.342-.313.45-1.162.78-1.823 2.109-2.823 3.085-.436.424-.935.78-1.443 1.113-.186.12-.359.188-.578.224-.22.036-.491.019-.607-.17-.066-.107-.081-.236-.094-.36-.07-.646-.136-1.319.093-1.927.107-.28.272-.536.399-.809.152-.33.249-.686.443-.993.193-.306.423-.55.785-.524"/>
        <path fill="#70B2B5" d="M1143.13 123.842a7.433 7.433 0 0 1-3.206-10.107l15.124-26.28 1.694-.516 3.671 17.06-9.035 11.845 1.67 1.255-9.919 6.743"/>
        <path fill="#F2BEC7" d="M1218.95 116.502l-1.129 1.176c.282.14 1.507 1.08 2.918 1.175 7.34-1.786 20.132-6.429 19.482-6.487l.188-4.511-3.295.94s-8.046 2.444-13.787 4.135c-1.412 1.034-4.376 3.572-4.376 3.572"/>
        <path fill="#9BA1A6" d="M1208.127 148.697a578.262 578.262 0 0 1-10.65-2.026l-10.619-2.173-10.591-2.302a588.838 588.838 0 0 1-10.56-2.451c3.555.644 7.106 1.318 10.65 2.026l10.618 2.176 10.591 2.302c3.528.782 7.047 1.602 10.561 2.448M1193.588 157.158c2.617.05 5.23.206 7.842.353 2.612.182 5.222.353 7.828.635-2.62-.048-5.231-.205-7.844-.353-2.61-.18-5.221-.353-7.826-.635"/>
        <path fill="#9BA1A6" d="M1188.999 144.75c-.421-.177-.67-.486-.933-.784-.209-.336-.432-.663-.478-1.118.423.176.671.484.932.783.21.337.431.664.479 1.12"/>
        <path fill="#FAE4AD" d="M1253.402 99.394a.71.71 0 0 1-.711.705.705.705 0 1 1 0-1.411c.388 0 .71.317.71.706M1255.933 98.62a.703.703 0 0 1-.702.704.703.703 0 0 1-.701-.705.703.703 0 1 1 1.403 0M1258.477 98.09c0 .389-.313.704-.702.704a.713.713 0 0 1-.714-.704c0-.39.326-.705.714-.705.389 0 .702.315.702.705M1259.68 103.13c0 .39-.313.707-.701.707a.706.706 0 1 1 0-1.411c.388 0 .701.315.701.705M1257.25 103.482c0 .391-.327.706-.715.706a.703.703 0 0 1-.702-.706c0-.388.313-.704.702-.704.388 0 .714.316.714.704M1254.743 103.765a.714.714 0 0 1-.715.705.703.703 0 0 1-.702-.705c0-.39.314-.706.702-.706.389 0 .715.316.715.706"/>
        <path fill="#BB745F" d="M1173.895 75.87s6.21 3.666 12.21-1.27"/>
        <path fill="#DE8E94" d="M1177.917 70.064s4.33 0 6.965-3.195"/>
        <path fill="#BB745F" d="M1181.927 52.353c.242-.256.53-.403.808-.594.292-.139.592-.264.895-.381.61-.233 1.253-.32 1.897-.358.644-.008 1.295.022 1.922.215.312.09.619.196.92.315.294.16.585.305.852.52l-.02.081a13.909 13.909 0 0 0-3.641-.286c-1.216.035-2.44.206-3.606.567l-.027-.08M1167.895 56.862c.246-.172.479-.277.702-.438.23-.113.454-.233.672-.362.436-.257.882-.442 1.328-.649.456-.179.904-.384 1.403-.515.493-.147.99-.305 1.587-.355l.05.07c-.847.61-1.75 1.143-2.705 1.576-.969.395-1.982.709-3.037.76v-.087"/>
        <path stroke="#DE8E94" stroke-width=".225" d="M1178.11 58.244l.53 5.973s.682.342 2.294-.427"/>
        <g transform="translate(1153.003 153.971)">
            <mask id="B" fill="#fff">
                <use xlink:href="#A"/>
            </mask>
            <path stroke="#DADFE2" stroke-width=".225" d="M59.944 4.166c1.383-.29 2.377-1.813 2.085-3.195m.011 4.881a2.486 2.486 0 0 0 1.93-.75c.49-.517.74-1.254.658-1.961m.05 4.399a1.978 1.978 0 0 0 1.424-.655c.357-.4.539-.951.489-1.487" mask="url(#B)"/>
            <path fill="#E5726D" d="M4.869 3.329L.35 23.069h7.907L9.809 3.47l-4.94-.141" mask="url(#B)"/>
        </g>
        <path stroke="#498C89" stroke-width=".225" d="M1197.587 98.078s.564 1.787 2.07 2.538m-23.998-10.058L1172.552 93l-4.798-10.81m12.422 23.784l-.422-5.5 5.034-10.199 3.01 2.022 5.177-10.858m-41.597 34.404s-1.318-.657-2.73-.188"/>
        <path fill="#89CDCD" d="M1142.825 124.66c.865.774 2.16.818 3.075.103l7.418-5.786c.693-.54.757-1.566.135-2.188-.781-.781-2.053-1.626-2.923-.945l-8.611 6.627c-.705.988.287 1.636.906 2.19"/>
        <path fill="#F2BEC7" d="M1152.083 118.171c.071 0 15.105 8.014 15.105 8.014l-2.446 4.136-19.928-5.946s1.976-4.23 7.269-6.204"/>
        <path fill="#F2BEC7" d="M1166.954 126.091s4.187-1.786 5.694-3.477c1.505-1.693 1.317.94-.566 3.759l3.166-.79a5.177 5.177 0 0 0 3.205-2.394l.782-1.329s2.387-2.753-.188 2.82c-2.259 4.889-5.297 5.011-7.717 5.641-3.435.894-6.588 0-6.588 0l2.212-4.23M1327.858 50.88c-5.176 9.48-5.176 23.65 3.497 23.126 3.647.068 5.64.59 10.301-2.368 1.066-.677 4.424-3.07 5.628-3.856l5.113-4.465-4.199-17.246s-16.417 1.356-20.34 4.808M1358.05 94.694l31.694 14.99-.476 3.318s-24.2-1.827-27.647-3.738c0 0-13.748-7.379-13.172-7.379.577 0 9.6-7.191 9.6-7.191"/>
        <path fill="#342E59" d="M1343.474 67.274s2.732-4.473 4.399-3.728c4.373 1.95-5.264 7.403-5.264 7.403s4.637-.226 9.512-5.16c4.75-4.811 9.6-20.376-5.577-26.439-5.853-2.34-18.285 2.252-19.112 11.656-.176 2.114 10.665 4.018 17.07 1.856.4.823-.953 7.599-1.241 8.828a18.06 18.06 0 0 0-.477 4.493c.013.261.025.535.163.756"/>
        <path fill="#342E59" d="M1348.825 67.739c2.394-.739 5.113-1.017 7.294.194 1.379.77 2.369 2.053 3.271 3.327.902 1.275 1.78 2.605 3.046 3.551 1.253.947 3.007 1.445 4.474.829.514 1.333.1 2.902-.827 4.01-.915 1.109-2.281 1.806-3.685 2.215-4.6 1.337-9.964-.402-12.808-4.15a9.569 9.569 0 0 1-1.14-1.922c-.465-1.094-.665-2.277-.866-3.448-.15-.894-.3-1.811-.1-2.697.188-.885.802-1.745 1.705-1.972"/>
        <path fill="#F2BEC7" d="M1304.31 77.867c-10.253-2.82-33.5-13.065-33.5-13.065l-1.53 3.581 16.92 14.89s17.921 10.434 31.895 5.358c15.29-5.552-13.598-10.714-13.786-10.764"/>
        <path fill="#F2BEC7" d="M1342.81 84.635c-3.397-1.034-4.638-4.556-3.973-6.834 1.052-3.66 3.108-8.565 4.223-8.884 1.792-.507-14.65 3.638-14.65 3.638s-.176 5.038-1.705 6.817c0 0-6.053 1.01-8.046.798-1.993-.211.714 13.114.714 13.114l14.814.846 6.78-5.78 1.266-1.834.576-1.88"/>
        <path fill="#E36985" d="M1321.04 82.453c-.501 7.728 4.612 8.383 5.515 8.459 9.01.785 14.838-7.217 14.838-7.217s5.953 2.688 9.838 4.955l9.826 5.564s-4.199 13.56-10.515 12.032l-9.249-5.818 1.792.283s1.316 10.058-4.424 11.185c0 0 2.356 10.152 4.148 15.792-1.34 2.03-17.683 5.26-20.516 4.889-4.223-.551-14.011-6.228-14.011-6.228s3.434-13.184 4.035-15.957c-6.216-5.076-.15-11.924 1.88-14.477.677-.857-.564 1.505-.564 1.505s-10.728-2.445-14.688-3.948c-3.572-7.897 3.409-16.615 3.409-16.615l8.41 2.114c4.16.741 7.62.186 10.577.918l-.3 2.564"/>
        <path fill="#5F5B90" d="M1317.907 143.312c1.053.453 2.13.81 3.196 1.124 1.065.296 2.155.525 3.233.599a10.11 10.11 0 0 0 3.221-.312c1.065-.282 2.018-.844 2.97-1.483-.714.875-1.616 1.694-2.744 2.115-1.103.443-2.319.6-3.497.537a11.723 11.723 0 0 1-6.379-2.58"/>
        <path fill="#C25370" d="M1338.724 111.97c-.176.325-.451.53-.74.696-.288.164-.601.231-.915.308-.325-.003-.651.028-.977-.064a1.996 1.996 0 0 1-.877-.46v-.056c.589.089 1.19.096 1.78.013.576-.07 1.165-.218 1.691-.486l.038.05"/>
        <path stroke="#C25370" stroke-width=".458" d="M1313.157 97.325s.727-1.492 1.153-2.639"/>
        <path fill="#F2BEC7" d="M1270.81 64.802s-1.43-13.178-5.164-14.133c-3.722-.955-1.767 10.504-1.767 10.504s-1.868-2.578-3.973-2.435c-1.867.13 1.441 3.057 2.344 4.298.914 1.241 2.393 3.58 4.787 4.44 2.381.86 2.77 1.241 2.77 1.241l1.002-3.915"/>
        <g transform="translate(1263.29 50.072)">
            <mask id="D" fill="#fff">
                <use xlink:href="#C"/>
            </mask>
            <path stroke="#DE8E94" stroke-width=".232" d="M.35 1.707c.427 2.11.966 4.51 1.254 6.74M1.354.651c.601 2.048 1.29 5.303 1.641 7.41M2.37.606c.614 1.829 1.353 5.198 1.667 7.138m-.54-6.547c.301.727.44 1.353.627 1.958.414 1.283.815 3.013 1.053 4.346" mask="url(#D)"/>
        </g>
        <path fill="#F2BEC7" d="M1387.375 110.506a89.459 89.459 0 0 1 3.572-7.388.43.43 0 0 1 .176-.214c.175-.099.388.056.514.225 1.002 1.414-.727 3.395-.201 5.044 2.72-1.611 4.148-3.455 7.532-4.887.827-.348 1.98-.57 2.87-.49.401.034.84.1 1.103.41.213.266.238.644.188.986-.25 1.8-1.93 2.956-3.258 4.2-1.329 1.244-2.62 2.385-4.074 3.377-1.453.993-3.17 1.723-4.937 1.63-1.755-.092-2.958-1.179-3.51-2.855"/>
        <g transform="translate(1396.136 102.647)">
            <mask id="F" fill="#fff">
                <use xlink:href="#E"/>
            </mask>
            <path stroke="#DE8E94" stroke-width=".232" d="M6.066-.901C4.336.384 2.394 1.89.5 3.103m6.956-3.54C5.853.98 3.196 2.978 1.44 4.19M7.921.457C6.53 1.795 3.785 3.889 2.168 4.998m4.199-1.865c-.99.915-2.394 2.01-3.497 2.796" mask="url(#F)"/>
        </g>
        <path fill="#342E59" d="M1338.987 56.84s2.757.17 3.785 1.89M1332.006 54.43s-2.494-.689-4.223.946"/>
        <path stroke="#DE8E94" stroke-width=".206" d="M1333.41 59.353a80.364 80.364 0 0 0-1.993 3.346.85.85 0 0 0-.113.299c-.012.308.376.468.677.487.314.02.677.01.865.254"/>
        <path fill="#DE8E94" d="M1331.392 67.169c2.118.513 4.462-.045 6.116-1.456a4.131 4.131 0 0 1-2.67 2.273 4.134 4.134 0 0 1-3.446-.64M1328.785 73.61c.878.068 1.717.152 2.557.202.827.048 1.654.11 2.481.068.828.031 1.642-.079 2.457-.177.827-.11 1.617-.33 2.456-.56l.038.048c-1.504.854-3.234 1.222-4.938 1.252a16.744 16.744 0 0 1-5.063-.78l.012-.052"/>
        <path stroke="#C25370" stroke-width=".458" d="M1326.003 91.592s-6.216 8.32-3.885 38.212"/>
        <path fill="#F9F8F8" d="M1325.1 91.615c0 .362-.275.654-.6.654-.34 0-.602-.292-.602-.654 0-.361.263-.656.601-.656.326 0 .602.295.602.656M1323.497 96.634c0 .362-.276.655-.602.655-.338 0-.602-.293-.602-.655 0-.36.264-.655.602-.655.326 0 .602.294.602.655M1322.469 101.18c0 .362-.263.655-.59.655-.337 0-.6-.293-.6-.655 0-.363.263-.654.6-.654.327 0 .59.291.59.654M1322.08 105.435c0 .362-.275.655-.601.655-.339 0-.602-.293-.602-.655 0-.362.263-.654.602-.654.326 0 .601.292.601.654M1321.717 109.982c0 .362-.276.653-.602.653-.338 0-.601-.291-.601-.653 0-.362.263-.656.601-.656.326 0 .602.294.602.656M1321.466 114.343c0 .362-.275.656-.601.656-.339 0-.602-.294-.602-.656 0-.362.263-.653.602-.653.326 0 .601.291.601.653M1321.454 117.536c0 .362-.276.655-.602.655-.338 0-.601-.293-.601-.655 0-.361.263-.654.601-.654.326 0 .602.293.602.654M1321.466 120.842c0 .362-.275.655-.601.655-.339 0-.602-.293-.602-.655 0-.361.263-.654.602-.654.326 0 .601.293.601.654"/>
        <path fill="#E7F4F4" d="M1181.128 100.687a.516.516 0 1 1-1.032 0 .516.516 0 0 1 1.032 0M1181.53 104.623a.519.519 0 1 1-1.038-.001.519.519 0 0 1 1.037 0"/>
        <path stroke="#582D7A" stroke-width="4.731" d="M310.511 164.87l11.013-8.462"/>
        <path fill="#2A2A2A" fill-opacity=".484" d="M0 0h1440v174H0z"/>
    </g>
</svg>
