<svg xmlns="http://www.w3.org/2000/svg" width="60" height="61" viewBox="0 0 60 61">
    <g fill="none" fill-rule="nonzero">
        <g fill="#C6C6C6">
            <path d="M24.151 36.089h2.005v18.91h-2.005zM34.844 36.089h2.005v18.91h-2.005zM51.886 51.457H46.54c-.554 0-1.003-.433-1.003-.966V36.088h2.005v13.437h4.344v1.932zM14.46 51.457H9.114v-1.932h4.344V36.088h2.005v14.403c0 .533-.45.966-1.003.966z"/>
        </g>
        <g fill="#898989" transform="translate(22 47)">
            <ellipse cx="3.382" cy="9.857" rx="3.282" ry="3.268"/>
            <ellipse cx="13.885" cy="9.857" rx="3.282" ry="3.268"/>
            <ellipse cx="31.608" cy="3.322" rx="3.282" ry="3.268"/>
        </g>
        <path fill="#EAEAEA" d="M52.38 17.723C52.29 7.92 44.248 0 34.341 0L34 .003 47.425 37h2.726C55.591 37 60 32.628 60 27.234c0-4.633-3.256-8.51-7.62-9.511z"/>
        <path fill="#898989" d="M49.501 17.721C49.428 8.031 42.727.181 34.414 0 27.874.124 22.2 3.824 19.232 9.244a7.502 7.502 0 0 0-2.995-.624c-3.835 0-7 2.886-7.485 6.624C3.762 16.244 0 20.686 0 26.016 0 32.084 4.871 37 10.88 37H47.6C52.24 37 56 32.628 56 27.233c0-4.633-2.776-8.51-6.499-9.512z"/>
        <circle cx="6" cy="50" r="3" fill="#898989"/>
    </g>
</svg>
