<?xml version="1.0" encoding="UTF-8"?>
<svg width="98px" height="26px" viewBox="0 0 98 26" version="1.1" xmlns="http://www.w3.org/2000/svg" xmlns:xlink="http://www.w3.org/1999/xlink">
    <!-- Generator: Sketch 49 (51002) - http://www.bohemiancoding.com/sketch -->
    <title>Group 12 Copy</title>
    <desc>Created with Sketch.</desc>
    <defs>
        <polygon id="path-1" points="0.0975969009 0.130819192 82.9746835 0.130819192 82.9746835 25.5189873 0.0975969009 25.5189873"></polygon>
    </defs>
    <g id="Megamenu-About---Mobile" stroke="none" stroke-width="1" fill="none" fill-rule="evenodd">
        <g id="Group-12-Copy" transform="translate(-30.000000, -15.000000)">
            <g id="Group-28">
                <rect id="Rectangle-13" x="0" y="0" width="158" height="59"></rect>
            </g>
            <g id="Group-31" transform="translate(23.000000, 11.000000)">
                <g id="Group-26">
                    <rect id="Rectangle-Copy-2" x="0" y="0" width="112" height="36.8607595"></rect>
                </g>
                <g id="Page-1" transform="translate(7.088608, 4.253165)">
                    <g id="Group-3" transform="translate(14.848101, 0.000000)">
                        <mask id="mask-2" fill="white">
                            <use xlink:href="#path-1"></use>
                        </mask>
                        <g id="Clip-2"></g>
                        <path d="M80.8659972,16.1475747 L80.8659972,7.84244324 C80.8659972,7.66549122 80.7697706,7.57670959 80.5774681,7.57670959 L76.5344476,7.57670959 C74.9356414,7.57670959 74.1372172,8.43350577 74.1372172,10.148015 L74.1372172,16.2967157 C74.1372172,18.010308 74.9356414,18.867257 76.5344476,18.867257 L78.1803883,18.867257 C79.0465777,18.867257 79.7112787,18.6316266 80.1732866,18.1588377 C80.6345415,17.6852847 80.8659972,17.0164428 80.8659972,16.1483388 L80.8659972,16.1475747 Z M77.8051198,20.7587182 L76.3029919,20.7587182 C74.9738911,20.7587182 73.9301569,20.374711 73.16938,19.6059324 C72.408603,18.8371538 72.0286663,17.7636754 72.0286663,16.384886 L72.0286663,10.0592334 C72.0286663,8.68029118 72.408603,7.60528474 73.1702835,6.83727019 C73.9301569,6.06849159 74.974644,5.68448432 76.3029919,5.68448432 L82.5703664,5.68448432 C82.8393189,5.68448432 82.9746986,5.82247022 82.9746986,6.09783079 L82.9746986,20.3446077 C82.9746986,20.6213436 82.8393189,20.7587182 82.5703664,20.7587182 L81.2703293,20.7587182 C81.000624,20.7587182 80.8659972,20.6213436 80.8659972,20.3446077 L80.8659972,19.1918218 L80.7510976,19.1918218 C80.2695131,20.2367251 79.2875205,20.7587182 77.8051198,20.7587182 Z M51.0740199,20.7587182 L49.7628392,20.7587182 C49.4907244,20.7587182 49.3547423,20.6213436 49.3547423,20.3446077 L49.3547423,6.09783079 C49.3547423,5.82247022 49.4907244,5.68448432 49.7628392,5.68448432 L51.0740199,5.68448432 C51.3453817,5.68448432 51.4821168,5.82247022 51.4821168,6.09783079 L51.4821168,7.25061666 L51.5986729,7.25061666 C52.1421495,6.2064775 53.1718789,5.68448432 54.6869574,5.68448432 L55.7651766,5.68448432 C57.4743647,5.68448432 58.6587492,6.35409032 59.3195349,7.69406637 C59.6306523,7.0435614 60.120971,6.5467816 60.7909426,6.20174044 C61.4448012,5.86097791 62.1694367,5.68356747 62.9044629,5.68448432 L63.9247052,5.68448432 C65.245373,5.68448432 66.2741988,6.06849159 67.0129897,6.83727019 C67.7510277,7.60528474 68.120122,8.68029118 68.120122,10.0583165 L68.120122,20.3446077 C68.120122,20.6213436 67.9841399,20.7587182 67.7120251,20.7587182 L66.4008444,20.7587182 C66.1287296,20.7587182 65.9925969,20.6213436 65.9925969,20.3446077 L65.9925969,10.1472509 C65.9925969,8.43350577 65.177156,7.57670959 63.5453708,7.57670959 L62.5838584,7.57670959 C61.7096877,7.57670959 61.0350478,7.82731521 60.558734,8.33036016 C60.0825707,8.83187703 59.8449409,9.51722228 59.8449409,10.3836454 L59.8449409,20.3446077 C59.8449409,20.6213436 59.7089588,20.7587182 59.4366934,20.7587182 L58.1256632,20.7587182 C57.8535485,20.7587182 57.7183193,20.6213436 57.7183193,20.3446077 L57.7183193,10.1472509 C57.7183193,8.43350577 56.9019749,7.57670959 55.2710932,7.57670959 L54.1921211,7.57670959 C53.3179505,7.57670959 52.6478282,7.81234 52.1819051,8.2851289 C51.7159819,8.75883465 51.4830203,9.42844066 51.4830203,10.2956278 L51.4830203,20.3446077 C51.4830203,20.6213436 51.3461347,20.7587182 51.0747728,20.7587182 L51.0740199,20.7587182 Z M43.3367436,15.5413842 L43.3367436,7.88538237 C43.3367436,7.70369329 43.2406676,7.61399482 43.0482145,7.61399482 L39.0342577,7.61399482 C37.4166279,7.61399482 36.6081141,8.4874471 36.6081141,10.2360326 L36.6081141,15.692206 C36.6081141,17.4407915 37.4166279,18.3143965 39.0342577,18.3143965 L40.6509841,18.3143965 C41.5173241,18.3143965 42.1818745,18.0731122 42.644033,17.5906964 C43.1061914,17.1091974 43.3367436,16.4259915 43.3367436,15.5413842 Z M40.2757156,20.2429902 L38.6580858,20.2429902 C37.3485615,20.2429902 36.3281687,19.8518009 35.5972084,19.0688112 C34.8644411,18.2833765 34.4994127,17.1885049 34.4994127,15.7817517 L34.4994127,10.144806 C34.4994127,8.73820553 34.8793494,7.64256997 35.6410299,6.85942739 C36.4001504,6.07643763 37.4446375,5.68448432 38.773136,5.68448432 L45.0405105,5.68448432 C45.3102158,5.68448432 45.4446921,5.82491515 45.4446921,6.10654086 L45.4446921,21.0577641 C45.4446921,22.4446523 45.0647553,23.5340227 44.3030749,24.3281675 C43.5432014,25.1215482 42.4987143,25.5190026 41.1702158,25.5190026 L35.8559208,25.5190026 C35.5666388,25.5190026 35.4226755,25.3785718 35.4226755,25.0967933 L35.4226755,23.9814454 C35.4226755,23.6998197 35.5673918,23.5601529 35.8559208,23.5601529 L40.9106,23.5601529 C42.5283804,23.5601529 43.3367436,22.6954107 43.3367436,20.9673016 L43.3367436,18.6459906 L43.221844,18.6459906 C42.7214358,19.7113701 41.7386903,20.243907 40.2757156,20.243907 L40.2757156,20.2429902 Z M29.808256,20.3468998 L29.808256,6.18432029 C29.808256,5.91064061 29.9474005,5.77326594 30.2256894,5.77326594 L31.7034219,5.77326594 C32.0036969,5.77326594 32.1538344,5.91064061 32.1538344,6.18432029 L32.1538344,20.3476639 C32.1538344,20.6230245 32.0036969,20.7594823 31.7043254,20.7594823 L30.2577649,20.7594823 C29.95749,20.7594823 29.808256,20.6230245 29.808256,20.3476639 L29.808256,20.3468998 Z M29.808256,3.30434212 L29.808256,0.542484772 C29.808256,0.268041052 29.9474005,0.130819192 30.2256894,0.130819192 L31.7034219,0.130819192 C32.0036969,0.130819192 32.1538344,0.268041052 32.1538344,0.542484772 L32.1538344,3.30357808 C32.1538344,3.57893865 32.0036969,3.7160077 31.7043254,3.7160077 L30.226593,3.7160077 C29.9474005,3.7160077 29.808256,3.57893865 29.808256,3.30357808 L29.808256,3.30434212 Z M16.6574463,20.7587182 L15.357108,20.7587182 C15.0874027,20.7587182 14.9529265,20.6213436 14.9529265,20.3446077 L14.9529265,6.09783079 C14.9529265,5.82247022 15.0874027,5.68448432 15.357108,5.68448432 L16.6574463,5.68448432 C16.9262481,5.68448432 17.0616279,5.82247022 17.0616279,6.09783079 L17.0616279,7.25061666 L17.1765275,7.25061666 C17.658112,6.2064775 18.6401045,5.68448432 20.1225052,5.68448432 L21.7402857,5.68448432 C23.049057,5.68448432 24.0694498,6.06849159 24.801163,6.83727019 C25.5330268,7.60528474 25.8989588,8.68029118 25.8989588,10.0583165 L25.8989588,20.3446077 C25.8989588,20.6213436 25.7637296,20.7587182 25.4947772,20.7587182 L24.1944389,20.7587182 C23.9247335,20.7587182 23.7902573,20.6213436 23.7902573,20.3446077 L23.7902573,10.1472509 C23.7902573,8.43350577 22.9818942,7.57670959 21.3648667,7.57670959 L19.7472368,7.57670959 C18.8808968,7.57670959 18.2163464,7.81234 17.7543385,8.2851289 C17.292933,8.75883465 17.0616279,9.42844066 17.0616279,10.2956278 L17.0616279,20.3446077 C17.0616279,20.6213436 16.9262481,20.7587182 16.6574463,20.7587182 Z M2.46666718,12.6899812 L8.70512855,12.6899812 C8.89743103,12.6899812 8.99441052,12.5908086 8.99441052,12.3941443 L8.99441052,10.1179117 C8.99441052,8.42326761 8.18514382,7.57594555 6.56826691,7.57594555 L4.60428175,7.57594555 C2.98650131,7.57594555 2.17813815,8.42326761 2.17813815,10.1179117 L2.17813815,12.3941443 C2.17813815,12.5908086 2.2742141,12.6892171 2.46742012,12.6892171 L2.46666718,12.6899812 Z M10.4947313,20.7587182 L4.37207311,20.7587182 C3.04357464,20.7587182 1.99908752,20.374711 1.23831056,19.6059324 C0.47753361,18.8379178 0.0975969009,17.7636754 0.0975969009,16.384886 L0.0975969009,10.0592334 C0.0975969009,8.68029118 0.47753361,7.60528474 1.23906351,6.83727019 C1.99818398,6.06849159 3.04282169,5.68448432 4.37116958,5.68448432 L6.79731318,5.68448432 C8.1265646,5.68448432 9.16638346,6.06849159 9.91692034,6.83727019 C10.6676078,7.60528474 11.0428763,8.68029118 11.0428763,10.0583165 L11.0428763,13.8126638 C11.0428763,14.1085007 10.9076471,14.2561135 10.6385441,14.2561135 L2.46576364,14.2561135 C2.27346115,14.2561135 2.17663226,14.3450479 2.17663226,14.5218472 L2.17663226,16.3252908 C2.17663226,18.039036 2.98574836,18.8965962 4.60337822,18.8965962 L10.4947313,18.8965962 C10.7644367,18.8965962 10.8989129,19.0347349 10.8989129,19.3107067 L10.8989129,20.3739469 C10.8989129,20.6309705 10.7644367,20.7587182 10.4947313,20.7587182 Z" id="Fill-1" fill="#FFFFFF" mask="url(#mask-2)"></path>
                    </g>
                    <path d="M7.78351055,5.86131449 L2.41165299,5.86131449 L2.41165299,5.85411779 C2.41165299,5.5373069 2.14747844,5.27979048 1.8216169,5.27979048 L0.590807175,5.27979048 C0.264174547,5.27979048 0,5.5373069 0,5.85411779 L0,7.05127186 C0,7.36808275 0.264174547,7.62559917 0.590807175,7.62559917 L1.8216169,7.62559917 C2.14747844,7.62559917 2.41165299,7.36902145 2.41165299,7.05127186 L2.41165299,7.04407517 L7.78428164,7.04407517 C8.1190878,7.04407517 8.39205274,7.30957052 8.39205274,7.63623776 L8.39205274,13.4830806 C8.39205274,13.8095914 8.11985888,14.0752432 7.78351055,14.0752432 L4.82423128,14.0752432 L4.82423128,14.0678901 C4.82423128,13.7510792 4.55990252,13.4935628 4.23326989,13.4935628 L3.00261438,13.4935628 C2.67675284,13.4935628 2.41165299,13.7502969 2.41165299,14.0678901 L2.41165299,15.2652006 C2.41165299,15.5820115 2.67582754,15.8393715 3.00261438,15.8393715 L4.23326989,15.8393715 C4.55990252,15.8393715 4.82423128,15.5820115 4.82423128,15.2652006 L4.82423128,15.2580039 L7.78273947,15.2580039 C8.78916276,15.2580039 9.60759494,14.4618307 9.60759494,13.4830806 L9.60759494,7.63623776 C9.60759494,6.6573312 8.78916276,5.86131449 7.78273947,5.86131449 L7.78351055,5.86131449 Z" id="Fill-4" fill="#F38082"></path>
                    <path d="M9.01666865,19.6484364 L7.78611359,19.6484364 C7.45796557,19.6509575 7.19381258,19.9087015 7.19597145,20.2244305 L7.19597145,20.2312523 L1.8237813,20.2312523 C1.48607258,20.2282863 1.21436355,19.9632756 1.21621401,19.6385004 L1.21621401,12.0403909 C1.21621401,11.713836 1.48838565,11.4474906 1.82455232,11.4474906 L4.78374427,11.4474906 L4.78374427,11.4550539 C4.78374427,11.7724142 5.04789726,12.0303065 5.37465743,12.0303065 L6.6052125,12.0303065 C6.93366892,12.0282303 7.19828452,11.770338 7.19597145,11.4544607 L7.19597145,10.25561 C7.19828452,9.93958439 6.93382313,9.68169208 6.6052125,9.67961589 L5.37465743,9.67961589 C5.0460468,9.68169208 4.7815854,9.93958439 4.78374427,10.2554617 L4.78374427,10.25561 L4.78374427,10.2624317 L1.82547755,10.2624317 C0.818211176,10.2624317 0,11.0601331 0,12.0403909 L0,19.6385004 C0,20.6186098 0.818211176,21.4170527 1.82455232,21.4170527 L7.19597145,21.4170527 L7.19597145,21.4231329 C7.19597145,21.7410864 7.46027864,21.999127 7.78611359,21.999127 L9.01666865,21.999127 C9.34512508,21.9970508 9.60974068,21.7391585 9.60758181,21.4232812 L9.60758181,21.4231329 L9.60758181,20.2244305 C9.60974068,19.9084049 9.34527929,19.6505126 9.01666865,19.6484364 Z" id="Fill-6" fill="#F38082"></path>
                </g>
            </g>
        </g>
    </g>
</svg>