<svg xmlns="http://www.w3.org/2000/svg" width="50" height="58" viewBox="0 0 50 58">
    <g fill="#898989" fill-rule="nonzero">
        <path d="M27.607 33.033a82.125 82.125 0 0 1-5.22 0c-7.341-.2-13.191-1.23-17.403-2.697C3.004 29.673 1.309 28.892 0 28v9.331C2.846 40.281 12.394 43 25 43s22.154-2.72 25-5.669V28c-1.318.898-3.028 1.685-5.025 2.35-4.21 1.46-10.048 2.484-17.368 2.683z"/>
        <path d="M0 14v9.331c2.638 2.734 11.033 5.27 22.286 5.626.115.004.233.005.349.008a79.603 79.603 0 0 0 3.748.024c.33-.005.656-.014.982-.023l.349-.008c11.253-.356 19.648-2.893 22.286-5.626V14c-4.867 3.318-15.156 5.073-25 5.073S4.868 17.318 0 14z"/>
        <path d="M49.865 8.542C48.743 4.241 40.115 0 25 0 9.923 0 1.304 4.22.147 8.51A.97.97 0 0 0 0 9v2.306C2.837 14.267 12.317 17 25 17s22.164-2.733 25-5.694V9a.92.92 0 0 0-.135-.458zM0 41v8.105c0 .16.043.311.117.446C1.298 54.389 11.864 58 25 58c13.106 0 23.655-3.596 24.875-8.416a.973.973 0 0 0 .125-.479v-8.103c-4.135 2.877-12.655 5.138-25 5.138-12.346 0-20.866-2.263-25-5.14z"/>
    </g>
</svg>
