<svg xmlns="http://www.w3.org/2000/svg" width="20" height="20" viewBox="0 0 20 20">
    <path fill="#393939" fill-rule="nonzero" d="M10 0C4.486 0 0 4.486 0 10s4.486 10 10 10 10-4.486 10-10S15.514 0 10 0zm4.875 8.24c.004.098.007.197.007.296 0 3.003-2.27 6.464-6.422 6.464A6.353 6.353 0 0 1 5 13.98a4.541 4.541 0 0 0 3.342-.941 2.261 2.261 0 0 1-2.109-1.578 2.26 2.26 0 0 0 1.02-.039 2.269 2.269 0 0 1-1.811-2.228v-.028c.305.17.653.272 1.022.284a2.275 2.275 0 0 1-1.003-1.891c0-.417.11-.808.305-1.143a6.394 6.394 0 0 0 4.652 2.375 2.284 2.284 0 0 1-.058-.519A2.265 2.265 0 0 1 12.616 6c.65 0 1.235.276 1.648.717.514-.101.996-.29 1.433-.551a2.28 2.28 0 0 1-.993 1.257A4.463 4.463 0 0 0 16 7.066a4.557 4.557 0 0 1-1.125 1.175z"/>
</svg>
